<svg width="600" height="430" viewBox="0 0 600 430" fill="none" xmlns="http://www.w3.org/2000/svg">
    <path
        d="M312.869 430C388.332 430 449.507 426.499 449.507 422.18C449.507 417.862 388.332 414.361 312.869 414.361C237.406 414.361 176.23 417.862 176.23 422.18C176.23 426.499 237.406 430 312.869 430Z"
        fill="#F5F5F5" />
    <path d="M420.058 208.621H205.668V420.163H420.058V208.621Z" fill="#6CBAB1" />
    <path
        d="M363.594 230.035H262.143C260.882 230.035 259.859 231.037 259.859 232.273V251.511C259.859 252.747 260.882 253.749 262.143 253.749H363.594C364.855 253.749 365.878 252.747 365.878 251.511V232.273C365.878 231.037 364.855 230.035 363.594 230.035Z"
        fill="white" />
    <path
        d="M360.589 233.109H265.135C264.508 233.109 264 233.607 264 234.221V249.57C264 250.184 264.508 250.682 265.135 250.682H360.589C361.216 250.682 361.724 250.184 361.724 249.57V234.221C361.724 233.607 361.216 233.109 360.589 233.109Z"
        fill="#2CA89A" />
    <path
        d="M268.637 245.274L274.274 244.928C274.319 245.668 274.562 246.383 274.979 247.001C275.292 247.38 275.692 247.681 276.146 247.879C276.601 248.077 277.097 248.167 277.594 248.14C278.297 248.185 278.993 247.979 279.553 247.56C279.77 247.398 279.947 247.189 280.069 246.949C280.191 246.71 280.255 246.446 280.258 246.178C280.253 245.928 280.193 245.681 280.081 245.455C279.969 245.23 279.808 245.031 279.609 244.873C279.172 244.486 278.158 244.12 276.572 243.782C273.971 243.208 272.125 242.448 271.012 241.502C270.474 241.057 270.044 240.5 269.755 239.871C269.466 239.243 269.325 238.558 269.341 237.868C269.339 236.885 269.636 235.923 270.194 235.105C270.832 234.197 271.729 233.493 272.773 233.081C274.279 232.53 275.882 232.278 277.488 232.342C279.933 232.342 281.808 232.791 283.126 233.682C283.797 234.191 284.35 234.834 284.746 235.569C285.142 236.304 285.373 237.114 285.423 237.944L279.835 238.269C279.819 237.919 279.729 237.575 279.572 237.26C279.415 236.945 279.193 236.665 278.921 236.438C278.648 236.211 278.331 236.041 277.989 235.938C277.647 235.836 277.287 235.804 276.931 235.845C276.379 235.806 275.831 235.958 275.381 236.273C275.217 236.395 275.084 236.553 274.993 236.734C274.901 236.915 274.853 237.114 274.852 237.316C274.857 237.474 274.899 237.63 274.975 237.77C275.051 237.91 275.158 238.031 275.289 238.124C275.891 238.497 276.57 238.733 277.277 238.815C279.19 239.152 281.056 239.709 282.837 240.473C283.835 240.923 284.683 241.642 285.282 242.545C285.791 243.38 286.057 244.336 286.05 245.308C286.054 246.493 285.698 247.651 285.029 248.638C284.333 249.67 283.339 250.476 282.174 250.952C280.709 251.521 279.141 251.789 277.566 251.739C274.305 251.739 272.045 251.124 270.786 249.895C269.525 248.659 268.762 247.018 268.637 245.274Z"
        fill="white" />
    <path
        d="M291.445 232.701H297.365V239.278H303.834V232.701H309.789V251.49H303.834V243.892H297.365V251.49H291.445V232.701Z"
        fill="white" />
    <path
        d="M315.388 242.11C315.388 239.043 316.26 236.655 318.003 234.946C319.746 233.238 322.175 232.381 325.289 232.377C328.484 232.377 330.941 233.217 332.661 234.898C334.38 236.579 335.245 238.932 335.254 241.958C335.325 243.822 334.936 245.675 334.12 247.36C333.383 248.745 332.246 249.887 330.85 250.641C329.214 251.466 327.389 251.868 325.55 251.808C323.708 251.873 321.874 251.528 320.187 250.8C318.738 250.092 317.538 248.976 316.741 247.594C315.795 245.919 315.327 244.024 315.388 242.11ZM321.315 242.11C321.315 244.002 321.674 245.363 322.393 246.192C322.774 246.581 323.232 246.89 323.738 247.101C324.244 247.312 324.789 247.421 325.339 247.421C325.889 247.421 326.433 247.312 326.939 247.101C327.446 246.89 327.903 246.581 328.284 246.192C328.985 245.382 329.332 243.924 329.327 241.82C329.327 240.051 328.968 238.759 328.235 237.944C327.866 237.537 327.409 237.216 326.896 237.005C326.384 236.793 325.83 236.696 325.275 236.722C324.731 236.702 324.19 236.804 323.692 237.02C323.194 237.235 322.752 237.558 322.4 237.965C321.674 238.849 321.322 240.217 321.322 242.137L321.315 242.11Z"
        fill="white" />
    <path
        d="M340.832 232.701H350.698C352.84 232.701 354.447 233.201 355.518 234.2C356.073 234.764 356.501 235.435 356.776 236.17C357.052 236.905 357.168 237.688 357.118 238.469C357.164 239.29 357.033 240.111 356.731 240.877C356.43 241.644 355.966 242.34 355.37 242.918C354.208 243.982 352.432 244.521 350.043 244.521H346.801V251.49H340.853L340.832 232.701ZM346.78 240.714H348.232C349.077 240.793 349.925 240.586 350.635 240.127C350.861 239.948 351.042 239.72 351.164 239.461C351.286 239.203 351.346 238.92 351.339 238.635C351.346 238.358 351.295 238.083 351.191 237.826C351.087 237.568 350.931 237.334 350.733 237.136C350.339 236.722 349.585 236.521 348.471 236.521H346.787L346.78 240.714Z"
        fill="white" />
    <path opacity="0.5"
        d="M222.028 260.961H403.705C404.744 260.961 405.741 261.366 406.475 262.086C407.21 262.806 407.623 263.783 407.623 264.802V420.157H218.109V264.809C218.108 264.304 218.209 263.804 218.406 263.337C218.602 262.87 218.891 262.446 219.255 262.088C219.618 261.731 220.051 261.448 220.527 261.254C221.002 261.061 221.512 260.961 222.028 260.961Z"
        fill="white" />
    <path opacity="0.4"
        d="M427.037 278.99V291.106L402.069 294.014L378.89 296.722L360.356 298.877L343.626 300.825L341.836 296.19L339.919 291.238L339.673 298.684L339.588 301.295L337.171 301.578L318.637 303.74L295.458 306.441L276.917 308.597L253.739 311.298L235.198 313.46L212.019 316.161L198.707 317.708V305.599L223.675 302.691L246.854 299.99L265.381 297.827L281.646 295.935L288.573 295.133L307.107 292.971V292.964L330.286 290.27L348.827 288.101L372.005 285.4L390.546 283.245L413.725 280.544L427.037 278.99Z"
        fill="#2CA89A" />
    <path opacity="0.4" d="M427.037 392.063L198.707 340.13V328.021L427.037 379.947V392.063Z"
        fill="#2CA89A" />
    <path
        d="M205.664 420.163H198.025C197.186 420.163 196.381 419.837 195.787 419.255C195.194 418.673 194.861 417.884 194.861 417.062L194.861 208.621H205.664L205.664 420.163Z"
        fill="#2B2A29" />
    <path
        d="M427.707 420.163H420.068V208.621H430.871V417.055C430.872 417.463 430.791 417.867 430.632 418.244C430.474 418.621 430.241 418.964 429.947 419.252C429.653 419.541 429.304 419.77 428.919 419.927C428.535 420.083 428.123 420.163 427.707 420.163Z"
        fill="#2B2A29" />
    <path opacity="0.3" d="M362.066 260.961H337.782L295.59 420.163H319.868L362.066 260.961Z"
        fill="white" />
    <path opacity="0.3" d="M379.946 260.961H369.593L327.395 420.163H337.754L379.946 260.961Z"
        fill="white" />
    <path opacity="0.3" d="M294.57 260.961H284.21L242.012 420.163H252.371L294.57 260.961Z"
        fill="white" />
    <path d="M316.629 258.543H309.109V420.163H316.629V258.543Z" fill="#2CA89A" />
    <path
        d="M445.199 214.928L415.6 176.555H210.139L180.541 214.928C177.158 219.874 178.666 224.074 184.064 224.074C189.462 224.074 196.305 219.874 199.209 214.928H199.462C196.566 219.874 198.483 224.074 203.881 224.074C209.279 224.074 215.713 219.874 218.13 214.928H218.384C215.974 219.874 218.3 224.074 223.698 224.074C229.096 224.074 235.114 219.874 237.087 214.928H237.341C235.41 219.874 238.152 224.074 243.55 224.074C248.948 224.074 254.558 219.874 256.016 214.928H256.263C254.818 219.874 257.968 224.074 263.367 224.074C268.765 224.074 273.937 219.874 274.938 214.928H275.192C274.226 219.874 277.785 224.074 283.183 224.074C288.581 224.074 293.374 219.874 293.86 214.928H294.114C293.634 219.874 297.602 224.074 303 224.074C308.398 224.074 312.782 219.874 312.782 214.928H313.035C313.035 219.874 317.419 224.074 322.817 224.074C328.215 224.074 332.183 219.874 331.703 214.928H331.894C332.38 219.874 337.172 224.074 342.57 224.074C347.968 224.074 351.527 219.874 350.562 214.928H350.815C351.788 219.874 356.989 224.074 362.387 224.074C367.785 224.074 370.935 219.874 369.491 214.928H369.737C371.196 219.874 376.784 224.074 382.204 224.074C387.623 224.074 390.343 219.874 388.412 214.928H388.666C390.604 219.874 396.622 224.074 402.056 224.074C407.489 224.074 409.808 219.874 407.369 214.928H407.623C410.04 219.874 416.474 224.074 421.873 224.074C427.271 224.074 429.188 219.874 426.291 214.928H426.545C429.448 219.874 436.291 224.074 441.689 224.074C447.087 224.074 448.581 219.874 445.199 214.928Z"
        fill="#2CA89A" />
    <path opacity="0.8"
        d="M445.199 214.928L415.6 176.555H210.139L180.541 214.928C177.158 219.874 178.666 224.074 184.064 224.074C189.462 224.074 196.305 219.874 199.209 214.928H199.462C196.566 219.874 198.483 224.074 203.881 224.074C209.279 224.074 215.713 219.874 218.13 214.928H218.384C215.974 219.874 218.3 224.074 223.698 224.074C229.096 224.074 235.114 219.874 237.087 214.928H237.341C235.41 219.874 238.152 224.074 243.55 224.074C248.948 224.074 254.558 219.874 256.016 214.928H256.263C254.818 219.874 257.968 224.074 263.367 224.074C268.765 224.074 273.937 219.874 274.938 214.928H275.192C274.226 219.874 277.785 224.074 283.183 224.074C288.581 224.074 293.374 219.874 293.86 214.928H294.114C293.634 219.874 297.602 224.074 303 224.074C308.398 224.074 312.782 219.874 312.782 214.928H313.035C313.035 219.874 317.419 224.074 322.817 224.074C328.215 224.074 332.183 219.874 331.703 214.928H331.894C332.38 219.874 337.172 224.074 342.57 224.074C347.968 224.074 351.527 219.874 350.562 214.928H350.815C351.788 219.874 356.989 224.074 362.387 224.074C367.785 224.074 370.935 219.874 369.491 214.928H369.737C371.196 219.874 376.784 224.074 382.204 224.074C387.623 224.074 390.343 219.874 388.412 214.928H388.666C390.604 219.874 396.622 224.074 402.056 224.074C407.489 224.074 409.808 219.874 407.369 214.928H407.623C410.04 219.874 416.474 224.074 421.873 224.074C427.271 224.074 429.188 219.874 426.291 214.928H426.545C429.448 219.874 436.291 224.074 441.689 224.074C447.087 224.074 448.581 219.874 445.199 214.928Z"
        fill="white" />
    <g opacity="0.2">
        <path d="M210.141 176.555H224.637L199.203 214.928H180.535L210.141 176.555Z" fill="#2CA89A" />
        <path d="M239.517 176.555H254.013L237.043 214.928H218.375L239.517 176.555Z" fill="#2CA89A" />
        <path d="M268.897 176.555H283.386L274.894 214.928H256.219L268.897 176.555Z" fill="#2CA89A" />
        <path d="M298.278 176.555H312.767L312.738 214.928H294.07L298.278 176.555Z" fill="#2CA89A" />
        <path d="M327.652 176.555H342.148L350.584 214.928H331.916L327.652 176.555Z" fill="#2CA89A" />
        <path d="M357.035 176.555H371.531L388.438 214.928H369.769L357.035 176.555Z" fill="#2CA89A" />
        <path d="M386.41 176.555H400.899L426.276 214.928H407.608L386.41 176.555Z" fill="#2CA89A" />
        <path
            d="M407.605 214.928C410.023 219.874 416.457 224.074 421.855 224.074C427.253 224.074 429.17 219.874 426.274 214.928"
            fill="#2CA89A" />
        <path
            d="M369.754 214.928C371.213 219.874 376.801 224.074 382.22 224.074C387.64 224.074 390.36 219.874 388.429 214.928"
            fill="#2CA89A" />
        <path
            d="M331.895 214.928C332.381 219.874 337.173 224.074 342.571 224.074C347.969 224.074 351.528 219.874 350.563 214.928"
            fill="#2CA89A" />
        <path
            d="M294.074 214.928C293.595 219.874 297.563 224.074 302.961 224.074C308.359 224.074 312.742 219.874 312.742 214.928"
            fill="#2CA89A" />
        <path
            d="M256.225 214.928C254.781 219.874 257.931 224.074 263.329 224.074C268.727 224.074 273.9 219.874 274.901 214.928"
            fill="#2CA89A" />
        <path
            d="M218.375 214.928C215.965 219.874 218.291 224.074 223.689 224.074C229.087 224.074 235.105 219.874 237.078 214.928"
            fill="#2CA89A" />
        <path
            d="M180.533 214.928C177.15 219.874 178.658 224.074 184.056 224.074C189.455 224.074 196.297 219.874 199.201 214.928"
            fill="#2CA89A" />
    </g>
    <path d="M432.553 387.856L193.188 335.924V323.808L432.553 375.74V387.856Z" fill="#2CA89A" />
    <path opacity="0.4" d="M432.553 387.856L193.188 335.924V323.808L432.553 375.74V387.856Z"
        fill="white" />
    <g opacity="0.6">
        <path d="M231.443 344.22L207.145 338.949L219.357 329.486L243.656 334.756L231.443 344.22Z"
            fill="#2CA89A" />
        <path d="M275.171 353.711L250.879 348.44L263.092 338.977L287.391 344.247L275.171 353.711Z"
            fill="#2CA89A" />
        <path d="M318.908 363.195L294.609 357.925L306.829 348.461L331.128 353.732L318.908 363.195Z"
            fill="#2CA89A" />
        <path d="M362.639 372.686L338.34 367.416L350.553 357.952L374.851 363.223L362.639 372.686Z"
            fill="#2CA89A" />
        <path d="M406.373 382.171L382.074 376.9L394.287 367.437L418.586 372.707L406.373 382.171Z"
            fill="#2CA89A" />
    </g>
    <path
        d="M432.553 274.783V286.899L406.38 289.808L382.081 292.508L362.652 294.671L345.111 296.612L343.237 291.977L341.228 287.024L340.968 294.477L340.876 297.088L338.346 297.371L318.91 299.527L294.611 302.228L275.182 304.39L250.876 307.091L231.44 309.246L207.148 311.947L193.188 313.501V301.392L219.361 298.484L243.66 295.776L263.082 293.621L280.129 291.721L287.395 290.92L306.831 288.758L331.123 286.057L350.559 283.894L374.865 281.194L394.301 279.031L418.593 276.331L432.553 274.783Z"
        fill="#2CA89A" />
    <path opacity="0.4"
        d="M432.553 274.783V286.899L406.38 289.808L382.081 292.508L362.652 294.671L345.111 296.612L343.237 291.977L341.228 287.024L340.968 294.477L340.876 297.088L338.346 297.371L318.91 299.527L294.611 302.228L275.182 304.39L250.876 307.091L231.44 309.246L207.148 311.947L193.188 313.501V301.392L219.361 298.484L243.66 295.776L263.082 293.621L280.129 291.721L287.395 290.92L306.831 288.758L331.123 286.057L350.559 283.894L374.865 281.194L394.301 279.031L418.593 276.331L432.553 274.783Z"
        fill="white" />
    <g opacity="0.6">
        <path d="M231.436 309.246L207.137 311.954L219.357 298.477L243.655 295.776L231.436 309.246Z"
            fill="#2CA89A" />
        <path d="M275.17 304.39L250.871 307.09L263.091 293.62L287.39 290.919L275.17 304.39Z"
            fill="#2CA89A" />
        <path d="M318.908 299.527L294.609 302.228L306.829 288.757L331.128 286.057L318.908 299.527Z"
            fill="#2CA89A" />
        <path d="M338.34 297.371L340.961 294.477L340.87 297.088L338.34 297.371Z" fill="white" />
        <path
            d="M374.866 281.193L362.653 294.67L345.113 296.612L343.238 291.976L350.56 283.894L374.866 281.193Z"
            fill="#2CA89A" />
        <path d="M406.373 289.808L382.074 292.508L394.294 279.031L418.593 276.331L406.373 289.808Z"
            fill="#2CA89A" />
    </g>
    <path
        d="M242.004 345.201H277.91C279.133 345.222 280.306 345.682 281.206 346.494C282.106 347.307 282.671 348.415 282.793 349.608L288.671 415.452C288.734 416.013 288.674 416.581 288.496 417.118C288.318 417.655 288.025 418.148 287.637 418.565C287.249 418.982 286.774 419.313 286.245 419.536C285.716 419.76 285.145 419.87 284.569 419.859H248.671C247.452 419.83 246.286 419.367 245.391 418.556C244.496 417.744 243.933 416.641 243.808 415.452L237.931 349.608C237.868 349.049 237.927 348.484 238.103 347.949C238.28 347.414 238.57 346.922 238.955 346.506C239.34 346.089 239.811 345.757 240.337 345.532C240.862 345.307 241.431 345.194 242.004 345.201Z"
        fill="#2B2A29" />
    <path
        d="M282.255 401.574H286.483C286.745 401.578 286.996 401.676 287.19 401.849C287.383 402.022 287.505 402.259 287.533 402.514L289.577 425.475C289.591 425.595 289.579 425.716 289.541 425.831C289.503 425.945 289.441 426.051 289.358 426.14C289.275 426.229 289.174 426.3 289.061 426.347C288.948 426.394 288.826 426.417 288.703 426.415H284.474C284.213 426.412 283.961 426.315 283.769 426.141C283.576 425.968 283.456 425.731 283.431 425.475L281.381 402.514C281.367 402.394 281.379 402.273 281.417 402.158C281.454 402.044 281.517 401.938 281.599 401.849C281.682 401.76 281.784 401.69 281.897 401.642C282.01 401.595 282.132 401.572 282.255 401.574Z"
        fill="#2B2A29" />
    <path
        d="M243.526 401.575H247.755C248.015 401.58 248.265 401.678 248.457 401.851C248.649 402.024 248.77 402.26 248.798 402.514L250.856 425.468C250.869 425.588 250.855 425.71 250.817 425.824C250.778 425.939 250.715 426.044 250.632 426.133C250.548 426.222 250.447 426.293 250.333 426.34C250.22 426.387 250.098 426.41 249.975 426.408H245.746C245.485 426.404 245.235 426.306 245.042 426.133C244.85 425.96 244.729 425.723 244.703 425.468L242.653 402.507C242.641 402.388 242.654 402.268 242.693 402.155C242.732 402.041 242.794 401.937 242.877 401.849C242.959 401.761 243.06 401.691 243.172 401.644C243.284 401.597 243.405 401.573 243.526 401.575Z"
        fill="#2B2A29" />
    <path
        d="M275.566 345.201H239.668C238.444 345.221 237.27 345.682 236.368 346.494C235.467 347.306 234.901 348.414 234.777 349.608L228.899 415.452C228.836 416.013 228.896 416.581 229.074 417.118C229.252 417.655 229.545 418.148 229.933 418.565C230.322 418.982 230.796 419.313 231.325 419.536C231.854 419.759 232.425 419.87 233.001 419.859H268.899C270.124 419.838 271.297 419.378 272.199 418.566C273.1 417.754 273.666 416.646 273.79 415.452L279.668 349.608C279.731 349.047 279.671 348.479 279.493 347.942C279.315 347.405 279.022 346.912 278.634 346.495C278.246 346.078 277.771 345.747 277.242 345.524C276.713 345.3 276.142 345.19 275.566 345.201Z"
        fill="#2CA89A" />
    <path
        d="M235.352 401.574H231.124C230.863 401.578 230.612 401.676 230.42 401.849C230.227 402.023 230.107 402.259 230.081 402.514L228.002 425.468C227.988 425.588 228 425.709 228.038 425.824C228.075 425.939 228.138 426.044 228.221 426.133C228.303 426.222 228.405 426.293 228.518 426.34C228.631 426.387 228.753 426.411 228.876 426.408H233.104C233.365 426.404 233.616 426.306 233.808 426.133C234 425.96 234.121 425.723 234.147 425.468L236.191 402.507C236.203 402.391 236.191 402.273 236.155 402.162C236.119 402.05 236.06 401.947 235.981 401.86C235.902 401.772 235.805 401.701 235.697 401.652C235.589 401.603 235.471 401.577 235.352 401.574Z"
        fill="#2CA89A" />
    <path
        d="M274.047 401.575H269.819C269.557 401.578 269.306 401.676 269.112 401.849C268.919 402.022 268.796 402.259 268.769 402.514L266.732 425.468C266.718 425.588 266.73 425.709 266.768 425.824C266.806 425.939 266.868 426.044 266.951 426.133C267.034 426.222 267.135 426.293 267.248 426.34C267.361 426.388 267.483 426.411 267.606 426.408H271.834C272.096 426.406 272.348 426.308 272.54 426.135C272.733 425.961 272.853 425.724 272.877 425.468L274.928 402.507C274.941 402.387 274.928 402.266 274.89 402.152C274.851 402.038 274.788 401.933 274.704 401.844C274.621 401.756 274.519 401.686 274.406 401.64C274.292 401.593 274.17 401.571 274.047 401.575Z"
        fill="#2CA89A" />
    <path
        d="M233.157 418.091C232.812 418.097 232.47 418.031 232.153 417.897C231.837 417.763 231.553 417.565 231.32 417.316C231.087 417.066 230.912 416.771 230.804 416.45C230.697 416.128 230.661 415.788 230.698 415.452L236.575 349.608C236.649 348.893 236.987 348.231 237.526 347.744C238.065 347.258 238.767 346.982 239.5 346.969H275.398C275.743 346.962 276.086 347.027 276.403 347.161C276.721 347.294 277.005 347.492 277.238 347.742C277.471 347.992 277.647 348.287 277.753 348.609C277.86 348.931 277.896 349.271 277.858 349.608L271.994 415.452C271.919 416.166 271.58 416.828 271.041 417.314C270.503 417.8 269.802 418.076 269.07 418.091H233.157Z"
        fill="white" />
    <path
        d="M239.374 363.99L241.685 363.851C241.686 364.145 241.766 364.434 241.918 364.687C242.034 364.843 242.189 364.968 242.368 365.049C242.546 365.13 242.743 365.165 242.94 365.15C243.232 365.164 243.52 365.082 243.757 364.915C243.849 364.851 243.925 364.768 243.982 364.673C244.039 364.578 244.076 364.472 244.089 364.363C244.096 364.263 244.08 364.164 244.042 364.072C244.005 363.98 243.946 363.897 243.87 363.831C243.512 363.591 243.102 363.437 242.672 363.382C241.875 363.26 241.123 362.942 240.487 362.456C240.284 362.269 240.129 362.038 240.033 361.781C239.938 361.524 239.905 361.249 239.938 360.978C239.977 360.57 240.133 360.182 240.389 359.859C240.679 359.49 241.066 359.205 241.509 359.037C242.134 358.812 242.797 358.709 243.461 358.733C244.246 358.675 245.03 358.867 245.695 359.279C245.954 359.49 246.159 359.757 246.294 360.059C246.43 360.361 246.493 360.69 246.478 361.019L244.187 361.151C244.187 360.87 244.076 360.6 243.877 360.398C243.655 360.227 243.376 360.144 243.095 360.163C242.863 360.148 242.632 360.208 242.44 360.335C242.37 360.385 242.311 360.449 242.269 360.523C242.226 360.597 242.2 360.679 242.193 360.764C242.187 360.826 242.198 360.888 242.224 360.945C242.25 361.002 242.29 361.051 242.341 361.088C242.576 361.241 242.843 361.338 243.123 361.372C243.885 361.511 244.626 361.743 245.329 362.062C245.718 362.246 246.04 362.543 246.252 362.912C246.43 363.262 246.504 363.655 246.463 364.045C246.422 364.546 246.236 365.025 245.928 365.426C245.606 365.844 245.175 366.168 244.681 366.366C244.072 366.597 243.423 366.707 242.771 366.691C241.439 366.691 240.544 366.442 240.072 365.938C239.591 365.401 239.341 364.703 239.374 363.99Z"
        fill="#2CA89A" />
    <path
        d="M248.148 358.871H250.565L250.325 361.551H252.968L253.208 358.871H255.639L254.934 366.532H252.503L252.785 363.43H250.149L249.874 366.532H247.457L248.148 358.871Z"
        fill="#2CA89A" />
    <path
        d="M256.597 362.705C256.601 362.157 256.72 361.615 256.946 361.114C257.173 360.613 257.501 360.163 257.912 359.791C258.323 359.42 258.807 359.135 259.335 358.954C259.863 358.773 260.423 358.7 260.98 358.74C261.513 358.699 262.049 358.77 262.552 358.947C263.055 359.125 263.513 359.405 263.898 359.769C264.232 360.164 264.477 360.625 264.614 361.121C264.751 361.617 264.779 362.136 264.694 362.642C264.654 363.417 264.43 364.172 264.039 364.846C263.685 365.411 263.184 365.874 262.587 366.186C261.901 366.521 261.14 366.685 260.374 366.663C259.632 366.691 258.894 366.549 258.218 366.248C257.656 365.962 257.206 365.503 256.935 364.943C256.608 364.243 256.49 363.467 256.597 362.705ZM259.007 362.705C258.897 363.276 259 363.866 259.296 364.369C259.433 364.539 259.609 364.673 259.811 364.76C260.012 364.848 260.232 364.887 260.452 364.874C260.683 364.882 260.914 364.843 261.129 364.759C261.344 364.674 261.538 364.546 261.699 364.383C262.081 363.865 262.286 363.241 262.284 362.601C262.387 362.055 262.279 361.491 261.981 361.019C261.84 360.853 261.662 360.721 261.46 360.635C261.258 360.549 261.038 360.51 260.818 360.522C260.59 360.516 260.363 360.558 260.153 360.645C259.943 360.732 259.754 360.862 259.599 361.026C259.216 361.51 259.007 362.106 259.007 362.718V362.705Z"
        fill="#2CA89A" />
    <path
        d="M266.319 358.871H270.336C270.679 358.842 271.025 358.881 271.353 358.985C271.681 359.09 271.985 359.258 272.245 359.479C272.452 359.716 272.604 359.995 272.689 360.296C272.774 360.596 272.791 360.912 272.739 361.22C272.725 361.564 272.64 361.903 272.49 362.215C272.34 362.527 272.127 362.807 271.865 363.036C271.227 363.51 270.436 363.741 269.638 363.686H268.313L268.059 366.532H265.656L266.319 358.871ZM268.433 362.138H269.025C269.376 362.167 269.728 362.082 270.026 361.897C270.123 361.825 270.204 361.733 270.262 361.629C270.32 361.524 270.355 361.408 270.364 361.289C270.377 361.18 270.367 361.07 270.335 360.965C270.302 360.86 270.247 360.763 270.174 360.681C270.048 360.581 269.904 360.507 269.749 360.463C269.594 360.419 269.432 360.406 269.271 360.425H268.567L268.433 362.138Z"
        fill="#2CA89A" />
    <path
        d="M258.953 401.816L255.007 400.207C255.578 402.445 253.344 404.061 251.483 404.987C250.595 405.429 250.779 406.569 251.857 406.99L254.429 408.04C257.544 409.311 258.953 401.816 258.953 401.816Z"
        fill="#2CA89A" />
    <path
        d="M259.753 402.141L252.515 399.219C251.953 398.975 251.448 398.62 251.033 398.175C250.618 397.731 250.301 397.207 250.102 396.637C249.903 396.066 249.827 395.462 249.879 394.861C249.93 394.261 250.108 393.677 250.401 393.147C250.949 392.005 251.913 391.105 253.103 390.623C254.294 390.141 255.624 390.113 256.835 390.543L264.066 393.493C264.628 393.737 265.133 394.093 265.548 394.538C265.964 394.983 266.281 395.508 266.479 396.079C266.678 396.65 266.754 397.255 266.702 397.856C266.651 398.457 266.473 399.041 266.18 399.571C265.627 400.707 264.662 401.599 263.473 402.074C262.285 402.549 260.958 402.573 259.753 402.141Z"
        fill="#2CA89A" />
    <path opacity="0.3"
        d="M259.753 402.141L252.515 399.219C251.953 398.975 251.448 398.62 251.033 398.175C250.618 397.731 250.301 397.207 250.102 396.637C249.903 396.066 249.827 395.462 249.879 394.861C249.93 394.261 250.108 393.677 250.401 393.147C250.949 392.005 251.913 391.105 253.103 390.623C254.294 390.141 255.624 390.113 256.835 390.543L264.066 393.493C264.628 393.737 265.133 394.093 265.548 394.538C265.964 394.983 266.281 395.508 266.479 396.079C266.678 396.65 266.754 397.255 266.702 397.856C266.651 398.457 266.473 399.041 266.18 399.571C265.627 400.707 264.662 401.599 263.473 402.074C262.285 402.549 260.958 402.573 259.753 402.141Z"
        fill="#2B2A29" />
    <path
        d="M239.255 398.183L252.524 401.05C253.631 401.499 259.494 389.742 258.388 389.307L247.218 382.219C245.632 381.556 237.669 397.541 239.255 398.183Z"
        fill="#2CA89A" />
    <path d="M600 358.582H0V358.876H600V358.582Z" fill="#EBEBEB" />
    <path d="M539.879 377.508H513.863V377.802H539.879V377.508Z" fill="#EBEBEB" />
    <path d="M413.604 371.415H372.672V371.709H413.604V371.415Z" fill="#EBEBEB" />
    <path d="M529.342 366.593H475.906V366.887H529.342V366.593Z" fill="#EBEBEB" />
    <path d="M207.626 372.521H194.258V372.815H207.626V372.521Z" fill="#EBEBEB" />
    <path d="M183.564 372.521H137.496V372.815H183.564V372.521Z" fill="#EBEBEB" />
    <path d="M112.814 367.557H79.5742V367.851H112.814V367.557Z" fill="#EBEBEB" />
    <path
        d="M259.283 145.069L259.823 129.613L250.151 126.508C249.736 121.27 248.868 116.076 247.559 110.982L255.767 105.1L250.199 90.5855L240.047 91.3853C237.64 86.7088 234.83 82.2424 231.647 78.0349L236.903 69.4365L226.103 58.1328L217.031 62.6849C212.952 59.2668 208.593 56.1826 203.999 53.4631L205.463 43.5826L191.063 37.1838L184.463 44.7588C179.372 43.1623 174.154 41.9821 168.863 41.2301L166.463 31.5496L150.647 31.0203L147.527 40.5126C142.189 40.924 136.895 41.7699 131.699 43.0415L125.603 35.043L110.795 40.4655L111.611 50.4166C106.843 52.8118 102.287 55.5935 97.9914 58.7327L89.1594 53.4631L77.5794 64.0493L82.2234 72.9888C78.7354 76.9675 75.6038 81.2334 72.8634 85.7393L62.7954 84.2572L56.2194 98.3722L63.9954 104.83C62.3551 109.818 61.1507 114.933 60.3954 120.121L50.3994 122.579L49.8594 138.035L59.5794 141.141C59.9814 146.375 60.8446 151.566 62.1594 156.655L53.9514 162.537L59.5314 177.063L69.6834 176.263C72.0842 180.943 74.8948 185.41 78.0834 189.614L72.8154 198.212L83.6154 209.516L92.6874 204.964C96.7561 208.381 101.107 211.462 105.695 214.174L104.183 224.043L118.583 230.453L125.219 222.878C130.311 224.489 135.528 225.689 140.819 226.466L143.219 236.146L159.035 236.675L162.155 227.183C167.497 226.767 172.795 225.921 177.995 224.654L183.995 232.653L198.803 227.23L198.035 217.279C202.795 214.869 207.35 212.088 211.655 208.963L220.379 214.115L231.959 203.529L227.315 194.589C230.804 190.611 233.936 186.345 236.675 181.839L246.743 183.321L253.319 169.206L245.543 162.737C247.211 157.753 248.436 152.636 249.203 147.445L259.283 145.069ZM152.735 195.142C140.361 194.732 128.388 190.734 118.332 183.654C108.276 176.574 100.588 166.729 96.2413 155.365C91.8942 144.001 91.0831 131.629 93.9107 119.813C96.7382 107.997 103.077 97.2689 112.126 88.9851C121.175 80.7013 132.527 75.2342 144.746 73.2753C156.965 71.3165 169.503 72.9539 180.772 77.9805C192.042 83.0071 201.538 91.197 208.058 101.514C214.578 111.831 217.831 123.812 217.403 135.942C216.834 152.197 209.701 167.565 197.575 178.667C185.448 189.768 169.319 195.694 152.735 195.142Z"
        fill="#EBEBEB" />
    <path
        d="M529.196 93.9498L533.168 90.3152L531.596 87.2452C532.795 85.8696 533.875 84.398 534.824 82.846L538.304 83.3518L540.548 78.4822L537.884 76.2591C538.457 74.5373 538.879 72.7703 539.144 70.9777L542.564 70.1426L542.732 64.8024L539.396 63.7438C539.249 61.9352 538.952 60.1413 538.508 58.3801L541.328 56.3217L539.408 51.3226L535.916 51.5931C535.074 49.9808 534.098 48.4387 533 46.9822L534.812 44.0416L531.08 40.1365L527.96 41.7009C526.554 40.5281 525.053 39.4699 523.472 38.5368L523.976 35.1257L519.02 32.9026L516.74 35.5256C514.98 34.9884 513.178 34.595 511.352 34.3493L510.5 31.0088L505.052 30.8088L503.96 34.1023C502.122 34.24 500.299 34.5312 498.512 34.9728L496.424 32.2086L491.312 34.0788L491.6 37.5135C489.95 38.3308 488.376 39.2872 486.896 40.3717L483.872 38.5956L479.888 42.2302L481.436 45.2296C480.228 46.6013 479.144 48.0732 478.196 49.6288L474.728 49.123L472.472 53.9927L475.148 56.2276C474.593 57.9468 474.191 59.7099 473.948 61.4971L470.516 62.3323L470.348 67.6725L473.696 68.7311C473.832 70.54 474.125 72.3344 474.572 74.0948L471.74 76.1414L473.66 81.1405L477.164 80.8817C478.006 82.494 478.981 84.0361 480.08 85.4926L478.268 88.4332L482 92.3384L485.12 90.774C486.522 91.9505 488.024 93.009 489.608 93.9381L489.092 97.3374L494.06 99.5605L496.34 96.9493C498.101 97.4809 499.903 97.8742 501.728 98.1255L502.58 101.466L508.028 101.666L509.12 98.3725C510.958 98.2356 512.78 97.9444 514.568 97.5021L516.656 100.266L521.768 98.396L521.492 94.9614C523.137 94.1429 524.707 93.1866 526.184 92.1031L529.196 93.9498ZM500.852 71.4482C499.804 70.3475 499.112 68.967 498.865 67.4811C498.618 65.9953 498.826 64.4709 499.462 63.1009C500.099 61.7309 501.136 60.5767 502.442 59.7845C503.748 58.9922 505.265 58.5975 506.8 58.6502C508.334 58.7028 509.819 59.2006 511.065 60.0804C512.312 60.9603 513.264 62.1826 513.801 63.593C514.338 65.0033 514.437 66.5382 514.084 68.0034C513.732 69.4687 512.944 70.7985 511.82 71.8246C511.074 72.514 510.196 73.0514 509.237 73.406C508.277 73.7605 507.256 73.925 506.232 73.89C505.207 73.855 504.2 73.6212 503.268 73.202C502.336 72.7829 501.499 72.1868 500.804 71.4482H500.852Z"
        fill="#EBEBEB" />
    <path
        d="M412.259 179.322H412.175L391.391 178.628C390.97 178.62 390.558 178.509 390.193 178.303C389.828 178.097 389.522 177.805 389.303 177.452L383.699 168.218C380.679 167.135 377.756 165.805 374.963 164.242L365.999 165.76C365.582 165.835 365.151 165.805 364.749 165.673C364.346 165.542 363.983 165.313 363.695 165.007L349.499 150.116C349.201 149.807 348.99 149.429 348.884 149.017C348.779 148.605 348.784 148.173 348.899 147.763L351.167 139.047C349.762 136.223 348.614 133.283 347.735 130.261L338.699 124.144C338.349 123.908 338.065 123.59 337.874 123.217C337.683 122.845 337.591 122.432 337.607 122.015L338.315 101.643C338.329 101.231 338.446 100.83 338.655 100.473C338.865 100.116 339.16 99.8149 339.515 99.5959L348.959 94.1028C350.048 91.149 351.402 88.2953 353.003 85.575L351.347 76.7179C351.27 76.3067 351.3 75.883 351.434 75.4861C351.568 75.0893 351.802 74.7321 352.115 74.4477L367.307 60.5445C367.621 60.2514 368.007 60.0423 368.427 59.9372C368.848 59.8322 369.288 59.8347 369.707 59.9446L378.635 62.1795C381.509 60.8014 384.501 59.6719 387.575 58.8036L393.815 49.9465C394.047 49.5947 394.371 49.31 394.753 49.1218C395.135 48.9336 395.561 48.8488 395.987 48.8761L416.759 49.5818C417.182 49.5906 417.595 49.7028 417.962 49.9083C418.329 50.1137 418.637 50.4059 418.859 50.7581L424.463 60.0034C427.462 61.0826 430.361 62.4128 433.127 63.9791L442.199 62.3441C442.617 62.2681 443.047 62.2973 443.45 62.4289C443.853 62.5606 444.216 62.7905 444.503 63.0969L458.699 77.9882C458.995 78.2979 459.206 78.6765 459.311 79.0882C459.416 79.4998 459.412 79.931 459.299 80.3407L457.019 89.0802C458.425 91.8989 459.581 94.8307 460.475 97.8433L469.499 103.96C469.85 104.196 470.134 104.514 470.324 104.887C470.515 105.259 470.607 105.672 470.591 106.089L469.883 126.45C469.869 126.863 469.752 127.266 469.543 127.624C469.334 127.983 469.039 128.286 468.683 128.508L459.239 134.001C458.143 136.948 456.79 139.797 455.195 142.517L456.851 151.386C456.929 151.795 456.899 152.217 456.765 152.612C456.63 153.007 456.396 153.363 456.083 153.644L440.795 167.559C440.481 167.852 440.094 168.059 439.674 168.162C439.254 168.265 438.813 168.26 438.395 168.148L429.515 165.924C426.622 167.296 423.615 168.426 420.527 169.3L414.347 178.146C414.125 178.495 413.818 178.785 413.453 178.99C413.089 179.195 412.679 179.309 412.259 179.322ZM392.951 173.711L410.951 174.311L416.951 165.854C417.284 165.36 417.793 165.008 418.379 164.866C421.756 163.961 425.032 162.727 428.159 161.184C428.704 160.927 429.324 160.864 429.911 161.008L438.311 163.113L451.511 151.057L449.999 142.552C449.883 141.958 449.994 141.342 450.311 140.823C452.094 137.911 453.561 134.824 454.691 131.613C454.882 131.031 455.283 130.538 455.819 130.225L464.855 124.979L465.467 107.336L456.827 101.454C456.372 101.15 456.031 100.708 455.855 100.196C455.855 100.137 455.855 100.066 455.855 99.9958C454.931 96.7446 453.676 93.5922 452.111 90.5858C451.834 90.0477 451.765 89.4289 451.919 88.845L454.079 80.5172L441.779 67.5784L433.151 69.1311C432.549 69.2381 431.927 69.1296 431.399 68.8253C428.422 67.0747 425.27 65.6282 421.991 64.5084C421.803 64.4494 421.622 64.3705 421.451 64.2732C421.105 64.0616 420.817 63.771 420.611 63.4263L415.199 54.5456L397.199 53.934L391.199 62.4147C390.841 62.9119 390.313 63.2667 389.711 63.4145C386.369 64.3097 383.129 65.5354 380.039 67.0727C379.495 67.3451 378.867 67.412 378.275 67.2608L369.779 65.1436L356.579 77.2001L358.163 85.6338C358.257 86.1658 358.177 86.7133 357.935 87.1982L357.815 87.3982C356.031 90.3219 354.563 93.4206 353.435 96.6435C353.237 97.1962 352.846 97.6626 352.331 97.9609L343.295 103.219L342.683 120.862L351.335 126.744C351.829 127.075 352.186 127.566 352.343 128.132C353.243 131.435 354.494 134.636 356.075 137.683C356.161 137.856 356.229 138.037 356.279 138.224C356.37 138.611 356.37 139.013 356.279 139.4L354.119 147.634L366.419 160.573L374.987 159.032C375.586 158.924 376.204 159.033 376.727 159.338C379.727 161.085 382.899 162.531 386.195 163.654C386.79 163.827 387.293 164.219 387.599 164.748L392.951 173.711ZM404.075 151.398C403.631 151.398 403.187 151.398 402.743 151.398C392.768 151.226 383.265 147.198 376.304 140.193C369.343 133.187 365.487 123.769 365.575 113.99C365.663 104.211 369.687 94.8615 376.773 87.9768C383.859 81.0921 393.432 77.2294 403.409 77.2294C413.386 77.2294 422.96 81.0921 430.045 87.9768C437.131 94.8615 441.156 104.211 441.244 113.99C441.332 123.769 437.475 133.187 430.514 140.193C423.553 147.198 414.051 151.226 404.075 151.398ZM404.075 81.8934C395.358 82.0407 387.053 85.5575 380.968 91.6782C374.883 97.7988 371.511 106.028 371.586 114.574C371.662 123.119 375.178 131.29 381.369 137.307C387.561 143.324 395.927 146.7 404.645 146.7C413.364 146.7 421.73 143.324 427.921 137.307C434.113 131.29 437.629 123.119 437.704 114.574C437.779 106.028 434.407 97.7988 428.323 91.6782C422.238 85.5575 413.933 82.0407 405.215 81.8934H404.075Z"
        fill="#EBEBEB" />
    <path
        d="M460.131 32.6675L451.515 30.4091L449.211 21.9637L452.583 18.6702L456.135 25.8806L463.503 29.374L460.131 32.6675Z"
        fill="#E0E0E0" />
    <path
        d="M460.66 27.0217C461.033 26.6563 461.329 26.2227 461.53 25.7453C461.732 25.268 461.836 24.7565 461.836 24.2398C461.836 23.7232 461.732 23.2116 461.53 22.7343C461.329 22.257 461.033 21.8233 460.66 21.458C460.288 21.0927 459.845 20.8029 459.358 20.6052C458.871 20.4075 458.349 20.3057 457.822 20.3057C457.295 20.3057 456.773 20.4075 456.286 20.6052C455.8 20.8029 455.357 21.0927 454.984 21.458L459.268 15.1533L465.004 17.9998L466.264 23.8811L460.66 27.0217Z"
        fill="#E0E0E0" />
    <path
        d="M451.895 19.3521L458.207 13.165L466.799 15.4117L469.115 23.8454L462.803 30.0324L454.199 27.7623L451.895 19.3521ZM463.355 24.41C463.916 23.8587 464.299 23.1566 464.454 22.3923C464.608 21.6281 464.529 20.836 464.224 20.1162C463.92 19.3964 463.405 18.7813 462.744 18.3484C462.083 17.9156 461.305 17.6846 460.511 17.6846C459.716 17.6846 458.939 17.9156 458.278 18.3484C457.617 18.7813 457.101 19.3964 456.797 20.1162C456.493 20.836 456.413 21.6281 456.567 22.3923C456.722 23.1566 457.105 23.8587 457.667 24.41C458.427 25.141 459.451 25.5485 460.515 25.5441C461.58 25.5397 462.601 25.1237 463.355 24.3864V24.41Z"
        fill="#F0F0F0" />
    <path
        d="M108.265 257.79L112.885 256.566L114.121 252.038L112.321 250.273L110.413 254.143L106.453 256.014L108.265 257.79Z"
        fill="#E0E0E0" />
    <path
        d="M107.998 254.755C107.637 254.351 107.446 253.827 107.464 253.29C107.482 252.753 107.708 252.243 108.096 251.863C108.483 251.483 109.004 251.262 109.551 251.244C110.099 251.226 110.633 251.413 111.046 251.767L108.754 248.391L105.598 249.897L104.926 253.073L107.998 254.755Z"
        fill="#E0E0E0" />
    <path
        d="M112.677 250.626L109.293 247.309L104.673 248.485L103.473 253.014L106.797 256.366L111.417 255.19L112.677 250.626ZM106.533 253.343C106.31 253.152 106.13 252.919 106.003 252.657C105.877 252.395 105.807 252.11 105.797 251.82C105.787 251.531 105.838 251.242 105.947 250.973C106.055 250.703 106.219 250.458 106.428 250.253C106.637 250.048 106.887 249.888 107.162 249.781C107.437 249.675 107.732 249.625 108.027 249.634C108.323 249.644 108.613 249.713 108.88 249.837C109.147 249.961 109.386 250.138 109.581 250.356C109.942 250.76 110.133 251.283 110.114 251.82C110.096 252.357 109.87 252.868 109.483 253.247C109.095 253.627 108.575 253.849 108.027 253.866C107.479 253.884 106.945 253.697 106.533 253.343Z"
        fill="#F0F0F0" />
    <path
        d="M91.6386 9.54226L95.4786 13.3062C95.9589 13.7689 96.6053 14.0281 97.2786 14.0281C97.952 14.0281 98.5984 13.7689 99.0786 13.3062C99.5478 12.834 99.8103 12.201 99.8103 11.5419C99.8103 10.8828 99.5478 10.2497 99.0786 9.7775L95.2506 6.02527C94.7689 5.56542 94.1231 5.30811 93.4506 5.30811C92.7782 5.30811 92.1324 5.56542 91.6506 6.02527C91.1807 6.49394 90.9163 7.1242 90.9141 7.78137C90.9118 8.43853 91.1719 9.07051 91.6386 9.54226Z"
        fill="#F0F0F0" />
    <path
        d="M88.9326 0.191343C89.9347 -0.0817782 90.9963 -0.0621368 91.9871 0.247862C92.9779 0.55786 93.8547 1.14472 94.51 1.93638C95.1653 2.72804 95.5705 3.69004 95.6758 4.70426C95.7811 5.71848 95.582 6.74078 95.1029 7.64562C94.6238 8.55046 93.8855 9.29846 92.9787 9.79779C92.072 10.2971 91.0362 10.526 89.9986 10.4564C88.961 10.3868 87.9667 10.0216 87.1378 9.40587C86.3089 8.79009 85.6815 7.95045 85.3326 6.99005C85.1112 6.31202 85.0287 5.59775 85.0899 4.88835C85.1512 4.17895 85.355 3.48843 85.6896 2.85653C86.0242 2.22464 86.483 1.66385 87.0396 1.20644C87.5961 0.74904 88.2395 0.404055 88.9326 0.191343Z"
        fill="#E0E0E0" />
    <path d="M84.7567 6.36013L85.3125 7.87671L96.7188 3.86027L96.163 2.34369L84.7567 6.36013Z"
        fill="#F0F0F0" />
    <path
        d="M104.058 50.6992C102.858 45.5119 103.386 41.1598 105.666 37.6075C107.946 34.0553 111.666 31.7263 116.958 30.55C122.25 29.3738 126.822 29.8443 130.398 32.0321C133.974 34.2199 136.398 37.9134 137.598 42.9712C138.445 46.093 138.515 49.3686 137.802 52.5224C137.104 55.1416 135.63 57.4993 133.566 59.2976C131.114 61.3209 128.171 62.6902 125.022 63.2733C121.934 64.0767 118.702 64.1853 115.566 63.5909C112.84 62.9415 110.374 61.5077 108.486 59.474C106.23 56.9938 104.7 53.9619 104.058 50.6992ZM114.066 48.5114C114.81 51.7108 115.95 53.875 117.486 55.0042C118.278 55.5225 119.17 55.8782 120.107 56.05C121.044 56.2217 122.006 56.2061 122.936 56.0039C123.867 55.8017 124.746 55.4172 125.521 54.8735C126.296 54.3298 126.95 53.6381 127.446 52.84C128.31 51.205 128.322 48.6055 127.506 45.065C126.81 42.0773 125.686 40.0306 124.134 38.9249C123.352 38.3752 122.455 38.0042 121.508 37.8393C120.561 37.6745 119.588 37.7198 118.662 37.9722C117.734 38.1425 116.858 38.5167 116.099 39.0668C115.341 39.6169 114.719 40.3285 114.282 41.148C113.394 42.8771 113.31 45.2296 114.066 48.5114Z"
        fill="#2B2A29" />
    <path
        d="M142.298 46.8173C141.872 45.2143 141.796 43.5412 142.075 41.9074C142.354 40.2736 142.982 38.7161 143.918 37.3368C144.967 35.8713 146.301 34.6234 147.844 33.6646C149.386 32.7058 151.107 32.055 152.906 31.7496C157.602 30.7066 161.458 31.2516 164.474 33.3846C167.012 35.3132 168.738 38.0898 169.322 41.1852C169.906 44.2806 169.308 47.4785 167.642 50.1696C165.77 52.9691 162.722 54.8354 158.498 55.7686C155.244 56.6603 151.772 56.3851 148.706 54.9922C147.067 54.2069 145.635 53.0602 144.523 51.6419C143.412 50.2236 142.65 48.5723 142.298 46.8173ZM151.31 44.7824C151.553 46.4261 152.372 47.9357 153.626 49.0522C154.123 49.4211 154.697 49.6794 155.306 49.8093C155.915 49.9392 156.546 49.9375 157.155 49.8043C157.763 49.6711 158.335 49.4096 158.83 49.038C159.326 48.6664 159.732 48.1936 160.022 47.6525C160.65 46.0725 160.71 44.3297 160.19 42.7122C159.938 41.1071 159.128 39.6364 157.898 38.5483C157.421 38.169 156.861 37.9027 156.261 37.7701C155.662 37.6375 155.039 37.6421 154.442 37.7837C153.82 37.9102 153.234 38.174 152.731 38.5551C152.228 38.9362 151.82 39.4246 151.538 39.9833C150.892 41.5077 150.811 43.2058 151.31 44.7824Z"
        fill="#2B2A29" />
    <path
        d="M178.29 60.0148L170.934 28.2561L179.334 26.3741L180.126 29.7735C180.718 28.4178 181.579 27.1905 182.658 26.1624C183.841 25.1774 185.255 24.4945 186.774 24.1746C188.176 23.8005 189.653 23.779 191.067 24.112C192.48 24.4451 193.785 25.1219 194.862 26.0801C197.233 28.2533 198.842 31.1068 199.458 34.2315C200.346 38.0543 200.082 41.1831 198.69 43.6415C198.028 44.8169 197.113 45.837 196.008 46.6312C194.904 47.4253 193.636 47.9745 192.294 48.2406C191 48.5412 189.659 48.5931 188.346 48.3935C187.086 48.1772 185.885 47.7087 184.818 47.0173L187.362 57.9917L178.29 60.0148ZM182.622 37.8308C182.842 39.2999 183.591 40.6433 184.734 41.6183C185.192 41.9622 185.723 42.2 186.289 42.3141C186.854 42.4281 187.438 42.4155 187.998 42.277C188.517 42.1749 189.005 41.9546 189.422 41.6338C189.839 41.3131 190.173 40.9008 190.398 40.4303C190.908 38.9582 190.908 37.3621 190.398 35.89C190.178 34.4135 189.455 33.0535 188.346 32.0319C187.934 31.6969 187.45 31.459 186.929 31.3367C186.409 31.2143 185.867 31.2107 185.346 31.3261C184.794 31.4428 184.277 31.6801 183.832 32.0202C183.388 32.3604 183.027 32.7946 182.778 33.2905C182.19 34.7404 182.135 36.3454 182.622 37.8308Z"
        fill="#2B2A29" />
    <path
        d="M203.313 38.525L212.049 35.7137C212.513 36.5416 213.237 37.2013 214.113 37.5957C215.055 37.8633 216.053 37.8847 217.006 37.6577C217.96 37.4307 218.836 36.9633 219.549 36.3019C219.748 36.0943 219.893 35.8423 219.97 35.5676C220.047 35.293 220.055 35.004 219.993 34.7257C219.921 34.4072 219.753 34.1172 219.511 33.8929C219.27 33.6687 218.965 33.5204 218.637 33.4671C217.281 33.3212 215.913 33.3212 214.557 33.4671C212.281 33.6568 209.993 33.6568 207.717 33.4671C206.385 33.2776 205.135 32.7184 204.117 31.8556C203.03 30.9337 202.28 29.6899 201.979 28.3125C201.678 26.9351 201.843 25.499 202.449 24.2218C203.149 22.8551 204.236 21.7155 205.581 20.9401C207.495 19.8741 209.575 19.1231 211.737 18.717C213.801 18.1679 215.935 17.9143 218.073 17.9642C219.415 18.0489 220.717 18.4526 221.865 19.1404C223.088 19.9492 224.126 20.9987 224.913 22.2222L216.513 24.9393C216.199 24.3265 215.677 23.8399 215.037 23.5631C214.162 23.2562 213.212 23.2152 212.313 23.4455C211.518 23.5541 210.781 23.9133 210.213 24.4688C210.032 24.6582 209.902 24.888 209.833 25.1381C209.764 25.3882 209.758 25.6511 209.817 25.9038C209.882 26.182 210.031 26.4342 210.246 26.6274C210.46 26.8206 210.729 26.9456 211.017 26.986C212.358 27.1386 213.715 27.1109 215.049 26.9036C217.363 26.5749 219.711 26.5433 222.033 26.8095C223.494 27.0118 224.862 27.6293 225.969 28.5857C226.97 29.4751 227.665 30.646 227.961 31.938C228.268 33.3234 228.156 34.7667 227.637 36.0901C227.002 37.657 225.898 38.9982 224.469 39.9365C222.364 41.2851 220.006 42.2089 217.533 42.6536C213.253 43.6103 210.053 43.6926 207.933 42.9006C205.867 42.0921 204.208 40.5207 203.313 38.525Z"
        fill="#2B2A29" />
    <path
        d="M232.617 9.43652H242.469V16.8469L240.657 31.7499H234.561L232.617 16.8704V9.43652ZM233.097 33.9966H242.289V41.9715H233.097V33.9966Z"
        fill="#2B2A29" />
    <path
        d="M154.415 110.606H154.199C148.799 108.547 145.571 106.548 143.891 104.136C142.576 104.381 141.216 104.199 140.015 103.619C138.609 102.944 137.442 101.87 136.667 100.537C136.26 100.843 135.78 101.044 135.272 101.12C134.764 101.196 134.245 101.145 133.763 100.972C132.284 100.43 131.022 99.436 130.163 98.1374C129.626 98.5298 128.958 98.7103 128.291 98.6432C124.691 98.3609 119.891 91.3975 119.543 83.9872C119.54 83.8307 119.597 83.679 119.704 83.563C119.812 83.447 119.96 83.3757 120.119 83.3637C120.198 83.3606 120.277 83.3727 120.351 83.3994C120.425 83.4261 120.493 83.4668 120.551 83.5192C120.609 83.5717 120.655 83.6348 120.688 83.705C120.721 83.7752 120.74 83.8511 120.743 83.9283C121.079 90.9858 125.675 97.2552 128.399 97.467C128.597 97.4888 128.798 97.472 128.989 97.4175C129.181 97.363 129.36 97.2718 129.515 97.1494C128.577 95.4723 127.987 93.6293 127.781 91.7272C127.575 89.8251 127.757 87.9019 128.315 86.0691C129.347 82.5404 130.259 81.1524 131.363 81.3641C133.427 81.8699 133.151 89.5979 132.059 94.644C131.894 95.5541 131.551 96.4246 131.051 97.2082C131.759 98.3709 132.826 99.2817 134.099 99.8077C134.438 99.9343 134.807 99.9628 135.163 99.8898C135.518 99.8168 135.844 99.6454 136.103 99.396C135.167 97.1258 134.903 94.0205 136.247 90.0684C137.927 84.8576 138.647 84.7164 139.019 84.6223C139.159 84.5935 139.304 84.6023 139.44 84.6479C139.575 84.6935 139.695 84.774 139.787 84.8811C140.903 86.1162 139.571 94.2087 138.179 98.208C138.016 98.6893 137.79 99.1479 137.507 99.5724C138.151 100.845 139.2 101.877 140.495 102.513C141.345 102.918 142.289 103.093 143.231 103.019C143.123 102.795 143.027 102.572 142.931 102.337C141.983 99.8077 142.451 96.9024 144.359 93.4207C145.619 91.127 146.651 90.0448 147.611 90.0448C147.866 90.0482 148.114 90.1231 148.327 90.2607C148.54 90.3983 148.708 90.5928 148.811 90.8211C149.855 92.7149 149.099 98.9608 147.035 102.066C146.552 102.778 145.88 103.347 145.091 103.713C146.699 105.783 149.759 107.606 154.691 109.465C154.765 109.491 154.833 109.531 154.891 109.583C154.948 109.636 154.995 109.699 155.027 109.769C155.06 109.839 155.078 109.915 155.08 109.992C155.082 110.069 155.068 110.146 155.039 110.217C154.992 110.34 154.906 110.444 154.794 110.514C154.681 110.584 154.548 110.616 154.415 110.606ZM147.599 91.2328C147.599 91.2328 146.915 91.2329 145.403 93.997C143.663 97.1494 143.219 99.7489 144.047 101.937C144.147 102.208 144.268 102.471 144.407 102.725C145.057 102.462 145.61 102.01 145.991 101.431C147.671 98.9137 148.475 93.7383 147.851 91.7151C147.767 91.3034 147.599 91.2328 147.599 91.2328ZM138.983 86.2808C138.334 87.62 137.796 89.0086 137.375 90.433C136.455 92.9016 136.296 95.5811 136.919 98.1374L137.027 97.8316C138.287 94.1032 138.959 90.208 139.019 86.2808H138.983ZM131.087 82.5757C130.883 82.7521 130.295 83.4931 129.467 86.3632C128.488 89.5841 128.797 93.0498 130.331 96.0555C130.577 95.5296 130.759 94.9767 130.871 94.4087C132.155 88.6333 131.795 83.4108 131.123 82.5757H131.087Z"
        fill="#2B2A29" />
    <path
        d="M200.038 172.264C198.12 172.282 196.231 171.799 194.566 170.865C194.429 170.784 194.33 170.654 194.289 170.502C194.249 170.35 194.271 170.189 194.35 170.053C194.39 169.987 194.442 169.929 194.505 169.883C194.568 169.837 194.639 169.803 194.715 169.785C194.791 169.766 194.87 169.762 194.948 169.774C195.025 169.786 195.099 169.813 195.166 169.853C199.45 172.311 204.982 170.594 206.122 168.794C206.204 168.682 206.263 168.554 206.294 168.418C206.325 168.283 206.328 168.143 206.302 168.006C204.111 168.13 201.942 167.525 200.146 166.289C197.086 164.419 196.846 163.854 196.87 163.407C196.876 163.279 196.917 163.154 196.989 163.047C197.061 162.939 197.16 162.852 197.278 162.796C198.478 162.207 203.89 164.642 206.146 166.101C206.417 166.277 206.666 166.482 206.89 166.712C207.777 166.515 208.576 166.045 209.17 165.371C209.505 164.986 209.747 164.532 209.878 164.042H209.638C207.718 164.231 205.798 163.419 203.746 161.56C202.33 160.29 201.79 159.408 201.97 158.714C202.025 158.519 202.135 158.343 202.288 158.208C202.441 158.072 202.631 157.983 202.834 157.949C204.49 157.538 208.594 159.255 210.262 161.055C210.634 161.446 210.898 161.924 211.03 162.443C212.602 161.725 214.258 160.09 216.214 157.42C216.26 157.356 216.317 157.302 216.384 157.261C216.451 157.219 216.526 157.191 216.604 157.178C216.682 157.165 216.762 157.167 216.839 157.184C216.917 157.202 216.99 157.234 217.054 157.279C217.183 157.371 217.269 157.508 217.296 157.662C217.323 157.816 217.288 157.974 217.198 158.102C214.93 161.208 213.034 162.972 211.138 163.689C211.04 164.559 210.676 165.379 210.094 166.042C209.403 166.83 208.494 167.405 207.478 167.7C207.535 167.981 207.535 168.27 207.477 168.551C207.42 168.832 207.306 169.098 207.142 169.335C206.134 171.017 203.23 172.264 200.038 172.264ZM198.97 164.101C199.378 164.395 199.954 164.783 200.782 165.277C202.072 166.131 203.555 166.663 205.102 166.83C203.171 165.695 201.113 164.779 198.97 164.101ZM203.158 159.102C203.503 159.738 203.981 160.296 204.562 160.737C206.338 162.349 207.958 163.09 209.518 162.901H209.902C209.817 162.536 209.635 162.199 209.374 161.925C207.694 160.067 203.998 158.914 203.158 159.102Z"
        fill="#2B2A29" />
    <path
        d="M215.927 170.653L197.231 173.982L180.251 83.1519L144.179 89.5742L85.3789 191.908L91.6909 225.678L167.111 212.257L172.271 239.875L208.343 233.429L203.183 205.811L221.879 202.482L215.927 170.653ZM121.307 187.556L152.507 133.954L161.207 180.463L121.307 187.556Z"
        fill="#2CA89A" />
    <path
        d="M366.513 76.9885C365.945 71.2786 364.656 65.6601 362.673 60.2622C360.634 55.0916 357.801 50.2564 354.273 45.9238C350.097 40.8831 344.91 36.7357 339.033 33.7378C332.633 30.2954 324.145 27.8997 313.569 26.551C291.609 23.7437 274.497 27.5625 262.233 38.0076C249.969 48.4527 241.889 68.4489 237.993 97.9962C236.438 109.039 236.036 120.208 236.793 131.331C237.593 141.525 239.505 149.732 242.529 155.95C246.377 164.336 252.448 171.558 260.109 176.864C267.685 182.078 278.085 185.525 291.309 187.203C314.813 190.206 332.241 185.78 343.593 173.923C354.945 162.066 362.465 142.031 366.153 113.817C367.793 101.6 367.914 89.2336 366.513 76.9885Z"
        fill="#2CA89A" />
    <path
        d="M302.128 175.123C299.236 175.029 296.128 174.77 292.996 174.37C282.004 172.97 273.508 170.241 267.724 166.266C261.955 162.273 257.395 156.828 254.524 150.504L254.464 150.375C252.16 145.67 250.648 138.906 249.988 130.378C249.289 120.135 249.658 109.848 251.092 99.6783C255.376 67.0727 264.22 53.4636 270.88 47.7941C278.656 41.1835 289.156 38.1959 302.956 38.6664C305.788 38.7605 308.788 39.0075 311.872 39.3956C320.728 40.5719 327.748 42.4539 332.716 45.1122C337.008 47.2792 340.809 50.2762 343.888 53.9223C346.581 57.2154 348.746 60.8924 350.308 64.8261C351.902 69.2124 352.934 73.776 353.38 78.4118C354.659 89.6447 354.543 100.988 353.032 112.194C349.708 137.53 343.276 155.338 333.928 165.125C326.992 172.37 316.588 175.711 302.116 175.17L302.128 175.123Z"
        fill="#2B2A29" />
    <path
        d="M325.609 77.3296L325.765 72.8716L322.969 71.9777C322.85 70.4699 322.601 68.9746 322.225 67.5079L324.625 65.7906L323.017 61.6031L320.089 61.8384C319.4 60.4926 318.597 59.2059 317.689 57.9921L319.201 55.5102L316.081 52.252L313.465 53.5694C312.294 52.5829 311.042 51.6938 309.721 50.9111L310.141 48.0645L305.989 46.2178L304.093 48.4056C302.624 47.9393 301.119 47.593 299.593 47.3706L298.885 44.5828L294.325 44.4299L293.425 47.1588C291.887 47.2795 290.362 47.5234 288.865 47.8881L287.101 45.5356L282.829 47.1L283.069 49.9701C281.696 50.6455 280.383 51.4325 279.145 52.3226L276.625 50.8287L273.289 53.8752L274.633 56.4512C273.623 57.5978 272.72 58.8298 271.933 60.1328L269.029 59.6976L267.133 63.7674L269.377 65.6259C268.89 67.066 268.536 68.5462 268.321 70.0486L265.465 70.7544L265.309 75.2006L268.105 76.0945C268.222 77.6064 268.471 79.1057 268.849 80.576L266.449 82.2816L268.057 86.469L270.985 86.2338C271.666 87.5833 272.469 88.8706 273.385 90.0801L271.861 92.562L274.981 95.8202L277.597 94.5146C278.767 95.4972 280.02 96.3825 281.341 97.1611L280.909 100.008L285.061 101.854L286.969 99.6783C288.441 100.142 289.95 100.484 291.481 100.702L292.189 103.501L296.737 103.654L297.637 100.913C299.179 100.799 300.709 100.555 302.209 100.184L303.949 102.537L308.221 100.972L307.993 98.1139C309.36 97.4298 310.672 96.6433 311.917 95.7614L314.437 97.2435L317.773 94.197L316.441 91.621C317.446 90.4783 318.345 89.2502 319.129 87.9511L322.033 88.3745L323.929 84.3047L321.697 82.4463C322.174 81.0083 322.523 79.5325 322.741 78.0353L325.609 77.3296ZM294.889 91.7621C291.334 91.6349 287.898 90.4783 285.014 88.4385C282.13 86.3988 279.927 83.5672 278.683 80.3011C277.439 77.0351 277.21 73.4811 278.025 70.0876C278.84 66.6941 280.662 63.6134 283.261 61.2341C285.861 58.8549 289.121 57.2839 292.631 56.7193C296.141 56.1548 299.742 56.6221 302.981 58.0621C306.22 59.5022 308.951 61.8506 310.83 64.8108C312.709 67.771 313.65 71.2104 313.537 74.6948C313.461 77.0173 312.918 79.3023 311.938 81.4184C310.959 83.5346 309.563 85.4404 307.83 87.0262C306.098 88.6121 304.062 89.8468 301.841 90.6596C299.62 91.4723 297.258 91.847 294.889 91.7621Z"
        fill="#2CA89A" />
    <path opacity="0.3"
        d="M344.542 159.173L344.878 156.162L343.03 155.432C343.027 154.408 342.939 153.385 342.766 152.374L344.434 151.327L343.582 148.422H341.59C341.196 147.477 340.718 146.568 340.162 145.705L341.29 144.105L339.37 141.753L337.534 142.506C336.79 141.784 335.988 141.123 335.134 140.529L335.578 138.624L332.878 137.165L331.462 138.565C330.498 138.176 329.502 137.865 328.486 137.636L328.15 135.719L325.09 135.377L324.334 137.189C323.292 137.194 322.252 137.288 321.226 137.471L320.158 135.801L317.194 136.66V138.612C316.23 139.002 315.302 139.475 314.422 140.024L312.79 138.847L310.39 140.729L311.158 142.529C310.427 143.259 309.756 144.046 309.154 144.882L307.21 144.458L305.734 147.105L307.15 148.481C306.748 149.428 306.431 150.408 306.202 151.41L304.234 151.727L303.91 154.727L305.746 155.48C305.747 156.497 305.839 157.513 306.022 158.514L304.33 159.561L305.194 162.466H307.198C307.599 163.407 308.081 164.312 308.638 165.172L307.438 166.771L309.358 169.124L311.218 168.359C311.957 169.083 312.76 169.741 313.618 170.324L313.198 172.265L315.898 173.711L317.302 172.335C318.268 172.715 319.263 173.018 320.278 173.241L320.626 175.17L323.686 175.499L324.43 173.7C325.492 173.698 326.551 173.612 327.598 173.441L328.666 175.099L331.618 174.252V172.3C332.583 171.902 333.514 171.43 334.402 170.888L336.01 172.065L338.41 170.171L337.63 168.371C338.369 167.642 339.048 166.855 339.658 166.019L341.59 166.442L343.078 163.796L341.662 162.431C342.048 161.484 342.357 160.509 342.586 159.514L344.542 159.173ZM329.098 157.997C328.59 158.907 327.818 159.65 326.88 160.131C325.942 160.611 324.879 160.808 323.826 160.696C322.773 160.585 321.778 160.17 320.966 159.503C320.154 158.837 319.562 157.95 319.265 156.954C318.968 155.958 318.979 154.898 319.296 153.908C319.614 152.917 320.224 152.042 321.049 151.392C321.874 150.742 322.878 150.346 323.932 150.255C324.987 150.164 326.046 150.382 326.974 150.88C328.216 151.551 329.136 152.676 329.534 154.009C329.932 155.342 329.775 156.776 329.098 157.997Z"
        fill="#2CA89A" />
    <path
        d="M361.544 108.335L357.944 105.912C357.589 104.652 357.107 103.431 356.504 102.266L357.416 98.737L352.232 93.291L348.632 93.9497C347.49 93.2832 346.284 92.7277 345.032 92.2912L342.812 88.6213L335.216 88.3743L332.744 91.903C331.457 92.245 330.21 92.7181 329.024 93.3145L325.424 92.4088L319.868 97.502L320.54 101.031C319.85 102.145 319.283 103.328 318.848 104.559L315.116 106.735L314.852 114.181L318.452 116.604C318.8 117.873 319.283 119.103 319.892 120.274L318.98 123.803L324.164 129.249L327.764 128.602C328.906 129.267 330.112 129.823 331.364 130.26L333.572 133.919L341.18 134.177L343.64 130.649C344.937 130.303 346.195 129.831 347.396 129.237L350.996 130.131L356.552 125.05L355.892 121.521C356.574 120.403 357.14 119.221 357.584 117.992L361.316 115.816L361.544 108.335ZM337.868 119.651C336.179 119.594 334.545 119.047 333.173 118.08C331.801 117.113 330.752 115.769 330.159 114.218C329.567 112.667 329.457 110.978 329.843 109.365C330.23 107.753 331.095 106.289 332.331 105.159C333.566 104.028 335.116 103.282 336.783 103.015C338.451 102.748 340.162 102.972 341.7 103.658C343.238 104.345 344.534 105.463 345.424 106.871C346.314 108.279 346.758 109.914 346.7 111.57C346.618 113.788 345.643 115.885 343.987 117.399C342.332 118.914 340.131 119.724 337.868 119.651Z"
        fill="white" />
    <path
        d="M387.6 48.8995L388.224 47.4292C388.648 47.1949 389.05 46.9232 389.424 46.6176H390.816L392.448 44.2651L391.92 43.0065C392.122 42.5873 392.283 42.1501 392.4 41.7009L393.6 40.6187L393.096 37.8546L391.584 37.2429C391.347 36.8258 391.07 36.4319 390.756 36.0666V34.7022L388.416 33.1025L387.12 33.6318C386.646 33.4683 386.155 33.3578 385.656 33.3025L384.552 32.1262L381.744 32.6202L381.108 34.1023C380.663 34.3286 380.241 34.5965 379.848 34.9022H378.468L376.836 37.2547L377.364 38.5132C377.203 38.9792 377.09 39.46 377.028 39.9483L375.828 41.0422L376.332 43.7946L377.844 44.4063C378.073 44.8254 378.347 45.2197 378.66 45.5825V46.9352L381.06 48.5349L382.344 48.0173C382.824 48.1703 383.319 48.2766 383.82 48.3349L384.924 49.5112L387.6 48.8995ZM381.6 41.2774C381.487 40.6637 381.561 40.0308 381.815 39.4587C382.069 38.8867 382.49 38.4013 383.025 38.0639C383.56 37.7265 384.185 37.5523 384.822 37.5634C385.458 37.5745 386.076 37.7703 386.599 38.1261C387.122 38.4819 387.525 38.9817 387.758 39.5622C387.99 40.1427 388.042 40.7779 387.907 41.3873C387.771 41.9966 387.454 42.5529 386.996 42.9856C386.537 43.4183 385.958 43.7081 385.332 43.8181C384.494 43.9623 383.632 43.7762 382.933 43.3004C382.234 42.8246 381.755 42.0976 381.6 41.2774Z"
        fill="#2CA89A" />
    <path
        d="M354.729 41.1011L353.805 40.3366C355.785 37.9292 358.232 35.9303 361.005 34.4553L361.569 35.4904C358.932 36.8977 356.607 38.8049 354.729 41.1011Z"
        fill="#2CA89A" />
    <path
        d="M364.304 34.4081L363.836 33.3259C368.267 31.4383 373.113 30.6777 377.924 31.1146L377.804 32.2908C373.194 31.8649 368.548 32.5934 364.304 34.4081Z"
        fill="#2CA89A" />
    <path
        d="M362.043 42.5477L361.059 41.889C363.95 38.0623 368.157 35.392 372.903 34.3728L373.131 35.5491C368.696 36.4983 364.759 38.9832 362.043 42.5477Z"
        fill="#2CA89A" />
    <path
        d="M282.402 155.797C282.239 155.792 282.084 155.724 281.97 155.609L279.462 153.068C278.184 152.954 276.919 152.726 275.682 152.386L271.758 154.079C271.672 154.126 271.575 154.15 271.476 154.15C271.378 154.15 271.281 154.126 271.194 154.079L264.618 149.81C264.534 149.755 264.465 149.679 264.418 149.591C264.372 149.502 264.35 149.403 264.354 149.304V145.116C263.552 144.132 262.845 143.077 262.242 141.964L258.87 140.694C258.776 140.658 258.692 140.599 258.627 140.523C258.562 140.447 258.518 140.356 258.498 140.259L256.938 132.683C256.918 132.587 256.922 132.486 256.952 132.392C256.981 132.297 257.034 132.211 257.106 132.142L259.698 129.684C259.822 128.432 260.055 127.192 260.394 125.979L258.666 122.133C258.619 122.048 258.594 121.953 258.594 121.856C258.594 121.76 258.619 121.664 258.666 121.58L263.022 115.134C263.077 115.049 263.153 114.98 263.244 114.935C263.335 114.889 263.437 114.868 263.538 114.875L267.81 114.934C268.811 114.143 269.889 113.45 271.026 112.864L272.334 109.558C272.369 109.467 272.427 109.385 272.502 109.321C272.578 109.258 272.669 109.214 272.766 109.194L280.494 107.665C280.593 107.643 280.696 107.647 280.793 107.676C280.889 107.705 280.977 107.758 281.046 107.829L283.554 110.37C284.837 110.485 286.106 110.713 287.346 111.052L291.258 109.358C291.347 109.312 291.446 109.288 291.546 109.288C291.647 109.288 291.746 109.312 291.834 109.358L298.398 113.628C298.482 113.685 298.55 113.761 298.598 113.849C298.646 113.937 298.672 114.034 298.674 114.134L298.602 118.321C299.409 119.305 300.12 120.361 300.726 121.474L304.086 122.756C304.18 122.79 304.263 122.846 304.328 122.921C304.393 122.995 304.438 123.084 304.458 123.179L306.03 130.754C306.049 130.851 306.043 130.951 306.014 131.045C305.985 131.139 305.933 131.225 305.862 131.296L303.258 133.766C303.139 135.015 302.906 136.251 302.562 137.459L304.29 141.305C304.338 141.392 304.362 141.489 304.362 141.588C304.362 141.686 304.338 141.783 304.29 141.87L299.994 148.257C299.938 148.337 299.863 148.402 299.775 148.447C299.687 148.492 299.59 148.516 299.49 148.516L295.206 148.457C294.202 149.237 293.13 149.93 292.002 150.527L290.694 153.832C290.659 153.926 290.599 154.008 290.521 154.072C290.444 154.136 290.35 154.179 290.25 154.197L282.522 155.797H282.402ZM275.646 151.092C275.702 151.081 275.759 151.081 275.814 151.092C277.11 151.462 278.441 151.702 279.786 151.809C279.931 151.826 280.065 151.888 280.17 151.986L282.57 154.456L289.65 153.056L290.922 149.833C290.982 149.703 291.083 149.595 291.21 149.527C292.409 148.92 293.539 148.19 294.582 147.351C294.693 147.26 294.834 147.214 294.979 147.222L299.142 147.281L303.126 141.399L301.446 137.659C301.399 137.53 301.399 137.388 301.446 137.259C301.818 135.987 302.063 134.684 302.178 133.366C302.191 133.223 302.255 133.09 302.358 132.989L304.878 130.637L303.45 123.697L300.174 122.45C300.034 122.4 299.918 122.299 299.85 122.168C299.228 120.995 298.484 119.887 297.63 118.863C297.545 118.755 297.498 118.623 297.498 118.486V114.393L291.498 110.488L287.694 112.134C287.559 112.182 287.41 112.182 287.274 112.134C285.974 111.766 284.639 111.526 283.29 111.417C283.146 111.4 283.012 111.338 282.906 111.24L280.506 108.77L273.426 110.182L272.166 113.452C272.116 113.587 272.018 113.699 271.89 113.769C270.687 114.375 269.553 115.105 268.506 115.945C268.455 115.991 268.394 116.027 268.328 116.049C268.262 116.071 268.192 116.08 268.122 116.075L263.958 116.016L259.962 121.897L261.642 125.638C261.681 125.717 261.701 125.803 261.701 125.891C261.701 125.978 261.681 126.065 261.642 126.144C261.287 127.385 261.054 128.657 260.946 129.943C260.935 130.086 260.871 130.219 260.766 130.319L258.246 132.672L259.686 139.612L262.95 140.858C263.096 140.918 263.215 141.026 263.286 141.164C263.905 142.33 264.645 143.429 265.494 144.446C265.584 144.552 265.631 144.685 265.626 144.822V148.916L271.626 152.821L275.442 151.174C275.505 151.135 275.574 151.107 275.646 151.092ZM281.538 147.281C278.65 147.278 275.816 146.509 273.339 145.054C270.861 143.599 268.832 141.513 267.466 139.018C266.101 136.523 265.452 133.712 265.586 130.883C265.721 128.055 266.635 125.316 268.23 122.956C269.757 120.692 271.857 118.855 274.325 117.625C276.792 116.395 279.543 115.814 282.309 115.939C285.075 116.063 287.76 116.889 290.102 118.336C292.444 119.782 294.364 121.8 295.672 124.191C296.98 126.583 297.633 129.266 297.566 131.979C297.5 134.692 296.716 137.341 295.292 139.668C293.867 141.995 291.851 143.92 289.44 145.254C287.03 146.589 284.307 147.287 281.538 147.281ZM269.238 123.603C267.623 125.992 266.767 128.796 266.778 131.662C266.788 134.528 267.666 137.326 269.299 139.703C270.932 142.08 273.248 143.929 275.953 145.017C278.658 146.104 281.631 146.381 284.497 145.812C287.362 145.243 289.991 143.854 292.052 141.82C294.112 139.787 295.511 137.2 296.071 134.387C296.632 131.575 296.329 128.662 295.201 126.018C294.073 123.374 292.171 121.117 289.734 119.533C288.119 118.473 286.305 117.737 284.397 117.368C282.49 116.999 280.527 117.003 278.621 117.382C276.716 117.76 274.906 118.505 273.295 119.572C271.685 120.64 270.306 122.01 269.238 123.603Z"
        fill="white" />
    <path
        d="M510.992 181.263L492.152 178.769L504.608 87.2454L468.272 82.4463L380.132 161.984L375.5 196.013L451.448 206.058L447.656 233.9L483.992 238.699L487.784 210.869L506.624 213.363L510.992 181.263ZM415.688 168.653L462.2 127.097L455.816 173.958L415.688 168.653Z"
        fill="#2CA89A" />
    <path
        d="M472.958 237.829H472.802C472.646 237.8 472.508 237.712 472.419 237.584C472.329 237.457 472.294 237.299 472.322 237.146L500.402 86.6572C500.434 86.5061 500.524 86.3729 500.654 86.2852C500.783 86.1976 500.942 86.1623 501.098 86.1867C501.254 86.2153 501.391 86.3031 501.481 86.4309C501.571 86.5587 501.606 86.7162 501.578 86.869L473.558 237.346C473.53 237.482 473.455 237.605 473.346 237.693C473.237 237.781 473.099 237.829 472.958 237.829Z"
        fill="#2B2A29" />
    <path
        d="M497.793 89.186C497.783 89.4418 497.67 89.6834 497.479 89.8577C497.288 90.0319 497.034 90.1246 496.773 90.1152C496.512 90.1059 496.265 89.9953 496.088 89.8078C495.91 89.6203 495.815 89.3712 495.825 89.1154C495.834 88.8596 495.947 88.618 496.139 88.4437C496.33 88.2695 496.584 88.1768 496.845 88.1862C497.106 88.1956 497.352 88.3061 497.53 88.4936C497.708 88.6811 497.802 88.9302 497.793 89.186Z"
        fill="#2B2A29" />
    <path
        d="M493.799 109.535C493.792 109.726 493.727 109.91 493.613 110.065C493.499 110.219 493.341 110.337 493.159 110.404C492.976 110.47 492.778 110.482 492.589 110.438C492.399 110.394 492.228 110.296 492.095 110.156C491.963 110.016 491.876 109.841 491.845 109.653C491.814 109.465 491.84 109.272 491.921 109.098C492.002 108.925 492.134 108.779 492.299 108.679C492.465 108.578 492.657 108.529 492.851 108.536C492.981 108.54 493.108 108.57 493.225 108.622C493.343 108.675 493.449 108.75 493.537 108.843C493.625 108.936 493.693 109.045 493.738 109.163C493.783 109.282 493.804 109.409 493.799 109.535Z"
        fill="#2B2A29" />
    <path
        d="M489.801 129.919C489.796 130.046 489.766 130.171 489.712 130.286C489.658 130.401 489.582 130.505 489.487 130.591C489.393 130.678 489.281 130.745 489.16 130.789C489.039 130.833 488.91 130.853 488.781 130.849C488.652 130.846 488.525 130.818 488.408 130.766C488.29 130.715 488.184 130.641 488.096 130.549C488.008 130.457 487.939 130.349 487.894 130.231C487.849 130.112 487.828 129.987 487.833 129.861C487.836 129.733 487.865 129.607 487.918 129.49C487.971 129.374 488.047 129.269 488.142 129.181C488.237 129.094 488.349 129.025 488.471 128.98C488.593 128.936 488.722 128.915 488.853 128.92C489.113 128.932 489.357 129.043 489.535 129.23C489.712 129.417 489.807 129.664 489.801 129.919Z"
        fill="#2B2A29" />
    <path
        d="M481.931 151.092C481.904 151.328 481.789 151.546 481.609 151.704C481.429 151.863 481.195 151.95 480.953 151.95C480.711 151.95 480.477 151.863 480.296 151.704C480.116 151.546 480.001 151.328 479.975 151.092C479.959 150.957 479.973 150.821 480.016 150.692C480.058 150.562 480.127 150.443 480.22 150.342C480.312 150.241 480.425 150.161 480.551 150.105C480.678 150.05 480.814 150.021 480.953 150.021C481.091 150.021 481.228 150.05 481.354 150.105C481.481 150.161 481.594 150.241 481.686 150.342C481.778 150.443 481.848 150.562 481.89 150.692C481.932 150.821 481.946 150.957 481.931 151.092Z"
        fill="#2B2A29" />
    <path
        d="M481.799 170.583C481.796 170.71 481.767 170.835 481.714 170.951C481.661 171.067 481.584 171.172 481.489 171.258C481.394 171.345 481.283 171.412 481.161 171.455C481.039 171.499 480.909 171.518 480.779 171.512C480.585 171.505 480.397 171.441 480.239 171.33C480.082 171.218 479.961 171.063 479.894 170.884C479.826 170.705 479.814 170.511 479.859 170.325C479.904 170.14 480.004 169.971 480.146 169.842C480.289 169.712 480.467 169.626 480.659 169.596C480.851 169.565 481.048 169.592 481.225 169.671C481.402 169.75 481.551 169.879 481.653 170.041C481.756 170.204 481.806 170.392 481.799 170.583Z"
        fill="#2B2A29" />
    <path
        d="M477.804 190.932C477.799 191.123 477.736 191.308 477.623 191.465C477.511 191.621 477.353 191.74 477.171 191.809C476.989 191.877 476.79 191.89 476.6 191.848C476.41 191.805 476.237 191.708 476.103 191.568C475.969 191.429 475.881 191.254 475.849 191.065C475.817 190.877 475.843 190.683 475.924 190.509C476.005 190.335 476.136 190.188 476.302 190.087C476.468 189.987 476.661 189.937 476.856 189.944C477.115 189.953 477.359 190.062 477.537 190.247C477.714 190.432 477.81 190.678 477.804 190.932Z"
        fill="#2B2A29" />
    <path
        d="M473.805 211.281C473.795 211.537 473.683 211.78 473.492 211.956C473.301 212.133 473.047 212.228 472.785 212.221C472.655 212.217 472.528 212.187 472.411 212.135C472.293 212.082 472.187 212.007 472.099 211.914C472.011 211.821 471.943 211.712 471.898 211.594C471.853 211.475 471.832 211.348 471.837 211.222C471.841 211.095 471.87 210.97 471.923 210.855C471.976 210.739 472.052 210.635 472.146 210.548C472.24 210.461 472.351 210.394 472.472 210.349C472.593 210.304 472.721 210.283 472.851 210.287C472.98 210.29 473.107 210.319 473.225 210.371C473.343 210.423 473.449 210.498 473.538 210.59C473.626 210.682 473.695 210.791 473.741 210.909C473.787 211.028 473.809 211.154 473.805 211.281Z"
        fill="#2B2A29" />
    <path
        d="M469.799 231.642C469.792 231.832 469.727 232.016 469.613 232.171C469.499 232.325 469.341 232.443 469.159 232.51C468.976 232.576 468.778 232.588 468.589 232.544C468.399 232.5 468.228 232.402 468.095 232.262C467.963 232.123 467.876 231.948 467.845 231.759C467.814 231.571 467.84 231.378 467.921 231.205C468.002 231.031 468.134 230.885 468.299 230.785C468.465 230.685 468.657 230.635 468.851 230.642C468.981 230.645 469.109 230.673 469.227 230.725C469.346 230.778 469.452 230.853 469.541 230.946C469.629 231.039 469.697 231.149 469.742 231.268C469.786 231.388 469.806 231.515 469.799 231.642Z"
        fill="#2B2A29" />
    <path
        d="M480.947 151.622C480.811 151.622 480.68 151.576 480.575 151.493C480.471 151.409 480.398 151.293 480.371 151.163C480.353 151.087 480.351 151.009 480.364 150.932C480.377 150.856 480.406 150.782 480.449 150.717C480.491 150.651 480.546 150.594 480.611 150.55C480.676 150.505 480.749 150.474 480.827 150.457L483.803 149.834C483.881 149.816 483.961 149.815 484.04 149.829C484.119 149.842 484.194 149.872 484.261 149.914C484.328 149.957 484.386 150.013 484.431 150.077C484.476 150.142 484.507 150.215 484.523 150.292C484.538 150.368 484.539 150.446 484.524 150.522C484.509 150.598 484.479 150.67 484.435 150.734C484.392 150.799 484.336 150.854 484.271 150.898C484.205 150.941 484.132 150.971 484.055 150.986L481.079 151.61L480.947 151.622Z"
        fill="#2B2A29" />
    <path
        d="M490.896 140.788C489.48 144.387 488.278 148.063 487.296 151.798C486.396 155.95 486.348 165.242 486.348 165.242"
        fill="#2B2A29" />
    <path
        d="M486.346 165.83C486.187 165.824 486.036 165.759 485.924 165.647C485.813 165.536 485.749 165.387 485.746 165.23C485.746 164.854 485.818 155.82 486.718 151.68C487.695 147.913 488.897 144.205 490.318 140.576C490.342 140.499 490.382 140.427 490.436 140.366C490.489 140.304 490.555 140.254 490.629 140.219C490.704 140.183 490.785 140.163 490.867 140.16C490.949 140.156 491.032 140.17 491.109 140.199C491.186 140.228 491.256 140.273 491.314 140.329C491.373 140.386 491.419 140.455 491.45 140.53C491.48 140.605 491.495 140.685 491.492 140.766C491.489 140.847 491.47 140.927 491.434 141C490.02 144.571 488.818 148.22 487.834 151.927C486.958 155.973 486.898 165.148 486.886 165.242C486.887 165.388 486.832 165.53 486.732 165.639C486.632 165.747 486.495 165.816 486.346 165.83Z"
        fill="#2B2A29" />
</svg>
    