<svg width="1780" height="148" viewBox="0 0 1780 148" fill="none" xmlns="http://www.w3.org/2000/svg">
    <path
        d="M768.83 10.2453C769.389 7.29975 770.946 5.10848 774.298 3.34832C779.686 0.474593 786.512 1.91151 789.545 6.5454C795.013 14.9151 790.702 28.4576 786.392 42C771.145 38.803 755.898 35.6419 750.43 27.2721C747.397 22.6742 749.353 16.6034 754.741 13.7297C758.373 11.8259 761.366 11.754 764.799 13.0112L765.477 13.2987H765.597V13.3705C768.311 14.5918 771.544 17.5374 778.05 27.344C774.817 19.1539 771.544 13.3705 768.79 10.3171"
        fill="#B7EAE4" />
    <path fill-rule="evenodd" clip-rule="evenodd"
        d="M756.736 -2.57853C759.53 -0.81837 762.922 3.92331 766.954 11.1435C758.692 3.06119 755.339 1.30098 753.463 -0.135886C751.986 -1.28538 754.261 -1.17759 754.78 -1.68049C755.459 -2.32708 755.06 -3.65621 756.696 -2.61449"
        fill="#B7EAE4" />
    <path
        d="M961.864 -8.87495C961.1 -12.9057 958.969 -15.9042 954.382 -18.3128C947.008 -22.2453 937.669 -20.279 933.518 -13.9379C926.035 -2.48474 931.934 16.0468 937.833 34.5784C958.696 30.2036 979.56 25.8779 987.043 14.4247C991.194 8.13277 988.517 -0.174438 981.144 -4.10687C976.174 -6.71211 972.078 -6.81048 967.381 -5.09004L966.452 -4.69671H966.288V-4.59845C962.574 -2.92717 958.15 1.10365 949.248 14.5231C953.672 3.31564 958.15 -4.59848 961.919 -8.77669"
        fill="#B7EAE4" />
    <path
        d="M1539.05 11.0646C1539.73 7.49206 1541.62 4.83438 1545.68 2.69957C1552.22 -0.785839 1560.5 0.956929 1564.17 6.57715C1570.81 16.7284 1565.58 33.1534 1560.35 49.5783C1541.86 45.7008 1523.37 41.8668 1516.73 31.7156C1513.06 26.1389 1515.43 18.7761 1521.96 15.2907C1526.37 12.9816 1530 12.8944 1534.16 14.4193L1534.98 14.7679H1535.13V14.855C1538.42 16.3363 1542.34 19.9089 1550.23 31.8028C1546.31 21.8694 1542.34 14.8549 1539 11.1517"
        fill="#B7EAE4" />
    <path fill-rule="evenodd" clip-rule="evenodd"
        d="M1524.38 -4.48882C1527.77 -2.35401 1531.89 3.39695 1536.77 12.154C1526.75 2.35133 1522.69 0.21645 1520.41 -1.52625C1518.62 -2.92042 1521.38 -2.78968 1522.01 -3.39963C1522.83 -4.18385 1522.35 -5.79589 1524.33 -4.53243"
        fill="#B7EAE4" />
    <path
        d="M1752.86 7.12505C1752.1 3.09431 1749.97 0.0957642 1745.38 -2.31285C1738.01 -6.24528 1728.67 -4.27899 1724.52 2.06205C1717.04 13.5153 1722.93 32.0468 1728.83 50.5784C1749.7 46.2036 1770.56 41.8779 1778.04 30.4247C1782.19 24.1328 1779.52 15.8256 1772.14 11.8931C1767.17 9.28789 1763.08 9.18952 1758.38 10.91L1757.45 11.3033H1757.29V11.4015C1753.57 13.0728 1749.15 17.1036 1740.25 30.5231C1744.67 19.3156 1749.15 11.4015 1752.92 7.22331"
        fill="#B7EAE4" />
    <path fill-rule="evenodd" clip-rule="evenodd"
        d="M1769.41 -10.4233C1765.59 -8.01464 1760.95 -1.52609 1755.43 8.35414C1766.74 -2.70582 1771.33 -5.11451 1773.89 -7.08072C1775.91 -8.6537 1772.8 -8.5062 1772.09 -9.19437C1771.16 -10.0792 1771.71 -11.898 1769.47 -10.4725"
        fill="#B7EAE4" />
    <path
        d="M168.322 16.249C169.092 12.1906 171.236 9.17155 175.855 6.74644C183.279 2.78708 192.683 4.76683 196.862 11.1513C204.396 22.6829 198.457 41.3414 192.518 59.9999C171.511 55.5951 150.505 51.2398 142.971 39.7081C138.791 33.3732 141.486 25.0091 148.91 21.0497C153.914 18.4266 158.038 18.3276 162.768 20.0598L163.702 20.4558H163.867V20.5548C167.607 22.2375 172.061 26.2959 181.025 39.8072C176.57 28.523 172.061 20.5547 168.267 16.3479"
        fill="#B7EAE4" />
    <path fill-rule="evenodd" clip-rule="evenodd"
        d="M151.658 -1.41931C155.508 1.0058 160.182 7.53879 165.736 17.4867C154.353 6.35098 149.734 3.9258 147.149 1.94612C145.114 0.362371 148.249 0.510883 148.964 -0.182005C149.899 -1.07286 149.349 -2.90412 151.603 -1.46885"
        fill="#B7EAE4" />
    <path
        d="M1624.62 79.0043C1624.03 75.8899 1622.38 73.5731 1618.84 71.7121C1613.14 68.6737 1605.93 70.193 1602.72 75.0924C1596.94 83.9417 1601.49 98.26 1606.05 112.578C1622.17 109.198 1638.29 105.856 1644.07 97.0067C1647.28 92.1452 1645.21 85.7267 1639.52 82.6883C1635.68 80.6754 1632.51 80.5994 1628.88 81.9287L1628.16 82.2326H1628.04V82.3085C1625.17 83.5998 1621.75 86.7142 1614.87 97.0827C1618.29 88.4233 1621.75 82.3085 1624.66 79.0802"
        fill="#B7EAE4" />
    <path fill-rule="evenodd" clip-rule="evenodd"
        d="M1637.41 65.4456C1634.45 67.3066 1630.87 72.32 1626.6 79.9539C1635.34 71.4085 1638.88 69.5474 1640.87 68.0282C1642.43 66.8129 1640.02 66.9268 1639.47 66.3951C1638.76 65.7115 1639.18 64.3062 1637.45 65.4076"
        fill="#B7EAE4" />
    <path
        d="M861.403 31.4059C860.363 27.8145 858.553 25.6255 854.393 24.4626C849.04 22.9234 843.339 25.3518 841.722 29.8667C838.756 38.0413 845.458 49.0207 852.198 60C864.869 54.5958 877.579 49.1917 880.545 41.0171C882.201 36.5022 879.197 31.5769 873.805 30.0378C869.838 28.9091 867.026 29.5931 863.983 31.7137C862.481 32.9793 860.671 35.4077 857.744 40.5724C858.938 36.7416 860.17 33.6634 861.403 31.4401"
        fill="#B7EAE4" />
    <path
        d="M560.286 5.24532C559.727 2.29975 558.17 0.10848 554.818 -1.65168C549.429 -4.52541 542.604 -3.08849 539.571 1.5454C534.103 9.91513 538.413 23.4576 542.724 37C557.971 33.803 573.217 30.6419 578.685 22.2721C581.719 17.6742 579.763 11.6034 574.375 8.72972C570.743 6.82587 567.749 6.75398 564.317 8.01124L563.638 8.29867H563.519V8.37048C560.804 9.59181 557.572 12.5374 551.066 22.344C554.299 14.1539 557.572 8.37046 560.326 5.31712"
        fill="#B7EAE4" />
    <path fill-rule="evenodd" clip-rule="evenodd"
        d="M572.38 -7.57853C569.586 -5.81837 566.193 -1.07669 562.162 6.14355C570.424 -1.93881 573.777 -3.69902 575.653 -5.13589C577.129 -6.28538 574.854 -6.17759 574.336 -6.68049C573.657 -7.32708 574.056 -8.65621 572.42 -7.61449"
        fill="#B7EAE4" />
    <path
        d="M1113.15 13.3773C1114.06 10.2847 1115.64 8.39975 1119.28 7.39834C1123.97 6.07296 1128.95 8.16408 1130.37 12.0519C1132.96 19.0912 1127.1 28.5456 1121.2 38C1110.11 33.3464 1098.99 28.6929 1096.4 21.6536C1094.95 17.7658 1097.58 13.5246 1102.3 12.1992C1105.77 11.2273 1108.23 11.8163 1110.89 13.6424C1112.2 14.7321 1113.79 16.8233 1116.35 21.2707C1115.3 17.972 1114.23 15.3212 1113.15 13.4068"
        fill="#B7EAE4" />
    <path
        d="M24.6198 114.004C24.029 110.89 22.3832 108.573 18.8384 106.712C13.1414 103.674 5.92532 105.193 2.71814 110.092C-3.06323 118.942 1.49432 133.26 6.05189 147.578C22.1722 144.198 38.2925 140.856 44.0738 132.007C47.281 127.145 45.2132 120.727 39.5163 117.688C35.6761 115.675 32.5112 115.599 28.882 116.929L28.1646 117.233H28.038V117.309C25.1684 118.6 21.7502 121.714 14.8716 132.083C18.2898 123.423 21.7502 117.308 24.662 114.08"
        fill="#B7EAE4" />
    <path fill-rule="evenodd" clip-rule="evenodd"
        d="M37.407 100.446C34.453 102.307 30.8661 107.32 26.6039 114.954C35.3392 106.408 38.884 104.547 40.8674 103.028C42.4288 101.813 40.0234 101.927 39.4748 101.395C38.7574 100.711 39.1794 99.3062 37.4493 100.408"
        fill="#B7EAE4" />
</svg>
    