<svg width="200" height="147" viewBox="0 0 200 147" fill="none" xmlns="http://www.w3.org/2000/svg">
    <path
        d="M147.192 109.243C129.469 109.243 113.803 110.555 104.225 112.573C95.4131 109.405 83.7053 107.476 70.8523 107.476C43.4563 107.476 21.2471 116.248 21.2471 127.072C21.2471 137.896 43.4563 146.668 70.8523 146.668C98.2484 146.668 120.458 137.896 120.458 127.072C120.458 126.021 120.241 124.993 119.841 123.987C127.818 124.715 137.18 125.137 147.192 125.137C176.362 125.137 199.999 121.579 199.999 117.193C200.005 112.796 176.362 109.243 147.192 109.243Z"
        fill="#EDEEF2" />
    <path
        d="M113.547 116.315C111.923 116.315 110.417 114.725 110.189 112.773L103.774 58.4594C103.54 56.5081 104.935 54.9237 106.881 54.9237H187.513C189.453 54.9237 190.848 56.5081 190.62 58.4594L184.205 112.773C183.971 114.725 182.465 116.315 180.847 116.315H113.547Z"
        fill="#F6F6F6" />
    <path
        d="M187.38 56.1468C188.648 56.1468 189.559 57.1864 189.415 58.465L183.177 112.779C183.033 114.058 182.043 115.097 180.976 115.097H113.414C112.347 115.097 111.363 114.058 111.213 112.779L104.975 58.465C104.831 57.1864 105.742 56.1468 107.01 56.1468H187.38ZM187.641 53.7063H106.749C104.125 53.7063 102.251 55.8411 102.568 58.465L109.161 112.779C109.478 115.403 111.507 117.538 113.681 117.538H180.709C182.883 117.538 184.906 115.403 185.229 112.779L191.822 58.465C192.139 55.8411 190.265 53.7063 187.641 53.7063Z"
        fill="#2B2A29" />
    <path
        d="M187.379 56.1469H175.705L172.403 98.9587C172.303 100.237 171.319 101.277 170.207 101.277H109.895L111.218 112.773C111.368 114.052 112.352 115.092 113.419 115.092H180.975C182.043 115.092 183.027 114.052 183.177 112.773L189.414 58.4595C189.559 57.1809 188.647 56.1469 187.379 56.1469Z"
        fill="#EDEEF2" />
    <path
        d="M187.379 56.1469H183.015L178.245 105.419C178.123 106.697 177.134 107.737 176.038 107.737H110.634L111.212 112.779C111.362 114.058 112.346 115.097 113.413 115.097H180.97C182.037 115.097 183.021 114.058 183.171 112.779L189.408 58.4651C189.559 57.1809 188.647 56.1469 187.379 56.1469Z"
        fill="#2CA89A" />
    <path d="M109.844 69.7559L112.618 96.2179" stroke="white" stroke-width="2.44063"
        stroke-miterlimit="10" stroke-linecap="round" stroke-linejoin="round" />
    <path
        d="M124.565 107.981C124.615 108.676 124.176 109.243 123.581 109.243H120.724C120.135 109.243 119.601 108.676 119.54 107.981L116.727 75.6097C116.666 74.9093 117.149 74.3478 117.811 74.3478H120.98C121.641 74.3478 122.208 74.9093 122.258 75.6097L124.565 107.981Z"
        fill="#F6F6F6" stroke="#2B2A29" stroke-width="2.44063" stroke-miterlimit="10"
        stroke-linecap="round" stroke-linejoin="round" />
    <path
        d="M137.135 107.981C137.157 108.676 136.696 109.243 136.101 109.243H133.243C132.648 109.243 132.143 108.676 132.109 107.981L130.575 75.6097C130.541 74.9093 131.047 74.3478 131.703 74.3478H134.872C135.528 74.3478 136.084 74.9093 136.106 75.6097L137.135 107.981Z"
        fill="#F6F6F6" stroke="#2B2A29" stroke-width="2.44063" stroke-miterlimit="10"
        stroke-linecap="round" stroke-linejoin="round" />
    <path
        d="M149.705 107.981C149.699 108.676 149.216 109.243 148.621 109.243H145.769C145.174 109.243 144.691 108.676 144.685 107.981L144.429 75.6097C144.424 74.9093 144.952 74.3478 145.608 74.3478H148.777C149.438 74.3478 149.966 74.9093 149.961 75.6097L149.705 107.981Z"
        fill="#F6F6F6" stroke="#2B2A29" stroke-width="2.44063" stroke-miterlimit="10"
        stroke-linecap="round" stroke-linejoin="round" />
    <path
        d="M162.274 107.981C162.241 108.676 161.735 109.243 161.14 109.243H158.283C157.688 109.243 157.227 108.676 157.249 107.981L158.272 75.6097C158.294 74.9093 158.844 74.3478 159.506 74.3478H162.675C163.331 74.3478 163.842 74.9093 163.809 75.6097L162.274 107.981Z"
        fill="#F6F6F6" stroke="#2B2A29" stroke-width="2.44063" stroke-miterlimit="10"
        stroke-linecap="round" stroke-linejoin="round" />
    <path
        d="M174.843 107.981C174.782 108.676 174.254 109.243 173.659 109.243H170.802C170.207 109.243 169.768 108.676 169.818 107.981L172.119 75.6098C172.169 74.9094 172.742 74.3479 173.398 74.3479H176.567C177.223 74.3479 177.712 74.9094 177.651 75.6098L174.843 107.981Z"
        fill="#F6F6F6" stroke="#2B2A29" stroke-width="2.44063" stroke-miterlimit="10"
        stroke-linecap="round" stroke-linejoin="round" />
    <path
        d="M118.744 57.9036C118.388 58.4539 117.655 58.6152 117.11 58.2594L114.458 56.5527C113.908 56.1969 113.747 55.463 114.102 54.9182L130.547 29.3401C130.902 28.7897 131.636 28.6341 132.187 28.9843L134.838 30.6854C135.389 31.0412 135.55 31.775 135.194 32.3254L118.744 57.9036Z"
        fill="#F6F6F6" stroke="#2B2A29" stroke-width="2.44063" stroke-miterlimit="10"
        stroke-linecap="round" stroke-linejoin="round" />
    <path
        d="M175.638 57.9035C175.994 58.4539 176.728 58.6151 177.278 58.2593L179.93 56.5526C180.48 56.1968 180.636 55.463 180.286 54.9182L163.841 29.34C163.486 28.7897 162.752 28.634 162.207 28.9842L159.555 30.6854C159.005 31.0412 158.844 31.775 159.199 32.3253L175.638 57.9035Z"
        fill="#F6F6F6" stroke="#2B2A29" stroke-width="2.44063" stroke-miterlimit="10"
        stroke-linecap="round" stroke-linejoin="round" />
    <path
        d="M101.434 66.6538C99.5603 66.6538 98.0371 65.1306 98.0371 63.2571V56.6305C98.0371 54.757 99.5603 53.2338 101.434 53.2338H192.95C194.824 53.2338 196.347 54.757 196.347 56.6305V63.2571C196.347 65.1306 194.824 66.6538 192.95 66.6538H101.434Z"
        fill="#F6F6F6" />
    <path
        d="M192.955 54.4513C194.161 54.4513 195.134 55.4242 195.134 56.6305V63.2572C195.134 64.458 194.161 65.4364 192.955 65.4364H101.433C100.232 65.4364 99.2535 64.4635 99.2535 63.2572V56.6305C99.2535 55.4297 100.232 54.4513 101.433 54.4513H192.955ZM192.955 52.0108H101.433C98.8866 52.0108 96.813 54.0844 96.813 56.6305V63.2572C96.813 65.8033 98.8866 67.8769 101.433 67.8769H192.949C195.495 67.8769 197.569 65.8033 197.569 63.2572V56.6305C197.575 54.0844 195.501 52.0108 192.955 52.0108Z"
        fill="#2B2A29" />
    <path
        d="M192.955 54.4512H188.597V57.7645C188.597 58.9709 187.624 59.9437 186.418 59.9437H99.2539V63.257C99.2539 64.4578 100.232 65.4363 101.433 65.4363H192.95C194.156 65.4363 195.129 64.4634 195.129 63.257V56.6304C195.134 55.4296 194.156 54.4512 192.955 54.4512Z"
        fill="#2CA89A" />
    <path
        d="M31.1269 83.7707C30.9378 83.7707 30.7433 83.7263 30.5709 83.6373L18.9243 77.6945C18.4962 77.4777 18.2349 77.0218 18.2572 76.5437C18.285 76.06 18.5907 75.6431 19.0355 75.4708L58.7619 60.1995C58.9009 60.1439 59.051 60.1161 59.2011 60.1161C59.3345 60.1161 59.4735 60.1383 59.6014 60.1828L69.5469 63.6351C70.0361 63.8074 70.3697 64.2689 70.3697 64.7859V67.9324C70.3697 68.4383 70.0584 68.8886 69.5858 69.0721L31.5605 83.6929C31.4215 83.7429 31.277 83.7707 31.1269 83.7707Z"
        fill="#EDEEF2" />
    <path
        d="M59.2053 61.3391L69.1508 64.7914V67.938L31.1255 82.5588L19.4788 76.6104L59.2053 61.3391ZM59.2053 58.8986C58.9051 58.8986 58.6104 58.9542 58.3269 59.0598L18.606 74.3311C17.7054 74.6758 17.0939 75.5208 17.0439 76.4826C16.9938 77.4443 17.5108 78.3449 18.3725 78.7841L30.0192 84.7269C30.3638 84.9048 30.7474 84.9938 31.131 84.9938C31.4257 84.9938 31.7259 84.9382 32.0094 84.8326L70.0347 70.2117C70.9798 69.8504 71.5969 68.9442 71.5969 67.9324V64.7859C71.5969 63.7463 70.9409 62.8179 69.9569 62.4788L60.0114 59.0265C59.7501 58.9431 59.4777 58.8986 59.2053 58.8986Z"
        fill="#2B2A29" />
    <path
        d="M37.9964 79.9072L30.3635 76.2547L65.1868 63.4073L59.205 61.3392L19.4785 76.6105L31.1252 82.5534L37.9964 79.9072Z"
        fill="#F6F6F6" />
    <path
        d="M110.579 83.7708C110.429 83.7708 110.284 83.743 110.14 83.6874L72.1144 69.0666C71.6419 68.8831 71.3306 68.4328 71.3306 67.9269V64.7804C71.3306 64.2578 71.6586 63.7964 72.1533 63.6296L82.0988 60.1773C82.2267 60.1328 82.3657 60.1106 82.4991 60.1106C82.6492 60.1106 82.7938 60.1384 82.9383 60.194L122.665 75.4653C123.115 75.6376 123.421 76.0601 123.443 76.5382C123.471 77.0219 123.21 77.4722 122.781 77.689L111.135 83.6318C110.963 83.7263 110.773 83.7708 110.579 83.7708Z"
        fill="#EDEEF2" />
    <path
        d="M82.4993 61.3393L122.226 76.6105L110.579 82.5534L72.5538 67.9325V64.786L82.4993 61.3393ZM82.4993 58.8987C82.2269 58.8987 81.9601 58.9432 81.6988 59.0322L71.7533 62.4845C70.7693 62.8236 70.1133 63.752 70.1133 64.7916V67.9381C70.1133 68.9499 70.7359 69.856 71.681 70.2174L109.706 84.8382C109.99 84.9494 110.284 84.9995 110.585 84.9995C110.968 84.9995 111.346 84.9105 111.697 84.7326L123.343 78.7898C124.199 78.3506 124.722 77.45 124.672 76.4882C124.622 75.5265 124.01 74.6815 123.11 74.3368L83.3832 59.0655C83.0941 58.9488 82.7939 58.8987 82.4993 58.8987Z"
        fill="#2B2A29" />
    <path
        d="M103.707 79.9072L111.346 76.2547L76.5171 63.4073L82.4989 61.3392L122.225 76.6105L110.579 82.5534L103.707 79.9072Z"
        fill="#F6F6F6" />
    <path
        d="M110.58 123.964C110.43 123.964 110.285 123.936 110.141 123.881L70.4142 108.61C69.9417 108.426 69.6304 107.976 69.6304 107.47V67.7434C69.6304 67.3432 69.8305 66.9651 70.1585 66.7372C70.3642 66.5982 70.6032 66.5204 70.8478 66.5204C70.9979 66.5204 71.1425 66.5482 71.287 66.6038L111.013 81.8751C111.486 82.0585 111.797 82.5088 111.797 83.0147V122.741C111.797 123.141 111.597 123.519 111.269 123.747C111.064 123.892 110.824 123.964 110.58 123.964Z"
        fill="#F6F6F6" />
    <path
        d="M70.8526 67.7434L110.579 83.0147V122.741L70.8526 107.47V67.7434ZM70.8526 65.3029C70.3634 65.3029 69.8853 65.4475 69.4684 65.731C68.8068 66.1868 68.4121 66.9373 68.4121 67.7434V107.47C68.4121 108.482 69.0347 109.388 69.9743 109.749L109.701 125.02C109.984 125.132 110.279 125.182 110.579 125.182C111.068 125.182 111.546 125.037 111.963 124.754C112.625 124.298 113.02 123.547 113.02 122.741V83.0147C113.02 82.0029 112.397 81.0968 111.452 80.7354L71.7254 65.4641C71.4475 65.3585 71.1473 65.3029 70.8526 65.3029Z"
        fill="#2B2A29" />
    <path d="M101.412 79.4901L70.8525 92.5265V107.47L110.579 122.747V83.0146L101.412 79.4901Z"
        fill="#2CA89A" />
    <path
        d="M70.8527 139.808C70.6081 139.808 70.3691 139.736 70.1634 139.591C69.8298 139.363 69.6353 138.985 69.6353 138.585V98.8585C69.6353 98.3526 69.9466 97.9023 70.4191 97.7189L110.146 82.4476C110.285 82.392 110.435 82.3642 110.585 82.3642C110.829 82.3642 111.068 82.4365 111.274 82.581C111.608 82.8089 111.802 83.187 111.802 83.5872V123.314C111.802 123.82 111.491 124.27 111.018 124.453L71.2919 139.725C71.1474 139.78 71.0028 139.808 70.8527 139.808Z"
        fill="#EDEEF2" />
    <path
        d="M110.579 83.5872V123.314L70.8526 138.585V98.8585L110.579 83.5872ZM110.579 81.1467C110.284 81.1467 109.984 81.2023 109.701 81.3079L69.9743 96.5792C69.0292 96.9406 68.4121 97.8467 68.4121 98.8585V138.585C68.4121 139.391 68.8068 140.142 69.4684 140.597C69.8797 140.881 70.3634 141.025 70.8526 141.025C71.1473 141.025 71.4475 140.97 71.731 140.864L111.457 125.593C112.403 125.232 113.025 124.325 113.025 123.314V83.5872C113.025 82.7811 112.63 82.0307 111.969 81.5748C111.546 81.2913 111.068 81.1467 110.579 81.1467Z"
        fill="#2B2A29" />
    <path
        d="M103.708 86.2335V117.588L70.8525 130.218V138.591L110.579 123.314V83.5873L103.708 86.2335Z"
        fill="#F6F6F6" />
    <path
        d="M31.1262 123.964C30.8816 123.964 30.6425 123.892 30.4368 123.748C30.1033 123.52 29.9087 123.142 29.9087 122.741V83.0149C29.9087 82.509 30.22 82.0587 30.6925 81.8752L70.419 66.604C70.558 66.5484 70.7081 66.5206 70.8582 66.5206C71.1028 66.5206 71.3418 66.5928 71.5475 66.7374C71.8811 66.9653 72.0757 67.3433 72.0757 67.7436V107.47C72.0757 107.976 71.7643 108.426 71.2918 108.61L31.5654 123.881C31.4208 123.937 31.2763 123.964 31.1262 123.964Z"
        fill="#EDEEF2" />
    <path
        d="M70.8532 67.7436V107.47L31.1267 122.741V83.0148L70.8532 67.7436ZM70.8532 65.303C70.5586 65.303 70.2639 65.3586 69.9748 65.4643L30.2484 80.7355C29.3033 81.0969 28.6807 82.003 28.6807 83.0148V122.741C28.6807 123.547 29.0754 124.298 29.7369 124.754C30.1483 125.037 30.632 125.182 31.1212 125.182C31.4158 125.182 31.716 125.126 31.9995 125.021L71.726 109.749C72.6711 109.388 73.2882 108.482 73.2882 107.47V67.7436C73.2882 66.9375 72.8934 66.187 72.2319 65.7311C71.8261 65.4476 71.3424 65.303 70.8532 65.303Z"
        fill="#2B2A29" />
    <path
        d="M65.2209 69.9115V103.317L31.126 116.426V122.747L70.8524 107.47V67.7434L65.2209 69.9115Z"
        fill="#F6F6F6" />
    <path
        d="M70.8523 139.808C70.7022 139.808 70.5577 139.78 70.4131 139.725L30.6867 124.453C30.2142 124.27 29.9028 123.82 29.9028 123.314V83.5872C29.9028 83.187 30.103 82.8089 30.431 82.581C30.6367 82.442 30.8757 82.3642 31.1203 82.3642C31.2704 82.3642 31.415 82.392 31.5595 82.4476L71.2859 97.7189C71.7585 97.9023 72.0698 98.3526 72.0698 98.8585V138.585C72.0698 138.985 71.8697 139.363 71.5417 139.591C71.336 139.736 71.0969 139.808 70.8523 139.808Z"
        fill="#2CA89A" />
    <path
        d="M31.1261 83.5872L70.8525 98.8585V138.585L31.1261 123.314V83.5872ZM31.1261 81.1467C30.6368 81.1467 30.1587 81.2913 29.7418 81.5748C29.0803 82.0307 28.6855 82.7811 28.6855 83.5872V123.314C28.6855 124.325 29.3082 125.232 30.2533 125.593L69.9797 140.864C70.2632 140.975 70.5579 141.025 70.8581 141.025C71.3473 141.025 71.8254 140.881 72.2423 140.597C72.9039 140.142 73.2986 139.391 73.2986 138.585V98.8585C73.2986 97.8467 72.676 96.9406 71.7364 96.5792L32.01 81.3079C31.7209 81.2023 31.4207 81.1467 31.1261 81.1467Z"
        fill="#2B2A29" />
    <path
        d="M64.5538 96.4404V129.234L31.126 116.381V123.314L70.8524 138.591V98.8586L64.5538 96.4404Z"
        fill="#F6F6F6" />
    <path
        d="M78.9628 111.962C78.568 111.962 78.19 111.773 77.9565 111.428L71.5467 102.038C71.4077 101.838 71.3354 101.594 71.3354 101.349V98.2025C71.3354 97.6966 71.6468 97.2463 72.1193 97.0629L110.145 82.442C110.289 82.3864 110.434 82.3586 110.584 82.3586C110.979 82.3586 111.357 82.5532 111.59 82.8923L119.701 94.7725C119.912 95.0782 119.968 95.4674 119.857 95.8232C119.745 96.179 119.479 96.4625 119.128 96.6015L79.4019 111.873C79.2574 111.939 79.1073 111.962 78.9628 111.962Z"
        fill="#EDEEF2" />
    <path
        d="M110.579 83.5874L118.69 95.4675L78.9638 110.739L72.554 101.349V98.2027L110.579 83.5874ZM110.579 81.1469C110.285 81.1469 109.99 81.2024 109.707 81.3081L71.6756 95.9289C70.7305 96.2903 70.1079 97.1964 70.1079 98.2082V101.355C70.1079 101.844 70.258 102.328 70.5304 102.728L76.9402 112.117C77.4072 112.801 78.1688 113.185 78.9583 113.185C79.2529 113.185 79.5475 113.129 79.831 113.024L119.558 97.7524C120.252 97.4855 120.792 96.9129 121.014 96.2013C121.236 95.4897 121.12 94.717 120.703 94.0999L112.592 82.2198C112.13 81.5304 111.369 81.1469 110.579 81.1469Z"
        fill="#2B2A29" />
    <path
        d="M103.707 86.2334L107.276 91.4869L74.4209 104.123L78.9628 110.744L118.689 95.4729L110.578 83.5872L103.707 86.2334Z"
        fill="#F6F6F6" />
    <path
        d="M62.7414 111.962C62.5969 111.962 62.4468 111.934 62.3022 111.878L22.5758 96.607C22.2255 96.4736 21.9587 96.1901 21.8475 95.8287C21.7363 95.4729 21.7919 95.0838 22.0032 94.778L30.1141 82.8979C30.3476 82.5588 30.7257 82.3642 31.1204 82.3642C31.2649 82.3642 31.415 82.392 31.5595 82.4476L69.9296 97.2019C70.4021 97.3853 70.7134 97.8356 70.7134 98.3415V100.849C70.7134 101.093 70.6411 101.332 70.5022 101.538L63.7477 111.439C63.5197 111.773 63.1361 111.962 62.7414 111.962Z"
        fill="#EDEEF2" />
    <path
        d="M31.1263 83.5872L69.4963 98.3415V100.849L62.7419 110.75L23.0154 95.4785L31.1263 83.5872ZM31.1263 81.1467C30.3369 81.1467 29.5753 81.5303 29.1083 82.2141L21.0029 94.0942C20.5804 94.7113 20.4692 95.4841 20.6916 96.1956C20.914 96.9072 21.4477 97.4798 22.1481 97.7467L61.8746 113.018C62.1581 113.129 62.4583 113.179 62.7474 113.179C63.5368 113.179 64.2984 112.796 64.7654 112.112L71.5199 102.211C71.7979 101.805 71.9424 101.327 71.9424 100.838V98.3304C71.9424 97.3186 71.3198 96.4125 70.3747 96.0511L32.0047 81.2968C31.7156 81.2023 31.421 81.1467 31.1263 81.1467Z"
        fill="#2B2A29" />
    <path
        d="M37.9969 86.2334L34.4334 91.4869L67.2886 104.123L62.7411 110.744L23.0146 95.4729L31.1256 83.5872L37.9969 86.2334Z"
        fill="#F6F6F6" />
    <path
        d="M72.4209 76.8662C71.915 76.8662 71.4481 76.5493 71.2702 76.0545L62.4921 51.4214L10.9856 55.1739C10.9578 55.1739 10.9244 55.1795 10.8966 55.1795C8.48947 55.1795 6.52705 53.2449 6.48258 50.8433L1.22352 6.10791C1.21796 6.06343 1.2124 6.0134 1.2124 5.96337C1.2124 3.52841 3.1915 1.54932 5.62645 1.54932C5.65425 1.54932 5.67649 1.54932 5.70428 1.54932L78.3082 6.15794C80.7209 6.18018 82.6778 8.14816 82.6778 10.5664V45.851C82.6778 48.2693 80.7265 50.2373 78.3137 50.2595L73.6384 50.5987V75.6376C73.6384 76.2324 73.2104 76.7383 72.6266 76.8384C72.5599 76.8606 72.4932 76.8662 72.4209 76.8662Z"
        fill="#F6F6F6" />
    <path
        d="M5.63153 2.7723L78.2744 7.38649C80.0367 7.38649 81.4654 8.81522 81.4654 10.5775V45.8621C81.4654 47.6244 80.0367 49.0531 78.2744 49.0531L72.426 49.4812V75.6542L63.3366 50.1427L10.9017 53.962C9.13942 53.962 7.71069 52.5332 7.71069 50.7709L2.44607 5.96887C2.44051 4.20103 3.86925 2.7723 5.63153 2.7723ZM5.63153 0.331787C2.5239 0.331787 0 2.86125 0 5.96887C0 6.06338 0.00555858 6.15789 0.0166771 6.2524L5.27018 50.9266C5.35913 53.9564 7.84968 56.3969 10.9017 56.3969C10.9629 56.3969 11.0185 56.3969 11.0796 56.3913L61.6577 52.7056L70.1245 76.4658C70.4747 77.4498 71.4031 78.0891 72.4205 78.0891C72.5595 78.0891 72.6984 78.078 72.8374 78.0558C74.0049 77.8556 74.861 76.8383 74.861 75.6486V51.7438L78.3689 51.4881C81.4265 51.4325 83.9004 48.9308 83.9004 45.8566V10.5719C83.9004 7.49767 81.4209 4.99045 78.3578 4.94041L5.78719 0.337348C5.73716 0.331788 5.68712 0.331787 5.63153 0.331787Z"
        fill="#2B2A29" />
    <path
        d="M18.5454 7.5143L9.80067 6.95837C8.23852 6.95837 6.97656 8.22588 6.97656 9.78247L9.53938 31.5914"
        stroke="#2B2A29" stroke-width="2.44063" stroke-miterlimit="10" stroke-linecap="round"
        stroke-linejoin="round" />
    <path
        d="M78.274 7.38091L73.2207 7.05847V38.674C73.2207 40.4363 71.7919 41.865 70.0297 41.865L66.0103 42.1596L65.6545 42.1874L64.1758 42.2931L7.19336 46.4458L7.70481 50.7654C7.70481 52.5277 9.13354 53.9564 10.8958 53.9564L63.3308 50.1372L64.1813 52.5165L72.4257 75.6486V49.4756L78.274 49.0476C80.0363 49.0476 81.4651 47.6188 81.4651 45.8565V10.5719C81.4651 8.80964 80.0363 7.38091 78.274 7.38091Z"
        fill="#2CA89A" />
    <path
        d="M78.2744 7.38101L76.8123 7.2865V42.5322C76.8123 44.2945 75.3836 45.7232 73.6213 45.7232L67.7729 46.1513V62.59L72.4261 75.6487V49.4757L78.2744 49.0476C80.0367 49.0476 81.4654 47.6189 81.4654 45.8566V10.572C81.4654 8.80974 80.0367 7.38101 78.2744 7.38101Z"
        fill="#F6F6F6" />
    <ellipse cx="29.7934" cy="20.5642" rx="2.37099" ry="2.37099" fill="#2B2A29" />
    <ellipse cx="51.9223" cy="20.5642" rx="2.37099" ry="2.37099" fill="#2B2A29" />
    <path d="M37.2222 34.1019C38.9609 30.7298 44.0822 26.0089 50.6578 34.1019" stroke="#2B2A29"
        stroke-width="2.23268" stroke-linecap="round" />
</svg>
    