<svg
    width="93"
    height="18"
    viewBox="0 0 93 18"
    fill="none"
    xmlns="http://www.w3.org/2000/svg"
>
    <path
        d="M6.77753 5.24091C7.05455 4.27052 7.6002 3.60336 8.65794 3.12683C10.3537 2.37304 12.2929 3.10082 12.9896 4.75569C14.2572 7.76219 12.4524 12.1377 10.6475 16.5218C6.3158 14.8929 1.99252 13.2554 0.724912 10.2489C0.0281487 8.59398 0.834039 6.62718 2.52978 5.87339C3.66307 5.3622 4.55292 5.4575 5.50152 6.00335C5.56868 6.04667 5.64423 6.09001 5.71139 6.13333V6.14198C6.45852 6.65317 7.28121 7.75352 8.79226 11.2799C8.17105 8.41201 7.4491 6.34993 6.76073 5.23224"
        fill="#B7EAE4"
    />
    <path
        fill-rule="evenodd"
        clip-rule="evenodd"
        d="M3.74703 0.501627C4.49416 1.19477 5.30004 2.91029 6.18989 5.48358C4.0996 2.45975 3.18458 1.75794 2.69768 1.20343C2.31153 0.761553 2.97471 0.882845 3.1426 0.735553C3.36087 0.544939 3.3021 0.0857341 3.74703 0.492954"
        fill="#B7EAE4"
    />
    <path
        d="M87.5885 6.4897C87.4485 5.64338 87.0585 5.01378 86.2185 4.50805C84.8685 3.68236 83.1585 4.09522 82.3985 5.42664C81.0285 7.83144 82.1085 11.7225 83.1885 15.6135C87.0085 14.6949 90.8285 13.7867 92.1985 11.3819C92.9585 10.0608 92.4685 8.31653 91.1185 7.49085C90.2085 6.94383 89.4585 6.92318 88.5985 7.28441L88.4285 7.367H88.3985V7.38763C87.7185 7.73855 86.9085 8.58489 85.2785 11.4025C86.0885 9.04934 86.9085 7.38762 87.5985 6.51033"
        fill="#B7EAE4"
    />
    <path
        fill-rule="evenodd"
        clip-rule="evenodd"
        d="M90.6185 2.80518C89.9185 3.31091 89.0685 4.6733 88.0585 6.74783C90.1285 4.42559 90.9685 3.91985 91.4385 3.507C91.8085 3.17673 91.2385 3.2077 91.1085 3.06321C90.9385 2.87743 91.0385 2.49554 90.6285 2.79485"
        fill="#B7EAE4"
    />
    <path
        d="M52.0586 9.26626C51.7886 8.18255 51.3186 7.522 50.2386 7.17108C48.8486 6.70664 47.3686 7.43942 46.9486 8.8018C46.1786 11.2685 47.9186 14.5816 49.6686 17.8946C52.9586 16.2639 56.2586 14.6332 57.0286 12.1665C57.4586 10.8041 56.6786 9.31787 55.2786 8.85342C54.2486 8.51283 53.5186 8.71924 52.7286 9.35914C52.3386 9.74102 51.8686 10.4738 51.1086 12.0323C51.4186 10.8763 51.7386 9.94746 52.0586 9.27659"
        fill="#B7EAE4"
    />
</svg>