<svg width="101" height="110" viewBox="0 0 101 110" fill="none" xmlns="http://www.w3.org/2000/svg">
    <path d="M89.9383 109.5H11.5645V43.1675L50.7451 18.2693L89.9383 43.1675V109.5Z" fill="#2CA89A" />
    <path opacity="0.2" d="M89.9383 109.5H11.5645V43.1675L50.7451 18.2693L89.9383 43.1675V109.5Z"
        fill="#2B2A29" />
    <path d="M85.4815 15.1147H15.9473V104.424H85.4815V15.1147Z" fill="#F6F6F6" />
    <path
        d="M46.4974 68.5474L30.5762 52.4243L35.925 47.1355L45.2275 56.5552L64.5457 26.2493L70.8891 30.2926L46.4974 68.5474Z"
        fill="#2CA89A" />
    <path
        d="M89.9383 59.8037V109.5H11.5645V59.8037C14.9301 61.6814 18.2395 63.7093 21.5739 65.6621C24.9083 67.6149 28.2114 69.6428 31.5082 71.6707C35.1804 73.9052 38.8526 76.1834 42.5123 78.4742L42.6312 78.4054C42.5937 78.4054 42.5686 78.468 42.5374 78.4867C45.2733 80.1767 48.0113 81.877 50.7514 83.5878C53.4789 81.8666 56.2253 80.1328 58.9653 78.4367C58.9341 78.4367 58.909 78.3804 58.8715 78.3553C58.9084 78.381 58.9483 78.402 58.9904 78.4179C62.648 76.1355 66.316 73.8655 69.9945 71.6081C73.2934 69.5927 76.6007 67.594 79.9163 65.612C83.282 63.678 86.5726 61.6814 89.9383 59.8037Z"
        fill="#2CA89A" />
    <g opacity="0.2">
        <path
            d="M89.907 59.8035C86.7415 62.0254 83.5197 64.1847 80.3292 66.3503C77.1387 68.516 73.8919 70.6315 70.6514 72.7533C67.2732 74.969 63.8888 77.1638 60.4981 79.3377L60.1915 79.5505L51.1643 85.3088L50.7138 85.5779L50.2759 85.3088L41.2612 79.538L40.9421 79.3377C37.5431 77.1596 34.1545 74.9606 30.7763 72.7408C27.5483 70.6315 24.3265 68.4909 21.111 66.3503C17.8954 64.2098 14.6987 61.9941 11.5332 59.8035C14.8989 61.6812 18.2082 63.7091 21.5426 65.6619C24.877 67.6147 28.1801 69.6426 31.477 71.6705C35.1492 73.9049 38.8214 76.1832 42.4811 78.474C45.2337 80.1722 47.98 81.8768 50.7201 83.5876C53.4477 81.8663 56.194 80.1326 58.9341 78.4364C62.5917 76.154 66.2597 73.8841 69.9382 71.6267C73.2371 69.6113 76.5444 67.6126 79.86 65.6306C83.2507 63.6778 86.5413 61.6812 89.907 59.8035Z"
            fill="#2B2A29" />
        <path
            d="M42.6139 78.3738C42.5763 78.3738 42.5513 78.4364 42.52 78.4551L41.2688 79.5067C39.3045 81.1653 37.2901 82.7551 35.2444 84.301C32.7421 86.1787 30.1959 88.0564 27.631 89.8465C25.0661 91.6365 22.4636 93.389 19.8111 95.0852C17.1586 96.7814 14.4936 98.44 11.7285 99.961C14.1058 97.8767 16.5768 95.9302 19.0729 94.04C21.569 92.1498 24.1339 90.2846 26.6863 88.4883C29.2388 86.6919 31.8662 84.9332 34.5125 83.237C36.6207 81.8851 38.7665 80.5519 40.9498 79.3064C41.4565 79.0122 41.9632 78.7305 42.4825 78.4426L42.6139 78.3738Z"
            fill="#2B2A29" />
        <path
            d="M89.7263 99.961C86.9612 98.44 84.2775 96.7814 81.6437 95.0852C79.01 93.389 76.3763 91.624 73.8114 89.8465C71.2464 88.0689 68.694 86.2038 66.1979 84.301C64.1648 82.7551 62.1504 81.1715 60.1985 79.5192L58.9474 78.4551C58.9161 78.4551 58.8911 78.3988 58.8535 78.3738C58.8904 78.3995 58.9303 78.4205 58.9724 78.4364C59.4916 78.7305 59.9984 79.0122 60.5051 79.3064C62.6884 80.5582 64.8217 81.8851 66.9424 83.237C69.5886 84.9332 72.1786 86.6982 74.756 88.4883C77.3334 90.2783 79.8733 92.131 82.3694 94.04C84.8655 95.949 87.3491 97.8767 89.7263 99.961Z"
            fill="#2B2A29" />
    </g>
    <path
        d="M17.2014 10.8586C16.7844 7.41834 16.7844 3.94026 17.2014 0.5C17.6185 3.94026 17.6185 7.41834 17.2014 10.8586Z"
        fill="#2B2A29" />
    <path
        d="M12.7885 12.5049C11.4174 11.4465 10.1194 10.2963 8.90363 9.06245C7.66889 7.84963 6.51925 6.55303 5.46289 5.18188C8.18965 7.31992 10.6492 9.77861 12.7885 12.5049Z"
        fill="#2B2A29" />
    <path
        d="M10.8555 16.7795C9.13801 17.0024 7.40732 17.107 5.67558 17.0927C3.94598 17.1121 2.21717 17.0095 0.501953 16.7858C2.217 16.5598 3.94583 16.4551 5.67558 16.4726C7.40718 16.4562 9.13787 16.5587 10.8555 16.7795Z"
        fill="#2B2A29" />
    <path
        d="M12.4971 21.1798C10.3578 23.9059 7.90062 26.3664 5.17773 28.5091C7.31218 25.7769 9.76993 23.3137 12.4971 21.1736V21.1798Z"
        fill="#2B2A29" />
    <path
        d="M83.7979 10.8586C83.5805 9.13988 83.4781 7.40855 83.4914 5.67617C83.479 3.9455 83.5856 2.21603 83.8104 0.5C84.2275 3.94026 84.2275 7.41834 83.8104 10.8586H83.7979Z"
        fill="#2B2A29" />
    <path
        d="M88.209 12.5049C90.3483 9.77861 92.8079 7.31992 95.5346 5.18188C94.4783 6.55303 93.3286 7.84963 92.0939 9.06245C90.8781 10.2963 89.5801 11.4465 88.209 12.5049Z"
        fill="#2B2A29" />
    <path
        d="M90.1465 16.7798C91.8641 16.559 93.5948 16.4564 95.3264 16.4729C97.0561 16.4552 98.7849 16.5599 100.5 16.7861C98.7848 17.01 97.056 17.1125 95.3264 17.093C93.5946 17.1073 91.8639 17.0027 90.1465 16.7798Z"
        fill="#2B2A29" />
    <path
        d="M88.502 21.1797C91.2288 23.3179 93.6865 25.7789 95.8214 28.5089C94.4523 27.4481 93.1565 26.2959 91.9427 25.0603C90.7081 23.8473 89.5585 22.5507 88.502 21.1797Z"
        fill="#2B2A29" />
</svg>
    