<svg width="386" height="264" viewBox="0 0 386 264" fill="none" xmlns="http://www.w3.org/2000/svg">
    <path
        d="M221.392 28.7956C161.048 49.1644 27.9067 -33.1197 7.67865 66.625C-8.94938 148.487 74.7302 230.63 183.575 258.574C260.84 278.415 365.674 244.339 383.557 148.1C394.744 87.9084 349.55 19.18 313.867 5.48354C269.271 -11.6135 260.746 15.5331 221.392 28.7956Z"
        fill="#2CA89A" />
    <path opacity="0.9"
        d="M221.392 28.7956C161.048 49.1644 27.9067 -33.1197 7.67865 66.625C-8.94939 148.487 74.7302 230.63 183.575 258.574C260.84 278.415 365.674 244.339 383.557 148.1C394.744 87.9084 349.55 19.18 313.867 5.48354C269.271 -11.6135 260.746 15.5331 221.392 28.7956Z"
        fill="white" />
    <path d="M385.655 64.6665H16.9766V153.998H385.655V64.6665Z" fill="#2CA89A" />
    <path opacity="0.6" d="M385.655 64.6665H16.9766V153.998H385.655V64.6665Z" fill="#FAFAFA" />
    <path d="M377.338 72.9805H8.66016V162.312H377.338V72.9805Z" fill="#2CA89A" />
    <path opacity="0.3" d="M377.338 72.9805H8.66016V162.312H377.338V72.9805Z" fill="#2B2A29" />
    <path d="M369.026 81.2947H0.347656V170.626H369.026V81.2947Z" fill="#2CA89A" />
    <path opacity="0.1" d="M369.026 81.2947H0.347656V170.626H369.026V81.2947Z" fill="#FAFAFA" />
    <path d="M351.438 153.037V98.8843L17.9388 98.8843V153.037L351.438 153.037Z" fill="#2CA89A" />
    <path opacity="0.9" d="M351.438 153.037V98.8843L17.9388 98.8843V153.037L351.438 153.037Z"
        fill="#FAFAFA" />
    <path d="M295.336 98.8841V153.037H297.294V98.8841H295.336Z" fill="#2CA89A" />
    <path opacity="0.6" d="M295.336 98.8841V153.037H297.294V98.8841H295.336Z" fill="#FAFAFA" />
    <path d="M26.25 106.354L26.25 145.567H28.2083L28.2083 106.354H26.25Z" fill="#2CA89A" />
    <path opacity="0.6" d="M26.25 106.354L26.25 145.567H28.2083L28.2083 106.354H26.25Z"
        fill="#FAFAFA" />
    <path
        d="M322.494 132.797C321.071 132.796 319.67 132.445 318.416 131.774C317.161 131.102 316.091 130.132 315.301 128.949C314.511 127.766 314.025 126.406 313.885 124.99C313.746 123.574 313.958 122.145 314.503 120.83C315.047 119.516 315.908 118.356 317.008 117.453C318.107 116.55 319.413 115.933 320.809 115.655C322.204 115.377 323.647 115.448 325.008 115.861C326.37 116.274 327.609 117.016 328.615 118.022C329.826 119.232 330.651 120.774 330.985 122.453C331.32 124.133 331.148 125.873 330.493 127.455C329.838 129.037 328.728 130.389 327.304 131.339C325.88 132.29 324.206 132.798 322.494 132.797ZM322.494 117.846C321.034 117.846 319.62 118.353 318.492 119.279C317.363 120.206 316.592 121.495 316.308 122.927C316.024 124.359 316.245 125.846 316.934 127.133C317.624 128.42 318.738 129.428 320.087 129.985C321.436 130.543 322.937 130.615 324.334 130.19C325.73 129.764 326.936 128.868 327.746 127.653C328.555 126.438 328.919 124.98 328.774 123.528C328.628 122.075 327.984 120.717 326.95 119.687C326.371 119.089 325.679 118.614 324.914 118.288C324.149 117.961 323.326 117.791 322.494 117.787V117.846Z"
        fill="#2CA89A" />
    <path
        d="M333.719 136.479C333.564 136.478 333.41 136.447 333.267 136.387C333.125 136.326 332.995 136.238 332.886 136.127L326.965 130.205C326.842 130.1 326.742 129.971 326.672 129.825C326.601 129.68 326.562 129.521 326.556 129.36C326.549 129.198 326.577 129.037 326.635 128.887C326.694 128.736 326.784 128.6 326.898 128.486C327.012 128.371 327.149 128.282 327.3 128.223C327.45 128.164 327.611 128.137 327.773 128.143C327.934 128.149 328.093 128.189 328.238 128.259C328.383 128.33 328.513 128.429 328.618 128.552L334.54 134.474C334.758 134.694 334.881 134.991 334.881 135.301C334.881 135.61 334.758 135.908 334.54 136.127C334.323 136.348 334.028 136.475 333.719 136.479Z"
        fill="#2CA89A" />
    <g opacity="0.6">
        <path
            d="M322.494 132.797C321.071 132.796 319.67 132.445 318.416 131.774C317.161 131.102 316.091 130.132 315.301 128.949C314.511 127.766 314.025 126.406 313.885 124.99C313.746 123.574 313.958 122.145 314.503 120.83C315.047 119.516 315.908 118.356 317.008 117.453C318.107 116.55 319.413 115.933 320.809 115.655C322.204 115.377 323.647 115.448 325.008 115.861C326.37 116.274 327.609 117.016 328.615 118.022C329.826 119.232 330.651 120.774 330.985 122.453C331.32 124.133 331.148 125.873 330.493 127.455C329.838 129.037 328.728 130.389 327.304 131.339C325.88 132.29 324.206 132.798 322.494 132.797ZM322.494 117.846C321.034 117.846 319.62 118.353 318.492 119.279C317.363 120.206 316.592 121.495 316.308 122.927C316.024 124.359 316.245 125.846 316.934 127.133C317.624 128.42 318.738 129.428 320.087 129.985C321.436 130.543 322.937 130.615 324.334 130.19C325.73 129.764 326.936 128.868 327.746 127.653C328.555 126.438 328.919 124.98 328.774 123.528C328.628 122.075 327.984 120.717 326.95 119.687C326.371 119.089 325.679 118.614 324.914 118.288C324.149 117.961 323.326 117.791 322.494 117.787V117.846Z"
            fill="#FAFAFA" />
        <path
            d="M333.715 136.479C333.56 136.478 333.406 136.447 333.264 136.387C333.121 136.326 332.991 136.238 332.883 136.127L326.961 130.205C326.838 130.1 326.738 129.971 326.668 129.825C326.597 129.68 326.558 129.521 326.552 129.36C326.545 129.198 326.573 129.037 326.632 128.887C326.691 128.736 326.78 128.6 326.894 128.486C327.009 128.371 327.145 128.282 327.296 128.223C327.446 128.164 327.607 128.137 327.769 128.143C327.93 128.149 328.089 128.189 328.234 128.259C328.38 128.33 328.509 128.429 328.614 128.552L334.536 134.474C334.754 134.694 334.877 134.991 334.877 135.301C334.877 135.61 334.754 135.908 334.536 136.127C334.319 136.348 334.024 136.475 333.715 136.479Z"
            fill="#FAFAFA" />
    </g>
    <path d="M343.815 198.617H373.776L322.625 145.567L343.815 198.617Z" fill="#2CA89A" />
    <g opacity="0.1">
        <path d="M343.815 198.617H373.776L322.625 145.567L343.815 198.617Z" fill="#2B2A29" />
    </g>
    <g style="mix-blend-mode:multiply">
        <path d="M315.016 170.614L322.626 145.567L326.941 170.614H315.016Z" fill="#2CA89A" />
    </g>
    <path d="M322.625 145.567V219.795L327.925 214.506L343.815 198.617L322.625 145.567Z"
        fill="#2CA89A" />
    <path opacity="0.3"
        d="M322.625 145.567V219.795L327.925 214.506L343.815 198.617L322.625 145.567Z" fill="#FAFAFA" />
    <path
        d="M272.905 93.8418C270.101 86.1376 265.819 79.0552 260.299 72.9923H167.063C161.544 79.0552 157.262 86.1376 154.457 93.8418L167.356 158.056C177.224 168.753 190.491 175.704 204.903 177.729C219.315 179.753 233.984 176.726 246.417 169.161C258.85 161.596 268.281 149.96 273.107 136.23C277.934 122.5 277.858 107.522 272.894 93.8418H272.905Z"
        fill="#2CA89A" />
    <path opacity="0.1"
        d="M272.905 93.8418C270.101 86.1376 265.819 79.0552 260.299 72.9923H167.063C161.544 79.0552 157.262 86.1376 154.457 93.8418L167.356 158.056C177.224 168.753 190.491 175.704 204.903 177.729C219.315 179.753 233.984 176.726 246.417 169.161C258.85 161.596 268.281 149.96 273.107 136.23C277.934 122.5 277.858 107.522 272.894 93.8418H272.905Z"
        fill="#FAFAFA" />
    <path
        d="M276.623 118.268C275.957 133.075 270.076 147.168 260.019 158.056H167.38C159.56 149.558 154.221 139.076 151.947 127.753C149.672 116.431 150.549 104.701 154.481 93.8419H272.918C275.762 101.657 277.022 109.961 276.623 118.268Z"
        fill="#2CA89A" />
    <path opacity="0.9"
        d="M276.623 118.268C275.957 133.075 270.076 147.168 260.019 158.056H167.38C159.56 149.558 154.221 139.076 151.947 127.753C149.672 116.431 150.549 104.701 154.481 93.8419H272.918C275.762 101.657 277.022 109.961 276.623 118.268Z"
        fill="#FAFAFA" />
    <path opacity="0.3"
        d="M276.623 118.268C275.894 133.849 269.398 148.603 258.398 159.662C247.398 170.721 232.679 177.296 217.102 178.109C201.525 178.921 186.202 173.914 174.111 164.06C162.019 154.205 154.023 140.208 151.677 124.787C149.33 109.366 152.8 93.6237 161.412 80.6186C170.025 67.6135 183.164 58.2746 198.278 54.4166C213.391 50.5587 229.4 52.4573 243.192 59.7435C256.984 67.0296 267.574 79.183 272.906 93.8419C275.75 101.657 277.014 109.96 276.623 118.268Z"
        fill="white" />
    <path opacity="0.4"
        d="M249.196 63.3299L158.598 145.954C158.145 145.118 157.699 144.273 157.262 143.421C154.491 137.876 152.567 131.947 151.551 125.832L229.801 54.4647C236.725 56.2895 243.286 59.288 249.196 63.3299Z"
        fill="white" />
    <path opacity="0.4"
        d="M273.434 95.3545L188.312 173.03C179.482 169.134 171.666 163.261 165.469 155.863L258.483 71.0339C265.261 77.8906 270.376 86.2108 273.434 95.3545Z"
        fill="white" />
    <path
        d="M276.598 79.0313C269.412 66.5713 258.692 56.5227 245.794 50.157C232.895 43.7913 218.398 41.3946 204.138 43.2702C189.877 45.1458 176.493 51.2093 165.679 60.6935C154.865 70.1778 147.107 82.6565 143.387 96.5509C139.668 110.445 140.153 125.131 144.781 138.749C149.41 152.368 157.974 164.308 169.391 173.057C180.807 181.807 194.562 186.974 208.916 187.905C223.269 188.835 237.576 185.487 250.026 178.284C266.701 168.636 278.866 152.765 283.848 134.155C288.83 115.546 286.223 95.7198 276.598 79.0313ZM164.025 144.042C158.355 134.223 155.725 122.943 156.466 111.629C157.207 100.314 161.286 89.4738 168.188 80.4778C175.09 71.4818 184.504 64.7345 195.241 61.089C205.978 57.4435 217.554 57.0636 228.507 59.9973C239.459 62.931 249.296 69.0465 256.773 77.5706C264.25 86.0947 269.031 96.6444 270.512 107.886C271.994 119.127 270.108 130.556 265.095 140.726C260.081 150.895 252.164 159.35 242.345 165.021C235.826 168.786 228.629 171.23 221.166 172.214C213.702 173.197 206.117 172.701 198.846 170.753C191.574 168.805 184.757 165.443 178.784 160.86C172.812 156.277 167.8 150.562 164.037 144.042H164.025Z"
        fill="#2CA89A" />
    <path opacity="0.1"
        d="M276.598 79.0313C269.412 66.5713 258.692 56.5227 245.794 50.157C232.895 43.7913 218.398 41.3946 204.138 43.2702C189.877 45.1458 176.493 51.2093 165.679 60.6935C154.865 70.1778 147.107 82.6565 143.387 96.5509C139.668 110.445 140.153 125.131 144.781 138.749C149.41 152.368 157.974 164.308 169.391 173.057C180.807 181.807 194.562 186.974 208.916 187.905C223.269 188.835 237.576 185.487 250.026 178.284C266.701 168.636 278.866 152.765 283.848 134.155C288.83 115.546 286.223 95.7198 276.598 79.0313ZM164.025 144.042C158.355 134.223 155.725 122.943 156.466 111.629C157.207 100.314 161.286 89.4738 168.188 80.4778C175.09 71.4818 184.504 64.7345 195.241 61.089C205.978 57.4435 217.554 57.0636 228.507 59.9973C239.459 62.931 249.296 69.0465 256.773 77.5706C264.25 86.0947 269.031 96.6444 270.512 107.886C271.994 119.127 270.108 130.556 265.095 140.726C260.081 150.895 252.164 159.35 242.345 165.021C235.826 168.786 228.629 171.23 221.166 172.214C213.702 173.197 206.117 172.701 198.846 170.753C191.574 168.805 184.757 165.443 178.784 160.86C172.812 156.277 167.8 150.562 164.037 144.042H164.025Z"
        fill="#2B2A29" />
    <path d="M60.2814 198.195L53.8085 202.511L48.0273 197.773L55.4736 192.226L60.2814 198.195Z"
        fill="#E4897B" />
    <path
        d="M161.892 153.646C152.347 160.682 142.555 167.366 132.717 173.898C122.878 180.43 112.911 186.797 102.897 193.047C92.8823 199.297 82.7742 205.419 72.6308 211.364C67.565 214.389 62.4523 217.321 57.3865 220.299C54.8701 221.901 52.1266 223.115 49.2484 223.899C47.7128 224.307 46.1424 224.57 44.5578 224.685C42.7986 224.829 41.0281 224.738 39.2927 224.415C38.0525 224.17 36.8729 223.682 35.8213 222.981C34.7697 222.279 33.8668 221.377 33.1643 220.326C32.4618 219.275 31.9734 218.095 31.7272 216.855C31.4809 215.615 31.4816 214.339 31.7292 213.099C31.8094 212.701 31.9192 212.309 32.0575 211.927C32.6236 210.264 33.4125 208.686 34.4028 207.236C35.2861 205.932 36.2913 204.715 37.4047 203.601C39.5255 201.501 41.9484 199.73 44.593 198.347C49.7175 195.428 54.8067 192.484 59.9663 189.588C70.2387 183.783 80.6048 178.131 90.9944 172.549C101.384 166.968 111.903 161.562 122.48 156.285C133.057 151.008 143.716 145.872 154.598 141.134C156.241 140.408 158.093 140.315 159.8 140.871C161.507 141.428 162.949 142.595 163.847 144.15C164.746 145.704 165.039 147.536 164.669 149.293C164.3 151.05 163.294 152.609 161.845 153.67L161.892 153.646Z"
        fill="#2CA89A" />
    <path opacity="0.1"
        d="M161.892 153.646C152.347 160.682 142.555 167.366 132.717 173.898C122.878 180.43 112.911 186.797 102.897 193.047C92.8823 199.297 82.7742 205.419 72.6308 211.364C67.565 214.389 62.4523 217.321 57.3865 220.299C54.8701 221.901 52.1266 223.115 49.2484 223.899C47.7128 224.307 46.1424 224.57 44.5578 224.685C42.7986 224.829 41.0281 224.738 39.2927 224.415C38.0525 224.17 36.8729 223.682 35.8213 222.981C34.7697 222.279 33.8668 221.377 33.1643 220.326C32.4618 219.275 31.9734 218.095 31.7272 216.855C31.4809 215.615 31.4816 214.339 31.7292 213.099C31.8094 212.701 31.9192 212.309 32.0575 211.927C32.6236 210.264 33.4125 208.686 34.4028 207.236C35.2861 205.932 36.2913 204.715 37.4047 203.601C39.5255 201.501 41.9484 199.73 44.593 198.347C49.7175 195.428 54.8067 192.484 59.9663 189.588C70.2387 183.783 80.6048 178.131 90.9944 172.549C101.384 166.968 111.903 161.562 122.48 156.285C133.057 151.008 143.716 145.872 154.598 141.134C156.241 140.408 158.093 140.315 159.8 140.871C161.507 141.428 162.949 142.595 163.847 144.15C164.746 145.704 165.039 147.536 164.669 149.293C164.3 151.05 163.294 152.609 161.845 153.67L161.892 153.646Z"
        fill="#2B2A29" />
</svg>
    