<svg width="44" height="44" viewBox="0 0 44 44" fill="none" xmlns="http://www.w3.org/2000/svg">
    <rect width="44" height="44" rx="8" fill="#F6F6F6" />
    <path
        d="M22 22C22.55 22 23.021 21.8043 23.413 21.413C23.805 21.0217 24.0007 20.5507 24 20C24 19.45 23.8043 18.9793 23.413 18.588C23.0217 18.1967 22.5507 18.0007 22 18C21.45 18 20.9793 18.196 20.588 18.588C20.1967 18.98 20.0007 19.4507 20 20C20 20.55 20.196 21.021 20.588 21.413C20.98 21.805 21.4507 22.0007 22 22ZM22 29.35C24.0333 27.4833 25.5417 25.7877 26.525 24.263C27.5083 22.7383 28 21.384 28 20.2C28 18.3833 27.421 16.896 26.263 15.738C25.105 14.58 23.684 14.0007 22 14C20.3167 14 18.896 14.5793 17.738 15.738C16.58 16.8967 16.0007 18.384 16 20.2C16 21.3833 16.4917 22.7377 17.475 24.263C18.4583 25.7883 19.9667 27.484 22 29.35ZM22 32C19.3167 29.7167 17.3127 27.596 15.988 25.638C14.6633 23.68 14.0007 21.8673 14 20.2C14 17.7 14.8043 15.7083 16.413 14.225C18.0217 12.7417 19.884 12 22 12C24.1167 12 25.9793 12.7417 27.588 14.225C29.1967 15.7083 30.0007 17.7 30 20.2C30 21.8667 29.3377 23.6793 28.013 25.638C26.6883 27.5967 24.684 29.7173 22 32Z"
        fill="#2B2A29" />
</svg>
    