<svg width="44" height="44" viewBox="0 0 44 44" fill="none" xmlns="http://www.w3.org/2000/svg">
    <rect width="44" height="44" rx="8" fill="#F6F6F6" />
    <path
        d="M29.506 17.96C28.7928 20.7426 27.3448 23.2824 25.3136 25.3136C23.2824 27.3448 20.7426 28.7928 17.96 29.506C15.819 30.051 14 28.21 14 26V25C14 24.448 14.449 24.005 14.999 23.95C15.9095 23.8603 16.8033 23.6452 17.655 23.311L19.174 24.831C21.6489 23.6447 23.6447 21.6489 24.831 19.174L23.311 17.654C23.6456 16.8023 23.8609 15.9086 23.951 14.998C24.005 14.448 24.448 14 25 14H26C28.208 14 30.05 15.819 29.505 17.96"
        stroke="#2B2A29" stroke-width="2" stroke-linecap="round" stroke-linejoin="round" />
</svg>
    
    