<svg width="867" height="799" viewBox="0 0 867 799" fill="none" xmlns="http://www.w3.org/2000/svg">
    <path
        d="M327.631 53.4597C328.494 48.9097 330.899 45.525 336.077 42.8061C344.4 38.3671 354.943 40.5867 359.629 47.7445C368.075 60.673 361.416 81.5915 354.758 102.51C331.207 97.5718 307.656 92.6889 299.209 79.7604C294.524 72.6581 297.545 63.2809 305.868 58.8419C311.478 55.9011 316.102 55.7901 321.404 57.7321L322.452 58.1761H322.637V58.287C326.83 60.1736 331.823 64.7236 341.873 79.8715C336.879 67.2205 331.823 58.287 327.569 53.5706"
        fill="#B7EAE4" />
    <path fill-rule="evenodd" clip-rule="evenodd"
        d="M308.95 33.651C313.265 36.3699 318.506 43.6942 324.733 54.8471C311.971 42.3625 306.792 39.6436 303.894 37.4241C301.613 35.6485 305.127 35.815 305.929 35.0382C306.977 34.0394 306.36 31.9864 308.888 33.5955"
        fill="#B7EAE4" />
    <path
        d="M785.968 656.46C785.105 651.91 782.701 648.525 777.522 645.806C769.199 641.367 758.657 643.587 753.971 650.745C745.525 663.673 752.183 684.592 758.842 705.51C782.393 700.572 805.944 695.689 814.39 682.76C819.076 675.658 816.055 666.281 807.732 661.842C802.121 658.901 797.497 658.79 792.195 660.732L791.147 661.176H790.962V661.287C786.77 663.174 781.776 667.724 771.727 682.872C776.721 670.22 781.776 661.287 786.03 656.571"
        fill="#B7EAE4" />
    <path fill-rule="evenodd" clip-rule="evenodd"
        d="M804.65 636.651C800.334 639.37 795.094 646.694 788.867 657.847C801.629 645.363 806.808 642.644 809.705 640.424C811.987 638.649 808.472 638.815 807.671 638.038C806.623 637.039 807.239 634.986 804.712 636.595"
        fill="#B7EAE4" />
    <path
        d="M202.286 642.245C201.727 639.3 200.17 637.108 196.818 635.348C191.429 632.475 184.604 633.912 181.571 638.545C176.103 646.915 180.413 660.458 184.724 674C199.971 670.803 215.217 667.642 220.685 659.272C223.719 654.674 221.763 648.603 216.375 645.73C212.743 643.826 209.749 643.754 206.317 645.011L205.638 645.299H205.519V645.37C202.804 646.592 199.572 649.537 193.066 659.344C196.299 651.154 199.572 645.37 202.326 642.317"
        fill="#B7EAE4" />
    <path fill-rule="evenodd" clip-rule="evenodd"
        d="M214.38 629.421C211.586 631.182 208.193 635.923 204.162 643.144C212.424 635.061 215.777 633.301 217.653 631.864C219.129 630.715 216.854 630.822 216.336 630.32C215.657 629.673 216.056 628.344 214.42 629.386"
        fill="#B7EAE4" />
    <path
        d="M19.8301 767.245C20.3889 764.3 21.9455 762.108 25.2982 760.348C30.6864 757.474 37.5115 758.911 40.5449 763.545C46.013 771.915 41.7024 785.457 37.3918 799C22.1451 795.803 6.89837 792.642 1.4303 784.272C-1.60308 779.674 0.352661 773.603 5.7409 770.73C9.37297 768.826 12.3664 768.754 15.7989 770.011L16.4774 770.299H16.5972V770.37C19.3112 771.592 22.5442 774.537 29.05 784.344C25.8171 776.154 22.5442 770.37 19.7902 767.317"
        fill="#B7EAE4" />
    <path fill-rule="evenodd" clip-rule="evenodd"
        d="M7.73592 754.421C10.5298 756.182 13.9224 760.923 17.9536 768.144C9.69164 760.061 6.33894 758.301 4.46303 756.864C2.98625 755.715 5.2613 755.822 5.78016 755.32C6.45868 754.673 6.05954 753.344 7.69597 754.386"
        fill="#B7EAE4" />
    <path
        d="M473.83 729.245C474.389 726.3 475.946 724.108 479.298 722.348C484.686 719.474 491.512 720.911 494.545 725.545C500.013 733.915 495.702 747.457 491.392 761C476.145 757.803 460.898 754.642 455.43 746.272C452.397 741.674 454.353 735.603 459.741 732.73C463.373 730.826 466.366 730.754 469.799 732.011L470.477 732.299H470.597V732.37C473.311 733.592 476.544 736.537 483.05 746.344C479.817 738.154 476.544 732.37 473.79 729.317"
        fill="#B7EAE4" />
    <path fill-rule="evenodd" clip-rule="evenodd"
        d="M461.736 716.421C464.53 718.182 467.922 722.923 471.954 730.144C463.692 722.061 460.339 720.301 458.463 718.864C456.986 717.715 459.261 717.822 459.78 717.32C460.459 716.673 460.06 715.344 461.696 716.386"
        fill="#B7EAE4" />
    <path
        d="M91.3217 333.249C92.0916 329.191 94.2362 326.172 98.8554 323.746C106.279 319.787 115.683 321.767 119.862 328.151C127.396 339.683 121.457 358.341 115.518 377C94.5111 372.595 73.5045 368.24 65.9708 356.708C61.7914 350.373 64.486 342.009 71.9098 338.05C76.914 335.427 81.0383 335.328 85.7675 337.06L86.7024 337.456H86.8673V337.555C90.6067 339.237 95.0611 343.296 104.025 356.807C99.5703 345.523 95.061 337.555 91.2666 333.348"
        fill="#B7EAE4" />
    <path fill-rule="evenodd" clip-rule="evenodd"
        d="M74.6585 315.581C78.5079 318.006 83.1821 324.539 88.7362 334.487C77.353 323.351 72.7337 320.926 70.1492 318.946C68.1145 317.362 71.249 317.511 71.9639 316.818C72.8987 315.927 72.3488 314.096 74.6034 315.531"
        fill="#B7EAE4" />
    <path
        d="M846.286 229.245C845.727 226.3 844.17 224.108 840.818 222.348C835.429 219.475 828.604 220.912 825.571 225.545C820.103 233.915 824.413 247.458 828.724 261C843.971 257.803 859.217 254.642 864.685 246.272C867.719 241.674 865.763 235.603 860.375 232.73C856.743 230.826 853.749 230.754 850.317 232.011L849.638 232.299H849.519V232.37C846.804 233.592 843.572 236.537 837.066 246.344C840.299 238.154 843.572 232.37 846.326 229.317"
        fill="#B7EAE4" />
    <path fill-rule="evenodd" clip-rule="evenodd"
        d="M858.38 216.421C855.586 218.182 852.193 222.923 848.162 230.144C856.424 222.061 859.777 220.301 861.653 218.864C863.129 217.715 860.854 217.822 860.336 217.32C859.657 216.673 860.056 215.344 858.42 216.386"
        fill="#B7EAE4" />
    <path
        d="M739.071 23.4019C739.552 20.8663 740.892 18.9799 743.778 17.4647C748.416 14.9909 754.291 16.2279 756.903 20.2169C761.61 27.4219 757.899 39.0798 754.188 50.7376C741.063 47.9855 727.938 45.2643 723.231 38.0593C720.62 34.1012 722.304 28.8753 726.942 26.4015C730.069 24.7625 732.645 24.7007 735.6 25.783L736.184 26.0304H736.287V26.0922C738.624 27.1436 741.407 29.6793 747.007 38.1212C744.224 31.0708 741.407 26.0922 739.036 23.4638"
        fill="#B7EAE4" />
    <path fill-rule="evenodd" clip-rule="evenodd"
        d="M728.659 12.3628C731.064 13.878 733.985 17.9599 737.455 24.1753C730.343 17.2177 727.457 15.7025 725.842 14.4655C724.571 13.476 726.529 13.5688 726.976 13.1359C727.56 12.5793 727.216 11.4351 728.625 12.3319"
        fill="#B7EAE4" />
    <path
        d="M31.0452 11.4019C30.5641 8.86628 29.2242 6.97995 26.338 5.46473C21.6996 2.99091 15.8243 4.22787 13.2131 8.2169C8.50595 15.4219 12.2167 27.0798 15.9274 38.7376C29.0524 35.9855 42.1773 33.2643 46.8845 26.0593C49.4957 22.1012 47.8121 16.8753 43.1737 14.4015C40.0471 12.7625 37.4702 12.7007 34.5154 13.783L33.9313 14.0304H33.8282V14.0922C31.4919 15.1436 28.7088 17.6793 23.1083 26.1212C25.8914 19.0708 28.7088 14.0922 31.0795 11.4638"
        fill="#B7EAE4" />
    <path fill-rule="evenodd" clip-rule="evenodd"
        d="M41.4563 0.362819C39.0512 1.87803 36.1307 5.95986 32.6605 12.1753C39.7728 5.21771 42.6589 3.70245 44.2738 2.46554C45.545 1.47602 43.5866 1.56881 43.1399 1.13589C42.5558 0.579278 42.8994 -0.564894 41.4907 0.331866"
        fill="#B7EAE4" />
</svg>
    