<svg width="327" height="59" viewBox="0 0 327 59" fill="none" xmlns="http://www.w3.org/2000/svg">
    <path
        d="M183.662 31.2362C183.173 28.6608 181.812 26.745 178.881 25.206C174.17 22.6934 168.203 23.9498 165.55 28.0013C160.77 35.3191 164.538 47.1596 168.307 59.0001C181.638 56.2048 194.968 53.441 199.749 46.1231C202.401 42.103 200.691 36.7953 195.98 34.2827C192.805 32.6181 190.188 32.5553 187.186 33.6545L186.593 33.9058H186.489V33.9686C184.116 35.0365 181.289 37.6119 175.601 46.186C178.427 39.0252 181.289 33.9686 183.697 31.299"
        fill="#B7EAE4" />
    <path fill-rule="evenodd" clip-rule="evenodd"
        d="M194.236 20.024C191.793 21.563 188.827 25.7087 185.302 32.0215C192.526 24.955 195.457 23.416 197.098 22.1597C198.389 21.1547 196.4 21.2489 195.946 20.8092C195.353 20.2439 195.702 19.0818 194.271 19.9926"
        fill="#B7EAE4" />
    <path
        d="M310.796 9.04733C311.178 7.03533 312.241 5.53856 314.531 4.33627C318.212 2.37334 322.874 3.35484 324.946 6.52006C328.681 12.2371 325.737 21.4874 322.792 30.7377C312.378 28.554 301.963 26.3947 298.228 20.6777C296.156 17.537 297.492 13.3903 301.173 11.4274C303.654 10.1269 305.698 10.0778 308.043 10.9366L308.506 11.133H308.588V11.182C310.442 12.0163 312.65 14.0283 317.094 20.7268C314.886 15.1324 312.65 11.182 310.769 9.09638"
        fill="#B7EAE4" />
    <path fill-rule="evenodd" clip-rule="evenodd"
        d="M302.535 0.28789C304.444 1.49019 306.761 4.72904 309.515 9.6609C303.871 4.14016 301.581 2.93783 300.3 1.95636C299.291 1.17119 300.845 1.24482 301.199 0.901306C301.663 0.459647 301.39 -0.448233 302.508 0.26333"
        fill="#B7EAE4" />
    <path
        d="M110.796 19.0473C111.178 17.0353 112.241 15.5386 114.531 14.3363C118.212 12.3733 122.874 13.3548 124.946 16.5201C128.681 22.2371 125.737 31.4874 122.792 40.7377C112.378 38.554 101.963 36.3947 98.2282 30.6777C96.1562 27.537 97.4921 23.3903 101.173 21.4274C103.654 20.1269 105.698 20.0778 108.043 20.9366L108.506 21.133H108.588V21.182C110.442 22.0163 112.65 24.0283 117.094 30.7268C114.886 25.1324 112.65 21.182 110.769 19.0964"
        fill="#B7EAE4" />
    <path fill-rule="evenodd" clip-rule="evenodd"
        d="M102.535 10.2879C104.444 11.4902 106.761 14.729 109.515 19.6609C103.871 14.1402 101.581 12.9378 100.3 11.9564C99.291 11.1712 100.845 11.2448 101.199 10.9013C101.663 10.4596 101.39 9.55177 102.508 10.2633"
        fill="#B7EAE4" />
    <path
        d="M12.8007 31.2813C12.4935 29.662 11.6378 28.4574 9.79478 27.4898C6.83272 25.9101 3.08079 26.7 1.41326 29.2474C-1.59269 33.8484 0.77695 41.2931 3.1466 48.7377C11.5281 46.9802 19.9097 45.2425 22.9156 40.6414C24.5831 38.1138 23.508 34.7765 20.546 33.1968C18.5493 32.1502 16.9037 32.1107 15.0168 32.8018L14.6438 32.9598H14.578V32.9993C13.086 33.6707 11.3087 35.29 7.7323 40.6809C9.50954 36.1786 11.3087 32.9993 12.8227 31.3208"
        fill="#B7EAE4" />
    <path fill-rule="evenodd" clip-rule="evenodd"
        d="M19.4492 24.2317C17.9133 25.1993 16.0483 27.8059 13.8323 31.7751C18.3741 27.332 20.2172 26.3644 21.2484 25.5745C22.0602 24.9426 20.8096 25.0018 20.5244 24.7254C20.1514 24.3699 20.3708 23.6393 19.4712 24.2119"
        fill="#B7EAE4" />
</svg>
    