<svg width="342" height="63" viewBox="0 0 342 63" fill="none" xmlns="http://www.w3.org/2000/svg">
    <path
        d="M325.146 36.8906C324.686 34.4686 323.407 32.6669 320.65 31.2197C316.22 28.8568 310.608 30.0383 308.114 33.8484C303.618 40.7302 307.162 51.8651 310.706 63C323.243 60.3713 335.779 57.7722 340.275 50.8904C342.769 47.1098 341.161 42.1184 336.73 39.7555C333.744 38.1901 331.283 38.131 328.461 39.1648L327.903 39.4011H327.804V39.4601C325.573 40.4643 322.914 42.8863 317.565 50.9495C320.223 44.2154 322.914 39.4601 325.179 36.9496"
        fill="#B7EAE4" />
    <path fill-rule="evenodd" clip-rule="evenodd"
        d="M335.09 26.3465C332.793 27.7938 330.004 31.6925 326.689 37.6291C333.482 30.9836 336.239 29.5364 337.781 28.3549C338.995 27.4098 337.125 27.4984 336.698 27.0849C336.14 26.5533 336.469 25.4604 335.123 26.317"
        fill="#B7EAE4" />
    <path
        d="M222.484 32.1012C222.185 30.522 221.35 29.3472 219.553 28.4035C216.664 26.8628 213.005 27.6332 211.378 30.1176C208.447 34.6049 210.758 41.8654 213.069 49.126C221.243 47.4119 229.417 45.7172 232.349 41.2299C233.975 38.7647 232.927 35.51 230.038 33.9693C228.091 32.9486 226.486 32.9101 224.645 33.5841L224.282 33.7382H224.217V33.7767C222.762 34.4315 221.029 36.0108 217.541 41.2684C219.274 36.8774 221.029 33.7767 222.506 32.1397"
        fill="#B7EAE4" />
    <path fill-rule="evenodd" clip-rule="evenodd"
        d="M228.968 25.226C227.47 26.1696 225.651 28.7118 223.49 32.5828C227.92 28.2496 229.717 27.3059 230.723 26.5355C231.515 25.9193 230.295 25.9771 230.017 25.7074C229.653 25.3608 229.867 24.6482 228.99 25.2067"
        fill="#B7EAE4" />
    <path
        d="M115.253 14.1957C115.852 11.0387 117.52 8.69025 121.114 6.8038C126.888 3.72389 134.203 5.2639 137.454 10.2303C143.315 19.2005 138.695 33.7146 134.075 48.2287C117.734 44.8023 101.394 41.4144 95.5331 32.4441C92.2821 27.5163 94.3782 21.01 100.153 17.9301C104.046 15.8896 107.254 15.8126 110.933 17.16L111.66 17.4681H111.788V17.545C114.697 18.854 118.162 22.011 125.135 32.5212C121.67 23.7434 118.162 17.545 115.21 14.2726"
        fill="#B7EAE4" />
    <path fill-rule="evenodd" clip-rule="evenodd"
        d="M102.291 0.451711C105.286 2.33816 108.922 7.42005 113.242 15.1583C104.387 6.49608 100.794 4.60957 98.7837 3.06961C97.2009 1.83765 99.6392 1.95317 100.195 1.41419C100.923 0.721204 100.495 -0.703295 102.249 0.413175"
        fill="#B7EAE4" />
    <path
        d="M12.8007 40.2813C12.4936 38.662 11.6379 37.4574 9.79479 36.4898C6.83273 34.91 3.08079 35.6999 1.41326 38.2473C-1.59269 42.8484 0.776951 50.293 3.1466 57.7377C11.5282 55.9802 19.9097 54.2424 22.9156 49.6414C24.5832 47.1137 23.508 43.7765 20.546 42.1967C18.5493 41.1501 16.9038 41.1106 15.0168 41.8018L14.6438 41.9598H14.578V41.9992C13.086 42.6707 11.3087 44.2899 7.73231 49.6809C9.50955 45.1786 11.3087 41.9992 12.8227 40.3207"
        fill="#B7EAE4" />
    <path fill-rule="evenodd" clip-rule="evenodd"
        d="M19.4492 33.2317C17.9133 34.1993 16.0483 36.8059 13.8323 40.7751C18.3741 36.332 20.2172 35.3644 21.2484 34.5745C22.0603 33.9426 20.8096 34.0018 20.5244 33.7254C20.1514 33.3699 20.3708 32.6393 19.4712 33.2119"
        fill="#B7EAE4" />
</svg>
    