<svg width="298" height="250" viewBox="0 0 298 250" fill="none" xmlns="http://www.w3.org/2000/svg">
    <path
        d="M294.861 67.1731C304.564 111.575 285.627 159.647 251.626 189.805C217.624 219.963 170.531 233.082 125.157 230.646C92.7632 228.906 59.9142 219.19 35.3119 198.045C10.7096 176.9 -4.27257 143.181 2.0557 111.361C4.45036 99.3458 10.1782 87.4001 20.3504 80.568C36.5955 69.6574 58.3062 74.6676 77.084 80.0919C95.8618 85.5161 117.545 90.5815 133.831 79.7399C146.35 71.4172 151.774 56.09 160.414 43.7785C175.072 22.8337 200.779 10.1288 226.319 11.1916C229.861 11.3457 233.388 11.754 236.871 12.4131C263.951 17.5613 285.724 37.7331 293.895 64.0538L294.861 67.1731Z"
        fill="#DCEEEC" />
    <path
        d="M195.749 0H102.22C93.1853 0 85.8613 7.32396 85.8613 16.3585V233.641C85.8613 242.676 93.1853 250 102.22 250H195.749C204.783 250 212.107 242.676 212.107 233.641V16.3585C212.107 7.32396 204.783 0 195.749 0Z"
        fill="#2B2A29" />
    <path
        d="M210.115 233.667V16.3456C210.115 8.41983 203.69 1.99475 195.764 1.99475L102.197 1.99475C94.2712 1.99475 87.8461 8.41983 87.8461 16.3456L87.8461 233.667C87.8461 241.593 94.2712 248.018 102.197 248.018H195.764C203.69 248.018 210.115 241.593 210.115 233.667Z"
        fill="#2B2A29" />
    <path
        d="M139.919 9.8705C139.726 9.88356 139.533 9.85693 139.351 9.79227C139.17 9.72762 139.003 9.62632 138.862 9.49466C138.722 9.363 138.609 9.20379 138.532 9.02691C138.456 8.85002 138.416 8.65924 138.416 8.4664C138.416 8.27357 138.456 8.08279 138.532 7.90591C138.609 7.72902 138.722 7.56981 138.862 7.43815C139.003 7.30649 139.17 7.20519 139.351 7.14054C139.533 7.07588 139.726 7.04926 139.919 7.06231H157.994C158.35 7.08646 158.684 7.24489 158.927 7.50555C159.171 7.76621 159.306 8.10965 159.306 8.4664C159.306 8.82316 159.171 9.1666 158.927 9.42726C158.684 9.68792 158.35 9.84635 157.994 9.8705H139.919Z"
        fill="#2B2A29" />
    <path
        d="M130.233 9.87055C129.955 9.87055 129.683 9.78802 129.452 9.63338C129.22 9.47874 129.04 9.25894 128.933 9.00179C128.827 8.74463 128.799 8.46167 128.853 8.18868C128.908 7.91568 129.042 7.66492 129.238 7.4681C129.435 7.27129 129.686 7.13725 129.959 7.08295C130.232 7.02865 130.515 7.05652 130.772 7.16303C131.029 7.26955 131.249 7.44993 131.404 7.68136C131.558 7.9128 131.641 8.18489 131.641 8.46323C131.641 8.83648 131.493 9.19443 131.229 9.45836C130.965 9.72228 130.607 9.87055 130.233 9.87055Z"
        fill="#2B2A29" />
    <path
        d="M135.408 9.87054C135.129 9.87182 134.857 9.79037 134.624 9.63651C134.392 9.48265 134.211 9.2633 134.103 9.00626C133.996 8.74923 133.967 8.46606 134.02 8.19264C134.074 7.91922 134.207 7.66786 134.404 7.47039C134.601 7.27293 134.851 7.13825 135.125 7.08343C135.398 7.0286 135.681 7.05609 135.939 7.16241C136.196 7.26874 136.416 7.44911 136.571 7.68068C136.726 7.91225 136.809 8.1846 136.809 8.46322C136.807 8.83483 136.659 9.19084 136.397 9.45421C136.135 9.71759 135.78 9.86715 135.408 9.87054Z"
        fill="#2B2A29" />
    <path
        d="M167.738 9.87054C167.459 9.87182 167.187 9.79037 166.954 9.63651C166.722 9.48265 166.541 9.2633 166.433 9.00626C166.326 8.74923 166.297 8.46606 166.35 8.19264C166.404 7.91922 166.538 7.66786 166.734 7.47039C166.931 7.27293 167.181 7.13825 167.455 7.08343C167.728 7.0286 168.011 7.05609 168.269 7.16241C168.526 7.26874 168.746 7.44911 168.901 7.68068C169.056 7.91225 169.139 8.1846 169.139 8.46322C169.137 8.83483 168.989 9.19084 168.727 9.45421C168.465 9.71759 168.11 9.86715 167.738 9.87054Z"
        fill="#2B2A29" />
    <path
        d="M162.564 9.87055C162.285 9.87055 162.013 9.78802 161.782 9.63338C161.55 9.47874 161.37 9.25894 161.263 9.00179C161.157 8.74463 161.129 8.46167 161.183 8.18868C161.238 7.91568 161.372 7.66492 161.568 7.4681C161.765 7.27129 162.016 7.13725 162.289 7.08295C162.562 7.02865 162.845 7.05652 163.102 7.16303C163.359 7.26955 163.579 7.44993 163.734 7.68136C163.888 7.9128 163.971 8.18489 163.971 8.46323C163.971 8.83648 163.823 9.19443 163.559 9.45836C163.295 9.72228 162.937 9.87055 162.564 9.87055Z"
        fill="#2B2A29" />
    <path
        d="M196.423 3.40858H178.696C177.334 3.4081 176.009 3.84786 174.918 4.66225C173.827 5.47664 173.028 6.62201 172.641 7.9275L172.337 8.9604C171.932 10.3609 171.084 11.5924 169.92 12.471C168.757 13.3495 167.34 13.8278 165.882 13.8344H132.113C130.649 13.8337 129.226 13.3583 128.056 12.4794C126.886 11.6005 126.033 10.3656 125.625 8.9604L125.328 7.9275C124.94 6.62095 124.141 5.47481 123.048 4.66031C121.955 3.84582 120.629 3.4067 119.266 3.40858H103.185C99.872 3.40858 96.6947 4.72465 94.3521 7.06728C92.0095 9.40991 90.6934 12.5872 90.6934 15.9002V232.68C90.6934 235.796 91.9312 238.784 94.1346 240.988C96.338 243.191 99.3265 244.429 102.443 244.429H196.636C198.033 244.43 199.416 244.155 200.707 243.621C201.998 243.087 203.171 242.304 204.159 241.317C205.147 240.33 205.93 239.157 206.465 237.867C207 236.576 207.275 235.193 207.275 233.796V14.2605C207.273 11.3829 206.13 8.62366 204.095 6.58891C202.06 4.55415 199.301 3.41029 196.423 3.40858Z"
        fill="white" />
    <path
        d="M212.243 83.0707H212.101V54.3368H212.243C212.426 54.3368 212.602 54.4095 212.731 54.5391C212.861 54.6686 212.934 54.8443 212.934 55.0275V82.3799C212.934 82.5631 212.861 82.7388 212.731 82.8684C212.602 82.9979 212.426 83.0707 212.243 83.0707Z"
        fill="#2B2A29" />
    <path
        d="M85.6912 72.0254H85.8591V90.2173H85.6912C85.508 90.2173 85.3323 90.1445 85.2028 90.015C85.0733 89.8854 85.0005 89.7097 85.0005 89.5266V72.742C84.997 72.6491 85.0123 72.5565 85.0455 72.4697C85.0786 72.3829 85.129 72.3037 85.1934 72.2368C85.2579 72.1699 85.3353 72.1166 85.4208 72.0803C85.5063 72.044 85.5983 72.0253 85.6912 72.0254Z"
        fill="#2B2A29" />
    <path
        d="M85.6912 48.275H85.8591V66.4669H85.6912C85.508 66.4669 85.3323 66.3942 85.2028 66.2646C85.0733 66.1351 85.0005 65.9594 85.0005 65.7762V48.9916C84.997 48.8987 85.0123 48.8061 85.0455 48.7193C85.0786 48.6325 85.129 48.5533 85.1934 48.4864C85.2579 48.4195 85.3353 48.3663 85.4208 48.33C85.5063 48.2936 85.5983 48.275 85.6912 48.275Z"
        fill="#2B2A29" />
    <path
        d="M85.7363 30.4381H85.8654V38.895H85.7363C85.5737 38.895 85.4177 38.8303 85.3027 38.7153C85.1877 38.6003 85.123 38.4443 85.123 38.2817V31.0514C85.123 30.8887 85.1877 30.7327 85.3027 30.6177C85.4177 30.5027 85.5737 30.4381 85.7363 30.4381Z"
        fill="#2B2A29" />
    <path d="M179.84 11.8073H178.975V13.0209H179.84V11.8073Z" fill="#2B2A29" />
    <path d="M181.248 11.2649H180.383V13.0208H181.248V11.2649Z" fill="#2B2A29" />
    <path d="M182.66 10.8646H181.795V13.0273H182.66V10.8646Z" fill="#2B2A29" />
    <path d="M184.076 10.0773H183.211V13.0275H184.076V10.0773Z" fill="#2B2A29" />
    <path
        d="M196.874 13.0855H192.523C192.441 13.0855 192.361 13.0531 192.302 12.9951C192.243 12.9372 192.209 12.8584 192.207 12.7756V10.613C192.207 10.5302 192.239 10.4507 192.297 10.3916C192.355 10.3324 192.434 10.2983 192.517 10.2967H196.874C196.893 10.2917 196.913 10.2917 196.933 10.2967C196.94 10.3153 196.94 10.3361 196.933 10.3548V11.0649H197.397C197.419 11.0648 197.439 11.0728 197.455 11.0871C197.47 11.1015 197.48 11.1212 197.481 11.1423V12.1882C197.481 12.1989 197.479 12.2095 197.475 12.2194C197.471 12.2292 197.464 12.2381 197.456 12.2453C197.448 12.2526 197.439 12.2582 197.429 12.2617C197.419 12.2652 197.408 12.2665 197.397 12.2656H196.933V12.9822C196.936 12.9928 196.938 13.0041 196.937 13.0153C196.936 13.0266 196.933 13.0375 196.928 13.0474C196.922 13.0572 196.914 13.0657 196.905 13.0723C196.896 13.0789 196.886 13.0834 196.874 13.0855ZM196.797 10.458H192.517C192.497 10.458 192.477 10.4621 192.459 10.4699C192.44 10.4778 192.423 10.4893 192.41 10.5038C192.396 10.5183 192.385 10.5354 192.378 10.5542C192.371 10.5729 192.368 10.5929 192.368 10.613V12.7756C192.368 12.7957 192.372 12.8155 192.38 12.834C192.388 12.8524 192.4 12.8691 192.414 12.883C192.429 12.8968 192.446 12.9076 192.465 12.9147C192.483 12.9218 192.503 12.925 192.523 12.9241H196.797V12.214C196.797 12.1934 196.805 12.1737 196.82 12.1592C196.834 12.1447 196.854 12.1365 196.874 12.1365H197.339V11.2521H196.874C196.864 11.2521 196.853 11.2499 196.843 11.2456C196.833 11.2413 196.825 11.2351 196.817 11.2272C196.81 11.2193 196.804 11.21 196.801 11.1998C196.797 11.1896 196.796 11.1789 196.797 11.1682V10.458Z"
        fill="#2B2A29" />
    <path d="M192.725 12.5689V10.813H196.443V11.607V11.7813V12.5689H192.725Z" fill="#2B2A29" />
    <path
        d="M188.224 12.9174C188.224 12.8533 188.205 12.7907 188.169 12.7375C188.133 12.6843 188.082 12.6429 188.023 12.6187C187.964 12.5944 187.898 12.5884 187.836 12.6014C187.773 12.6144 187.715 12.6458 187.67 12.6916C187.625 12.7374 187.595 12.7955 187.584 12.8585C187.572 12.9216 187.579 12.9866 187.605 13.0455C187.63 13.1044 187.672 13.1543 187.726 13.189C187.78 13.2237 187.843 13.2415 187.907 13.2402C187.949 13.2402 187.991 13.2318 188.03 13.2155C188.069 13.1992 188.104 13.1754 188.133 13.1453C188.163 13.1152 188.186 13.0796 188.201 13.0405C188.217 13.0014 188.225 12.9595 188.224 12.9174Z"
        fill="#2B2A29" />
    <path
        d="M186.83 12.1559L187.237 12.5562C187.421 12.3792 187.666 12.2798 187.921 12.2786C188.174 12.2802 188.417 12.3796 188.599 12.5562L189.006 12.1559C188.863 12.0129 188.693 11.8994 188.507 11.8219C188.32 11.7445 188.12 11.7046 187.918 11.7046C187.716 11.7046 187.516 11.7445 187.329 11.8219C187.142 11.8994 186.973 12.0129 186.83 12.1559Z"
        fill="#2B2A29" />
    <path
        d="M187.907 10.8002C187.587 10.8 187.27 10.8632 186.974 10.9862C186.678 11.1091 186.409 11.2895 186.184 11.5168L186.59 11.917C186.942 11.5697 187.416 11.3749 187.91 11.3749C188.405 11.3749 188.879 11.5697 189.231 11.917L189.637 11.5168C189.411 11.2887 189.141 11.1079 188.844 10.9849C188.547 10.8619 188.229 10.7991 187.907 10.8002Z"
        fill="#2B2A29" />
    <path
        d="M185.541 10.8518L185.948 11.2585C186.207 10.9983 186.516 10.7919 186.855 10.6511C187.195 10.5102 187.559 10.4377 187.926 10.4377C188.294 10.4377 188.658 10.5102 188.997 10.6511C189.337 10.7919 189.645 10.9983 189.905 11.2585L190.312 10.8518C189.679 10.2199 188.821 9.86499 187.926 9.86499C187.032 9.86499 186.174 10.2199 185.541 10.8518Z"
        fill="#2B2A29" />
    <path
        d="M135.917 32.1663C136.004 32.2899 136.047 32.4228 136.047 32.565C136.047 32.7257 135.991 32.8617 135.88 32.9729C135.769 33.0842 135.623 33.1398 135.444 33.1398C135.339 33.1398 135.237 33.112 135.138 33.0564C135.046 33.0008 134.962 32.9204 134.888 32.8153L133.089 30.3119H131.967V32.5835C131.967 32.7442 131.908 32.8771 131.791 32.9822C131.674 33.0873 131.531 33.1398 131.364 33.1398C131.198 33.1398 131.055 33.0873 130.938 32.9822C130.821 32.8771 130.762 32.7442 130.762 32.5835V27.0203C130.762 26.8596 130.821 26.7267 130.938 26.6216C131.055 26.5165 131.198 26.464 131.364 26.464C131.531 26.464 131.674 26.5165 131.791 26.6216C131.908 26.7267 131.967 26.8596 131.967 27.0203V29.1992H133.08L134.749 26.7885C134.897 26.5721 135.083 26.464 135.305 26.464C135.484 26.464 135.63 26.5196 135.741 26.6309C135.852 26.7421 135.908 26.8781 135.908 27.0388C135.908 27.1872 135.858 27.3293 135.759 27.4653L134.146 29.7092L135.917 32.1663ZM138.648 33.1862C138.24 33.1862 137.872 33.0997 137.544 32.9266C137.223 32.7535 136.97 32.5217 136.784 32.2312C136.605 31.9407 136.515 31.6254 136.515 31.2854V30.2191C136.515 29.8792 136.605 29.5639 136.784 29.2734C136.97 28.9829 137.223 28.7511 137.544 28.578C137.872 28.4049 138.24 28.3184 138.648 28.3184C139.056 28.3184 139.42 28.4049 139.742 28.578C140.069 28.7511 140.323 28.9829 140.502 29.2734C140.688 29.5639 140.78 29.8792 140.78 30.2191V31.2854C140.78 31.6254 140.688 31.9407 140.502 32.2312C140.323 32.5217 140.069 32.7535 139.742 32.9266C139.42 33.0997 139.056 33.1862 138.648 33.1862ZM138.648 32.259C138.944 32.259 139.189 32.1663 139.38 31.9808C139.572 31.7954 139.668 31.5636 139.668 31.2854V30.2191C139.668 29.941 139.572 29.7092 139.38 29.5237C139.189 29.3383 138.944 29.2456 138.648 29.2456C138.351 29.2456 138.107 29.3383 137.915 29.5237C137.724 29.7092 137.628 29.941 137.628 30.2191V31.2854C137.628 31.5636 137.724 31.7954 137.915 31.9808C138.107 32.1663 138.351 32.259 138.648 32.259ZM144.207 28.3184C144.51 28.3184 144.8 28.408 145.079 28.5873C145.363 28.7603 145.589 28.9921 145.755 29.2827C145.929 29.5732 146.015 29.8853 146.015 30.2191V31.2854C146.015 31.6192 145.929 31.9314 145.755 32.2219C145.589 32.5124 145.363 32.7473 145.079 32.9266C144.8 33.0997 144.51 33.1862 144.207 33.1862C143.929 33.1862 143.685 33.1306 143.475 33.0193C143.271 32.9019 143.128 32.772 143.048 32.6299H142.955V34.577C142.955 34.7192 142.903 34.8397 142.798 34.9386C142.693 35.0375 142.56 35.087 142.399 35.087C142.238 35.087 142.105 35.0375 142 34.9386C141.895 34.8397 141.843 34.7192 141.843 34.577V28.9211C141.843 28.7789 141.895 28.6583 142 28.5594C142.105 28.4605 142.238 28.4111 142.399 28.4111C142.547 28.4111 142.668 28.4544 142.761 28.5409C142.859 28.6274 142.924 28.7387 142.955 28.8747H143.048C143.147 28.7202 143.295 28.5903 143.493 28.4853C143.691 28.374 143.929 28.3184 144.207 28.3184ZM144.902 30.2191C144.902 29.941 144.81 29.7092 144.624 29.5237C144.439 29.3383 144.207 29.2456 143.929 29.2456C143.651 29.2456 143.419 29.3383 143.233 29.5237C143.048 29.7092 142.955 29.941 142.955 30.2191V31.2854C142.955 31.5636 143.048 31.7954 143.233 31.9808C143.419 32.1663 143.651 32.259 143.929 32.259C144.207 32.259 144.439 32.1663 144.624 31.9808C144.81 31.7954 144.902 31.5636 144.902 31.2854V30.2191ZM148.527 33.1862C148.23 33.1862 147.943 33.1398 147.665 33.0471C147.393 32.9544 147.164 32.8308 146.978 32.6762C146.713 32.4537 146.58 32.2374 146.58 32.0272C146.58 31.9036 146.623 31.8047 146.71 31.7305C146.796 31.6501 146.907 31.6099 147.043 31.6099C147.148 31.6099 147.241 31.6316 147.321 31.6749C147.408 31.7119 147.504 31.783 147.609 31.8881C147.751 32.0303 147.89 32.1292 148.026 32.1848C148.162 32.2343 148.329 32.259 148.527 32.259C148.786 32.259 148.997 32.2095 149.157 32.1106C149.324 32.0056 149.408 31.8696 149.408 31.7027C149.408 31.5481 149.33 31.4183 149.176 31.3132C149.028 31.202 148.811 31.1463 148.527 31.1463H148.249C148.107 31.1463 147.986 31.1031 147.887 31.0165C147.788 30.93 147.739 30.8187 147.739 30.6827C147.739 30.5468 147.788 30.4355 147.887 30.3489C147.986 30.2624 148.107 30.2191 148.249 30.2191H148.573C148.814 30.2191 148.997 30.1728 149.12 30.0801C149.25 29.9812 149.315 29.8575 149.315 29.7092C149.315 29.567 149.247 29.4557 149.111 29.3754C148.975 29.2888 148.796 29.2456 148.573 29.2456C148.4 29.2456 148.249 29.2672 148.119 29.3105C147.989 29.3537 147.847 29.431 147.692 29.5423C147.587 29.6226 147.495 29.6783 147.414 29.7092C147.34 29.7401 147.263 29.7555 147.182 29.7555C147.046 29.7555 146.935 29.7184 146.849 29.6443C146.762 29.5639 146.719 29.4619 146.719 29.3383C146.719 29.2332 146.753 29.1281 146.821 29.023C146.895 28.9118 146.997 28.8129 147.127 28.7263C147.306 28.6027 147.519 28.5038 147.767 28.4296C148.02 28.3555 148.289 28.3184 148.573 28.3184C148.907 28.3184 149.216 28.3771 149.5 28.4945C149.785 28.612 150.01 28.7727 150.177 28.9767C150.344 29.1745 150.428 29.3877 150.428 29.6165C150.428 29.8452 150.35 30.0461 150.196 30.2191C150.041 30.386 149.84 30.4942 149.593 30.5437V30.6364C149.865 30.7044 150.088 30.8435 150.261 31.0536C150.434 31.2576 150.52 31.4894 150.52 31.749C150.52 32.0086 150.431 32.2497 150.251 32.4723C150.078 32.6886 149.837 32.8617 149.528 32.9915C149.225 33.1213 148.892 33.1862 148.527 33.1862ZM152.006 33.0935C151.845 33.0935 151.712 33.044 151.607 32.9451C151.502 32.8462 151.45 32.7257 151.45 32.5835V28.9211C151.45 28.7789 151.502 28.6583 151.607 28.5594C151.712 28.4605 151.845 28.4111 152.006 28.4111C152.167 28.4111 152.3 28.4605 152.405 28.5594C152.51 28.6583 152.562 28.7789 152.562 28.9211V31.1927H152.655L154.278 28.8747C154.395 28.7016 154.506 28.5811 154.612 28.5131C154.717 28.4451 154.837 28.4111 154.973 28.4111C155.134 28.4111 155.267 28.4605 155.372 28.5594C155.477 28.6583 155.529 28.7789 155.529 28.9211V32.5835C155.529 32.7257 155.477 32.8462 155.372 32.9451C155.267 33.044 155.134 33.0935 154.973 33.0935C154.812 33.0935 154.68 33.044 154.574 32.9451C154.469 32.8462 154.417 32.7257 154.417 32.5835V30.3119H154.324L152.701 32.6299C152.584 32.803 152.473 32.9235 152.368 32.9915C152.263 33.0595 152.142 33.0935 152.006 33.0935ZM160.261 28.4111C160.422 28.4111 160.555 28.4605 160.66 28.5594C160.765 28.6583 160.817 28.7789 160.817 28.9211V32.5835C160.817 32.7257 160.765 32.8462 160.66 32.9451C160.555 33.044 160.422 33.0935 160.261 33.0935C160.1 33.0935 159.967 33.044 159.862 32.9451C159.757 32.8462 159.705 32.7257 159.705 32.5835V31.2854H157.85V32.5835C157.85 32.7257 157.798 32.8462 157.693 32.9451C157.588 33.044 157.455 33.0935 157.294 33.0935C157.133 33.0935 157 33.044 156.895 32.9451C156.79 32.8462 156.738 32.7257 156.738 32.5835V28.9211C156.738 28.7789 156.79 28.6583 156.895 28.5594C157 28.4605 157.133 28.4111 157.294 28.4111C157.455 28.4111 157.588 28.4605 157.693 28.5594C157.798 28.6583 157.85 28.7789 157.85 28.9211V30.3582H159.705V28.9211C159.705 28.7789 159.757 28.6583 159.862 28.5594C159.967 28.4605 160.1 28.4111 160.261 28.4111ZM163.834 28.3184C164.223 28.3184 164.572 28.4018 164.881 28.5687C165.197 28.7294 165.441 28.9489 165.614 29.227C165.787 29.5052 165.874 29.805 165.874 30.1264V32.5835C165.874 32.7257 165.821 32.8462 165.716 32.9451C165.611 33.044 165.478 33.0935 165.317 33.0935C165.169 33.0935 165.045 33.0502 164.946 32.9637C164.847 32.8709 164.789 32.7597 164.77 32.6299H164.668C164.526 32.7968 164.338 32.9328 164.103 33.0378C163.874 33.1367 163.63 33.1862 163.37 33.1862C163.067 33.1862 162.795 33.1244 162.554 33.0008C162.319 32.8709 162.134 32.701 161.998 32.4908C161.862 32.2744 161.794 32.0426 161.794 31.7954C161.794 31.511 161.868 31.2545 162.016 31.0258C162.171 30.7909 162.39 30.6055 162.675 30.4695C162.965 30.3335 163.305 30.2655 163.695 30.2655H164.761V30.1264C164.761 29.8668 164.674 29.6566 164.501 29.4959C164.334 29.329 164.112 29.2456 163.834 29.2456C163.685 29.2456 163.559 29.2703 163.454 29.3198C163.348 29.363 163.231 29.4496 163.101 29.5794C162.996 29.6845 162.903 29.7555 162.823 29.7926C162.743 29.8297 162.647 29.8483 162.536 29.8483C162.4 29.8483 162.288 29.8112 162.202 29.737C162.115 29.6566 162.072 29.5546 162.072 29.431C162.072 29.3012 162.121 29.1714 162.22 29.0416C162.319 28.9118 162.452 28.7912 162.619 28.68C162.786 28.5625 162.975 28.4729 163.185 28.4111C163.395 28.3493 163.611 28.3184 163.834 28.3184ZM163.602 32.3054C163.806 32.3054 164.013 32.2528 164.223 32.1477C164.44 32.0426 164.619 31.9097 164.761 31.749V31.1H163.695C163.447 31.1 163.253 31.1618 163.111 31.2854C162.975 31.4029 162.907 31.5574 162.907 31.749C162.907 31.9159 162.965 32.0519 163.083 32.157C163.206 32.2559 163.379 32.3054 163.602 32.3054Z"
        fill="#2B2A29" />
    <path d="M200.652 167.697H96.4199V194.604H200.652V167.697Z" fill="#E6E6E6" />
    <path
        d="M181.562 183.378C181.204 183.698 180.751 183.893 180.271 183.933V184.792H179.471V183.959C179.104 183.939 178.742 183.872 178.393 183.759C178.095 183.67 177.816 183.53 177.566 183.346L177.986 182.41C178.196 182.562 178.426 182.684 178.67 182.771C178.928 182.869 179.197 182.932 179.471 182.958V181.667C179.157 181.598 178.85 181.501 178.554 181.377C178.302 181.278 178.079 181.116 177.909 180.905C177.726 180.672 177.635 180.381 177.65 180.085C177.648 179.881 177.688 179.679 177.768 179.491C177.848 179.303 177.966 179.134 178.115 178.994C178.485 178.664 178.956 178.468 179.451 178.439V177.587H180.22V178.426C180.767 178.45 181.299 178.61 181.769 178.891L181.407 179.834C181.05 179.622 180.652 179.485 180.239 179.433V180.725C180.548 180.79 180.851 180.882 181.143 181.002C181.395 181.098 181.617 181.259 181.788 181.467C181.963 181.704 182.052 181.993 182.04 182.287C182.042 182.492 182.001 182.696 181.918 182.884C181.836 183.072 181.715 183.24 181.562 183.378ZM179.051 180.344C179.176 180.439 179.319 180.509 179.471 180.55V179.466C179.311 179.493 179.163 179.567 179.045 179.679C178.999 179.725 178.963 179.779 178.939 179.839C178.915 179.899 178.902 179.963 178.903 180.027C178.906 180.091 178.924 180.152 178.955 180.207C178.986 180.262 179.03 180.309 179.083 180.344H179.051ZM180.652 182.726C180.696 182.683 180.731 182.632 180.754 182.575C180.778 182.519 180.789 182.458 180.788 182.397C180.79 182.337 180.778 182.277 180.753 182.222C180.729 182.167 180.692 182.119 180.646 182.08C180.523 181.987 180.385 181.915 180.239 181.867V182.926C180.392 182.897 180.534 182.828 180.652 182.726Z"
        fill="#2B2A29" />
    <path
        d="M186.452 183.378C186.083 183.706 185.615 183.902 185.122 183.933V184.792H184.36V183.959C183.994 183.94 183.631 183.872 183.282 183.759C182.983 183.669 182.702 183.529 182.449 183.346L182.875 182.41C183.084 182.561 183.312 182.682 183.553 182.771C183.813 182.868 184.084 182.931 184.36 182.958V181.667C184.044 181.598 183.735 181.501 183.437 181.377C183.185 181.277 182.963 181.114 182.791 180.905C182.616 180.669 182.528 180.38 182.54 180.086C182.537 179.881 182.577 179.679 182.657 179.491C182.737 179.303 182.856 179.134 183.004 178.995C183.374 178.664 183.845 178.468 184.341 178.439V177.587H185.102V178.427C185.652 178.45 186.186 178.609 186.658 178.891L186.277 179.834C185.918 179.621 185.518 179.484 185.102 179.434V180.725C185.414 180.789 185.719 180.882 186.013 181.002C186.263 181.102 186.485 181.262 186.658 181.467C186.833 181.704 186.922 181.993 186.91 182.287C186.914 182.491 186.876 182.693 186.797 182.881C186.718 183.069 186.6 183.238 186.452 183.378ZM183.94 180.344C184.065 180.441 184.208 180.511 184.36 180.55V179.466C184.199 179.495 184.049 179.569 183.928 179.679C183.84 179.774 183.792 179.898 183.792 180.028C183.79 180.088 183.802 180.149 183.828 180.204C183.854 180.259 183.892 180.307 183.94 180.344ZM185.535 182.726C185.581 182.684 185.617 182.634 185.642 182.577C185.666 182.52 185.678 182.459 185.677 182.397C185.678 182.337 185.665 182.278 185.641 182.223C185.616 182.168 185.58 182.12 185.535 182.08C185.41 181.987 185.27 181.915 185.122 181.867V182.926C185.278 182.9 185.423 182.83 185.541 182.726H185.535Z"
        fill="#2B2A29" />
    <path
        d="M191.351 183.378C190.985 183.706 190.519 183.902 190.028 183.933V184.792H189.26V183.959C188.893 183.939 188.531 183.872 188.182 183.759C187.885 183.669 187.606 183.529 187.355 183.346L187.775 182.41C187.986 182.561 188.216 182.682 188.459 182.771C188.717 182.868 188.986 182.931 189.26 182.958V181.667C188.946 181.598 188.639 181.501 188.343 181.377C188.091 181.278 187.868 181.116 187.698 180.905C187.523 180.669 187.434 180.38 187.446 180.086C187.443 179.881 187.483 179.679 187.564 179.491C187.644 179.303 187.762 179.134 187.911 178.995C188.277 178.663 188.747 178.467 189.241 178.439V177.587H190.009V178.427C190.558 178.45 191.092 178.61 191.565 178.891L191.184 179.834C190.823 179.622 190.424 179.486 190.009 179.434V180.725C190.32 180.791 190.624 180.884 190.919 181.002C191.17 181.099 191.393 181.259 191.565 181.467C191.739 181.704 191.828 181.993 191.816 182.287C191.821 182.491 191.782 182.695 191.702 182.883C191.622 183.071 191.502 183.24 191.351 183.378ZM188.84 180.344C188.965 180.439 189.108 180.51 189.26 180.55V179.466C189.1 179.494 188.952 179.568 188.834 179.679C188.747 179.774 188.698 179.898 188.698 180.028C188.694 180.086 188.703 180.145 188.724 180.2C188.745 180.254 188.778 180.304 188.821 180.344H188.84ZM190.441 182.726C190.486 182.684 190.522 182.633 190.546 182.576C190.571 182.519 190.583 182.458 190.583 182.397C190.584 182.337 190.572 182.278 190.547 182.223C190.523 182.168 190.486 182.12 190.441 182.08C190.316 181.987 190.176 181.915 190.028 181.867V182.926C190.175 182.895 190.31 182.826 190.422 182.726H190.441Z"
        fill="#2B2A29" />
    <path
        d="M201.18 39.8505C201.18 39.9408 177.217 40.0183 147.663 40.0183C118.11 40.0183 94.1465 39.9408 94.1465 39.8505C94.1465 39.7601 118.103 39.6761 147.663 39.6761C177.224 39.6761 201.18 39.7472 201.18 39.8505Z"
        fill="#2B2A29" />
    <path
        d="M199.433 203.853H97.7851C96.4098 203.853 95.2949 205.018 95.2949 206.456V226.748C95.2949 228.185 96.4098 229.351 97.7851 229.351H199.433C200.809 229.351 201.924 228.185 201.924 226.748V206.456C201.924 205.018 200.809 203.853 199.433 203.853Z"
        fill="#2CA89A" />
    <path
        d="M137.075 219.926C137.162 220.049 137.205 220.182 137.205 220.324C137.205 220.485 137.149 220.621 137.038 220.732C136.927 220.844 136.782 220.899 136.602 220.899C136.497 220.899 136.395 220.871 136.296 220.816C136.204 220.76 136.12 220.68 136.046 220.575L134.247 218.071H133.125V220.343C133.125 220.504 133.067 220.637 132.949 220.742C132.832 220.847 132.69 220.899 132.523 220.899C132.356 220.899 132.214 220.847 132.096 220.742C131.979 220.637 131.92 220.504 131.92 220.343V214.78C131.92 214.619 131.979 214.486 132.096 214.381C132.214 214.276 132.356 214.223 132.523 214.223C132.69 214.223 132.832 214.276 132.949 214.381C133.067 214.486 133.125 214.619 133.125 214.78V216.959H134.238L135.907 214.548C136.055 214.332 136.241 214.223 136.463 214.223C136.643 214.223 136.788 214.279 136.899 214.39C137.01 214.502 137.066 214.638 137.066 214.798C137.066 214.947 137.017 215.089 136.918 215.225L135.304 217.469L137.075 219.926ZM141.382 216.17C141.561 216.17 141.697 216.22 141.79 216.319C141.883 216.412 141.929 216.532 141.929 216.68C141.929 216.779 141.905 216.888 141.855 217.005L139.481 222.429C139.42 222.565 139.349 222.667 139.268 222.735C139.188 222.809 139.073 222.846 138.925 222.846C138.758 222.846 138.625 222.8 138.526 222.707C138.428 222.615 138.378 222.491 138.378 222.336C138.378 222.25 138.403 222.142 138.452 222.012L139.203 220.343L137.432 217.024C137.377 216.918 137.349 216.813 137.349 216.708C137.349 216.56 137.398 216.433 137.497 216.328C137.596 216.223 137.732 216.17 137.905 216.17C138.035 216.17 138.137 216.198 138.211 216.254C138.292 216.303 138.372 216.405 138.452 216.56L139.713 218.952H139.806L140.826 216.588C140.894 216.439 140.968 216.334 141.048 216.272C141.135 216.204 141.246 216.17 141.382 216.17ZM143.24 220.853C143.08 220.853 142.947 220.803 142.842 220.705C142.736 220.606 142.684 220.485 142.684 220.343V216.727C142.684 216.585 142.736 216.464 142.842 216.365C142.947 216.266 143.08 216.217 143.24 216.217H146.207C146.368 216.217 146.501 216.266 146.606 216.365C146.711 216.464 146.764 216.585 146.764 216.727V220.343C146.764 220.485 146.711 220.606 146.606 220.705C146.501 220.803 146.368 220.853 146.207 220.853C146.047 220.853 145.914 220.803 145.809 220.705C145.704 220.606 145.651 220.485 145.651 220.343V217.144H143.797V220.343C143.797 220.485 143.744 220.606 143.639 220.705C143.534 220.803 143.401 220.853 143.24 220.853ZM148.528 220.853C148.368 220.853 148.235 220.803 148.13 220.705C148.024 220.606 147.972 220.485 147.972 220.343V216.68C147.972 216.538 148.024 216.418 148.13 216.319C148.235 216.22 148.368 216.17 148.528 216.17C148.689 216.17 148.822 216.22 148.927 216.319C149.032 216.418 149.085 216.538 149.085 216.68V218.952H149.177L150.8 216.634C150.917 216.461 151.029 216.34 151.134 216.272C151.239 216.204 151.359 216.17 151.495 216.17C151.656 216.17 151.789 216.22 151.894 216.319C151.999 216.418 152.052 216.538 152.052 216.68V220.343C152.052 220.485 151.999 220.606 151.894 220.705C151.789 220.803 151.656 220.853 151.495 220.853C151.335 220.853 151.202 220.803 151.097 220.705C150.992 220.606 150.939 220.485 150.939 220.343V218.071H150.846L149.224 220.389C149.106 220.562 148.995 220.683 148.89 220.751C148.785 220.819 148.664 220.853 148.528 220.853ZM156.412 216.217C156.555 216.217 156.675 216.26 156.774 216.347C156.873 216.433 156.922 216.544 156.922 216.68C156.922 216.816 156.873 216.928 156.774 217.014C156.675 217.101 156.555 217.144 156.412 217.144H155.346V220.343C155.346 220.485 155.294 220.606 155.188 220.705C155.083 220.803 154.95 220.853 154.79 220.853C154.629 220.853 154.496 220.803 154.391 220.705C154.286 220.606 154.233 220.485 154.233 220.343V217.144H153.167C153.025 217.144 152.904 217.101 152.806 217.014C152.707 216.928 152.657 216.816 152.657 216.68C152.657 216.544 152.707 216.433 152.806 216.347C152.904 216.26 153.025 216.217 153.167 216.217H156.412ZM159.379 217.654C159.799 217.654 160.158 217.725 160.455 217.867C160.758 218.003 160.986 218.192 161.141 218.433C161.295 218.668 161.373 218.934 161.373 219.23C161.373 219.527 161.295 219.796 161.141 220.037C160.986 220.272 160.758 220.46 160.455 220.603C160.158 220.739 159.799 220.807 159.379 220.807H158.081C157.92 220.807 157.787 220.757 157.682 220.658C157.577 220.559 157.525 220.439 157.525 220.297V216.68C157.525 216.538 157.577 216.418 157.682 216.319C157.787 216.22 157.92 216.17 158.081 216.17C158.242 216.17 158.375 216.22 158.48 216.319C158.585 216.418 158.637 216.538 158.637 216.68V217.654H159.379ZM159.379 219.879C159.67 219.879 159.889 219.821 160.037 219.703C160.186 219.58 160.26 219.422 160.26 219.23C160.26 219.032 160.186 218.875 160.037 218.757C159.889 218.64 159.67 218.581 159.379 218.581H158.637V219.879H159.379Z"
        fill="white" />
    <path
        d="M103.639 184.97C103.453 184.97 103.29 184.908 103.147 184.784C103.011 184.661 102.943 184.506 102.943 184.321V178.85C102.943 178.69 103.002 178.557 103.12 178.452C103.237 178.347 103.379 178.294 103.546 178.294C103.713 178.294 103.855 178.347 103.973 178.452C104.09 178.557 104.149 178.69 104.149 178.85V182.791H104.242L106.745 178.85C106.98 178.479 107.243 178.294 107.533 178.294C107.725 178.294 107.889 178.356 108.025 178.479C108.161 178.603 108.229 178.758 108.229 178.943V184.414C108.229 184.574 108.17 184.707 108.052 184.812C107.935 184.917 107.793 184.97 107.626 184.97C107.459 184.97 107.317 184.917 107.199 184.812C107.082 184.707 107.023 184.574 107.023 184.414V180.473H106.93L104.427 184.414C104.192 184.784 103.929 184.97 103.639 184.97ZM112.677 180.288C112.819 180.288 112.939 180.331 113.038 180.417C113.137 180.504 113.187 180.615 113.187 180.751C113.187 180.887 113.137 180.998 113.038 181.085C112.939 181.171 112.819 181.215 112.677 181.215H111.61V184.414C111.61 184.556 111.558 184.676 111.453 184.775C111.348 184.874 111.215 184.924 111.054 184.924C110.893 184.924 110.76 184.874 110.655 184.775C110.55 184.676 110.498 184.556 110.498 184.414V181.215H109.431C109.289 181.215 109.169 181.171 109.07 181.085C108.971 180.998 108.921 180.887 108.921 180.751C108.921 180.615 108.971 180.504 109.07 180.417C109.169 180.331 109.289 180.288 109.431 180.288H112.677ZM115.692 185.016C115.284 185.016 114.916 184.93 114.588 184.757C114.267 184.584 114.014 184.352 113.828 184.061C113.649 183.771 113.559 183.455 113.559 183.116V182.049C113.559 181.709 113.649 181.394 113.828 181.103C114.014 180.813 114.267 180.581 114.588 180.408C114.916 180.235 115.284 180.148 115.692 180.148C116.1 180.148 116.464 180.235 116.786 180.408C117.114 180.581 117.367 180.813 117.546 181.103C117.732 181.394 117.824 181.709 117.824 182.049V183.116C117.824 183.455 117.732 183.771 117.546 184.061C117.367 184.352 117.114 184.584 116.786 184.757C116.464 184.93 116.1 185.016 115.692 185.016ZM115.692 184.089C115.989 184.089 116.233 183.996 116.424 183.811C116.616 183.625 116.712 183.394 116.712 183.116V182.049C116.712 181.771 116.616 181.539 116.424 181.354C116.233 181.168 115.989 181.076 115.692 181.076C115.395 181.076 115.151 181.168 114.959 181.354C114.768 181.539 114.672 181.771 114.672 182.049V183.116C114.672 183.394 114.768 183.625 114.959 183.811C115.151 183.996 115.395 184.089 115.692 184.089ZM119.443 184.924C119.282 184.924 119.149 184.874 119.044 184.775C118.939 184.676 118.887 184.556 118.887 184.414V180.797C118.887 180.655 118.939 180.535 119.044 180.436C119.149 180.337 119.282 180.288 119.443 180.288H121.715C121.857 180.288 121.977 180.331 122.076 180.417C122.175 180.504 122.225 180.615 122.225 180.751C122.225 180.887 122.175 180.998 122.076 181.085C121.977 181.171 121.857 181.215 121.715 181.215H119.999V184.414C119.999 184.556 119.947 184.676 119.842 184.775C119.737 184.874 119.604 184.924 119.443 184.924ZM124.774 185.016C124.366 185.016 123.998 184.93 123.67 184.757C123.349 184.584 123.095 184.352 122.91 184.061C122.731 183.771 122.641 183.455 122.641 183.116V182.049C122.641 181.709 122.731 181.394 122.91 181.103C123.095 180.813 123.349 180.581 123.67 180.408C123.998 180.235 124.366 180.148 124.774 180.148C125.182 180.148 125.546 180.235 125.868 180.408C126.195 180.581 126.449 180.813 126.628 181.103C126.814 181.394 126.906 181.709 126.906 182.049V183.116C126.906 183.455 126.814 183.771 126.628 184.061C126.449 184.352 126.195 184.584 125.868 184.757C125.546 184.93 125.182 185.016 124.774 185.016ZM124.774 184.089C125.07 184.089 125.315 183.996 125.506 183.811C125.698 183.625 125.794 183.394 125.794 183.116V182.049C125.794 181.771 125.698 181.539 125.506 181.354C125.315 181.168 125.07 181.076 124.774 181.076C124.477 181.076 124.233 181.168 124.041 181.354C123.85 181.539 123.754 181.771 123.754 182.049V183.116C123.754 183.394 123.85 183.625 124.041 183.811C124.233 183.996 124.477 184.089 124.774 184.089Z"
        fill="#2B2A29" />
    <path d="M131.934 44.3435H95.75V79.7913H131.934V44.3435Z" fill="#DCEEEC" />
    <path
        d="M95.7494 44.3435H96.2594H97.7442H103.632L125.645 44.2918L201.305 44.2208H201.466V44.3822C201.466 55.5569 201.466 67.5062 201.466 79.8235V79.9914H201.299L95.7172 79.9333H95.6074V79.7719C95.6074 68.6424 95.6526 59.7595 95.672 53.6783C95.672 50.6442 95.672 48.3072 95.672 46.7127C95.672 45.9316 95.672 45.3312 95.672 44.9245C95.672 44.5178 95.672 44.3241 95.672 44.3241C95.672 44.3241 95.672 44.5371 95.672 44.9697C95.672 45.4022 95.672 45.9897 95.672 46.7837C95.672 48.3782 95.672 50.7281 95.672 53.7687C95.672 59.8499 95.7107 68.694 95.7365 79.7977L95.6203 79.6815L201.202 79.6299L201.034 79.7977V44.3435L201.202 44.5049L125.671 44.4339L103.612 44.3822H97.699H96.1626L95.7494 44.3435Z"
        fill="#2B2A29" />
    <path d="M129.799 46.2274H97.8105V77.5206H129.799V46.2274Z" fill="white" />
    <path
        d="M100.291 74.8401L109.144 58.736L116.379 69.0298L120.781 63.5661L127.32 74.8401H100.291Z"
        fill="#2CA89A" />
    <path
        d="M119.459 55.6059C119.459 56.0664 119.324 56.5166 119.071 56.8995C118.818 57.2824 118.458 57.5809 118.038 57.7571C117.617 57.9333 117.154 57.9795 116.707 57.8896C116.26 57.7998 115.85 57.578 115.528 57.2524C115.206 56.9267 114.987 56.5118 114.898 56.0602C114.809 55.6085 114.855 55.1403 115.029 54.7148C115.203 54.2894 115.498 53.9257 115.877 53.6699C116.256 53.414 116.701 53.2775 117.156 53.2775C117.767 53.2775 118.353 53.5228 118.785 53.9594C119.217 54.3961 119.459 54.9884 119.459 55.6059Z"
        fill="#2CA89A" />
    <path
        d="M127.321 74.9271C127.318 74.8856 127.318 74.844 127.321 74.8025C127.321 74.705 127.321 74.5859 127.321 74.4343C127.321 74.104 127.321 73.6329 127.321 73.0264C127.321 71.7864 127.321 69.994 127.283 67.7143C127.283 63.144 127.246 56.6352 127.219 48.816L127.347 48.9513H100.323C100.286 48.9838 100.607 48.6589 100.473 48.7997V55.8392C100.473 58.1352 100.473 60.3878 100.473 62.5809C100.473 66.9616 100.473 71.1041 100.473 74.9162L100.339 74.7863L119.882 74.8512L125.398 74.8891H126.86H127.369C127.369 74.8891 127.331 74.8891 127.251 74.8891H126.887H125.452L119.967 74.9271L100.339 74.992H100.211V74.8567C100.211 71.0662 100.211 66.902 100.211 62.5213C100.211 60.3282 100.211 58.0756 100.211 55.7796V48.7402L100.366 48.5831H127.39H127.524V48.7131C127.524 56.5648 127.471 63.1007 127.455 67.6926C127.455 69.9615 127.455 71.743 127.422 72.9777C127.422 73.5733 127.422 74.0336 127.422 74.3639C127.422 74.5101 127.422 74.6238 127.422 74.7105C127.422 74.7971 127.326 74.9325 127.321 74.9271Z"
        fill="#DCEEEC" />
    <path d="M159.9 50.7024H138.951V53.5558H159.9V50.7024Z" fill="#2CA89A" />
    <path d="M194.205 57.7389H138.951V59.5658H194.205V57.7389Z" fill="#E6E6E6" />
    <path d="M194.205 61.3993H138.951V63.2262H194.205V61.3993Z" fill="#E6E6E6" />
    <path
        d="M179.519 72.1866H178.473V73.213H177.698V72.1866H176.652V71.4571H177.698V70.4371H178.473V71.4571H179.519V72.1866Z"
        fill="#2CA89A" />
    <path
        d="M186.657 73.1356V73.9232H183.481V73.2776L185.101 71.7412C185.24 71.6221 185.358 71.4802 185.45 71.3216C185.506 71.2115 185.537 71.0902 185.54 70.9665C185.544 70.8928 185.53 70.8192 185.5 70.7518C185.469 70.6844 185.424 70.6253 185.366 70.5792C185.22 70.4786 185.045 70.4308 184.869 70.4436C184.697 70.441 184.527 70.4786 184.372 70.5534C184.221 70.6211 184.092 70.7281 183.997 70.8632L183.287 70.4114C183.455 70.1599 183.689 69.9608 183.965 69.8368C184.276 69.6923 184.616 69.6216 184.959 69.6302C185.239 69.6259 185.518 69.6764 185.779 69.7787C185.996 69.8707 186.183 70.0203 186.321 70.2112C186.455 70.3998 186.525 70.6258 186.521 70.8568C186.522 71.0805 186.471 71.3014 186.373 71.5024C186.233 71.7633 186.044 71.9955 185.818 72.1866L184.849 73.1033L186.657 73.1356Z"
        fill="#2CA89A" />
    <path d="M190.535 71.8574H192.239V72.6127H190.535V71.8574Z" fill="#2CA89A" />
    <path
        d="M194.205 76.6862C194.205 76.6862 194.205 76.6152 194.205 76.499C194.205 76.3828 194.205 76.1827 194.205 75.9761C194.205 75.4919 194.205 74.8335 194.173 73.9942C194.173 72.2641 194.134 69.8174 194.108 66.8027L194.231 66.9253L173.36 66.9705L173.528 66.8027V71.8897C173.528 73.5423 173.528 75.1175 173.528 76.6798L173.366 76.5184L188.311 76.5958L192.656 76.6346H193.824H194.237C194.113 76.6436 193.988 76.6436 193.863 76.6346H192.727L188.421 76.6733L173.366 76.7508H173.205V76.5958C173.205 75.0594 173.205 73.4584 173.205 71.8058V66.7187L173.373 66.5509L194.244 66.5961H194.367V66.7187C194.367 69.7658 194.321 72.2383 194.302 73.9813C194.302 74.8076 194.302 75.4661 194.27 75.918V76.4215C194.277 76.5144 194.255 76.6072 194.205 76.6862Z"
        fill="#2B2A29" />
    <path
        d="M143.164 73.5293C142.797 73.8562 142.331 74.0515 141.841 74.0845V74.9431H141.072V74.1103C140.706 74.091 140.343 74.0238 139.994 73.9102C139.697 73.8216 139.417 73.6818 139.168 73.497L139.588 72.561C139.796 72.712 140.024 72.8336 140.265 72.9225C140.525 73.0176 140.797 73.0784 141.072 73.1032V71.8121C140.758 71.744 140.452 71.6468 140.156 71.5216C139.904 71.4221 139.682 71.2599 139.51 71.0504C139.335 70.8137 139.246 70.5245 139.258 70.2305C139.256 70.0264 139.296 69.8239 139.376 69.6361C139.456 69.4483 139.574 69.2792 139.723 69.1395C140.093 68.8087 140.564 68.613 141.059 68.5843V67.7322H141.828V68.5649C142.375 68.594 142.906 68.7558 143.377 69.0362L142.996 69.9787C142.638 69.7666 142.24 69.6304 141.828 69.5785V70.8696C142.137 70.9346 142.439 71.0275 142.731 71.1472C142.982 71.2451 143.205 71.405 143.377 71.612C143.552 71.8486 143.641 72.1379 143.629 72.4319C143.633 72.6373 143.594 72.8413 143.514 73.0305C143.434 73.2196 143.315 73.3897 143.164 73.5293ZM140.653 70.4952C140.777 70.5919 140.92 70.6622 141.072 70.7018V69.6172C140.911 69.6465 140.761 69.7203 140.64 69.8303C140.553 69.9254 140.504 70.0498 140.504 70.1788C140.503 70.2394 140.516 70.2993 140.542 70.3541C140.568 70.4089 140.606 70.4571 140.653 70.4952ZM142.247 72.8773C142.293 72.8358 142.33 72.7849 142.354 72.7281C142.379 72.6713 142.391 72.6099 142.389 72.5481C142.391 72.488 142.38 72.4283 142.355 72.3734C142.33 72.3186 142.294 72.2701 142.247 72.2317C142.126 72.137 141.988 72.0648 141.841 72.0187V73.0774C141.992 73.0483 142.132 72.9792 142.247 72.8773Z"
        fill="#E6E6E6" />
    <path
        d="M148.958 73.5293C148.589 73.8575 148.12 74.0529 147.628 74.0845V74.9431H146.866V74.1103C146.499 74.0916 146.137 74.0244 145.788 73.9102C145.489 73.8201 145.208 73.6805 144.955 73.497L145.381 72.561C145.579 72.7094 145.797 72.831 146.027 72.9225C146.287 73.0176 146.558 73.0784 146.834 73.1032V71.8121C146.518 71.7431 146.209 71.6459 145.91 71.5216C145.659 71.4214 145.437 71.2593 145.265 71.0504C145.09 70.8137 145.001 70.5245 145.013 70.2305C145.011 70.0264 145.051 69.8239 145.131 69.6361C145.211 69.4483 145.329 69.2792 145.478 69.1395C145.848 68.8087 146.319 68.613 146.814 68.5843V67.7322H147.576V68.5649C148.125 68.593 148.659 68.7548 149.132 69.0362L148.751 69.9787C148.391 69.7656 147.991 69.6293 147.576 69.5785V70.8696C147.887 70.9337 148.192 71.0266 148.486 71.1472C148.736 71.2468 148.958 71.4064 149.132 71.612C149.307 71.8486 149.396 72.1379 149.384 72.4319C149.393 72.6344 149.36 72.8367 149.287 73.0257C149.213 73.2147 149.101 73.3863 148.958 73.5293ZM146.446 70.4952C146.571 70.5919 146.713 70.6622 146.866 70.7018V69.6172C146.705 69.6465 146.555 69.7203 146.433 69.8303C146.346 69.9254 146.298 70.0498 146.298 70.1788C146.296 70.2396 146.308 70.3 146.334 70.355C146.36 70.4101 146.398 70.4581 146.446 70.4952ZM148.041 72.8773C148.087 72.8358 148.123 72.7849 148.148 72.7281C148.172 72.6713 148.184 72.6099 148.183 72.5481C148.184 72.4882 148.171 72.4289 148.147 72.3743C148.122 72.3197 148.086 72.271 148.041 72.2317C147.917 72.1363 147.777 72.0641 147.628 72.0187V73.0774C147.781 73.0498 147.924 72.9805 148.041 72.8773Z"
        fill="#E6E6E6" />
    <path
        d="M131.957 80.1205C131.86 80.1205 131.789 72.1607 131.789 62.3417C131.789 52.5227 131.86 44.5565 131.957 44.5565C132.054 44.5565 132.125 52.5163 132.125 62.3417C132.125 72.1672 132.06 80.1205 131.957 80.1205Z"
        fill="#2B2A29" />
    <path d="M131.934 83.4515H95.75V118.899H131.934V83.4515Z" fill="#DCEEEC" />
    <path
        d="M95.7471 83.4515H96.2571H97.7677H103.655L125.669 83.4063L201.328 83.3289H201.49V83.4902C201.49 94.6649 201.49 106.614 201.49 118.932V119.099H201.322L95.7406 119.041H95.6309V118.932C95.6309 107.802 95.676 98.9192 95.6954 92.838C95.6954 89.8038 95.6954 87.4669 95.6954 85.8788C95.6954 85.0912 95.6954 84.4973 95.6954 84.0842C95.6954 83.671 95.6954 83.4838 95.6954 83.4838C95.6954 83.4838 95.6954 83.6968 95.6954 84.1294C95.6954 84.5619 95.6954 85.1429 95.6954 85.9369C95.6954 87.5315 95.6954 89.8813 95.6954 92.9219C95.6954 99.0031 95.7341 107.854 95.76 118.951L95.6438 118.841L201.225 118.783L201.057 118.951V83.4515L201.225 83.6129L125.695 83.5419L103.636 83.4967H97.7225H96.186L95.7471 83.4515Z"
        fill="#2B2A29" />
    <path d="M159.9 89.8104H138.951V92.6638H159.9V89.8104Z" fill="#2CA89A" />
    <path d="M194.205 96.8534H138.951V98.6803H194.205V96.8534Z" fill="#E6E6E6" />
    <path d="M194.205 100.507H138.951V102.334H194.205V100.507Z" fill="#E6E6E6" />
    <path
        d="M179.519 111.301H178.473V112.321H177.698V111.301H176.652V110.565H177.698V109.545H178.473V110.565H179.519V111.301Z"
        fill="#2CA89A" />
    <path d="M185.138 108.822V113.031H184.163V109.603H183.324V108.822H185.138Z" fill="#2CA89A" />
    <path d="M189.348 110.965H191.052V111.721H189.348V110.965Z" fill="#2CA89A" />
    <path
        d="M194.205 115.794C194.205 115.794 194.205 115.723 194.205 115.607C194.205 115.491 194.205 115.297 194.205 115.084C194.205 114.6 194.205 113.942 194.173 113.102C194.173 111.372 194.134 108.926 194.108 105.911L194.231 106.033L173.36 106.079L173.528 105.911V111.004C173.528 112.657 173.528 114.232 173.528 115.788L173.366 115.626L188.311 115.704L192.656 115.749H193.824H194.237C194.113 115.758 193.988 115.758 193.863 115.749H192.727L188.421 115.794L173.366 115.865H173.205V115.704C173.205 114.174 173.205 112.573 173.205 110.92V105.917L173.373 105.749L194.244 105.795H194.367V105.917C194.367 108.964 194.321 111.437 194.302 113.186C194.302 114.013 194.302 114.665 194.27 115.123V115.626C194.26 115.686 194.238 115.744 194.205 115.794Z"
        fill="#2B2A29" />
    <path
        d="M143.164 112.638C142.797 112.964 142.331 113.16 141.841 113.193V114.051H141.072V113.219C140.705 113.202 140.343 113.135 139.994 113.018C139.697 112.93 139.417 112.79 139.168 112.605L139.588 111.669C139.794 111.823 140.023 111.945 140.265 112.031C140.525 112.128 140.796 112.191 141.072 112.218V110.927C140.76 110.853 140.454 110.756 140.156 110.636C139.905 110.535 139.683 110.373 139.51 110.165C139.334 109.927 139.245 109.635 139.258 109.339C139.256 109.135 139.296 108.932 139.376 108.744C139.456 108.557 139.574 108.387 139.723 108.248C140.093 107.917 140.564 107.721 141.059 107.693V106.886H141.828V107.725C142.374 107.752 142.906 107.911 143.377 108.19L142.996 109.132C142.638 108.92 142.24 108.784 141.828 108.732V110.023C142.136 110.091 142.438 110.184 142.731 110.301C142.983 110.401 143.205 110.563 143.377 110.772C143.553 111.005 143.642 111.293 143.629 111.585C143.627 111.783 143.585 111.979 143.506 112.16C143.426 112.341 143.309 112.503 143.164 112.638ZM140.653 109.603C140.775 109.703 140.919 109.773 141.072 109.81V108.725C140.91 108.754 140.759 108.831 140.64 108.945C140.55 109.039 140.502 109.164 140.504 109.294C140.504 109.353 140.517 109.412 140.542 109.466C140.568 109.52 140.606 109.567 140.653 109.603ZM142.247 111.986C142.293 111.944 142.33 111.893 142.354 111.836C142.379 111.78 142.391 111.718 142.389 111.656C142.391 111.596 142.38 111.537 142.355 111.482C142.33 111.427 142.294 111.378 142.247 111.34C142.124 111.248 141.986 111.176 141.841 111.127V112.186C141.993 112.16 142.134 112.09 142.247 111.986Z"
        fill="#E6E6E6" />
    <path
        d="M131.957 119.228C131.86 119.228 131.789 111.269 131.789 101.45C131.789 91.6307 131.873 83.6451 131.957 83.6451C132.041 83.6451 132.125 91.6049 132.125 101.43C132.125 111.256 132.06 119.228 131.957 119.228Z"
        fill="#2B2A29" />
    <path d="M131.934 122.469H95.75V157.917H131.934V122.469Z" fill="#DCEEEC" />
    <path
        d="M95.7471 122.469H96.2571H97.7677H103.655L125.669 122.424L201.328 122.347H201.49V122.515C201.49 133.689 201.49 145.632 201.49 157.949V158.117H201.322L95.7406 158.059H95.6309V157.885C95.6309 146.762 95.676 137.872 95.6954 131.791C95.6954 128.764 95.6954 126.42 95.6954 124.832C95.6954 124.051 95.6954 123.451 95.6954 123.044C95.6954 122.637 95.6954 122.444 95.6954 122.444C95.6954 122.444 95.6954 122.657 95.6954 123.089C95.6954 123.522 95.6954 124.109 95.6954 124.897C95.6954 126.498 95.6954 128.841 95.6954 131.888C95.6954 137.969 95.7341 146.813 95.76 157.911L95.6438 157.801L201.225 157.743L201.057 157.911V122.469L201.225 122.631L125.695 122.553L103.636 122.508H97.7225H96.186L95.7471 122.469Z"
        fill="#2B2A29" />
    <path d="M159.9 128.828H138.951V131.682H159.9V128.828Z" fill="#2CA89A" />
    <path d="M194.205 135.865H138.951V137.692H194.205V135.865Z" fill="#E6E6E6" />
    <path d="M194.205 139.518H138.951V141.345H194.205V139.518Z" fill="#E6E6E6" />
    <path
        d="M179.519 150.312H178.473V151.332H177.698V150.312H176.652V149.583H177.698V148.557H178.473V149.583H179.519V150.312Z"
        fill="#2CA89A" />
    <path d="M185.138 147.84V152.075H184.163V148.647H183.324V147.866L185.138 147.84Z" fill="#2CA89A" />
    <path d="M189.348 149.983H191.052V150.732H189.348V149.983Z" fill="#2CA89A" />
    <path
        d="M194.204 154.806C194.204 154.806 194.204 154.741 194.204 154.618C194.204 154.496 194.204 154.308 194.204 154.095C194.204 153.618 194.204 152.953 194.172 152.114C194.172 150.39 194.133 147.937 194.107 144.928L194.23 145.051L173.359 145.096L173.527 144.928V150.009C173.527 151.662 173.527 153.237 173.527 154.793L173.366 154.638L188.31 154.709L192.655 154.754H193.823H194.236C194.112 154.763 193.987 154.763 193.862 154.754H192.726L188.42 154.799L173.366 154.877H173.204V154.715C173.204 153.185 173.204 151.584 173.204 149.932V144.974C173.165 144.974 173.52 144.651 173.372 144.799L194.243 144.844H194.366V144.974C194.366 148.014 194.32 150.493 194.301 152.236C194.301 153.062 194.301 153.715 194.269 154.173V154.67C194.217 154.754 194.211 154.812 194.204 154.806Z"
        fill="#2B2A29" />
    <path
        d="M143.164 151.655C142.795 151.979 142.33 152.174 141.841 152.21V153.069H141.072V152.23C140.705 152.213 140.343 152.146 139.994 152.029C139.696 151.944 139.416 151.804 139.168 151.616L139.588 150.687C139.796 150.836 140.024 150.955 140.265 151.042C140.524 151.142 140.796 151.205 141.072 151.229V149.938C140.76 149.864 140.454 149.767 140.156 149.647C139.905 149.546 139.683 149.384 139.51 149.176C139.334 148.938 139.245 148.646 139.258 148.35C139.256 148.146 139.297 147.943 139.377 147.756C139.457 147.568 139.575 147.399 139.723 147.259C140.095 146.931 140.565 146.735 141.059 146.704V145.858H141.828V146.691C142.374 146.718 142.906 146.877 143.377 147.155L142.996 148.098C142.638 147.888 142.24 147.754 141.828 147.704V148.995C142.136 149.063 142.438 149.156 142.731 149.273C142.982 149.376 143.203 149.537 143.377 149.744C143.553 149.978 143.642 150.265 143.629 150.558C143.633 150.763 143.594 150.967 143.514 151.156C143.433 151.345 143.314 151.515 143.164 151.655ZM140.653 148.614C140.777 148.714 140.919 148.786 141.072 148.827V147.736C140.911 147.768 140.761 147.844 140.64 147.956C140.55 148.05 140.502 148.175 140.504 148.305C140.503 148.364 140.516 148.423 140.542 148.477C140.567 148.531 140.605 148.578 140.653 148.614ZM142.247 150.997C142.293 150.955 142.33 150.904 142.354 150.847C142.379 150.791 142.391 150.729 142.389 150.667C142.391 150.608 142.38 150.549 142.355 150.496C142.33 150.442 142.293 150.395 142.247 150.357C142.127 150.261 141.989 150.188 141.841 150.144V151.197C141.993 151.173 142.135 151.103 142.247 150.997Z"
        fill="#E6E6E6" />
    <path
        d="M148.426 151.655C148.058 151.981 147.592 152.176 147.102 152.21V153.069H146.334V152.23C145.967 152.213 145.604 152.146 145.256 152.029C144.958 151.944 144.677 151.804 144.43 151.616L144.849 150.687C145.059 150.837 145.29 150.956 145.534 151.042C145.79 151.142 146.06 151.205 146.334 151.229V149.938C146.022 149.863 145.716 149.766 145.417 149.647C145.166 149.546 144.944 149.384 144.772 149.176C144.593 148.939 144.502 148.647 144.514 148.35C144.512 148.146 144.552 147.943 144.632 147.756C144.712 147.568 144.83 147.399 144.978 147.259C145.35 146.931 145.82 146.735 146.315 146.704V145.858H147.083V146.691C147.631 146.719 148.165 146.878 148.639 147.155L148.251 148.098C147.893 147.888 147.495 147.754 147.083 147.704V148.995C147.391 149.063 147.693 149.156 147.987 149.273C148.238 149.374 148.46 149.536 148.632 149.744C148.809 149.978 148.898 150.265 148.884 150.558C148.889 150.762 148.851 150.966 148.772 151.155C148.693 151.344 148.575 151.515 148.426 151.655ZM145.914 148.614C146.039 148.712 146.182 148.785 146.334 148.827V147.736C146.174 147.766 146.025 147.843 145.908 147.956C145.817 148.049 145.766 148.174 145.766 148.305C145.765 148.364 145.778 148.423 145.803 148.477C145.829 148.531 145.867 148.578 145.914 148.614ZM147.515 150.997C147.559 150.954 147.594 150.903 147.618 150.846C147.641 150.789 147.652 150.729 147.651 150.667C147.653 150.608 147.641 150.549 147.617 150.496C147.592 150.442 147.555 150.395 147.509 150.357C147.389 150.26 147.251 150.187 147.102 150.144V151.197C147.257 151.173 147.401 151.103 147.515 150.997Z"
        fill="#E6E6E6" />
    <path
        d="M131.957 158.246C131.86 158.246 131.789 150.28 131.789 140.461C131.789 130.642 131.86 122.682 131.957 122.682C132.054 122.682 132.125 130.642 132.125 140.461C132.125 150.28 132.06 158.246 131.957 158.246Z"
        fill="#2B2A29" />
    <path d="M129.799 85.6337H97.8105V116.927H129.799V85.6337Z" fill="white" />
    <path
        d="M100.291 114.246L109.144 98.1422L116.379 108.436L120.781 102.972L127.32 114.246H100.291Z"
        fill="#2CA89A" />
    <path
        d="M119.459 95.0122C119.459 95.4727 119.324 95.9229 119.071 96.3058C118.818 96.6887 118.458 96.9871 118.038 97.1634C117.617 97.3396 117.154 97.3857 116.707 97.2959C116.26 97.206 115.85 96.9843 115.528 96.6586C115.206 96.333 114.987 95.9181 114.898 95.4664C114.809 95.0147 114.855 94.5466 115.029 94.1211C115.203 93.6956 115.498 93.332 115.877 93.0761C116.256 92.8203 116.701 92.6837 117.156 92.6837C117.767 92.6837 118.353 92.929 118.785 93.3657C119.217 93.8024 119.459 94.3946 119.459 95.0122Z"
        fill="#2CA89A" />
    <path
        d="M127.321 114.333C127.318 114.292 127.318 114.25 127.321 114.209C127.321 114.111 127.321 113.992 127.321 113.841C127.321 113.51 127.321 113.039 127.321 112.433C127.321 111.193 127.321 109.4 127.283 107.121C127.283 102.55 127.246 96.0415 127.219 88.2222L127.347 88.3576H100.323C100.286 88.3901 100.607 88.0652 100.473 88.206V95.2455C100.473 97.5414 100.473 99.794 100.473 101.987C100.473 106.368 100.473 110.51 100.473 114.322L100.339 114.193L119.882 114.257L125.398 114.295H126.86H127.369C127.369 114.295 127.331 114.295 127.251 114.295H126.887H125.452L119.967 114.333L100.339 114.398H100.211V114.263C100.211 110.472 100.211 106.308 100.211 101.928C100.211 99.7345 100.211 97.4818 100.211 95.1859V88.1464L100.366 87.9894H127.39H127.524V88.1193C127.524 95.9711 127.471 102.507 127.455 107.099C127.455 109.368 127.455 111.149 127.422 112.384C127.422 112.98 127.422 113.44 127.422 113.77C127.422 113.916 127.422 114.03 127.422 114.117C127.422 114.203 127.326 114.339 127.321 114.333Z"
        fill="#DCEEEC" />
    <path d="M130.065 123.881H97.6133V156.333H130.065V123.881Z" fill="white" />
    <path
        d="M100.131 153.553L109.112 136.853L116.452 147.528L120.918 141.862L127.552 153.553H100.131Z"
        fill="#2CA89A" />
    <path
        d="M119.575 133.607C119.575 134.084 119.438 134.551 119.181 134.948C118.924 135.345 118.56 135.655 118.133 135.838C117.706 136.02 117.236 136.068 116.783 135.975C116.33 135.882 115.913 135.652 115.587 135.314C115.26 134.977 115.037 134.546 114.947 134.078C114.857 133.61 114.903 133.124 115.08 132.683C115.257 132.242 115.556 131.864 115.941 131.599C116.325 131.334 116.777 131.192 117.239 131.192C117.858 131.192 118.452 131.447 118.891 131.899C119.329 132.352 119.575 132.966 119.575 133.607Z"
        fill="#2CA89A" />
    <path
        d="M127.549 153.643C127.547 153.6 127.547 153.557 127.549 153.514C127.549 153.413 127.549 153.29 127.549 153.132C127.549 152.79 127.549 152.301 127.549 151.672C127.549 150.386 127.549 148.528 127.511 146.164C127.511 141.424 127.473 134.674 127.446 126.565L127.577 126.706H100.161C100.123 126.739 100.449 126.402 100.313 126.548V133.849C100.313 136.23 100.313 138.566 100.313 140.84C100.313 145.383 100.313 149.679 100.313 153.632L100.177 153.497L120.003 153.565L125.599 153.604H127.082H127.598C127.598 153.604 127.56 153.604 127.479 153.604H127.109H125.653L120.09 153.643L100.177 153.711H100.047V153.57C100.047 149.64 100.047 145.321 100.047 140.778C100.047 138.504 100.047 136.168 100.047 133.787V126.487L100.204 126.324H127.62H127.756V126.459C127.756 134.601 127.702 141.379 127.685 146.141C127.685 148.494 127.685 150.342 127.653 151.622C127.653 152.24 127.653 152.717 127.653 153.059C127.653 153.211 127.653 153.329 127.653 153.419C127.653 153.509 127.555 153.649 127.549 153.643Z"
        fill="#DCEEEC" />
</svg>
    