<svg width="328" height="250" viewBox="0 0 328 250" fill="none" xmlns="http://www.w3.org/2000/svg">
    <path
        d="M324.758 64.8442C335.452 113.781 314.581 166.764 277.107 200.002C239.632 233.24 187.729 247.699 137.72 245.014C102.018 243.097 65.8138 232.388 38.6986 209.083C11.5835 185.779 -4.92903 148.616 2.04562 113.545C4.68488 100.303 10.9978 87.1372 22.209 79.6073C40.1133 67.5823 64.0416 73.1042 84.7374 79.0825C105.433 85.0608 129.331 90.6435 147.281 78.6946C161.078 69.5218 167.056 52.6291 176.579 39.0601C192.734 15.9761 221.066 1.97351 249.216 3.14483C253.12 3.31471 257.006 3.76462 260.845 4.49108C290.691 10.1651 314.688 32.3973 323.693 61.4063L324.758 64.8442Z"
        fill="#DCEEEC" />
    <path
        d="M206.213 250L121.391 249.612C118.965 249.601 116.565 249.112 114.328 248.174C112.09 247.235 110.06 245.865 108.352 244.142C106.644 242.418 105.293 240.375 104.374 238.13C103.456 235.884 102.989 233.48 103 231.053L103.898 18.399C103.909 15.9718 104.398 13.5706 105.337 11.3324C106.276 9.09417 107.646 7.06285 109.37 5.35436C111.094 3.64587 113.138 2.29369 115.384 1.37502C117.631 0.456348 120.037 -0.0108218 122.464 0.000190236L207.285 0.395702C212.184 0.417844 216.873 2.38452 220.322 5.86327C223.771 9.34203 225.697 14.0481 225.676 18.9466L224.779 231.601C224.769 234.028 224.281 236.43 223.342 238.669C222.403 240.907 221.033 242.939 219.309 244.648C217.584 246.357 215.54 247.709 213.293 248.627C211.046 249.545 208.64 250.012 206.213 250Z"
        fill="#2B2A29" />
    <path
        d="M207.156 7.73554L190.712 7.65948C190.175 7.6684 189.646 7.78289 189.154 7.99643C188.662 8.20997 188.217 8.51837 187.844 8.90401C187.471 9.28966 187.177 9.74499 186.98 10.244C186.784 10.743 186.687 11.2759 186.696 11.8123V14.7939C186.714 15.8779 186.302 16.9248 185.549 17.7049C184.796 18.4849 183.764 18.9343 182.68 18.9543L150.629 18.8022C149.546 18.7723 148.519 18.3144 147.774 17.5288C147.028 16.7433 146.624 15.6941 146.651 14.6113V11.6298C146.677 10.5463 146.274 9.49629 145.528 8.7095C144.783 7.92272 143.756 7.46315 142.673 7.4313H136.885L122.494 7.36285C120.794 7.35384 119.109 7.68012 117.536 8.32303C115.962 8.96594 114.53 9.91286 113.323 11.1096C112.116 12.3063 111.156 13.7294 110.5 15.2973C109.843 16.8653 109.502 18.5474 109.496 20.2473L108.613 227.813C108.607 229.513 108.936 231.196 109.582 232.768C110.227 234.341 111.176 235.77 112.374 236.975C113.572 238.18 114.995 239.137 116.564 239.792C118.132 240.446 119.814 240.785 121.513 240.789L206.167 241.177C207.867 241.186 209.552 240.86 211.126 240.217C212.699 239.574 214.131 238.627 215.338 237.43C216.546 236.234 217.505 234.81 218.162 233.242C218.819 231.675 219.16 229.992 219.166 228.293L220.086 20.7265C220.094 19.0234 219.765 17.3354 219.119 15.7597C218.473 14.1839 217.522 12.7513 216.32 11.5442C215.119 10.337 213.691 9.37918 212.118 8.72558C210.545 8.07198 208.859 7.73552 207.156 7.73554Z"
        fill="white" />
    <path
        d="M159.239 221.31C159.288 221.666 159.228 222.029 159.066 222.35C158.903 222.671 158.647 222.935 158.33 223.106C158.014 223.277 157.653 223.347 157.295 223.307C156.938 223.267 156.601 223.119 156.33 222.883C156.059 222.646 155.867 222.332 155.78 221.984C155.692 221.635 155.713 221.267 155.84 220.931C155.967 220.594 156.194 220.305 156.49 220.101C156.786 219.897 157.137 219.788 157.497 219.789C157.93 219.76 158.356 219.904 158.683 220.189C159.01 220.474 159.21 220.878 159.239 221.31Z"
        fill="#2CA89A" />
    <path
        d="M164.667 221.333C164.718 221.691 164.659 222.056 164.496 222.379C164.334 222.703 164.076 222.969 163.759 223.141C163.441 223.314 163.077 223.385 162.718 223.345C162.358 223.305 162.02 223.157 161.747 222.919C161.475 222.681 161.281 222.365 161.194 222.014C161.106 221.663 161.128 221.294 161.256 220.955C161.384 220.617 161.613 220.326 161.911 220.122C162.21 219.917 162.564 219.809 162.925 219.812C163.358 219.782 163.785 219.926 164.111 220.212C164.438 220.497 164.638 220.9 164.667 221.333Z"
        fill="#2CA89A" />
    <path
        d="M170.077 221.356C170.126 221.712 170.066 222.075 169.904 222.396C169.741 222.717 169.485 222.981 169.168 223.152C168.852 223.323 168.491 223.393 168.133 223.353C167.776 223.313 167.439 223.165 167.168 222.928C166.897 222.692 166.705 222.378 166.618 222.029C166.53 221.68 166.551 221.313 166.678 220.977C166.805 220.64 167.032 220.35 167.328 220.146C167.624 219.942 167.975 219.834 168.335 219.835C168.549 219.819 168.765 219.846 168.969 219.915C169.173 219.983 169.361 220.091 169.523 220.232C169.685 220.374 169.817 220.546 169.912 220.739C170.007 220.932 170.063 221.141 170.077 221.356Z"
        fill="#2CA89A" />
    <path
        d="M198.957 48.3361H129.659C125.979 48.3361 122.996 51.3191 122.996 54.9989V126.921C122.996 130.6 125.979 133.583 129.659 133.583H198.957C202.636 133.583 205.619 130.6 205.619 126.921V54.9989C205.619 51.3191 202.636 48.3361 198.957 48.3361Z"
        fill="#2CA89A" />
    <path
        d="M198.954 133.964H129.649C127.782 133.962 125.993 133.219 124.673 131.898C123.354 130.577 122.613 128.787 122.613 126.92V54.9987C122.613 53.132 123.354 51.3418 124.673 50.0211C125.993 48.7005 127.782 47.9576 129.649 47.9556H198.954C200.821 47.9576 202.612 48.7003 203.932 50.0207C205.252 51.3411 205.995 53.1313 205.997 54.9987V126.92C205.995 128.788 205.252 130.578 203.932 131.898C202.612 133.219 200.821 133.962 198.954 133.964ZM129.649 48.7162C127.984 48.7182 126.388 49.381 125.211 50.559C124.035 51.7369 123.374 53.3338 123.374 54.9987V126.92C123.374 128.585 124.035 130.182 125.211 131.36C126.388 132.538 127.984 133.201 129.649 133.203H198.954C200.62 133.201 202.216 132.538 203.394 131.361C204.572 130.183 205.235 128.586 205.237 126.92V54.9987C205.235 53.3331 204.572 51.7363 203.394 50.5585C202.216 49.3807 200.62 48.7182 198.954 48.7162H129.649Z"
        fill="#2CA89A" />
    <path d="M158.407 148.073H127.945V149.016H158.407V148.073Z" fill="#2B2A29" />
    <path d="M146.435 151.092H127.945V152.035H146.435V151.092Z" fill="#2B2A29" />
    <path
        d="M212.091 171.711H117.108C115.823 171.711 114.781 172.82 114.781 174.188V193.503C114.781 194.872 115.823 195.981 117.108 195.981H212.091C213.376 195.981 214.418 194.872 214.418 193.503V174.188C214.418 172.82 213.376 171.711 212.091 171.711Z"
        fill="#2CA89A" />
    <path
        d="M133.529 187.276C133.016 187.276 132.56 187.169 132.16 186.954C131.761 186.734 131.448 186.433 131.222 186.051C131.001 185.67 130.891 185.244 130.891 184.773V183.163C130.891 182.692 131.001 182.266 131.222 181.885C131.448 181.503 131.761 181.205 132.16 180.99C132.56 180.77 133.016 180.659 133.529 180.659C134.041 180.659 134.497 180.77 134.897 180.99C135.296 181.205 135.606 181.503 135.827 181.885C136.053 182.266 136.166 182.692 136.166 183.163V184.773C136.166 185.244 136.053 185.67 135.827 186.051C135.606 186.433 135.296 186.734 134.897 186.954C134.497 187.169 134.041 187.276 133.529 187.276ZM133.529 186.203C133.976 186.203 134.333 186.072 134.602 185.81C134.87 185.548 135.004 185.202 135.004 184.773V183.163C135.004 182.734 134.87 182.388 134.602 182.126C134.333 181.864 133.976 181.733 133.529 181.733C133.081 181.733 132.724 181.864 132.456 182.126C132.187 182.388 132.053 182.734 132.053 183.163V184.773C132.053 185.202 132.187 185.548 132.456 185.81C132.724 186.072 133.081 186.203 133.529 186.203ZM141.665 182.537C141.963 182.537 142.234 182.612 142.479 182.761C142.723 182.91 142.917 183.118 143.06 183.387C143.203 183.649 143.275 183.947 143.275 184.281V185.443C143.275 185.777 143.203 186.078 143.06 186.346C142.917 186.609 142.723 186.814 142.479 186.963C142.234 187.112 141.963 187.187 141.665 187.187C141.504 187.187 141.343 187.166 141.182 187.124C141.027 187.083 140.905 187.029 140.816 186.963H140.726V188.573C140.726 188.71 140.676 188.826 140.574 188.922C140.473 189.017 140.345 189.065 140.19 189.065C140.035 189.065 139.907 189.017 139.805 188.922C139.704 188.826 139.653 188.71 139.653 188.573V186.963H139.564C139.474 187.029 139.349 187.083 139.188 187.124C139.033 187.166 138.875 187.187 138.714 187.187C138.416 187.187 138.145 187.112 137.901 186.963C137.656 186.814 137.463 186.609 137.319 186.346C137.176 186.078 137.105 185.777 137.105 185.443V184.281C137.105 183.947 137.176 183.649 137.319 183.387C137.463 183.118 137.656 182.91 137.901 182.761C138.145 182.612 138.416 182.537 138.714 182.537C138.875 182.537 139.033 182.558 139.188 182.6C139.349 182.642 139.474 182.695 139.564 182.761H139.653V181.285C139.653 181.148 139.704 181.032 139.805 180.937C139.907 180.841 140.035 180.794 140.19 180.794C140.345 180.794 140.473 180.841 140.574 180.937C140.676 181.032 140.726 181.148 140.726 181.285V182.761H140.816C140.905 182.695 141.027 182.642 141.182 182.6C141.343 182.558 141.504 182.537 141.665 182.537ZM138.983 186.293C139.245 186.293 139.468 186.218 139.653 186.069V183.655C139.468 183.506 139.245 183.431 138.983 183.431C138.732 183.431 138.536 183.506 138.392 183.655C138.249 183.804 138.178 184.013 138.178 184.281V185.443C138.178 185.712 138.249 185.92 138.392 186.069C138.536 186.218 138.732 186.293 138.983 186.293ZM142.202 184.281C142.202 184.013 142.13 183.804 141.987 183.655C141.844 183.506 141.647 183.431 141.397 183.431C141.135 183.431 140.911 183.506 140.726 183.655V186.069C140.911 186.218 141.135 186.293 141.397 186.293C141.647 186.293 141.844 186.218 141.987 186.069C142.13 185.92 142.202 185.712 142.202 185.443V184.281ZM146.226 187.232C145.832 187.232 145.478 187.148 145.162 186.981C144.852 186.814 144.607 186.591 144.428 186.311C144.256 186.03 144.169 185.726 144.169 185.399V184.37C144.169 184.042 144.256 183.738 144.428 183.458C144.607 183.178 144.852 182.955 145.162 182.788C145.478 182.621 145.832 182.537 146.226 182.537C146.619 182.537 146.971 182.621 147.281 182.788C147.597 182.955 147.841 183.178 148.014 183.458C148.193 183.738 148.282 184.042 148.282 184.37V185.399C148.282 185.726 148.193 186.03 148.014 186.311C147.841 186.591 147.597 186.814 147.281 186.981C146.971 187.148 146.619 187.232 146.226 187.232ZM146.226 186.337C146.512 186.337 146.747 186.248 146.932 186.069C147.117 185.89 147.209 185.667 147.209 185.399V184.37C147.209 184.102 147.117 183.879 146.932 183.7C146.747 183.521 146.512 183.431 146.226 183.431C145.94 183.431 145.704 183.521 145.519 183.7C145.335 183.879 145.242 184.102 145.242 184.37V185.399C145.242 185.667 145.335 185.89 145.519 186.069C145.704 186.248 145.94 186.337 146.226 186.337ZM151.587 182.537C151.879 182.537 152.159 182.624 152.427 182.797C152.702 182.963 152.919 183.187 153.08 183.467C153.247 183.747 153.331 184.048 153.331 184.37V185.399C153.331 185.721 153.247 186.022 153.08 186.302C152.919 186.582 152.702 186.808 152.427 186.981C152.159 187.148 151.879 187.232 151.587 187.232C151.319 187.232 151.083 187.178 150.881 187.071C150.684 186.957 150.547 186.832 150.469 186.695H150.38V188.573C150.38 188.71 150.329 188.826 150.228 188.922C150.126 189.017 149.998 189.065 149.843 189.065C149.688 189.065 149.56 189.017 149.459 188.922C149.357 188.826 149.307 188.71 149.307 188.573V183.118C149.307 182.981 149.357 182.865 149.459 182.77C149.56 182.674 149.688 182.627 149.843 182.627C149.986 182.627 150.103 182.668 150.192 182.752C150.287 182.835 150.35 182.943 150.38 183.074H150.469C150.565 182.925 150.708 182.8 150.898 182.698C151.089 182.591 151.319 182.537 151.587 182.537ZM152.258 184.37C152.258 184.102 152.168 183.879 151.989 183.7C151.81 183.521 151.587 183.431 151.319 183.431C151.05 183.431 150.827 183.521 150.648 183.7C150.469 183.879 150.38 184.102 150.38 184.37V185.399C150.38 185.667 150.469 185.89 150.648 186.069C150.827 186.248 151.05 186.337 151.319 186.337C151.587 186.337 151.81 186.248 151.989 186.069C152.168 185.89 152.258 185.667 152.258 185.399V184.37ZM154.899 187.142C154.744 187.142 154.616 187.095 154.515 186.999C154.413 186.904 154.363 186.788 154.363 186.65V183.208C154.363 183.047 154.422 182.91 154.542 182.797C154.667 182.683 154.816 182.627 154.989 182.627C155.138 182.627 155.269 182.665 155.382 182.743C155.501 182.82 155.609 182.946 155.704 183.118L156.866 185.175H156.956L158.118 183.118C158.214 182.946 158.318 182.82 158.431 182.743C158.55 182.665 158.685 182.627 158.834 182.627C159.006 182.627 159.153 182.683 159.272 182.797C159.397 182.91 159.46 183.047 159.46 183.208V186.65C159.46 186.788 159.409 186.904 159.307 186.999C159.206 187.095 159.078 187.142 158.923 187.142C158.768 187.142 158.64 187.095 158.539 186.999C158.437 186.904 158.386 186.788 158.386 186.65V184.594H158.297L157.448 186.114C157.316 186.352 157.138 186.472 156.911 186.472C156.804 186.472 156.702 186.442 156.607 186.382C156.512 186.317 156.434 186.227 156.375 186.114L155.525 184.594H155.436V186.65C155.436 186.788 155.385 186.904 155.284 186.999C155.182 187.095 155.054 187.142 154.899 187.142ZM161.16 187.142C161.005 187.142 160.877 187.095 160.776 186.999C160.674 186.904 160.624 186.788 160.624 186.65V183.118C160.624 182.981 160.674 182.865 160.776 182.77C160.877 182.674 161.005 182.627 161.16 182.627C161.315 182.627 161.443 182.674 161.545 182.77C161.646 182.865 161.697 182.981 161.697 183.118V185.309H161.786L163.351 183.074C163.464 182.907 163.571 182.791 163.673 182.725C163.774 182.659 163.89 182.627 164.022 182.627C164.177 182.627 164.305 182.674 164.406 182.77C164.507 182.865 164.558 182.981 164.558 183.118V186.65C164.558 186.788 164.507 186.904 164.406 186.999C164.305 187.095 164.177 187.142 164.022 187.142C163.867 187.142 163.738 187.095 163.637 186.999C163.536 186.904 163.485 186.788 163.485 186.65V184.46H163.396L161.831 186.695C161.718 186.862 161.61 186.978 161.509 187.044C161.408 187.109 161.291 187.142 161.16 187.142ZM168.763 182.671C168.901 182.671 169.017 182.713 169.112 182.797C169.208 182.88 169.255 182.987 169.255 183.118C169.255 183.25 169.208 183.357 169.112 183.44C169.017 183.524 168.901 183.566 168.763 183.566H167.735V186.65C167.735 186.788 167.684 186.904 167.583 186.999C167.482 187.095 167.354 187.142 167.199 187.142C167.044 187.142 166.915 187.095 166.814 186.999C166.713 186.904 166.662 186.788 166.662 186.65V183.566H165.634C165.497 183.566 165.38 183.524 165.285 183.44C165.19 183.357 165.142 183.25 165.142 183.118C165.142 182.987 165.19 182.88 165.285 182.797C165.38 182.713 165.497 182.671 165.634 182.671H168.763ZM171.624 184.057C172.03 184.057 172.376 184.126 172.662 184.263C172.954 184.394 173.174 184.576 173.323 184.808C173.472 185.035 173.547 185.291 173.547 185.577C173.547 185.864 173.472 186.123 173.323 186.355C173.174 186.582 172.954 186.764 172.662 186.901C172.376 187.032 172.03 187.098 171.624 187.098H170.373C170.218 187.098 170.089 187.05 169.988 186.954C169.887 186.859 169.836 186.743 169.836 186.606V183.118C169.836 182.981 169.887 182.865 169.988 182.77C170.089 182.674 170.218 182.627 170.373 182.627C170.528 182.627 170.656 182.674 170.757 182.77C170.858 182.865 170.909 182.981 170.909 183.118V184.057H171.624ZM171.624 186.203C171.905 186.203 172.116 186.147 172.259 186.033C172.402 185.914 172.474 185.762 172.474 185.577C172.474 185.387 172.402 185.235 172.259 185.121C172.116 185.008 171.905 184.952 171.624 184.952H170.909V186.203H171.624ZM178.064 187.232C177.777 187.232 177.5 187.187 177.232 187.098C176.97 187.008 176.749 186.889 176.57 186.74C176.314 186.525 176.186 186.317 176.186 186.114C176.186 185.995 176.227 185.899 176.311 185.828C176.394 185.75 176.502 185.712 176.633 185.712C176.734 185.712 176.824 185.732 176.901 185.774C176.985 185.81 177.077 185.878 177.178 185.98C177.315 186.117 177.45 186.212 177.581 186.266C177.712 186.314 177.873 186.337 178.064 186.337C178.314 186.337 178.517 186.29 178.672 186.194C178.833 186.093 178.913 185.962 178.913 185.801C178.913 185.652 178.838 185.527 178.689 185.425C178.546 185.318 178.338 185.264 178.064 185.264H177.795C177.658 185.264 177.542 185.223 177.447 185.139C177.351 185.056 177.303 184.949 177.303 184.817C177.303 184.686 177.351 184.579 177.447 184.495C177.542 184.412 177.658 184.37 177.795 184.37H178.108C178.341 184.37 178.517 184.326 178.636 184.236C178.761 184.141 178.824 184.022 178.824 183.879C178.824 183.741 178.758 183.634 178.627 183.557C178.496 183.473 178.323 183.431 178.108 183.431C177.941 183.431 177.795 183.452 177.67 183.494C177.545 183.536 177.408 183.61 177.259 183.718C177.157 183.795 177.068 183.849 176.991 183.879C176.919 183.908 176.844 183.923 176.767 183.923C176.636 183.923 176.529 183.887 176.445 183.816C176.362 183.738 176.32 183.64 176.32 183.521C176.32 183.42 176.353 183.318 176.418 183.217C176.49 183.11 176.588 183.014 176.713 182.931C176.886 182.811 177.092 182.716 177.33 182.645C177.575 182.573 177.834 182.537 178.108 182.537C178.43 182.537 178.728 182.594 179.002 182.707C179.277 182.82 179.494 182.975 179.655 183.172C179.816 183.363 179.897 183.569 179.897 183.789C179.897 184.01 179.822 184.203 179.673 184.37C179.524 184.531 179.33 184.636 179.092 184.683V184.773C179.354 184.838 179.569 184.972 179.736 185.175C179.903 185.372 179.986 185.595 179.986 185.846C179.986 186.096 179.9 186.329 179.727 186.543C179.56 186.752 179.327 186.919 179.029 187.044C178.737 187.169 178.415 187.232 178.064 187.232ZM182.539 182.537C182.914 182.537 183.251 182.618 183.549 182.779C183.853 182.934 184.088 183.145 184.255 183.414C184.422 183.682 184.506 183.971 184.506 184.281V186.65C184.506 186.788 184.455 186.904 184.354 186.999C184.252 187.095 184.124 187.142 183.969 187.142C183.826 187.142 183.707 187.101 183.612 187.017C183.516 186.928 183.46 186.82 183.442 186.695H183.343C183.206 186.856 183.024 186.987 182.798 187.089C182.577 187.184 182.342 187.232 182.091 187.232C181.799 187.232 181.537 187.172 181.305 187.053C181.078 186.928 180.899 186.764 180.768 186.561C180.637 186.352 180.571 186.129 180.571 185.89C180.571 185.616 180.643 185.369 180.786 185.148C180.935 184.922 181.147 184.743 181.421 184.612C181.701 184.481 182.029 184.415 182.404 184.415H183.433V184.281C183.433 184.031 183.349 183.828 183.182 183.673C183.021 183.512 182.807 183.431 182.539 183.431C182.396 183.431 182.273 183.455 182.172 183.503C182.071 183.545 181.957 183.628 181.832 183.753C181.731 183.855 181.641 183.923 181.564 183.959C181.486 183.995 181.394 184.013 181.287 184.013C181.156 184.013 181.048 183.977 180.965 183.905C180.881 183.828 180.84 183.729 180.84 183.61C180.84 183.485 180.887 183.36 180.983 183.235C181.078 183.11 181.206 182.993 181.367 182.886C181.528 182.773 181.71 182.686 181.913 182.627C182.115 182.567 182.324 182.537 182.539 182.537ZM182.315 186.382C182.512 186.382 182.711 186.332 182.914 186.23C183.123 186.129 183.296 186.001 183.433 185.846V185.22H182.404C182.166 185.22 181.978 185.279 181.841 185.399C181.71 185.512 181.644 185.661 181.644 185.846C181.644 186.007 181.701 186.138 181.814 186.239C181.934 186.335 182.1 186.382 182.315 186.382ZM189.433 186.257C189.54 186.382 189.594 186.519 189.594 186.668C189.594 186.805 189.546 186.919 189.451 187.008C189.355 187.098 189.227 187.142 189.066 187.142C188.989 187.142 188.908 187.121 188.825 187.08C188.741 187.038 188.673 186.984 188.619 186.919L187.278 185.309H186.697V186.65C186.697 186.788 186.646 186.904 186.545 186.999C186.443 187.095 186.315 187.142 186.16 187.142C186.005 187.142 185.877 187.095 185.776 186.999C185.674 186.904 185.624 186.788 185.624 186.65V183.118C185.624 182.981 185.674 182.865 185.776 182.77C185.877 182.674 186.005 182.627 186.16 182.627C186.315 182.627 186.443 182.674 186.545 182.77C186.646 182.865 186.697 182.981 186.697 183.118V184.415H187.278L188.548 182.823C188.661 182.692 188.804 182.627 188.977 182.627C189.138 182.627 189.266 182.674 189.361 182.77C189.463 182.865 189.513 182.981 189.513 183.118C189.513 183.244 189.472 183.357 189.388 183.458L188.217 184.817L189.433 186.257ZM192.022 182.537C192.397 182.537 192.734 182.618 193.032 182.779C193.336 182.934 193.572 183.145 193.739 183.414C193.905 183.682 193.989 183.971 193.989 184.281V186.65C193.989 186.788 193.938 186.904 193.837 186.999C193.736 187.095 193.607 187.142 193.452 187.142C193.309 187.142 193.19 187.101 193.095 187.017C192.999 186.928 192.943 186.82 192.925 186.695H192.826C192.689 186.856 192.508 186.987 192.281 187.089C192.06 187.184 191.825 187.232 191.575 187.232C191.283 187.232 191.02 187.172 190.788 187.053C190.561 186.928 190.382 186.764 190.251 186.561C190.12 186.352 190.055 186.129 190.055 185.89C190.055 185.616 190.126 185.369 190.269 185.148C190.418 184.922 190.63 184.743 190.904 184.612C191.184 184.481 191.512 184.415 191.888 184.415H192.916V184.281C192.916 184.031 192.832 183.828 192.665 183.673C192.505 183.512 192.29 183.431 192.022 183.431C191.879 183.431 191.756 183.455 191.655 183.503C191.554 183.545 191.44 183.628 191.315 183.753C191.214 183.855 191.125 183.923 191.047 183.959C190.97 183.995 190.877 184.013 190.77 184.013C190.639 184.013 190.531 183.977 190.448 183.905C190.364 183.828 190.323 183.729 190.323 183.61C190.323 183.485 190.37 183.36 190.466 183.235C190.561 183.11 190.689 182.993 190.85 182.886C191.011 182.773 191.193 182.686 191.396 182.627C191.598 182.567 191.807 182.537 192.022 182.537ZM191.798 186.382C191.995 186.382 192.195 186.332 192.397 186.23C192.606 186.129 192.779 186.001 192.916 185.846V185.22H191.888C191.649 185.22 191.461 185.279 191.324 185.399C191.193 185.512 191.128 185.661 191.128 185.846C191.128 186.007 191.184 186.138 191.297 186.239C191.417 186.335 191.584 186.382 191.798 186.382ZM196.672 187.232C196.386 187.232 196.108 187.187 195.84 187.098C195.578 187.008 195.357 186.889 195.178 186.74C194.922 186.525 194.794 186.317 194.794 186.114C194.794 185.995 194.836 185.899 194.919 185.828C195.003 185.75 195.11 185.712 195.241 185.712C195.342 185.712 195.432 185.732 195.509 185.774C195.593 185.81 195.685 185.878 195.787 185.98C195.924 186.117 196.058 186.212 196.189 186.266C196.32 186.314 196.481 186.337 196.672 186.337C196.922 186.337 197.125 186.29 197.28 186.194C197.441 186.093 197.521 185.962 197.521 185.801C197.521 185.652 197.447 185.527 197.298 185.425C197.155 185.318 196.946 185.264 196.672 185.264H196.403C196.266 185.264 196.15 185.223 196.055 185.139C195.959 185.056 195.912 184.949 195.912 184.817C195.912 184.686 195.959 184.579 196.055 184.495C196.15 184.412 196.266 184.37 196.403 184.37H196.716C196.949 184.37 197.125 184.326 197.244 184.236C197.369 184.141 197.432 184.022 197.432 183.879C197.432 183.741 197.366 183.634 197.235 183.557C197.104 183.473 196.931 183.431 196.716 183.431C196.55 183.431 196.403 183.452 196.278 183.494C196.153 183.536 196.016 183.61 195.867 183.718C195.766 183.795 195.676 183.849 195.599 183.879C195.527 183.908 195.453 183.923 195.375 183.923C195.244 183.923 195.137 183.887 195.053 183.816C194.97 183.738 194.928 183.64 194.928 183.521C194.928 183.42 194.961 183.318 195.026 183.217C195.098 183.11 195.196 183.014 195.322 182.931C195.494 182.811 195.7 182.716 195.939 182.645C196.183 182.573 196.442 182.537 196.716 182.537C197.038 182.537 197.336 182.594 197.611 182.707C197.885 182.82 198.102 182.975 198.263 183.172C198.424 183.363 198.505 183.569 198.505 183.789C198.505 184.01 198.43 184.203 198.281 184.37C198.132 184.531 197.938 184.636 197.7 184.683V184.773C197.962 184.838 198.177 184.972 198.344 185.175C198.511 185.372 198.594 185.595 198.594 185.846C198.594 186.096 198.508 186.329 198.335 186.543C198.168 186.752 197.935 186.919 197.637 187.044C197.345 187.169 197.023 187.232 196.672 187.232Z"
        fill="white" />
    <path
        d="M177.12 104.696C176.942 104.729 176.76 104.742 176.58 104.734L175.058 104.772L169.354 104.833L150.217 104.894H150.05V104.726C149.906 103.715 149.753 102.642 149.601 101.555C148.301 92.2526 147.175 83.9469 146.468 78.5695L146.589 78.6836L141.493 78.6228H140.14C139.983 78.6391 139.825 78.6391 139.668 78.6228C139.825 78.6095 139.983 78.6095 140.14 78.6228L141.493 78.5847L146.589 78.5315H146.696V78.6456C147.456 84.0078 148.681 92.3363 149.982 101.608C150.134 102.696 150.278 103.768 150.423 104.78L150.225 104.605L169.362 104.673L175.066 104.734H176.587C176.764 104.711 176.942 104.698 177.12 104.696Z"
        fill="white" />
    <path
        d="M149.428 99.1209H149.96H151.481L157.239 99.0676L177.106 98.9916L176.916 99.1513C177.501 95.8123 178.14 92.1919 178.802 88.4497C179.137 86.5254 179.471 84.6468 179.791 82.8366L179.989 83.0647L156.577 82.9963L149.648 82.943L147.777 82.905H149.648L156.577 82.8442L179.989 82.7833H180.217L180.179 83.0115C179.859 84.8141 179.525 86.7004 179.19 88.6247C178.528 92.3668 177.882 95.9796 177.288 99.3262V99.4784H177.129L157.262 99.4099L151.504 99.3567H149.983C149.79 99.2976 149.604 99.2186 149.428 99.1209Z"
        fill="white" />
    <path
        d="M156.957 112.005C156.919 112.005 156.919 111.762 156.797 111.366C156.627 110.808 156.28 110.319 155.808 109.974C155.433 109.695 154.987 109.526 154.521 109.486C154.055 109.445 153.586 109.535 153.168 109.745C152.75 109.956 152.399 110.278 152.153 110.676C151.907 111.075 151.777 111.533 151.777 112.001C151.777 112.469 151.907 112.928 152.153 113.327C152.399 113.725 152.75 114.047 153.168 114.257C153.586 114.468 154.055 114.558 154.521 114.517C154.987 114.477 155.433 114.308 155.808 114.028C156.279 113.686 156.626 113.2 156.797 112.644C156.919 112.241 156.919 112.005 156.957 112.005C157.014 112.227 157.014 112.46 156.957 112.682C156.829 113.306 156.484 113.863 155.983 114.257C155.609 114.553 155.166 114.75 154.695 114.828C154.224 114.907 153.741 114.864 153.291 114.705C152.734 114.506 152.253 114.14 151.912 113.657C151.571 113.173 151.389 112.597 151.389 112.005C151.389 111.414 151.571 110.837 151.912 110.354C152.253 109.87 152.734 109.504 153.291 109.305C153.741 109.146 154.224 109.104 154.695 109.182C155.166 109.261 155.609 109.457 155.983 109.754C156.485 110.149 156.83 110.71 156.957 111.336C157.012 111.556 157.012 111.786 156.957 112.005Z"
        fill="white" />
    <path
        d="M174.25 112.005C174.212 112.005 174.212 111.762 174.09 111.366C173.922 110.806 173.575 110.317 173.101 109.974C172.726 109.695 172.28 109.526 171.814 109.486C171.347 109.445 170.879 109.535 170.461 109.745C170.043 109.956 169.692 110.278 169.446 110.676C169.2 111.075 169.07 111.533 169.07 112.001C169.07 112.469 169.2 112.928 169.446 113.327C169.692 113.725 170.043 114.047 170.461 114.257C170.879 114.468 171.347 114.558 171.814 114.517C172.28 114.477 172.726 114.308 173.101 114.028C173.574 113.688 173.922 113.202 174.09 112.644C174.212 112.241 174.212 112.005 174.25 112.005C174.307 112.227 174.307 112.46 174.25 112.682C174.122 113.306 173.777 113.863 173.276 114.257C172.902 114.553 172.459 114.75 171.988 114.828C171.517 114.907 171.034 114.864 170.584 114.705C170.027 114.506 169.545 114.14 169.205 113.657C168.864 113.173 168.682 112.597 168.682 112.005C168.682 111.414 168.864 110.837 169.205 110.354C169.545 109.87 170.027 109.504 170.584 109.305C171.034 109.146 171.517 109.104 171.988 109.182C172.459 109.261 172.902 109.457 173.276 109.754C173.777 110.147 174.122 110.705 174.25 111.328C174.306 111.551 174.306 111.783 174.25 112.005Z"
        fill="white" />
    <path
        d="M178.528 87.7651C182.77 87.7651 186.21 84.3258 186.21 80.0831C186.21 75.8405 182.77 72.4011 178.528 72.4011C174.285 72.4011 170.846 75.8405 170.846 80.0831C170.846 84.3258 174.285 87.7651 178.528 87.7651Z"
        fill="white" />
    <path
        d="M182.375 78.0675C181.281 79.504 180.086 80.8613 178.8 82.1291L177.697 83.2776L177.576 83.4145L177.439 83.2928C176.445 82.4932 175.524 81.6074 174.686 80.6459C175.748 81.353 176.753 82.144 177.69 83.0114H177.424C177.774 82.6463 178.139 82.2508 178.511 81.8477C179.704 80.4934 180.995 79.2299 182.375 78.0675Z"
        fill="#2B2A29" />
</svg>
    