<svg width="300" height="250" viewBox="0 0 300 250" fill="none" xmlns="http://www.w3.org/2000/svg">
    <path
        d="M299.69 132.206C299.158 114.026 287.961 95.8394 270.825 89.7363C259.491 85.6993 247.074 87.0427 235.038 87.1109C223.002 87.1791 209.923 85.4539 201.413 76.9504C187.025 62.6303 192.807 37.1064 181.522 20.2018C173.175 7.70924 157.3 2.64946 142.38 0.890134C101.704 -3.88324 58.73 10.7028 30.9012 40.7614C3.07246 70.8201 -10.2316 152.949 10.1166 188.497C41.7368 243.732 124.303 258.127 173.775 245.996C198.46 241.004 221.182 235.201 237.438 228.075C257.248 217.11 268.349 206.575 281.353 193.85C294.357 181.126 300.215 150.392 299.69 132.206Z"
        fill="#DCEEEC" />
    <path d="M275.357 25.5959H10.5508V200.458H275.357V25.5959Z" fill="white" />
    <path
        d="M275.358 200.458C275.358 199.306 275.303 132.267 275.215 25.5958L275.358 25.739H10.5719L10.7492 25.5617C10.7492 87.786 10.7492 146.983 10.7492 200.424L10.5855 200.26L275.392 200.424L10.5855 200.588H10.4219V200.424C10.4219 146.983 10.4219 87.786 10.4219 25.5617V25.3844H10.6196H275.405H275.549V25.5276C275.412 132.24 275.358 199.306 275.358 200.458Z"
        fill="#2B2A29" />
    <path
        d="M32.9784 44.0985C32.5512 44.0985 32.1711 44.0091 31.8383 43.8302C31.5055 43.6464 31.2447 43.3956 31.0559 43.0777C30.8721 42.7597 30.7802 42.4045 30.7802 42.0121V40.6709C30.7802 40.2784 30.8721 39.9232 31.0559 39.6053C31.2447 39.2874 31.5055 39.039 31.8383 38.8602C32.1711 38.6764 32.5512 38.5845 32.9784 38.5845C33.4056 38.5845 33.7856 38.6764 34.1184 38.8602C34.4513 39.039 34.7096 39.2874 34.8934 39.6053C35.0821 39.9232 35.1765 40.2784 35.1765 40.6709V42.0121C35.1765 42.4045 35.0821 42.7597 34.8934 43.0777C34.7096 43.3956 34.4513 43.6464 34.1184 43.8302C33.7856 44.0091 33.4056 44.0985 32.9784 44.0985ZM32.9784 43.2043C33.3509 43.2043 33.649 43.095 33.8725 42.8765C34.0961 42.6579 34.2078 42.3698 34.2078 42.0121V40.6709C34.2078 40.3132 34.0961 40.0251 33.8725 39.8065C33.649 39.5879 33.3509 39.4786 32.9784 39.4786C32.6058 39.4786 32.3077 39.5879 32.0842 39.8065C31.8607 40.0251 31.7489 40.3132 31.7489 40.6709V42.0121C31.7489 42.3698 31.8607 42.6579 32.0842 42.8765C32.3077 43.095 32.6058 43.2043 32.9784 43.2043ZM39.7588 40.1493C40.0072 40.1493 40.2332 40.2114 40.4369 40.3355C40.6406 40.4597 40.802 40.6336 40.9213 40.8571C41.0405 41.0757 41.1001 41.3241 41.1001 41.6023V42.571C41.1001 42.8491 41.0405 43.1 40.9213 43.3235C40.802 43.5421 40.6406 43.7135 40.4369 43.8377C40.2332 43.9619 40.0072 44.024 39.7588 44.024C39.6247 44.024 39.4906 44.0066 39.3565 43.9718C39.2273 43.937 39.1255 43.8923 39.051 43.8377H38.9764V45.1789C38.9764 45.2932 38.9342 45.3901 38.8498 45.4695C38.7653 45.549 38.6585 45.5888 38.5294 45.5888C38.4002 45.5888 38.2934 45.549 38.2089 45.4695C38.1245 45.3901 38.0823 45.2932 38.0823 45.1789V43.8377H38.0078C37.9332 43.8923 37.8289 43.937 37.6948 43.9718C37.5656 44.0066 37.434 44.024 37.2999 44.024C37.0515 44.024 36.8255 43.9619 36.6218 43.8377C36.4181 43.7135 36.2567 43.5421 36.1375 43.3235C36.0182 43.1 35.9586 42.8491 35.9586 42.571V41.6023C35.9586 41.3241 36.0182 41.0757 36.1375 40.8571C36.2567 40.6336 36.4181 40.4597 36.6218 40.3355C36.8255 40.2114 37.0515 40.1493 37.2999 40.1493C37.434 40.1493 37.5656 40.1666 37.6948 40.2014C37.8289 40.2362 37.9332 40.2809 38.0078 40.3355H38.0823V39.1061C38.0823 38.9918 38.1245 38.8949 38.2089 38.8155C38.2934 38.736 38.4002 38.6962 38.5294 38.6962C38.6585 38.6962 38.7653 38.736 38.8498 38.8155C38.9342 38.8949 38.9764 38.9918 38.9764 39.1061V40.3355H39.051C39.1255 40.2809 39.2273 40.2362 39.3565 40.2014C39.4906 40.1666 39.6247 40.1493 39.7588 40.1493ZM37.5234 43.2788C37.742 43.2788 37.9283 43.2167 38.0823 43.0926V41.0807C37.9283 40.9565 37.742 40.8944 37.5234 40.8944C37.3148 40.8944 37.1509 40.9565 37.0316 41.0807C36.9124 41.2049 36.8528 41.3787 36.8528 41.6023V42.571C36.8528 42.7945 36.9124 42.9684 37.0316 43.0926C37.1509 43.2167 37.3148 43.2788 37.5234 43.2788ZM40.2059 41.6023C40.2059 41.3787 40.1463 41.2049 40.0271 41.0807C39.9079 40.9565 39.7439 40.8944 39.5353 40.8944C39.3167 40.8944 39.1304 40.9565 38.9764 41.0807V43.0926C39.1304 43.2167 39.3167 43.2788 39.5353 43.2788C39.7439 43.2788 39.9079 43.2167 40.0271 43.0926C40.1463 42.9684 40.2059 42.7945 40.2059 42.571V41.6023ZM43.5593 44.0612C43.2315 44.0612 42.9359 43.9917 42.6726 43.8526C42.4143 43.7135 42.2106 43.5272 42.0616 43.2937C41.9175 43.0603 41.8455 42.8069 41.8455 42.5337V41.6768C41.8455 41.4036 41.9175 41.1502 42.0616 40.9168C42.2106 40.6833 42.4143 40.497 42.6726 40.3579C42.9359 40.2188 43.2315 40.1493 43.5593 40.1493C43.8872 40.1493 44.1803 40.2188 44.4386 40.3579C44.7019 40.497 44.9055 40.6833 45.0496 40.9168C45.1986 41.1502 45.2732 41.4036 45.2732 41.6768V42.5337C45.2732 42.8069 45.1986 43.0603 45.0496 43.2937C44.9055 43.5272 44.7019 43.7135 44.4386 43.8526C44.1803 43.9917 43.8872 44.0612 43.5593 44.0612ZM43.5593 43.3161C43.7978 43.3161 43.994 43.2416 44.148 43.0926C44.302 42.9435 44.379 42.7572 44.379 42.5337V41.6768C44.379 41.4533 44.302 41.267 44.148 41.1179C43.994 40.9689 43.7978 40.8944 43.5593 40.8944C43.3209 40.8944 43.1247 40.9689 42.9707 41.1179C42.8167 41.267 42.7397 41.4533 42.7397 41.6768V42.5337C42.7397 42.7572 42.8167 42.9435 42.9707 43.0926C43.1247 43.2416 43.3209 43.3161 43.5593 43.3161ZM48.027 40.1493C48.2704 40.1493 48.5038 40.2213 48.7274 40.3653C48.9559 40.5044 49.1372 40.6907 49.2713 40.9242C49.4104 41.1577 49.48 41.4085 49.48 41.6768V42.5337C49.48 42.802 49.4104 43.0528 49.2713 43.2863C49.1372 43.5198 48.9559 43.7085 48.7274 43.8526C48.5038 43.9917 48.2704 44.0612 48.027 44.0612C47.8034 44.0612 47.6072 44.0165 47.4383 43.9271C47.2744 43.8327 47.1601 43.7284 47.0955 43.6142H47.021V45.1789C47.021 45.2932 46.9788 45.3901 46.8943 45.4695C46.8099 45.549 46.7031 45.5888 46.5739 45.5888C46.4448 45.5888 46.338 45.549 46.2535 45.4695C46.1691 45.3901 46.1269 45.2932 46.1269 45.1789V40.6336C46.1269 40.5193 46.1691 40.4225 46.2535 40.343C46.338 40.2635 46.4448 40.2238 46.5739 40.2238C46.6932 40.2238 46.79 40.2585 46.8645 40.3281C46.944 40.3976 46.9962 40.4871 47.021 40.5963H47.0955C47.175 40.4722 47.2942 40.3678 47.4532 40.2834C47.6122 40.194 47.8034 40.1493 48.027 40.1493ZM48.5858 41.6768C48.5858 41.4533 48.5113 41.267 48.3623 41.1179C48.2132 40.9689 48.027 40.8944 47.8034 40.8944C47.5799 40.8944 47.3936 40.9689 47.2446 41.1179C47.0955 41.267 47.021 41.4533 47.021 41.6768V42.5337C47.021 42.7572 47.0955 42.9435 47.2446 43.0926C47.3936 43.2416 47.5799 43.3161 47.8034 43.3161C48.027 43.3161 48.2132 43.2416 48.3623 43.0926C48.5113 42.9435 48.5858 42.7572 48.5858 42.5337V41.6768ZM50.7872 43.9867C50.658 43.9867 50.5512 43.947 50.4668 43.8675C50.3823 43.788 50.3401 43.6911 50.3401 43.5769V40.7081C50.3401 40.574 50.3898 40.4597 50.4891 40.3653C50.5934 40.271 50.7176 40.2238 50.8617 40.2238C50.9859 40.2238 51.0952 40.2561 51.1895 40.3206C51.2889 40.3852 51.3783 40.4895 51.4578 40.6336L52.4265 42.3474H52.501L53.4697 40.6336C53.5492 40.4895 53.6361 40.3852 53.7305 40.3206C53.8298 40.2561 53.9416 40.2238 54.0658 40.2238C54.2098 40.2238 54.3315 40.271 54.4309 40.3653C54.5352 40.4597 54.5874 40.574 54.5874 40.7081V43.5769C54.5874 43.6911 54.5452 43.788 54.4607 43.8675C54.3763 43.947 54.2695 43.9867 54.1403 43.9867C54.0111 43.9867 53.9043 43.947 53.8199 43.8675C53.7354 43.788 53.6932 43.6911 53.6932 43.5769V41.8631H53.6187L52.9108 43.1298C52.8015 43.3285 52.6525 43.4279 52.4637 43.4279C52.3743 43.4279 52.2899 43.403 52.2104 43.3534C52.1309 43.2987 52.0663 43.2242 52.0166 43.1298L51.3088 41.8631H51.2343V43.5769C51.2343 43.6911 51.192 43.788 51.1076 43.8675C51.0231 43.947 50.9163 43.9867 50.7872 43.9867ZM56.0046 43.9867C55.8754 43.9867 55.7686 43.947 55.6842 43.8675C55.5997 43.788 55.5575 43.6911 55.5575 43.5769V40.6336C55.5575 40.5193 55.5997 40.4225 55.6842 40.343C55.7686 40.2635 55.8754 40.2238 56.0046 40.2238C56.1338 40.2238 56.2406 40.2635 56.325 40.343C56.4095 40.4225 56.4517 40.5193 56.4517 40.6336V42.4592H56.5262L57.8302 40.5963C57.9246 40.4572 58.014 40.3604 58.0984 40.3057C58.1829 40.2511 58.2797 40.2238 58.389 40.2238C58.5182 40.2238 58.625 40.2635 58.7094 40.343C58.7939 40.4225 58.8361 40.5193 58.8361 40.6336V43.5769C58.8361 43.6911 58.7939 43.788 58.7094 43.8675C58.625 43.947 58.5182 43.9867 58.389 43.9867C58.2599 43.9867 58.1531 43.947 58.0686 43.8675C57.9842 43.788 57.942 43.6911 57.942 43.5769V41.7513H57.8674L56.5634 43.6142C56.4691 43.7532 56.3796 43.8501 56.2952 43.9048C56.2107 43.9594 56.1139 43.9867 56.0046 43.9867ZM62.3406 40.261C62.4549 40.261 62.5517 40.2958 62.6312 40.3653C62.7107 40.4349 62.7504 40.5243 62.7504 40.6336C62.7504 40.7429 62.7107 40.8323 62.6312 40.9018C62.5517 40.9714 62.4549 41.0062 62.3406 41.0062H61.4837V43.5769C61.4837 43.6911 61.4415 43.788 61.357 43.8675C61.2726 43.947 61.1658 43.9867 61.0366 43.9867C60.9074 43.9867 60.8006 43.947 60.7162 43.8675C60.6317 43.788 60.5895 43.6911 60.5895 43.5769V41.0062H59.7326C59.6184 41.0062 59.5215 40.9714 59.442 40.9018C59.3625 40.8323 59.3228 40.7429 59.3228 40.6336C59.3228 40.5243 59.3625 40.4349 59.442 40.3653C59.5215 40.2958 59.6184 40.261 59.7326 40.261H62.3406ZM64.7247 41.416C65.0625 41.416 65.3507 41.4731 65.5891 41.5874C65.8325 41.6967 66.0163 41.8482 66.1405 42.0419C66.2647 42.2307 66.3268 42.4443 66.3268 42.6827C66.3268 42.9212 66.2647 43.1373 66.1405 43.331C66.0163 43.5198 65.8325 43.6713 65.5891 43.7855C65.3507 43.8948 65.0625 43.9495 64.7247 43.9495H63.6816C63.5524 43.9495 63.4456 43.9097 63.3611 43.8302C63.2767 43.7508 63.2345 43.6539 63.2345 43.5396V40.6336C63.2345 40.5193 63.2767 40.4225 63.3611 40.343C63.4456 40.2635 63.5524 40.2238 63.6816 40.2238C63.8107 40.2238 63.9175 40.2635 64.002 40.343C64.0864 40.4225 64.1286 40.5193 64.1286 40.6336V41.416H64.7247ZM64.7247 43.2043C64.9582 43.2043 65.1346 43.1571 65.2538 43.0627C65.373 42.9634 65.4326 42.8367 65.4326 42.6827C65.4326 42.5238 65.373 42.3971 65.2538 42.3027C65.1346 42.2083 64.9582 42.1611 64.7247 42.1611H64.1286V43.2043H64.7247ZM70.0906 44.0612C69.8522 44.0612 69.6212 44.024 69.3976 43.9495C69.1791 43.8749 68.9953 43.7756 68.8462 43.6514C68.6326 43.4726 68.5258 43.2987 68.5258 43.1298C68.5258 43.0305 68.5606 42.951 68.6301 42.8914C68.6997 42.8268 68.7891 42.7945 68.8984 42.7945C68.9828 42.7945 69.0574 42.8119 69.1219 42.8467C69.1915 42.8765 69.2685 42.9336 69.3529 43.018C69.4672 43.1323 69.579 43.2118 69.6882 43.2565C69.7975 43.2962 69.9317 43.3161 70.0906 43.3161C70.2993 43.3161 70.4682 43.2764 70.5973 43.1969C70.7314 43.1124 70.7985 43.0031 70.7985 42.869C70.7985 42.7448 70.7364 42.6405 70.6122 42.5561C70.493 42.4666 70.3191 42.4219 70.0906 42.4219H69.8671C69.7528 42.4219 69.656 42.3872 69.5765 42.3176C69.497 42.2481 69.4572 42.1586 69.4572 42.0494C69.4572 41.9401 69.497 41.8507 69.5765 41.7811C69.656 41.7116 69.7528 41.6768 69.8671 41.6768H70.1279C70.3216 41.6768 70.4682 41.6395 70.5675 41.565C70.6718 41.4855 70.724 41.3862 70.724 41.267C70.724 41.1527 70.6693 41.0633 70.5601 40.9987C70.4508 40.9292 70.3067 40.8944 70.1279 40.8944C69.9888 40.8944 69.8671 40.9118 69.7628 40.9466C69.6584 40.9813 69.5442 41.0434 69.42 41.1328C69.3355 41.1974 69.261 41.2421 69.1965 41.267C69.1368 41.2918 69.0747 41.3042 69.0102 41.3042C68.9009 41.3042 68.8115 41.2744 68.7419 41.2148C68.6724 41.1502 68.6376 41.0683 68.6376 40.9689C68.6376 40.8845 68.6649 40.8 68.7196 40.7156C68.7792 40.6261 68.8611 40.5467 68.9655 40.4771C69.1095 40.3778 69.2809 40.2983 69.4796 40.2387C69.6833 40.1791 69.8994 40.1493 70.1279 40.1493C70.3961 40.1493 70.6445 40.1965 70.873 40.2908C71.1015 40.3852 71.2828 40.5144 71.417 40.6783C71.5511 40.8373 71.6181 41.0087 71.6181 41.1925C71.6181 41.3763 71.5561 41.5377 71.4319 41.6768C71.3077 41.8109 71.1462 41.8978 70.9475 41.9376V42.0121C71.1661 42.0667 71.3449 42.1785 71.484 42.3474C71.6231 42.5113 71.6927 42.6976 71.6927 42.9063C71.6927 43.1149 71.6206 43.3086 71.4766 43.4875C71.3375 43.6613 71.1437 43.8004 70.8954 43.9048C70.652 44.0091 70.3837 44.0612 70.0906 44.0612ZM73.8198 40.1493C74.1328 40.1493 74.4134 40.2163 74.6618 40.3504C74.9152 40.4796 75.1114 40.656 75.2505 40.8795C75.3896 41.103 75.4591 41.344 75.4591 41.6023V43.5769C75.4591 43.6911 75.4169 43.788 75.3324 43.8675C75.248 43.947 75.1412 43.9867 75.012 43.9867C74.8928 43.9867 74.7934 43.9519 74.714 43.8824C74.6345 43.8079 74.5873 43.7185 74.5724 43.6142H74.4904C74.3762 43.7483 74.2247 43.8576 74.0359 43.942C73.8521 44.0215 73.6559 44.0612 73.4472 44.0612C73.2038 44.0612 72.9852 44.0116 72.7915 43.9122C72.6027 43.8079 72.4537 43.6713 72.3444 43.5024C72.2351 43.3285 72.1805 43.1422 72.1805 42.9435C72.1805 42.715 72.2401 42.5089 72.3593 42.3251C72.4835 42.1363 72.6599 41.9873 72.8884 41.878C73.1219 41.7687 73.3951 41.714 73.708 41.714H74.5649V41.6023C74.5649 41.3936 74.4954 41.2247 74.3563 41.0956C74.2222 40.9615 74.0433 40.8944 73.8198 40.8944C73.7006 40.8944 73.5987 40.9143 73.5143 40.954C73.4298 40.9888 73.3355 41.0583 73.2311 41.1626C73.1467 41.2471 73.0722 41.3042 73.0076 41.334C72.943 41.3638 72.866 41.3787 72.7766 41.3787C72.6673 41.3787 72.5779 41.3489 72.5084 41.2893C72.4388 41.2247 72.404 41.1428 72.404 41.0434C72.404 40.9391 72.4438 40.8348 72.5233 40.7305C72.6027 40.6261 72.7095 40.5293 72.8437 40.4399C72.9778 40.3455 73.1293 40.2734 73.2982 40.2238C73.4671 40.1741 73.641 40.1493 73.8198 40.1493ZM73.6335 43.3534C73.7974 43.3534 73.9639 43.3111 74.1328 43.2267C74.3066 43.1422 74.4507 43.0354 74.5649 42.9063V42.3847H73.708C73.5093 42.3847 73.3528 42.4343 73.2386 42.5337C73.1293 42.6281 73.0747 42.7523 73.0747 42.9063C73.0747 43.0404 73.1219 43.1497 73.2162 43.2341C73.3156 43.3136 73.4547 43.3534 73.6335 43.3534ZM79.5651 43.249C79.6545 43.3534 79.6992 43.4676 79.6992 43.5918C79.6992 43.7061 79.6595 43.8004 79.58 43.8749C79.5005 43.9495 79.3937 43.9867 79.2596 43.9867C79.195 43.9867 79.128 43.9693 79.0584 43.9346C78.9889 43.8998 78.9317 43.8551 78.887 43.8004L77.7693 42.4592H77.285V43.5769C77.285 43.6911 77.2428 43.788 77.1583 43.8675C77.0739 43.947 76.9671 43.9867 76.8379 43.9867C76.7087 43.9867 76.6019 43.947 76.5175 43.8675C76.433 43.788 76.3908 43.6911 76.3908 43.5769V40.6336C76.3908 40.5193 76.433 40.4225 76.5175 40.343C76.6019 40.2635 76.7087 40.2238 76.8379 40.2238C76.9671 40.2238 77.0739 40.2635 77.1583 40.343C77.2428 40.4225 77.285 40.5193 77.285 40.6336V41.714H77.7693L78.8274 40.3877C78.9218 40.2784 79.041 40.2238 79.1851 40.2238C79.3192 40.2238 79.426 40.2635 79.5055 40.343C79.5899 40.4225 79.6322 40.5193 79.6322 40.6336C79.6322 40.7379 79.5974 40.8323 79.5279 40.9168L78.5517 42.0494L79.5651 43.249ZM81.7223 40.1493C82.0353 40.1493 82.316 40.2163 82.5643 40.3504C82.8177 40.4796 83.0139 40.656 83.153 40.8795C83.2921 41.103 83.3616 41.344 83.3616 41.6023V43.5769C83.3616 43.6911 83.3194 43.788 83.235 43.8675C83.1505 43.947 83.0437 43.9867 82.9146 43.9867C82.7953 43.9867 82.696 43.9519 82.6165 43.8824C82.537 43.8079 82.4898 43.7185 82.4749 43.6142H82.393C82.2787 43.7483 82.1272 43.8576 81.9384 43.942C81.7546 44.0215 81.5584 44.0612 81.3498 44.0612C81.1064 44.0612 80.8878 44.0116 80.694 43.9122C80.5053 43.8079 80.3563 43.6713 80.247 43.5024C80.1377 43.3285 80.083 43.1422 80.083 42.9435C80.083 42.715 80.1426 42.5089 80.2619 42.3251C80.3861 42.1363 80.5624 41.9873 80.7909 41.878C81.0244 41.7687 81.2976 41.714 81.6106 41.714H82.4675V41.6023C82.4675 41.3936 82.3979 41.2247 82.2588 41.0956C82.1247 40.9615 81.9459 40.8944 81.7223 40.8944C81.6031 40.8944 81.5013 40.9143 81.4168 40.954C81.3324 40.9888 81.238 41.0583 81.1337 41.1626C81.0492 41.2471 80.9747 41.3042 80.9101 41.334C80.8456 41.3638 80.7686 41.3787 80.6791 41.3787C80.5699 41.3787 80.4804 41.3489 80.4109 41.2893C80.3414 41.2247 80.3066 41.1428 80.3066 41.0434C80.3066 40.9391 80.3463 40.8348 80.4258 40.7305C80.5053 40.6261 80.6121 40.5293 80.7462 40.4399C80.8803 40.3455 81.0318 40.2734 81.2007 40.2238C81.3696 40.1741 81.5435 40.1493 81.7223 40.1493ZM81.5361 43.3534C81.7 43.3534 81.8664 43.3111 82.0353 43.2267C82.2092 43.1422 82.3532 43.0354 82.4675 42.9063V42.3847H81.6106C81.4119 42.3847 81.2554 42.4343 81.1411 42.5337C81.0318 42.6281 80.9772 42.7523 80.9772 42.9063C80.9772 43.0404 81.0244 43.1497 81.1188 43.2341C81.2181 43.3136 81.3572 43.3534 81.5361 43.3534ZM85.5973 44.0612C85.3589 44.0612 85.1279 44.024 84.9044 43.9495C84.6858 43.8749 84.502 43.7756 84.353 43.6514C84.1394 43.4726 84.0326 43.2987 84.0326 43.1298C84.0326 43.0305 84.0673 42.951 84.1369 42.8914C84.2064 42.8268 84.2958 42.7945 84.4051 42.7945C84.4896 42.7945 84.5641 42.8119 84.6287 42.8467C84.6982 42.8765 84.7752 42.9336 84.8597 43.018C84.9739 43.1323 85.0857 43.2118 85.195 43.2565C85.3043 43.2962 85.4384 43.3161 85.5973 43.3161C85.806 43.3161 85.9749 43.2764 86.104 43.1969C86.2382 43.1124 86.3052 43.0031 86.3052 42.869C86.3052 42.7448 86.2431 42.6405 86.1189 42.5561C85.9997 42.4666 85.8259 42.4219 85.5973 42.4219H85.3738C85.2595 42.4219 85.1627 42.3872 85.0832 42.3176C85.0037 42.2481 84.964 42.1586 84.964 42.0494C84.964 41.9401 85.0037 41.8507 85.0832 41.7811C85.1627 41.7116 85.2595 41.6768 85.3738 41.6768H85.6346C85.8283 41.6768 85.9749 41.6395 86.0742 41.565C86.1786 41.4855 86.2307 41.3862 86.2307 41.267C86.2307 41.1527 86.1761 41.0633 86.0668 40.9987C85.9575 40.9292 85.8134 40.8944 85.6346 40.8944C85.4955 40.8944 85.3738 40.9118 85.2695 40.9466C85.1652 40.9813 85.0509 41.0434 84.9267 41.1328C84.8423 41.1974 84.7678 41.2421 84.7032 41.267C84.6436 41.2918 84.5815 41.3042 84.5169 41.3042C84.4076 41.3042 84.3182 41.2744 84.2486 41.2148C84.1791 41.1502 84.1443 41.0683 84.1443 40.9689C84.1443 40.8845 84.1716 40.8 84.2263 40.7156C84.2859 40.6261 84.3679 40.5467 84.4722 40.4771C84.6162 40.3778 84.7876 40.2983 84.9863 40.2387C85.19 40.1791 85.4061 40.1493 85.6346 40.1493C85.9029 40.1493 86.1512 40.1965 86.3797 40.2908C86.6082 40.3852 86.7896 40.5144 86.9237 40.6783C87.0578 40.8373 87.1249 41.0087 87.1249 41.1925C87.1249 41.3763 87.0628 41.5377 86.9386 41.6768C86.8144 41.8109 86.653 41.8978 86.4543 41.9376V42.0121C86.6728 42.0667 86.8517 42.1785 86.9908 42.3474C87.1298 42.5113 87.1994 42.6976 87.1994 42.9063C87.1994 43.1149 87.1274 43.3086 86.9833 43.4875C86.8442 43.6613 86.6505 43.8004 86.4021 43.9048C86.1587 44.0091 85.8904 44.0612 85.5973 44.0612Z"
        fill="#2B2A29" />
    <path
        d="M261.935 171.982H210.182C209.482 171.982 208.914 172.663 208.914 173.504V185.363C208.914 186.204 209.482 186.885 210.182 186.885H261.935C262.635 186.885 263.203 186.204 263.203 185.363V173.504C263.203 172.663 262.635 171.982 261.935 171.982Z"
        fill="#2CA89A" />
    <path
        d="M221.883 182.303C221.517 182.303 221.191 182.227 220.906 182.073C220.621 181.916 220.397 181.701 220.236 181.428C220.078 181.156 219.999 180.851 219.999 180.515V179.365C219.999 179.029 220.078 178.724 220.236 178.452C220.397 178.179 220.621 177.967 220.906 177.813C221.191 177.656 221.517 177.577 221.883 177.577C222.25 177.577 222.575 177.656 222.861 177.813C223.146 177.967 223.367 178.179 223.525 178.452C223.687 178.724 223.768 179.029 223.768 179.365V180.515C223.768 180.851 223.687 181.156 223.525 181.428C223.367 181.701 223.146 181.916 222.861 182.073C222.575 182.227 222.25 182.303 221.883 182.303ZM221.883 181.537C222.203 181.537 222.458 181.443 222.65 181.256C222.841 181.068 222.937 180.822 222.937 180.515V179.365C222.937 179.059 222.841 178.812 222.65 178.624C222.458 178.437 222.203 178.343 221.883 178.343C221.564 178.343 221.309 178.437 221.117 178.624C220.925 178.812 220.83 179.059 220.83 179.365V180.515C220.83 180.822 220.925 181.068 221.117 181.256C221.309 181.443 221.564 181.537 221.883 181.537ZM227.695 178.918C227.908 178.918 228.102 178.971 228.276 179.078C228.451 179.184 228.589 179.333 228.692 179.525C228.794 179.712 228.845 179.925 228.845 180.164V180.994C228.845 181.232 228.794 181.447 228.692 181.639C228.589 181.826 228.451 181.973 228.276 182.08C228.102 182.186 227.908 182.239 227.695 182.239C227.58 182.239 227.465 182.225 227.35 182.195C227.24 182.165 227.152 182.127 227.088 182.08H227.025V183.229C227.025 183.327 226.988 183.41 226.916 183.478C226.844 183.547 226.752 183.581 226.641 183.581C226.531 183.581 226.439 183.547 226.367 183.478C226.294 183.41 226.258 183.327 226.258 183.229V182.08H226.194C226.13 182.127 226.041 182.165 225.926 182.195C225.815 182.225 225.702 182.239 225.588 182.239C225.375 182.239 225.181 182.186 225.006 182.08C224.832 181.973 224.693 181.826 224.591 181.639C224.489 181.447 224.438 181.232 224.438 180.994V180.164C224.438 179.925 224.489 179.712 224.591 179.525C224.693 179.333 224.832 179.184 225.006 179.078C225.181 178.971 225.375 178.918 225.588 178.918C225.702 178.918 225.815 178.933 225.926 178.963C226.041 178.993 226.13 179.031 226.194 179.078H226.258V178.024C226.258 177.926 226.294 177.843 226.367 177.775C226.439 177.707 226.531 177.673 226.641 177.673C226.752 177.673 226.844 177.707 226.916 177.775C226.988 177.843 227.025 177.926 227.025 178.024V179.078H227.088C227.152 179.031 227.24 178.993 227.35 178.963C227.465 178.933 227.58 178.918 227.695 178.918ZM225.779 181.601C225.966 181.601 226.126 181.547 226.258 181.441V179.717C226.126 179.61 225.966 179.557 225.779 179.557C225.6 179.557 225.46 179.61 225.358 179.717C225.255 179.823 225.204 179.972 225.204 180.164V180.994C225.204 181.186 225.255 181.335 225.358 181.441C225.46 181.547 225.6 181.601 225.779 181.601ZM228.078 180.164C228.078 179.972 228.027 179.823 227.925 179.717C227.823 179.61 227.682 179.557 227.504 179.557C227.316 179.557 227.157 179.61 227.025 179.717V181.441C227.157 181.547 227.316 181.601 227.504 181.601C227.682 181.601 227.823 181.547 227.925 181.441C228.027 181.335 228.078 181.186 228.078 180.994V180.164ZM230.953 182.271C230.672 182.271 230.418 182.212 230.193 182.093C229.971 181.973 229.797 181.814 229.669 181.613C229.546 181.413 229.484 181.196 229.484 180.962V180.228C229.484 179.993 229.546 179.776 229.669 179.576C229.797 179.376 229.971 179.216 230.193 179.097C230.418 178.978 230.672 178.918 230.953 178.918C231.234 178.918 231.485 178.978 231.706 179.097C231.932 179.216 232.107 179.376 232.23 179.576C232.358 179.776 232.422 179.993 232.422 180.228V180.962C232.422 181.196 232.358 181.413 232.23 181.613C232.107 181.814 231.932 181.973 231.706 182.093C231.485 182.212 231.234 182.271 230.953 182.271ZM230.953 181.633C231.157 181.633 231.325 181.569 231.457 181.441C231.589 181.313 231.655 181.154 231.655 180.962V180.228C231.655 180.036 231.589 179.876 231.457 179.749C231.325 179.621 231.157 179.557 230.953 179.557C230.748 179.557 230.58 179.621 230.448 179.749C230.316 179.876 230.25 180.036 230.25 180.228V180.962C230.25 181.154 230.316 181.313 230.448 181.441C230.58 181.569 230.748 181.633 230.953 181.633ZM234.782 178.918C234.991 178.918 235.191 178.98 235.383 179.103C235.578 179.223 235.734 179.382 235.849 179.582C235.968 179.783 236.028 179.998 236.028 180.228V180.962C236.028 181.192 235.968 181.407 235.849 181.607C235.734 181.807 235.578 181.969 235.383 182.093C235.191 182.212 234.991 182.271 234.782 182.271C234.591 182.271 234.422 182.233 234.278 182.156C234.137 182.075 234.039 181.986 233.984 181.888H233.92V183.229C233.92 183.327 233.884 183.41 233.811 183.478C233.739 183.547 233.647 183.581 233.537 183.581C233.426 183.581 233.334 183.547 233.262 183.478C233.19 183.41 233.154 183.327 233.154 183.229V179.333C233.154 179.235 233.19 179.152 233.262 179.084C233.334 179.016 233.426 178.982 233.537 178.982C233.639 178.982 233.722 179.012 233.786 179.072C233.854 179.131 233.899 179.208 233.92 179.301H233.984C234.052 179.195 234.154 179.106 234.29 179.033C234.427 178.957 234.591 178.918 234.782 178.918ZM235.261 180.228C235.261 180.036 235.197 179.876 235.07 179.749C234.942 179.621 234.782 179.557 234.591 179.557C234.399 179.557 234.239 179.621 234.112 179.749C233.984 179.876 233.92 180.036 233.92 180.228V180.962C233.92 181.154 233.984 181.313 234.112 181.441C234.239 181.569 234.399 181.633 234.591 181.633C234.782 181.633 234.942 181.569 235.07 181.441C235.197 181.313 235.261 181.154 235.261 180.962V180.228ZM237.148 182.207C237.037 182.207 236.946 182.173 236.873 182.105C236.801 182.037 236.765 181.954 236.765 181.856V179.397C236.765 179.282 236.807 179.184 236.893 179.103C236.982 179.023 237.088 178.982 237.212 178.982C237.318 178.982 237.412 179.01 237.493 179.065C237.578 179.12 237.655 179.21 237.723 179.333L238.553 180.802H238.617L239.447 179.333C239.515 179.21 239.59 179.12 239.671 179.065C239.756 179.01 239.852 178.982 239.958 178.982C240.082 178.982 240.186 179.023 240.271 179.103C240.361 179.184 240.405 179.282 240.405 179.397V181.856C240.405 181.954 240.369 182.037 240.297 182.105C240.224 182.173 240.133 182.207 240.022 182.207C239.911 182.207 239.82 182.173 239.748 182.105C239.675 182.037 239.639 181.954 239.639 181.856V180.387H239.575L238.968 181.473C238.875 181.643 238.747 181.728 238.585 181.728C238.508 181.728 238.436 181.707 238.368 181.665C238.3 181.618 238.244 181.554 238.202 181.473L237.595 180.387H237.531V181.856C237.531 181.954 237.495 182.037 237.423 182.105C237.35 182.173 237.259 182.207 237.148 182.207ZM241.62 182.207C241.509 182.207 241.418 182.173 241.345 182.105C241.273 182.037 241.237 181.954 241.237 181.856V179.333C241.237 179.235 241.273 179.152 241.345 179.084C241.418 179.016 241.509 178.982 241.62 178.982C241.731 178.982 241.822 179.016 241.895 179.084C241.967 179.152 242.003 179.235 242.003 179.333V180.898H242.067L243.185 179.301C243.266 179.182 243.342 179.099 243.415 179.052C243.487 179.006 243.57 178.982 243.664 178.982C243.775 178.982 243.866 179.016 243.939 179.084C244.011 179.152 244.047 179.235 244.047 179.333V181.856C244.047 181.954 244.011 182.037 243.939 182.105C243.866 182.173 243.775 182.207 243.664 182.207C243.553 182.207 243.462 182.173 243.389 182.105C243.317 182.037 243.281 181.954 243.281 181.856V180.291H243.217L242.099 181.888C242.018 182.007 241.942 182.09 241.869 182.137C241.797 182.184 241.714 182.207 241.62 182.207ZM247.051 179.014C247.149 179.014 247.232 179.044 247.3 179.103C247.368 179.163 247.402 179.24 247.402 179.333C247.402 179.427 247.368 179.504 247.3 179.563C247.232 179.623 247.149 179.653 247.051 179.653H246.316V181.856C246.316 181.954 246.28 182.037 246.208 182.105C246.136 182.173 246.044 182.207 245.933 182.207C245.823 182.207 245.731 182.173 245.659 182.105C245.586 182.037 245.55 181.954 245.55 181.856V179.653H244.816C244.718 179.653 244.635 179.623 244.566 179.563C244.498 179.504 244.464 179.427 244.464 179.333C244.464 179.24 244.498 179.163 244.566 179.103C244.635 179.044 244.718 179.014 244.816 179.014H247.051ZM249.095 180.004C249.384 180.004 249.631 180.053 249.835 180.151C250.044 180.245 250.202 180.374 250.308 180.54C250.415 180.702 250.468 180.885 250.468 181.09C250.468 181.294 250.415 181.479 250.308 181.645C250.202 181.807 250.044 181.937 249.835 182.035C249.631 182.129 249.384 182.176 249.095 182.176H248.2C248.09 182.176 247.998 182.141 247.926 182.073C247.853 182.005 247.817 181.922 247.817 181.824V179.333C247.817 179.235 247.853 179.152 247.926 179.084C247.998 179.016 248.09 178.982 248.2 178.982C248.311 178.982 248.403 179.016 248.475 179.084C248.547 179.152 248.584 179.235 248.584 179.333V180.004H249.095ZM249.095 181.537C249.295 181.537 249.446 181.496 249.548 181.415C249.65 181.33 249.701 181.222 249.701 181.09C249.701 180.954 249.65 180.845 249.548 180.764C249.446 180.683 249.295 180.643 249.095 180.643H248.584V181.537H249.095Z"
        fill="white" />
    <path
        d="M42.3018 82.3853C46.0076 82.3853 49.0118 79.3812 49.0118 75.6753C49.0118 71.9695 46.0076 68.9653 42.3018 68.9653C38.596 68.9653 35.5918 71.9695 35.5918 75.6753C35.5918 79.3812 38.596 82.3853 42.3018 82.3853Z"
        fill="#2CA89A" />
    <path
        d="M179.099 76.0639C179.041 75.5179 178.95 74.9758 178.826 74.441C178.436 72.9948 177.572 71.7218 176.371 70.8269C175.558 70.2078 174.609 69.7917 173.602 69.6131C172.448 69.4031 171.259 69.5067 170.159 69.9131C168.943 70.3561 167.886 71.1514 167.124 72.1975C166.301 73.3171 165.856 74.6706 165.856 76.0605C165.856 77.4504 166.301 78.804 167.124 79.9236C167.503 80.448 167.964 80.9085 168.488 81.2874C168.992 81.6696 169.55 81.9731 170.145 82.1875C171.247 82.5887 172.435 82.6899 173.589 82.4807C174.595 82.3021 175.544 81.886 176.357 81.2669C177.558 80.372 178.423 79.099 178.812 77.6528C178.935 77.12 179.026 76.5804 179.085 76.0367C179.128 76.5909 179.08 77.1485 178.942 77.6869C178.596 79.1916 177.737 80.5294 176.514 81.4715C175.671 82.1224 174.688 82.5683 173.643 82.7739C172.435 83.0009 171.188 82.9044 170.029 82.4944C169.405 82.2731 168.819 81.9581 168.29 81.5601C167.729 81.1578 167.236 80.6673 166.831 80.1077C165.955 78.931 165.482 77.5034 165.482 76.0367C165.482 74.57 165.955 73.1423 166.831 71.9657C167.234 71.4024 167.727 70.9094 168.29 70.5064C168.819 70.1084 169.405 69.7934 170.029 69.5722C171.188 69.1621 172.435 69.0657 173.643 69.2926C174.688 69.4982 175.671 69.9441 176.514 70.595C177.737 71.5371 178.596 72.8749 178.942 74.3796C179.088 74.9284 179.141 75.4977 179.099 76.0639Z"
        fill="#2B2A29" />
    <path
        d="M244.111 75.2867C244.064 75.2867 244.111 74.6866 243.832 73.6638C243.439 72.2208 242.578 70.9493 241.384 70.0496C240.506 69.3895 239.477 68.96 238.391 68.8003C237.304 68.6407 236.195 68.7561 235.165 69.1359C234.571 69.3505 234.013 69.6515 233.508 70.0292C232.985 70.4099 232.524 70.8701 232.144 71.393C231.32 72.5137 230.875 73.8683 230.875 75.2594C230.875 76.6505 231.32 78.0052 232.144 79.1259C232.906 80.172 233.962 80.9673 235.178 81.4103C236.209 81.7901 237.318 81.9055 238.404 81.7458C239.491 81.5862 240.52 81.1567 241.397 80.4965C242.592 79.5969 243.453 78.3254 243.845 76.8824C244.111 75.8595 244.077 75.2594 244.125 75.2594C244.164 75.8159 244.116 76.375 243.982 76.9165C243.679 78.1835 243.018 79.3366 242.077 80.2375C241.136 81.1385 239.955 81.7493 238.676 81.9967C237.471 82.23 236.224 82.1334 235.069 81.7171C234.443 81.4998 233.854 81.187 233.323 80.7897C232.76 80.3867 232.267 79.8937 231.864 79.3304C230.989 78.1538 230.516 76.7262 230.516 75.2594C230.516 73.7927 230.989 72.3651 231.864 71.1884C232.267 70.6252 232.76 70.1322 233.323 69.7291C233.854 69.3319 234.443 69.0191 235.069 68.8017C236.224 68.3854 237.471 68.2888 238.676 68.5222C239.955 68.7696 241.136 69.3804 242.077 70.2813C243.018 71.1823 243.679 72.3353 243.982 73.6024C244.114 74.1534 244.158 74.722 244.111 75.2867Z"
        fill="#2B2A29" />
    <path
        d="M45.0966 73.8615C44.3179 74.9401 43.4438 75.9466 42.4848 76.8687C42.2462 77.1278 42.0075 77.3733 41.8029 77.6051L41.6802 77.7347L41.5575 77.612C40.8063 76.9602 40.1211 76.2362 39.5117 75.4503C40.3332 76.0083 41.0943 76.6505 41.7825 77.3665H41.5438C41.762 77.1278 41.9939 76.8755 42.2257 76.6232C43.0988 75.6192 44.0595 74.695 45.0966 73.8615Z"
        fill="white" />
    <path d="M98.8586 74.3115H50.2793V77.0392H98.8586V74.3115Z" fill="#2CA89A" />
    <path
        d="M107.163 82.3853C110.869 82.3853 113.873 79.3812 113.873 75.6753C113.873 71.9695 110.869 68.9653 107.163 68.9653C103.457 68.9653 100.453 71.9695 100.453 75.6753C100.453 79.3812 103.457 82.3853 107.163 82.3853Z"
        fill="#2CA89A" />
    <path
        d="M109.961 73.8615C109.18 74.9381 108.306 75.9444 107.349 76.8687C107.104 77.1278 106.872 77.3733 106.667 77.6051L106.551 77.7347L106.429 77.612C105.673 76.9648 104.987 76.2403 104.383 75.4503C105.2 76.0116 105.958 76.6536 106.647 77.3665H106.408L107.09 76.6232C107.962 75.6184 108.923 74.6941 109.961 73.8615Z"
        fill="white" />
    <path d="M163.716 74.3115H115.137V77.0392H163.716V74.3115Z" fill="#2CA89A" />
    <path
        d="M229.58 75.2868C229.58 75.3823 218.704 75.4641 205.291 75.4641C191.877 75.4641 180.98 75.3823 180.98 75.2868C180.98 75.1913 191.891 75.1095 205.27 75.1095C218.649 75.1095 229.58 75.1913 229.58 75.2868Z"
        fill="#2B2A29" />
    <path
        d="M275.357 54.0384C275.357 54.1338 216.072 54.2157 142.957 54.2157C69.8429 54.2157 10.5508 54.1338 10.5508 54.0384C10.5508 53.9429 69.8225 53.8611 142.957 53.8611C216.092 53.8611 275.357 53.9361 275.357 54.0384Z"
        fill="#E0E0E0" />
    <path
        d="M241.522 113.685C241.522 113.781 196.298 113.862 140.524 113.862C84.7506 113.862 39.5059 113.781 39.5059 113.685C39.5059 113.59 84.7233 113.508 140.524 113.508C196.325 113.508 241.522 113.59 241.522 113.685Z"
        fill="#2B2A29" />
    <path
        d="M129.573 121.657C129.496 121.665 129.418 121.665 129.341 121.657H128.659L126.033 121.691L116.384 121.745L84.5461 121.793L52.7008 121.745L43.045 121.691L40.4264 121.657H39.7445C39.6652 121.665 39.5852 121.665 39.5059 121.657H39.7445H40.4264L43.045 121.623L52.7008 121.568L84.5461 121.513L116.384 121.568L126.033 121.623L128.659 121.657H129.341H129.573Z"
        fill="#2B2A29" />
    <path
        d="M220.893 133.256C220.893 133.351 183.961 133.433 138.382 133.433C92.8034 133.433 55.8711 133.351 55.8711 133.256C55.8711 133.16 92.7966 133.078 138.382 133.078C183.968 133.078 220.893 133.16 220.893 133.256Z"
        fill="#2B2A29" />
    <path
        d="M45.5663 135.888C44.8525 135.888 44.1548 135.676 43.5615 135.28C42.9681 134.883 42.5057 134.319 42.2329 133.66C41.9601 133 41.8891 132.275 42.0288 131.575C42.1685 130.875 42.5128 130.232 43.018 129.728C43.5231 129.224 44.1665 128.88 44.8667 128.742C45.5669 128.604 46.2924 128.676 46.9515 128.95C47.6105 129.224 48.1734 129.688 48.569 130.282C48.9645 130.876 49.1749 131.574 49.1736 132.288C49.17 133.243 48.7886 134.157 48.1126 134.832C47.4367 135.507 46.5213 135.886 45.5663 135.888ZM45.5663 129.362C44.9877 129.362 44.4221 129.534 43.941 129.855C43.4599 130.177 43.085 130.634 42.8636 131.168C42.6422 131.703 42.5842 132.291 42.6971 132.858C42.81 133.426 43.0886 133.947 43.4977 134.356C43.9068 134.765 44.4281 135.044 44.9956 135.157C45.563 135.27 46.1512 135.212 46.6858 134.99C47.2203 134.769 47.6772 134.394 47.9987 133.913C48.3201 133.432 48.4917 132.866 48.4917 132.288C48.4899 131.512 48.1811 130.769 47.6329 130.221C47.0846 129.673 46.3416 129.364 45.5663 129.362Z"
        fill="#E0E0E0" />
    <path
        d="M187.431 142.093C187.431 142.093 187.322 142.093 187.097 142.093H186.101L182.269 142.127L168.174 142.182L121.654 142.277L75.1478 142.223L61.0527 142.168L57.2272 142.134L61.0527 142.1L75.1478 142.046L121.654 141.991L168.147 142.046L182.242 142.1L186.074 142.134H187.07C187.322 142.08 187.431 142.093 187.431 142.093Z"
        fill="#2B2A29" />
    <path
        d="M45.5663 145.687C44.8528 145.687 44.1554 145.475 43.5622 145.079C42.969 144.683 42.5066 144.119 42.2336 143.46C41.9605 142.801 41.8891 142.076 42.0283 141.376C42.1675 140.676 42.5111 140.033 43.0155 139.529C43.52 139.024 44.1628 138.681 44.8625 138.542C45.5623 138.403 46.2876 138.474 46.9468 138.747C47.6059 139.02 48.1693 139.482 48.5657 140.076C48.962 140.669 49.1736 141.366 49.1736 142.08C49.1718 143.036 48.7912 143.952 48.1151 144.628C47.4389 145.305 46.5225 145.685 45.5663 145.687ZM45.5663 139.154C44.9877 139.154 44.4221 139.326 43.941 139.647C43.46 139.969 43.085 140.426 42.8636 140.96C42.6422 141.495 42.5842 142.083 42.6971 142.65C42.81 143.218 43.0886 143.739 43.4977 144.148C43.9069 144.557 44.4281 144.836 44.9956 144.949C45.563 145.062 46.1512 145.004 46.6858 144.782C47.2203 144.561 47.6772 144.186 47.9987 143.705C48.3201 143.224 48.4917 142.658 48.4917 142.08C48.4863 141.307 48.1759 140.567 47.6281 140.022C47.0802 139.477 46.3393 139.17 45.5663 139.168V139.154Z"
        fill="#E0E0E0" />
    <path
        d="M45.5674 143.682C46.4449 143.682 47.1562 142.971 47.1562 142.093C47.1562 141.216 46.4449 140.505 45.5674 140.505C44.6899 140.505 43.9785 141.216 43.9785 142.093C43.9785 142.971 44.6899 143.682 45.5674 143.682Z"
        fill="#2CA89A" />
    <path
        d="M220.893 152.875C220.893 152.97 183.961 153.052 138.382 153.052C92.8034 153.052 55.8711 152.97 55.8711 152.875C55.8711 152.779 92.7966 152.697 138.382 152.697C183.968 152.697 220.893 152.772 220.893 152.875Z"
        fill="#2B2A29" />
    <path
        d="M45.5663 155.506C44.8528 155.506 44.1554 155.295 43.5622 154.899C42.969 154.502 42.5066 153.939 42.2336 153.28C41.9605 152.62 41.8891 151.895 42.0283 151.195C42.1675 150.496 42.5111 149.853 43.0155 149.348C43.52 148.844 44.1628 148.5 44.8625 148.361C45.5623 148.222 46.2876 148.293 46.9468 148.566C47.6059 148.839 48.1693 149.302 48.5657 149.895C48.962 150.488 49.1736 151.186 49.1736 151.899C49.1718 152.855 48.7912 153.772 48.1151 154.448C47.4389 155.124 46.5225 155.505 45.5663 155.506ZM45.5663 148.981C44.9874 148.981 44.4216 149.152 43.9403 149.474C43.4591 149.796 43.0842 150.253 42.8629 150.788C42.6417 151.323 42.5842 151.912 42.6976 152.479C42.8111 153.047 43.0903 153.568 43.5002 153.977C43.91 154.386 44.4318 154.664 44.9998 154.776C45.5677 154.888 46.1561 154.829 46.6905 154.607C47.225 154.384 47.6814 154.008 48.002 153.526C48.3226 153.044 48.493 152.478 48.4917 151.899C48.4899 151.124 48.1809 150.382 47.6325 149.835C47.084 149.288 46.341 148.981 45.5663 148.981Z"
        fill="#E0E0E0" />
</svg>
    