<svg width="278" height="250" viewBox="0 0 278 250" fill="none" xmlns="http://www.w3.org/2000/svg">
    <path
        d="M0.396752 89.0218C7.07199 173.208 39.8451 254.851 138.303 248.184C189.056 244.745 286.902 202.998 277.35 138.968C264.195 50.739 172.69 101.631 126.036 80.203C94.0458 65.5322 105.285 7.05246 51.6959 7.97347C9.28893 8.71516 -2.42331 54.0155 0.396752 89.0218Z"
        fill="#DCEEEC" />
    <path
        d="M181.226 250L96.3958 249.6C93.9697 249.591 91.5693 249.103 89.3317 248.166C87.0941 247.228 85.0631 245.859 83.3548 244.136C81.6465 242.414 80.2944 240.371 79.3756 238.126C78.4568 235.88 77.9895 233.476 78.0002 231.05L78.9049 18.3795C78.9329 13.4825 80.9029 8.7968 84.3824 5.35092C87.8619 1.90505 92.5665 -0.0193659 97.4635 0.000146955L182.294 0.391373C187.193 0.415099 191.883 2.38319 195.333 5.86315C198.782 9.34312 200.709 14.0502 200.689 18.95L199.793 231.596C199.769 236.498 197.8 241.19 194.319 244.641C190.837 248.092 186.128 250.019 181.226 250Z"
        fill="#2B2A29" />
    <path
        d="M182.17 7.7105L165.723 7.63715C165.186 7.64562 164.656 7.76 164.164 7.97371C163.672 8.18741 163.227 8.49624 162.854 8.88246C162.481 9.26869 162.189 9.72471 161.993 10.2243C161.797 10.724 161.702 11.2573 161.713 11.7939V14.777C161.723 15.3135 161.628 15.8469 161.432 16.3465C161.236 16.8461 160.944 17.3022 160.571 17.6884C160.198 18.0746 159.753 18.3834 159.261 18.5972C158.769 18.8109 158.239 18.9252 157.703 18.9337L125.622 18.787C125.085 18.7744 124.555 18.6555 124.064 18.4374C123.573 18.2192 123.13 17.9061 122.76 17.5159C122.39 17.1258 122.101 16.6664 121.91 16.1641C121.719 15.6619 121.629 15.1267 121.645 14.5895V11.6064C121.661 11.0692 121.571 10.5341 121.38 10.0318C121.188 9.52957 120.899 9.07014 120.53 8.68C120.16 8.28985 119.717 7.97669 119.225 7.75855C118.734 7.5404 118.205 7.42158 117.667 7.40893H111.881L97.5112 7.33558C95.8115 7.32807 94.127 7.65541 92.5538 8.29893C90.9806 8.94245 89.5496 9.88953 88.3424 11.0861C87.1352 12.2827 86.1756 13.7053 85.5182 15.2727C84.8609 16.8402 84.5187 18.5218 84.5112 20.2215L83.631 227.798C83.6179 231.23 84.9678 234.527 87.3839 236.964C89.8 239.402 93.0848 240.781 96.5169 240.798L181.176 241.189C182.876 241.197 184.56 240.869 186.133 240.226C187.707 239.582 189.138 238.635 190.345 237.439C191.552 236.242 192.512 234.819 193.169 233.252C193.826 231.685 194.168 230.003 194.176 228.303L195.056 20.7268C195.065 19.026 194.738 17.3402 194.095 15.7657C193.452 14.1911 192.506 12.7585 191.309 11.5499C190.112 10.3412 188.69 9.38001 187.122 8.72125C185.553 8.06249 183.871 7.71904 182.17 7.7105Z"
        fill="white" />
    <path
        d="M135.64 214.977C135.64 215.329 135.535 215.672 135.34 215.964C135.145 216.257 134.867 216.484 134.543 216.619C134.218 216.753 133.861 216.788 133.516 216.72C133.171 216.651 132.855 216.482 132.606 216.234C132.358 215.985 132.189 215.669 132.12 215.324C132.052 214.979 132.087 214.622 132.221 214.297C132.356 213.973 132.583 213.695 132.876 213.5C133.168 213.305 133.511 213.2 133.863 213.2C134.333 213.203 134.784 213.39 135.117 213.723C135.45 214.056 135.637 214.507 135.64 214.977Z"
        fill="#2B2A29" />
    <path
        d="M142.39 214.977C142.39 215.329 142.285 215.672 142.09 215.964C141.895 216.257 141.617 216.484 141.293 216.619C140.968 216.753 140.611 216.788 140.266 216.72C139.921 216.651 139.605 216.482 139.356 216.234C139.108 215.985 138.939 215.669 138.87 215.324C138.802 214.979 138.837 214.622 138.971 214.297C139.106 213.973 139.333 213.695 139.626 213.5C139.918 213.305 140.261 213.2 140.613 213.2C141.083 213.203 141.534 213.39 141.867 213.723C142.2 214.056 142.387 214.507 142.39 214.977Z"
        fill="#2B2A29" />
    <path
        d="M149.138 214.977C149.138 215.329 149.033 215.672 148.838 215.964C148.643 216.257 148.365 216.484 148.041 216.619C147.716 216.753 147.359 216.788 147.014 216.72C146.669 216.651 146.353 216.482 146.104 216.234C145.856 215.985 145.687 215.669 145.618 215.324C145.55 214.979 145.585 214.622 145.719 214.297C145.854 213.973 146.081 213.695 146.374 213.5C146.666 213.305 147.009 213.2 147.361 213.2C147.831 213.203 148.282 213.39 148.615 213.723C148.948 214.056 149.135 214.507 149.138 214.977Z"
        fill="#2B2A29" />
    <path
        d="M100.283 65.6197C100.283 65.6197 100.283 65.473 100.283 65.1714C100.346 63.9889 100.763 62.8527 101.481 61.9112C102.076 61.1008 102.863 60.451 103.772 60.0203C104.93 59.5054 106.201 59.2949 107.464 59.409H122.885L188.088 59.5395H188.569L188.235 59.8899L179.881 68.6761L179.938 68.5376V83.0862C179.997 84.0558 179.925 85.0289 179.726 85.9796C179.476 86.9321 179.004 87.8118 178.349 88.547C177.706 89.2803 176.903 89.855 176.001 90.226C175.104 90.5787 174.144 90.7424 173.181 90.7069H146.578L110.952 90.6335H107.203C106.003 90.7255 104.8 90.5095 103.707 90.0059C102.712 89.5255 101.863 88.7906 101.245 87.8759C100.626 86.9613 100.261 85.8993 100.186 84.7978C100.186 80.7225 100.186 77.2912 100.186 74.4467C100.186 71.6022 100.186 69.4178 100.226 67.9263C100.226 67.1846 100.226 66.6222 100.226 66.2228C100.226 65.8235 100.226 65.6442 100.226 65.6442C100.226 65.6442 100.226 65.8398 100.226 66.2228C100.226 66.6059 100.226 67.1846 100.226 67.9263C100.226 69.4341 100.226 71.6348 100.226 74.4467C100.226 77.2586 100.226 80.7633 100.283 84.7815C100.362 85.8383 100.718 86.8556 101.316 87.7303C101.915 88.6049 102.734 89.3056 103.69 89.7614C104.746 90.2439 105.908 90.4461 107.065 90.3483H110.952L146.619 90.3075H167.68H173.206C174.113 90.3447 175.018 90.192 175.863 89.8592C176.706 89.5119 177.458 88.9767 178.063 88.2943C178.671 87.6078 179.107 86.7864 179.335 85.8981C179.527 84.9822 179.596 84.0447 179.539 83.1106V68.4642L179.596 68.4072L187.958 59.6209L188.113 59.9714L122.909 59.6943L111.955 59.6373H107.48C106.246 59.5157 105.001 59.7092 103.861 60.1996C102.967 60.6125 102.189 61.2396 101.596 62.0254C101.156 62.5987 100.82 63.244 100.601 63.9326C100.443 64.4839 100.337 65.0487 100.283 65.6197Z"
        fill="#2B2A29" />
    <path d="M169.816 70.8359L108.875 70.5506L108.883 68.676L169.816 68.9613V70.8359Z"
        fill="#2B2A29" />
    <path d="M169.816 76.9978L108.875 76.7125L108.883 74.8379L169.816 75.1231V76.9978Z"
        fill="#2B2A29" />
    <path d="M145.701 81.0049L145.691 82.8795L169.8 82.9973L169.809 81.1227L145.701 81.0049Z"
        fill="#2B2A29" />
    <path
        d="M183.132 106.894V125.64C183.132 127.266 182.487 128.826 181.338 129.977C180.188 131.127 178.629 131.775 177.003 131.777H109.843C108.215 131.777 106.654 131.13 105.503 129.979C104.352 128.829 103.706 127.267 103.706 125.64V109.803L95.3516 101.017L176.97 100.764C177.778 100.76 178.579 100.916 179.326 101.222C180.073 101.528 180.753 101.979 181.326 102.548C181.898 103.118 182.353 103.795 182.663 104.541C182.973 105.286 183.132 106.086 183.132 106.894Z"
        fill="#2CA89A" />
    <path d="M113.612 112.11L174.553 111.825L174.545 109.95L113.604 110.235L113.612 112.11Z"
        fill="white" />
    <path d="M113.612 118.272L174.553 117.986L174.545 116.12L113.604 116.397L113.612 118.272Z"
        fill="white" />
    <path d="M137.697 122.29L113.588 122.408L113.597 124.283L137.706 124.165L137.697 122.29Z"
        fill="white" />
    <path
        d="M146.578 35.145C147.169 34.8873 147.67 34.4601 148.018 33.9175C148.366 33.375 148.546 32.7413 148.534 32.0968C148.555 31.6783 148.492 31.2599 148.346 30.8668C148.201 30.4738 147.977 30.1145 147.689 29.8107C147.4 29.5069 147.053 29.265 146.668 29.0997C146.283 28.9344 145.868 28.8491 145.449 28.8491C145.03 28.8491 144.615 28.9344 144.23 29.0997C143.845 29.265 143.498 29.5069 143.209 29.8107C142.921 30.1145 142.697 30.4738 142.552 30.8668C142.406 31.2599 142.343 31.6783 142.364 32.0968C142.348 32.7464 142.526 33.386 142.876 33.9335C143.226 34.481 143.732 34.9114 144.328 35.1695C139.577 35.8867 139.789 41.0541 139.789 41.0541L151.028 41.103C151.028 41.103 151.289 35.8623 146.578 35.145Z"
        fill="#2CA89A" />
    <path opacity="0.5"
        d="M146.578 35.145C147.169 34.8873 147.67 34.4601 148.018 33.9175C148.366 33.375 148.546 32.7413 148.534 32.0968C148.555 31.6783 148.492 31.2599 148.346 30.8668C148.201 30.4738 147.977 30.1145 147.689 29.8107C147.4 29.5069 147.053 29.265 146.668 29.0997C146.283 28.9344 145.868 28.8491 145.449 28.8491C145.03 28.8491 144.615 28.9344 144.23 29.0997C143.845 29.265 143.498 29.5069 143.209 29.8107C142.921 30.1145 142.697 30.4738 142.552 30.8668C142.406 31.2599 142.343 31.6783 142.364 32.0968C142.348 32.7464 142.526 33.386 142.876 33.9335C143.226 34.481 143.732 34.9114 144.328 35.1695C139.577 35.8867 139.789 41.0541 139.789 41.0541L151.028 41.103C151.028 41.103 151.289 35.8623 146.578 35.145Z"
        fill="white" />
    <path
        d="M140.408 35.1451C140.997 34.8833 141.496 34.4554 141.845 33.914C142.194 33.3725 142.377 32.741 142.372 32.0968C142.403 31.6723 142.346 31.246 142.205 30.8444C142.064 30.4429 141.841 30.0748 141.551 29.7631C141.261 29.4514 140.91 29.2028 140.52 29.0328C140.13 28.8628 139.709 28.7751 139.283 28.7751C138.858 28.7751 138.436 28.8628 138.046 29.0328C137.656 29.2028 137.305 29.4514 137.015 29.7631C136.725 30.0748 136.503 30.4429 136.362 30.8444C136.22 31.246 136.163 31.6723 136.194 32.0968C136.178 32.7464 136.356 33.386 136.706 33.9335C137.056 34.481 137.562 34.9114 138.158 35.1695C133.407 35.8868 133.619 41.0542 133.619 41.0542L144.858 41.1031C144.858 41.1031 145.119 35.8623 140.408 35.1451Z"
        fill="#2CA89A" />
    <path d="M157.594 43.3859L127.381 43.2488L127.364 46.998L157.577 47.1351L157.594 43.3859Z"
        fill="#2CA89A" />
    <path opacity="0.3"
        d="M157.594 43.3859L127.381 43.2488L127.364 46.998L157.577 47.1351L157.594 43.3859Z"
        fill="white" />
    <path
        d="M101.693 149.578C101.679 149.431 101.679 149.284 101.693 149.138C101.743 148.697 101.884 148.272 102.109 147.891C102.483 147.258 103.056 146.768 103.739 146.497C104.683 146.239 105.666 146.153 106.641 146.244H125.33L188.26 146.375H188.741L188.382 146.709L180.15 155.544L180.207 155.397V161.306C180.207 161.746 180.207 162.121 180.207 162.61C180.173 163.297 179.935 163.959 179.522 164.509C179.11 165.06 178.542 165.474 177.892 165.699C177.465 165.844 177.015 165.911 176.564 165.895H167.786H148.787L116.658 165.83H105.663C105.191 165.855 104.718 165.828 104.253 165.748C103.596 165.606 102.998 165.27 102.533 164.785C102.068 164.3 101.759 163.688 101.644 163.026C101.596 162.623 101.58 162.217 101.596 161.812C101.596 160.255 101.596 158.837 101.596 157.557C101.596 155.006 101.596 153.025 101.636 151.656C101.636 150.996 101.636 150.491 101.636 150.124C101.636 149.757 101.636 149.602 101.636 149.602C101.636 149.602 101.636 149.781 101.636 150.124C101.636 150.466 101.636 150.996 101.636 151.656C101.636 153.025 101.636 155.006 101.677 157.557C101.677 158.837 101.677 160.255 101.677 161.812C101.663 162.204 101.682 162.596 101.734 162.985C101.841 163.604 102.132 164.176 102.568 164.628C103.003 165.08 103.565 165.391 104.179 165.52C104.63 165.588 105.086 165.61 105.54 165.585H110.137H116.658L148.819 165.536H176.588C176.989 165.551 177.39 165.493 177.77 165.365C178.534 165.097 179.161 164.537 179.514 163.808C179.689 163.446 179.788 163.053 179.808 162.651C179.808 162.244 179.808 161.795 179.808 161.371V155.381L179.865 155.324L188.113 146.505L188.26 146.855L125.338 146.586L106.649 146.464C105.693 146.359 104.726 146.431 103.796 146.676C103.269 146.885 102.804 147.228 102.45 147.671C102.095 148.114 101.863 148.642 101.775 149.203C101.754 149.329 101.727 149.454 101.693 149.578Z"
        fill="#2B2A29" />
    <path d="M172.547 154.517L111.605 154.24L111.614 152.365L172.555 152.651L172.547 154.517Z"
        fill="#2B2A29" />
    <path d="M147.829 158.551L147.82 160.426L172.549 160.547L172.558 158.672L147.829 158.551Z"
        fill="#2B2A29" />
    <path
        d="M180.991 183.011V195.848C180.991 196.713 180.647 197.542 180.036 198.153C179.424 198.765 178.595 199.108 177.73 199.108H105.957C105.093 199.108 104.263 198.765 103.652 198.153C103.041 197.542 102.697 196.713 102.697 195.848V188.83L94.457 180.012L177.73 179.751C178.595 179.751 179.424 180.094 180.036 180.706C180.647 181.317 180.991 182.146 180.991 183.011Z"
        fill="#2CA89A" />
    <path d="M110.145 187.95L171.086 187.673L171.078 185.798L110.137 186.084L110.145 187.95Z"
        fill="white" />
    <path d="M110.145 193.982L171.086 193.696L171.078 191.83L110.137 192.107L110.145 193.982Z"
        fill="white" />
</svg>
    