<svg width="264" height="250" viewBox="0 0 264 250" fill="none" xmlns="http://www.w3.org/2000/svg">
    <path
        d="M252.359 40.5947L250.782 38.0406C237.462 16.3687 213.376 3.30422 187.988 4.88779C184.721 5.09195 181.473 5.53371 178.269 6.20956C155.186 11.0944 135.098 28.3285 126.772 50.409C121.874 63.3905 120.508 78.3386 111.217 88.6446C99.1229 102.054 78.594 102.482 60.5426 101.926C42.4911 101.371 21.943 101.843 9.91301 115.335C2.3719 123.764 -0.0226122 135.769 0.583997 147.052C2.21865 176.903 23.2903 203.639 50.1089 216.927C76.9274 230.214 108.535 231.409 137.908 225.56C179.049 217.374 218.172 194.91 241.689 160.148C265.206 125.386 271.177 78.0832 252.359 40.5947Z"
        fill="#DCEEEC" />
    <path
        d="M174.194 250L89.3902 249.61C86.9621 249.6 84.56 249.11 82.3213 248.17C80.0825 247.23 78.0511 245.858 76.3431 244.132C74.6351 242.406 73.2841 240.361 72.3673 238.112C71.4505 235.864 70.986 233.457 71.0003 231.029L71.8943 18.3964C71.9051 15.9697 72.3939 13.5688 73.3326 11.331C74.2714 9.09316 75.6417 7.06213 77.3654 5.35388C79.089 3.64562 81.1323 2.29361 83.3785 1.37502C85.6247 0.45643 88.0298 -0.0107382 90.4565 0.000187294L175.267 0.396077C177.694 0.409452 180.094 0.900949 182.331 1.84248C184.568 2.78401 186.598 4.15711 188.304 5.88333C190.01 7.60954 191.359 9.65502 192.274 11.9029C193.189 14.1507 193.653 16.5569 193.638 18.9839L192.737 231.616C192.712 236.512 190.745 241.197 187.268 244.644C183.792 248.091 179.09 250.017 174.194 250Z"
        fill="#2B2A29" />
    <path
        d="M175.121 7.77121L158.679 7.69458C158.142 7.70372 157.613 7.81855 157.121 8.0325C156.629 8.24644 156.184 8.55531 155.812 8.94141C155.439 9.32751 155.146 9.78328 154.95 10.2826C154.754 10.782 154.658 11.3151 154.669 11.8515V14.8334C154.686 15.9157 154.273 16.9607 153.522 17.7398C152.77 18.5188 151.741 18.9685 150.659 18.9903L118.604 18.837C118.068 18.823 117.54 18.7034 117.051 18.4853C116.561 18.2671 116.119 17.9546 115.75 17.5656C115.381 17.1766 115.093 16.7187 114.901 16.2182C114.709 15.7176 114.618 15.1841 114.632 14.6482V11.6663C114.658 10.5833 114.254 9.5341 113.509 8.74801C112.763 7.96193 111.737 7.50285 110.654 7.47109H104.869L90.4829 7.40085C88.7832 7.39329 87.0986 7.72059 85.5254 8.36407C83.9522 9.00754 82.5211 9.95459 81.3139 11.1511C80.1067 12.3477 79.1469 13.7703 78.4895 15.3377C77.8321 16.9052 77.4898 18.5868 77.4823 20.2865L76.6075 227.811C76.5939 231.241 77.943 234.536 80.3582 236.971C82.7734 239.407 86.0569 240.783 89.4868 240.799L174.125 241.195C177.557 241.208 180.854 239.859 183.292 237.442C185.73 235.026 187.108 231.741 187.125 228.309L188 20.7846C188.01 19.0841 187.685 17.3983 187.043 15.8236C186.401 14.249 185.455 12.8163 184.259 11.6077C183.062 10.399 181.64 9.43804 180.072 8.77974C178.504 8.12144 176.821 7.77873 175.121 7.77121Z"
        fill="white" />
    <path
        d="M178.989 30.6181C178.995 30.7471 178.962 30.875 178.894 30.9849C178.826 31.0948 178.727 31.1814 178.608 31.2334C178.49 31.2854 178.359 31.3003 178.232 31.2761C178.105 31.252 177.988 31.1898 177.898 31.098C177.807 31.0062 177.746 30.8889 177.723 30.7617C177.7 30.6346 177.716 30.5035 177.77 30.3857C177.823 30.268 177.911 30.1692 178.021 30.1024C178.132 30.0356 178.26 30.0039 178.389 30.0115C178.549 30.0131 178.701 30.0778 178.814 30.1914C178.926 30.3049 178.989 30.4583 178.989 30.6181Z"
        fill="#2B2A29" />
    <path
        d="M178.983 32.8019C178.983 32.9218 178.947 33.0391 178.881 33.1389C178.814 33.2386 178.719 33.3164 178.608 33.3623C178.497 33.4082 178.375 33.4202 178.258 33.3968C178.14 33.3734 178.032 33.3156 177.947 33.2308C177.862 33.146 177.805 33.0379 177.781 32.9202C177.758 32.8025 177.77 32.6806 177.816 32.5697C177.862 32.4589 177.939 32.3641 178.039 32.2975C178.139 32.2308 178.256 32.1953 178.376 32.1953C178.537 32.1953 178.691 32.2592 178.805 32.3729C178.919 32.4867 178.983 32.641 178.983 32.8019Z"
        fill="#2B2A29" />
    <path
        d="M178.951 34.9984C178.951 35.1678 178.883 35.3302 178.764 35.4499C178.644 35.5697 178.482 35.637 178.312 35.637C178.184 35.595 178.073 35.5137 177.994 35.4048C177.915 35.2959 177.873 35.1648 177.873 35.0304C177.873 34.8959 177.915 34.7648 177.994 34.6559C178.073 34.547 178.184 34.4657 178.312 34.4237C178.471 34.4229 178.624 34.4814 178.743 34.5876C178.861 34.6939 178.935 34.8404 178.951 34.9984Z"
        fill="#2B2A29" />
    <path
        d="M180.03 63.3558H95.3023C93.7859 63.3558 92.5566 64.5851 92.5566 66.1015V117.848C92.5566 119.365 93.7859 120.594 95.3023 120.594H180.03C181.546 120.594 182.775 119.365 182.775 117.848V66.1015C182.775 64.5851 181.546 63.3558 180.03 63.3558Z"
        fill="#E6E6E6" />
    <path
        d="M177.553 59.6395H92.8258C91.3094 59.6395 90.0801 60.8688 90.0801 62.3852V114.132C90.0801 115.649 91.3094 116.878 92.8258 116.878H177.553C179.07 116.878 180.299 115.649 180.299 114.132V62.3852C180.299 60.8688 179.07 59.6395 177.553 59.6395Z"
        fill="#B7EAE4" />
    <path
        d="M158.415 48.0182H157.553L157.394 48.4141H156.953L157.777 46.5623H158.205L159.035 48.4141H158.581L158.415 48.0182ZM158.281 47.6925L157.988 46.9838L157.694 47.6925H158.281Z"
        fill="#2B2A29" />
    <path
        d="M159.227 46.5623H160.069C160.2 46.5469 160.333 46.5594 160.458 46.5989C160.584 46.6384 160.7 46.7041 160.798 46.7915C160.896 46.879 160.975 46.9863 161.029 47.1063C161.083 47.2264 161.111 47.3565 161.111 47.4882C161.111 47.6198 161.083 47.7499 161.029 47.87C160.975 47.9901 160.896 48.0974 160.798 48.1848C160.7 48.2723 160.584 48.3379 160.458 48.3774C160.333 48.4169 160.2 48.4294 160.069 48.414H159.227V46.5623ZM160.05 48.0629C160.203 48.0629 160.349 48.0023 160.457 47.8945C160.564 47.7868 160.625 47.6406 160.625 47.4882C160.625 47.3358 160.564 47.1896 160.457 47.0818C160.349 46.974 160.203 46.9135 160.05 46.9135H159.661V48.0629H160.05Z"
        fill="#2B2A29" />
    <path
        d="M161.424 46.5623H162.267C162.397 46.5469 162.53 46.5594 162.655 46.5989C162.781 46.6384 162.897 46.7041 162.995 46.7915C163.093 46.879 163.172 46.9863 163.226 47.1063C163.28 47.2264 163.308 47.3565 163.308 47.4882C163.308 47.6198 163.28 47.7499 163.226 47.87C163.172 47.9901 163.093 48.0974 162.995 48.1848C162.897 48.2723 162.781 48.3379 162.655 48.3774C162.53 48.4169 162.397 48.4294 162.267 48.414H161.424V46.5623ZM162.241 48.0629C162.394 48.0629 162.54 48.0023 162.648 47.8945C162.755 47.7868 162.816 47.6406 162.816 47.4882C162.816 47.3358 162.755 47.1896 162.648 47.0818C162.54 46.974 162.394 46.9135 162.241 46.9135H161.852V48.0629H162.241Z"
        fill="#2B2A29" />
    <path
        d="M166.053 48.4077V47.2966L165.504 48.2097H165.312L164.769 47.3221V48.4077H164.367V46.5559H164.718L165.414 47.7053L166.098 46.5559H166.449V48.4077H166.053Z"
        fill="#2B2A29" />
    <path
        d="M166.783 47.4881C166.771 47.2853 166.821 47.0836 166.925 46.9093C167.03 46.735 167.184 46.5959 167.368 46.5102C167.552 46.4245 167.758 46.396 167.959 46.4284C168.159 46.4609 168.345 46.5527 168.493 46.6922C168.641 46.8316 168.744 47.0122 168.788 47.2105C168.832 47.4089 168.815 47.6159 168.74 47.8048C168.666 47.9936 168.536 48.1557 168.368 48.27C168.2 48.3843 168.001 48.4456 167.798 48.4459C167.668 48.4529 167.537 48.4333 167.415 48.3883C167.292 48.3434 167.18 48.274 167.085 48.1845C166.99 48.0949 166.915 47.987 166.863 47.8673C166.811 47.7476 166.784 47.6186 166.783 47.4881ZM168.379 47.4881C168.377 47.3738 168.34 47.2627 168.275 47.1689C168.21 47.075 168.118 47.0025 168.012 46.9605C167.905 46.9185 167.789 46.9088 167.677 46.9326C167.565 46.9565 167.463 47.0128 167.383 47.0945C167.303 47.1763 167.249 47.2798 167.227 47.3922C167.206 47.5045 167.218 47.6207 167.263 47.7261C167.307 47.8316 167.381 47.9216 167.477 47.9849C167.572 48.0482 167.684 48.082 167.798 48.082C167.876 48.0838 167.953 48.0696 168.026 48.0402C168.098 48.0109 168.163 47.967 168.218 47.9113C168.272 47.8556 168.315 47.7893 168.342 47.7165C168.37 47.6437 168.383 47.566 168.379 47.4881Z"
        fill="#2B2A29" />
    <path
        d="M170.326 48.4077L169.968 47.8904H169.572V48.4077H169.145V46.5559H169.943C170.441 46.5559 170.747 46.8113 170.747 47.1944C170.748 47.3184 170.713 47.4399 170.646 47.5442C170.579 47.6485 170.484 47.7311 170.371 47.7819L170.786 48.3757L170.326 48.4077ZM169.924 46.9007H169.572V47.5392H169.924C170.185 47.5392 170.313 47.4179 170.313 47.2136C170.313 47.0093 170.185 46.9071 169.924 46.9071V46.9007Z"
        fill="#2B2A29" />
    <path
        d="M172.529 48.0692V48.4077H171.092V46.5559H172.497V46.9007H171.52V47.303H172.382V47.635H171.52V48.0629L172.529 48.0692Z"
        fill="#2B2A29" />
    <path
        d="M174.028 47.6478H173.561V48.1011H173.204V47.6478H172.744V47.3285H173.204V46.8752H173.542V47.3285H174.008L174.028 47.6478Z"
        fill="#2B2A29" />
    <path
        d="M125.316 173.308C125.206 173.308 125.108 173.271 125.023 173.198C124.941 173.124 124.901 173.031 124.901 172.92V169.649C124.901 169.553 124.936 169.474 125.006 169.411C125.076 169.348 125.161 169.317 125.261 169.317C125.361 169.317 125.446 169.348 125.516 169.411C125.586 169.474 125.621 169.553 125.621 169.649V172.006H125.677L127.174 169.649C127.314 169.428 127.471 169.317 127.645 169.317C127.76 169.317 127.857 169.354 127.939 169.428C128.02 169.502 128.061 169.594 128.061 169.705V172.976C128.061 173.072 128.026 173.151 127.955 173.214C127.885 173.277 127.8 173.308 127.7 173.308C127.601 173.308 127.516 173.277 127.445 173.214C127.375 173.151 127.34 173.072 127.34 172.976V170.62H127.285L125.788 172.976C125.647 173.198 125.49 173.308 125.316 173.308ZM130.72 170.509C130.805 170.509 130.877 170.535 130.937 170.586C130.996 170.638 131.025 170.705 131.025 170.786C131.025 170.867 130.996 170.934 130.937 170.985C130.877 171.037 130.805 171.063 130.72 171.063H130.083V172.976C130.083 173.061 130.051 173.133 129.989 173.192C129.926 173.251 129.846 173.281 129.75 173.281C129.654 173.281 129.575 173.251 129.512 173.192C129.449 173.133 129.417 173.061 129.417 172.976V171.063H128.78C128.695 171.063 128.623 171.037 128.564 170.985C128.505 170.934 128.475 170.867 128.475 170.786C128.475 170.705 128.505 170.638 128.564 170.586C128.623 170.535 128.695 170.509 128.78 170.509H130.72ZM132.523 173.336C132.279 173.336 132.059 173.284 131.863 173.181C131.671 173.077 131.52 172.939 131.409 172.765C131.302 172.591 131.248 172.403 131.248 172.2V171.562C131.248 171.359 131.302 171.17 131.409 170.997C131.52 170.823 131.671 170.684 131.863 170.581C132.059 170.477 132.279 170.426 132.523 170.426C132.767 170.426 132.985 170.477 133.177 170.581C133.373 170.684 133.525 170.823 133.632 170.997C133.743 171.17 133.798 171.359 133.798 171.562V172.2C133.798 172.403 133.743 172.591 133.632 172.765C133.525 172.939 133.373 173.077 133.177 173.181C132.985 173.284 132.767 173.336 132.523 173.336ZM132.523 172.782C132.701 172.782 132.847 172.726 132.961 172.615C133.076 172.505 133.133 172.366 133.133 172.2V171.562C133.133 171.396 133.076 171.257 132.961 171.146C132.847 171.035 132.701 170.98 132.523 170.98C132.346 170.98 132.2 171.035 132.085 171.146C131.971 171.257 131.913 171.396 131.913 171.562V172.2C131.913 172.366 131.971 172.505 132.085 172.615C132.2 172.726 132.346 172.782 132.523 172.782ZM134.766 173.281C134.67 173.281 134.591 173.251 134.528 173.192C134.465 173.133 134.433 173.061 134.433 172.976V170.814C134.433 170.729 134.465 170.657 134.528 170.597C134.591 170.538 134.67 170.509 134.766 170.509H136.124C136.209 170.509 136.281 170.535 136.341 170.586C136.4 170.638 136.429 170.705 136.429 170.786C136.429 170.867 136.4 170.934 136.341 170.985C136.281 171.037 136.209 171.063 136.124 171.063H135.099V172.976C135.099 173.061 135.067 173.133 135.005 173.192C134.942 173.251 134.862 173.281 134.766 173.281ZM137.953 173.336C137.71 173.336 137.49 173.284 137.294 173.181C137.102 173.077 136.95 172.939 136.839 172.765C136.732 172.591 136.678 172.403 136.678 172.2V171.562C136.678 171.359 136.732 171.17 136.839 170.997C136.95 170.823 137.102 170.684 137.294 170.581C137.49 170.477 137.71 170.426 137.953 170.426C138.197 170.426 138.415 170.477 138.608 170.581C138.804 170.684 138.955 170.823 139.062 170.997C139.173 171.17 139.229 171.359 139.229 171.562V172.2C139.229 172.403 139.173 172.591 139.062 172.765C138.955 172.939 138.804 173.077 138.608 173.181C138.415 173.284 138.197 173.336 137.953 173.336ZM137.953 172.782C138.131 172.782 138.277 172.726 138.391 172.615C138.506 172.505 138.563 172.366 138.563 172.2V171.562C138.563 171.396 138.506 171.257 138.391 171.146C138.277 171.035 138.131 170.98 137.953 170.98C137.776 170.98 137.63 171.035 137.516 171.146C137.401 171.257 137.344 171.396 137.344 171.562V172.2C137.344 172.366 137.401 172.505 137.516 172.615C137.63 172.726 137.776 172.782 137.953 172.782Z"
        fill="#2B2A29" />
    <path d="M123.509 179.946V186.683H122.813V180.585H121.223V179.946H123.509Z" fill="#2B2A29" />
    <path
        d="M130.264 184.825C130.264 186.012 129.255 186.74 127.646 186.74C126.037 186.74 125.047 185.993 125.047 184.825C125.043 184.445 125.166 184.074 125.398 183.773C125.629 183.472 125.956 183.258 126.324 183.164C126.011 183.065 125.739 182.867 125.548 182.6C125.356 182.333 125.257 182.011 125.264 181.683C125.264 180.585 126.196 179.901 127.62 179.901C129.044 179.901 130.002 180.585 130.002 181.683C130.007 182.013 129.904 182.337 129.71 182.604C129.515 182.871 129.239 183.068 128.923 183.164C129.303 183.246 129.643 183.455 129.887 183.758C130.131 184.06 130.264 184.436 130.264 184.825ZM129.555 184.825C129.555 183.994 128.84 183.477 127.639 183.477C126.439 183.477 125.724 183.994 125.724 184.825C125.724 185.655 126.426 186.185 127.639 186.185C128.853 186.185 129.555 185.648 129.555 184.812V184.825ZM127.639 182.909C128.693 182.909 129.319 182.436 129.319 181.702C129.319 180.968 128.68 180.483 127.639 180.483C126.599 180.483 125.973 180.942 125.973 181.696C125.973 182.449 126.599 182.915 127.646 182.915L127.639 182.909Z"
        fill="#2B2A29" />
    <path
        d="M131.229 183.33C131.229 181.185 132.352 179.901 133.91 179.901C135.468 179.901 136.605 181.179 136.605 183.33C136.605 185.482 135.468 186.759 133.91 186.759C132.352 186.759 131.229 185.476 131.229 183.33ZM135.896 183.33C135.896 181.53 135.085 180.54 133.91 180.54C132.735 180.54 131.931 181.53 131.931 183.33C131.931 185.131 132.735 186.121 133.91 186.121C135.085 186.121 135.896 185.131 135.896 183.33Z"
        fill="#2B2A29" />
    <path
        d="M137.662 183.33C137.662 181.185 138.786 179.901 140.344 179.901C141.902 179.901 143.045 181.179 143.045 183.33C143.045 185.482 141.908 186.759 140.344 186.759C138.78 186.759 137.662 185.476 137.662 183.33ZM142.33 183.33C142.33 181.53 141.519 180.54 140.344 180.54C139.169 180.54 138.365 181.53 138.365 183.33C138.365 185.131 139.175 186.121 140.344 186.121C141.512 186.121 142.33 185.131 142.33 183.33Z"
        fill="#2B2A29" />
    <path
        d="M178.092 201.441H85.6037C84.3523 201.441 83.3379 202.243 83.3379 203.233V217.204C83.3379 218.194 84.3523 218.997 85.6037 218.997H178.092C179.343 218.997 180.358 218.194 180.358 217.204V203.233C180.358 202.243 179.343 201.441 178.092 201.441Z"
        fill="#2CA89A" />
    <path
        d="M117.741 212.285C117.318 212.285 116.941 212.196 116.61 212.019C116.28 211.836 116.022 211.587 115.834 211.272C115.652 210.957 115.561 210.604 115.561 210.215V208.884C115.561 208.495 115.652 208.143 115.834 207.827C116.022 207.512 116.28 207.266 116.61 207.088C116.941 206.906 117.318 206.815 117.741 206.815C118.165 206.815 118.542 206.906 118.872 207.088C119.203 207.266 119.459 207.512 119.641 207.827C119.828 208.143 119.922 208.495 119.922 208.884V210.215C119.922 210.604 119.828 210.957 119.641 211.272C119.459 211.587 119.203 211.836 118.872 212.019C118.542 212.196 118.165 212.285 117.741 212.285ZM117.741 211.398C118.111 211.398 118.407 211.289 118.628 211.072C118.85 210.856 118.961 210.57 118.961 210.215V208.884C118.961 208.53 118.85 208.244 118.628 208.027C118.407 207.81 118.111 207.702 117.741 207.702C117.372 207.702 117.076 207.81 116.854 208.027C116.633 208.244 116.522 208.53 116.522 208.884V210.215C116.522 210.57 116.633 210.856 116.854 211.072C117.076 211.289 117.372 211.398 117.741 211.398ZM121.325 212.174C121.196 212.174 121.09 212.134 121.007 212.056C120.923 211.977 120.881 211.881 120.881 211.767V208.884C120.881 208.771 120.923 208.675 121.007 208.596C121.09 208.517 121.196 208.478 121.325 208.478H123.69C123.818 208.478 123.924 208.517 124.008 208.596C124.092 208.675 124.133 208.771 124.133 208.884V211.767C124.133 211.881 124.092 211.977 124.008 212.056C123.924 212.134 123.818 212.174 123.69 212.174C123.562 212.174 123.456 212.134 123.372 212.056C123.288 211.977 123.246 211.881 123.246 211.767V209.217H121.768V211.767C121.768 211.881 121.726 211.977 121.642 212.056C121.559 212.134 121.453 212.174 121.325 212.174ZM124.986 212.248C124.858 212.248 124.752 212.208 124.668 212.129C124.584 212.051 124.542 211.955 124.542 211.841C124.542 211.757 124.565 211.686 124.609 211.627C124.648 211.563 124.727 211.494 124.845 211.42C125.038 211.292 125.176 211.139 125.259 210.962C125.348 210.784 125.392 210.56 125.392 210.289V208.884C125.392 208.771 125.434 208.675 125.518 208.596C125.602 208.517 125.708 208.478 125.836 208.478H127.869C127.997 208.478 128.103 208.517 128.187 208.596C128.27 208.675 128.312 208.771 128.312 208.884V211.767C128.312 211.881 128.27 211.977 128.187 212.056C128.103 212.134 127.997 212.174 127.869 212.174C127.741 212.174 127.635 212.134 127.551 212.056C127.467 211.977 127.425 211.881 127.425 211.767V209.217H126.279V210.289C126.279 210.698 126.218 211.053 126.095 211.353C125.971 211.649 125.809 211.873 125.607 212.026C125.41 212.174 125.203 212.248 124.986 212.248ZM130.718 208.367C131.028 208.367 131.307 208.433 131.553 208.567C131.804 208.695 131.999 208.87 132.137 209.091C132.275 209.313 132.344 209.552 132.344 209.808V211.767C132.344 211.881 132.302 211.977 132.218 212.056C132.135 212.134 132.029 212.174 131.901 212.174C131.782 212.174 131.684 212.139 131.605 212.07C131.526 211.996 131.479 211.908 131.464 211.804H131.383C131.27 211.937 131.119 212.046 130.932 212.129C130.75 212.208 130.555 212.248 130.348 212.248C130.107 212.248 129.89 212.198 129.698 212.1C129.51 211.996 129.363 211.861 129.254 211.693C129.146 211.521 129.092 211.336 129.092 211.139C129.092 210.912 129.151 210.708 129.269 210.525C129.392 210.338 129.567 210.19 129.794 210.082C130.025 209.973 130.297 209.919 130.607 209.919H131.457V209.808C131.457 209.601 131.388 209.434 131.25 209.306C131.117 209.173 130.94 209.106 130.718 209.106C130.6 209.106 130.499 209.126 130.415 209.165C130.331 209.2 130.237 209.269 130.134 209.372C130.05 209.456 129.976 209.513 129.912 209.542C129.848 209.572 129.772 209.587 129.683 209.587C129.575 209.587 129.486 209.557 129.417 209.498C129.348 209.434 129.313 209.353 129.313 209.254C129.313 209.15 129.353 209.047 129.432 208.944C129.51 208.84 129.616 208.744 129.749 208.655C129.883 208.562 130.033 208.49 130.2 208.441C130.368 208.392 130.54 208.367 130.718 208.367ZM130.533 211.545C130.696 211.545 130.861 211.504 131.028 211.42C131.201 211.336 131.344 211.23 131.457 211.102V210.585H130.607C130.41 210.585 130.255 210.634 130.141 210.732C130.033 210.826 129.979 210.949 129.979 211.102C129.979 211.235 130.025 211.343 130.119 211.427C130.218 211.506 130.356 211.545 130.533 211.545ZM135.637 208.478C135.751 208.478 135.847 208.512 135.926 208.581C136.004 208.65 136.044 208.739 136.044 208.847C136.044 208.956 136.004 209.045 135.926 209.114C135.847 209.183 135.751 209.217 135.637 209.217H134.787V211.767C134.787 211.881 134.745 211.977 134.662 212.056C134.578 212.134 134.472 212.174 134.344 212.174C134.216 212.174 134.11 212.134 134.026 212.056C133.942 211.977 133.9 211.881 133.9 211.767V209.217H133.05C132.937 209.217 132.841 209.183 132.762 209.114C132.683 209.045 132.644 208.956 132.644 208.847C132.644 208.739 132.683 208.65 132.762 208.581C132.841 208.512 132.937 208.478 133.05 208.478H135.637ZM136.968 212.174C136.839 212.174 136.733 212.134 136.65 212.056C136.566 211.977 136.524 211.881 136.524 211.767V208.847C136.524 208.734 136.566 208.638 136.65 208.559C136.733 208.48 136.839 208.441 136.968 208.441C137.096 208.441 137.202 208.48 137.285 208.559C137.369 208.638 137.411 208.734 137.411 208.847V210.658H137.485L138.779 208.81C138.872 208.672 138.961 208.576 139.045 208.522C139.128 208.468 139.225 208.441 139.333 208.441C139.461 208.441 139.567 208.48 139.651 208.559C139.735 208.638 139.776 208.734 139.776 208.847V211.767C139.776 211.881 139.735 211.977 139.651 212.056C139.567 212.134 139.461 212.174 139.333 212.174C139.205 212.174 139.099 212.134 139.015 212.056C138.931 211.977 138.889 211.881 138.889 211.767V209.956H138.816L137.522 211.804C137.428 211.942 137.34 212.038 137.256 212.092C137.172 212.147 137.076 212.174 136.968 212.174ZM143.253 208.478C143.366 208.478 143.462 208.512 143.541 208.581C143.62 208.65 143.66 208.739 143.66 208.847C143.66 208.956 143.62 209.045 143.541 209.114C143.462 209.183 143.366 209.217 143.253 209.217H142.403V211.767C142.403 211.881 142.361 211.977 142.277 212.056C142.194 212.134 142.088 212.174 141.959 212.174C141.831 212.174 141.725 212.134 141.642 212.056C141.558 211.977 141.516 211.881 141.516 211.767V209.217H140.666C140.552 209.217 140.456 209.183 140.378 209.114C140.299 209.045 140.259 208.956 140.259 208.847C140.259 208.739 140.299 208.65 140.378 208.581C140.456 208.512 140.552 208.478 140.666 208.478H143.253ZM145.618 209.624C145.953 209.624 146.239 209.68 146.476 209.794C146.717 209.902 146.899 210.052 147.023 210.244C147.146 210.432 147.207 210.644 147.207 210.88C147.207 211.117 147.146 211.331 147.023 211.523C146.899 211.711 146.717 211.861 146.476 211.974C146.239 212.083 145.953 212.137 145.618 212.137H144.583C144.455 212.137 144.349 212.097 144.265 212.019C144.182 211.94 144.14 211.844 144.14 211.73V208.847C144.14 208.734 144.182 208.638 144.265 208.559C144.349 208.48 144.455 208.441 144.583 208.441C144.711 208.441 144.817 208.48 144.901 208.559C144.985 208.638 145.027 208.734 145.027 208.847V209.624H145.618ZM145.618 211.398C145.85 211.398 146.025 211.351 146.143 211.257C146.261 211.159 146.32 211.033 146.32 210.88C146.32 210.723 146.261 210.597 146.143 210.503C146.025 210.41 145.85 210.363 145.618 210.363H145.027V211.398H145.618Z"
        fill="white" />
    <path
        d="M144.42 160.254C144.824 160.225 145.224 160.156 145.614 160.049C146.718 159.693 147.636 158.915 148.168 157.885C148.346 157.531 148.477 157.155 148.558 156.767C148.624 156.334 148.647 155.896 148.628 155.458C148.628 154.535 148.628 153.532 148.628 152.451C148.628 150.286 148.628 147.828 148.577 145.114C148.526 142.4 148.545 139.418 148.526 136.219C148.526 135.421 148.526 134.61 148.526 133.78C148.562 132.963 148.365 132.152 147.957 131.443C147.54 130.714 146.913 130.129 146.157 129.764C145.356 129.404 144.476 129.261 143.603 129.349L120.213 129.438C119.21 129.444 118.243 129.809 117.486 130.466C116.739 131.114 116.249 132.009 116.107 132.988C116.051 133.48 116.034 133.975 116.056 134.47V135.964C116.056 136.96 116.056 137.95 116.056 138.927C116.056 142.834 116.056 146.589 116.056 150.209C116.056 152.004 116.056 153.76 116.056 155.458C115.993 156.278 116.14 157.1 116.484 157.846C116.829 158.559 117.372 159.158 118.048 159.57C119.376 160.464 121.011 160.145 122.48 160.209H126.745H139.624H143.124L139.624 160.254L126.745 160.349H122.48H120.207C119.394 160.35 118.598 160.129 117.901 159.711C117.179 159.271 116.598 158.633 116.228 157.872C115.861 157.089 115.7 156.225 115.762 155.362C115.762 153.664 115.762 151.908 115.762 150.114C115.762 146.519 115.73 142.745 115.718 138.831C115.718 137.854 115.718 136.864 115.718 135.868C115.718 135.376 115.718 134.872 115.718 134.374C115.7 133.862 115.717 133.35 115.769 132.841C115.926 131.785 116.456 130.82 117.263 130.121C118.08 129.412 119.124 129.018 120.207 129.01L143.59 128.946C144.502 128.862 145.42 129.018 146.252 129.4C147.057 129.794 147.725 130.422 148.168 131.2C148.597 131.956 148.803 132.817 148.762 133.684C148.762 134.508 148.762 135.325 148.762 136.123C148.762 139.316 148.762 142.298 148.762 145.018V152.355C148.762 153.434 148.762 154.437 148.762 155.362C148.778 155.811 148.748 156.261 148.673 156.703C148.581 157.1 148.441 157.484 148.257 157.846C147.98 158.37 147.599 158.832 147.138 159.205C146.677 159.578 146.146 159.855 145.576 160.017C145.282 160.098 144.98 160.145 144.675 160.158L144.42 160.254Z"
        fill="#2CA89A" />
    <path
        d="M137.83 149.418H137.613H136.974L134.631 149.45L126.745 149.52H126.681V149.456C126.617 149.041 126.553 148.6 126.489 148.179C125.94 144.348 125.455 140.951 125.136 138.722L125.187 138.761H123.08H122.524C122.458 138.77 122.392 138.77 122.326 138.761H122.524H123.08L125.18 138.722H125.219V138.767C125.551 140.989 126.055 144.399 126.624 148.217C126.687 148.664 126.751 149.105 126.815 149.494L126.738 149.43H134.618H137.606L137.83 149.418Z"
        fill="#2CA89A" />
    <path
        d="M126.412 147.189H126.63H127.268L129.643 147.151L137.823 147.081L137.753 147.138C137.989 145.759 138.238 144.271 138.5 142.726C138.64 141.934 138.768 141.155 138.896 140.414L138.972 140.497L129.331 140.529H125.697H126.47L129.324 140.491L138.966 140.408H139.049V140.491C138.921 141.238 138.794 142.017 138.653 142.809C138.391 144.354 138.136 145.842 137.9 147.221V147.279H137.842H129.663H126.47L126.412 147.189Z"
        fill="#2CA89A" />
    <path
        d="M129.534 152.489C129.534 152.489 129.534 152.393 129.47 152.227C129.397 151.998 129.254 151.797 129.061 151.653C128.94 151.564 128.802 151.502 128.655 151.472C128.509 151.441 128.357 151.442 128.211 151.475C128.065 151.508 127.928 151.572 127.808 151.663C127.689 151.753 127.59 151.868 127.519 152C127.448 152.132 127.407 152.278 127.397 152.427C127.387 152.577 127.409 152.727 127.462 152.867C127.515 153.007 127.597 153.134 127.703 153.24C127.81 153.345 127.937 153.427 128.078 153.479C128.242 153.537 128.418 153.553 128.591 153.528C128.763 153.502 128.927 153.435 129.068 153.332C129.261 153.19 129.403 152.988 129.47 152.757C129.521 152.591 129.521 152.489 129.534 152.489C129.556 152.581 129.556 152.678 129.534 152.77C129.481 153.023 129.341 153.249 129.138 153.409C128.986 153.531 128.806 153.613 128.613 153.646C128.421 153.68 128.224 153.664 128.039 153.6C127.806 153.522 127.602 153.373 127.457 153.174C127.311 152.975 127.232 152.735 127.229 152.489C127.228 152.247 127.303 152.011 127.442 151.813C127.582 151.615 127.779 151.465 128.008 151.384C128.16 151.326 128.323 151.302 128.485 151.313C128.647 151.324 128.806 151.369 128.949 151.447C129.092 151.525 129.216 151.632 129.314 151.763C129.412 151.893 129.48 152.043 129.514 152.202C129.545 152.294 129.552 152.393 129.534 152.489Z"
        fill="#2CA89A" />
    <path
        d="M136.667 152.438C136.667 152.438 136.667 152.336 136.603 152.17C136.532 151.941 136.388 151.742 136.195 151.602C136.052 151.499 135.887 151.433 135.713 151.41C135.54 151.386 135.363 151.406 135.198 151.467C135.001 151.545 134.831 151.68 134.711 151.855C134.591 152.031 134.528 152.238 134.528 152.451C134.529 152.663 134.596 152.87 134.718 153.043C134.84 153.216 135.012 153.348 135.211 153.421C135.375 153.482 135.551 153.501 135.724 153.476C135.897 153.451 136.06 153.384 136.201 153.281C136.393 153.133 136.536 152.931 136.61 152.7C136.654 152.534 136.654 152.438 136.667 152.438C136.69 152.528 136.69 152.622 136.667 152.713C136.615 152.966 136.475 153.192 136.271 153.351C136.1 153.494 135.891 153.584 135.669 153.612C135.448 153.64 135.223 153.604 135.021 153.508C134.82 153.411 134.65 153.26 134.532 153.07C134.414 152.881 134.353 152.661 134.356 152.438C134.355 152.195 134.43 151.958 134.57 151.759C134.709 151.561 134.906 151.41 135.135 151.327C135.319 151.26 135.517 151.242 135.71 151.273C135.903 151.304 136.086 151.384 136.239 151.506C136.444 151.665 136.586 151.891 136.642 152.144C136.674 152.239 136.683 152.34 136.667 152.438Z"
        fill="#2CA89A" />
    <path
        d="M141.514 139.265C141.523 139.898 141.343 140.52 140.998 141.051C140.652 141.582 140.157 141.998 139.574 142.246C138.992 142.495 138.349 142.564 137.726 142.446C137.104 142.328 136.531 142.028 136.08 141.583C135.629 141.138 135.32 140.57 135.194 139.949C135.067 139.329 135.127 138.684 135.368 138.098C135.608 137.512 136.017 137.011 136.543 136.658C137.069 136.306 137.688 136.117 138.321 136.117C139.16 136.117 139.966 136.447 140.563 137.036C141.161 137.625 141.502 138.426 141.514 139.265Z"
        fill="#2CA89A" />
    <path d="M138.724 138.065V140.465H138.168V138.511H137.689V138.065H138.724Z" fill="white" />
    <path
        d="M174.692 56.549H89.9645C88.448 56.549 87.2188 57.7783 87.2188 59.2947V111.042C87.2188 112.558 88.448 113.787 89.9645 113.787H174.692C176.208 113.787 177.438 112.558 177.438 111.042V59.2947C177.438 57.7783 176.208 56.549 174.692 56.549Z"
        fill="#2CA89A" />
    <path
        d="M102.07 69.6262C102.07 70.3605 101.489 70.782 100.378 70.782H98.1875V66.5485H100.256C101.316 66.5485 101.859 66.9891 101.859 67.6468C101.864 67.8395 101.813 68.0295 101.714 68.1946C101.614 68.3597 101.47 68.493 101.297 68.579C101.525 68.6408 101.726 68.7779 101.866 68.968C102.006 69.1582 102.078 69.3901 102.07 69.6262ZM99.1645 67.2828V68.2853H100.135C100.614 68.2853 100.876 68.1129 100.876 67.7809C100.876 67.4488 100.614 67.2828 100.135 67.2828H99.1645ZM101.08 69.5241C101.08 69.1665 100.805 68.9941 100.301 68.9941H99.1581V70.0413H100.301C100.812 70.0413 101.086 69.888 101.086 69.5241H101.08Z"
        fill="white" />
    <path
        d="M105.602 69.8753H103.635L103.258 70.782H102.256L104.171 66.5485H105.136L107.051 70.782H106.023L105.602 69.8753ZM105.295 69.1282L104.625 67.5063L103.986 69.1282H105.295Z"
        fill="white" />
    <path
        d="M111.331 66.5485V70.7564H110.526L108.413 68.2023V70.7564H107.436V66.5229H108.246L110.347 69.0771V66.5229L111.331 66.5485Z"
        fill="white" />
    <path
        d="M113.871 69.1154L113.303 69.7092V70.7564H112.332V66.5229H113.303V68.496L115.18 66.5229H116.265L114.516 68.4386L116.374 70.7564H115.225L113.871 69.1154Z"
        fill="white" />
    <path
        d="M101.28 87.2371H100.501V88.2587H100.105V87.2371H97.9082V86.9497L99.9707 84.3956H100.418L98.4254 86.905H100.118V86.0047H100.501V86.905H101.28V87.2371Z"
        fill="white" />
    <path
        d="M104.134 87.1413C104.134 87.7798 103.661 88.2907 102.723 88.2907C102.21 88.309 101.71 88.1308 101.324 87.7926L101.522 87.4733C101.847 87.7762 102.278 87.939 102.723 87.9267C103.361 87.9267 103.725 87.6266 103.725 87.1413C103.725 86.656 103.393 86.3687 102.672 86.3687H102.397V86.0813L103.476 84.734H101.484V84.3764H103.987V84.6638L102.889 86.043C103.719 86.0813 104.134 86.5219 104.134 87.1413Z"
        fill="white" />
    <path
        d="M107.284 87.1157C107.284 87.7543 106.818 88.2906 105.873 88.2906C105.36 88.309 104.86 88.1308 104.475 87.7926L104.673 87.4733C104.995 87.7764 105.424 87.9394 105.867 87.9267C106.505 87.9267 106.876 87.601 106.876 87.1285C106.876 86.656 106.563 86.3176 105.598 86.3176H104.775L104.973 84.37H107.099V84.7276H105.324L105.19 85.9664H105.688C106.837 85.9664 107.284 86.4261 107.284 87.1157Z"
        fill="white" />
    <path
        d="M110.705 87.0966C110.703 87.2644 110.667 87.4301 110.597 87.583C110.528 87.7359 110.428 87.8729 110.303 87.9851C110.178 88.0973 110.032 88.1824 109.872 88.235C109.713 88.2876 109.544 88.3066 109.377 88.2906C108.343 88.2906 107.787 87.5755 107.787 86.375C107.787 85.1746 108.509 84.3636 109.562 84.3636C109.882 84.3509 110.199 84.4237 110.482 84.5744L110.322 84.8936C110.093 84.7646 109.832 84.7027 109.569 84.7148C108.726 84.7148 108.189 85.2512 108.189 86.3048C108.184 86.4111 108.184 86.5177 108.189 86.6241C108.304 86.4137 108.477 86.2413 108.688 86.1279C108.899 86.0145 109.138 85.9651 109.377 85.9855C109.538 85.9641 109.703 85.9765 109.859 86.0219C110.015 86.0672 110.161 86.1446 110.285 86.2491C110.41 86.3535 110.512 86.4828 110.584 86.6287C110.657 86.7746 110.698 86.9339 110.705 87.0966ZM110.309 87.0966C110.309 86.5857 109.933 86.2601 109.332 86.2601C109.21 86.2459 109.087 86.2571 108.969 86.2928C108.852 86.3286 108.743 86.3881 108.649 86.4678C108.556 86.5475 108.48 86.6456 108.426 86.756C108.372 86.8663 108.342 86.9866 108.336 87.1093C108.336 87.5372 108.687 87.9394 109.358 87.9394C109.476 87.9538 109.596 87.9431 109.71 87.9081C109.824 87.8731 109.929 87.8146 110.018 87.7363C110.108 87.658 110.18 87.5617 110.231 87.4537C110.281 87.3457 110.308 87.2284 110.309 87.1093V87.0966Z"
        fill="white" />
    <path
        d="M119.108 88.2587L118.176 87.0391L117.243 88.2587H116.803L117.958 86.7582L116.854 85.3406H117.301L118.176 86.4836L119.057 85.3406H119.491L118.386 86.7582L119.555 88.2587H119.108Z"
        fill="white" />
    <path
        d="M122.071 88.2587L121.145 87.0391L120.207 88.2587H119.76L120.916 86.7582L119.817 85.3406H120.264L121.139 86.4836L122.014 85.3406H122.448L121.35 86.7582L122.518 88.2587H122.071Z"
        fill="white" />
    <path
        d="M125.039 88.2587L124.107 87.0391L123.175 88.2587H122.76L123.916 86.7582L122.76 85.3406H123.207L124.082 86.4836L124.963 85.3406H125.397L124.292 86.7582L125.461 88.2587H125.039Z"
        fill="white" />
    <path
        d="M128.002 88.2587L127.077 87.0391L126.144 88.2587H125.697L126.853 86.7582L125.755 85.3406H126.195L127.077 86.4836L127.951 85.3406H128.385L127.287 86.7582L128.449 88.2587H128.002Z"
        fill="white" />
    <path
        d="M138.245 88.2587L137.312 87.0391L136.38 88.2587H135.939L137.095 86.7582L135.991 85.3406H136.438L137.312 86.4836L138.193 85.3406H138.628L137.523 86.7582L138.692 88.2587H138.245Z"
        fill="white" />
    <path
        d="M141.206 88.2587L140.281 87.0391L139.361 88.2587H138.914L140.07 86.7582L138.972 85.3406H139.412L140.293 86.4836L141.168 85.3406H141.602L140.504 86.7582L141.666 88.2587H141.206Z"
        fill="white" />
    <path
        d="M144.17 88.2587L143.244 87.0391L142.312 88.2587H141.865L143.021 86.7582L141.916 85.3406H142.363L143.238 86.4836L144.119 85.3406H144.547L143.449 86.7582L144.617 88.2587H144.17Z"
        fill="white" />
    <path
        d="M147.141 88.2587L146.215 87.0391L145.277 88.2587H144.836L145.992 86.7582L144.887 85.3406H145.334L146.215 86.4836L147.09 85.3406H147.524L146.426 86.7582L147.588 88.2587H147.141Z"
        fill="white" />
    <path d="M156.334 84.37V88.2587H155.964V84.7276H155.051V84.37H156.334Z" fill="white" />
    <path
        d="M159.833 87.1413C159.833 87.7798 159.36 88.2907 158.422 88.2907C157.909 88.309 157.409 88.1308 157.023 87.7926L157.215 87.4733C157.542 87.7766 157.976 87.9394 158.422 87.9267C159.06 87.9267 159.418 87.6266 159.418 87.1413C159.418 86.656 159.092 86.3687 158.371 86.3687H158.096V86.0813L159.169 84.734H157.183V84.3764H159.68V84.6638L158.581 86.043C159.418 86.0813 159.833 86.5219 159.833 87.1413Z"
        fill="white" />
    <path
        d="M163.696 87.2371H162.917V88.2587H162.521V87.2371H160.324V86.9497L162.387 84.3956H162.827L160.841 86.905H162.527V86.0047H162.917V86.905H163.696V87.2371Z"
        fill="white" />
    <path
        d="M166.697 87.9012V88.2587H163.971V87.9969L165.586 86.4134C166.027 85.9792 166.11 85.7173 166.11 85.4492C166.11 85.0022 165.791 84.7212 165.197 84.7212C164.999 84.7095 164.801 84.7424 164.617 84.8176C164.434 84.8927 164.27 85.0082 164.137 85.1554L163.85 84.9128C164.024 84.7242 164.239 84.5766 164.477 84.4806C164.715 84.3846 164.972 84.3424 165.229 84.3573C166.021 84.3573 166.506 84.7595 166.506 85.4045C166.498 85.6426 166.436 85.8759 166.325 86.087C166.215 86.2981 166.058 86.4816 165.867 86.6241L164.546 87.9012H166.697Z"
        fill="white" />
    <path
        d="M95.9414 96.3298C95.9496 96.1282 96.0176 95.9336 96.1369 95.7708C96.2562 95.608 96.4213 95.4844 96.6111 95.4159C96.8009 95.3474 97.0069 95.337 97.2026 95.386C97.3984 95.4351 97.5751 95.5414 97.7102 95.6913L97.4356 95.9467C97.3797 95.8772 97.3087 95.8214 97.2278 95.7838C97.147 95.7461 97.0586 95.7276 96.9695 95.7296C96.812 95.7296 96.6609 95.7922 96.5495 95.9035C96.4382 96.0149 96.3756 96.166 96.3756 96.3234C96.3756 96.4809 96.4382 96.632 96.5495 96.7434C96.6609 96.8547 96.812 96.9173 96.9695 96.9173C97.059 96.9181 97.1476 96.8983 97.2284 96.8596C97.3092 96.8208 97.3801 96.7641 97.4356 96.6938L97.7102 96.9492C97.6167 97.0599 97.4989 97.1475 97.366 97.2051C97.2331 97.2628 97.0886 97.2888 96.9439 97.2813C96.8147 97.2882 96.6855 97.2687 96.5641 97.224C96.4427 97.1793 96.3317 97.1104 96.2379 97.0213C96.1441 96.9323 96.0694 96.825 96.0184 96.7061C95.9674 96.5872 95.9412 96.4592 95.9414 96.3298Z"
        fill="white" />
    <path
        d="M99.1347 96.8598H98.2726L98.1066 97.2557H97.666L98.4961 95.3975H98.9176L99.7476 97.2557H99.2943L99.1347 96.8598ZM98.9942 96.5341L98.7005 95.819L98.4067 96.5341H98.9942Z"
        fill="white" />
    <path
        d="M101.153 97.2557L100.795 96.7385H100.412V97.2557H99.9844V95.3975H100.783C101.281 95.3975 101.593 95.6593 101.593 96.0744C101.594 96.199 101.558 96.321 101.49 96.4254C101.422 96.5298 101.325 96.612 101.21 96.6618L101.625 97.2557H101.153ZM100.751 95.7487H100.412V96.3873H100.763C101.025 96.3873 101.159 96.2659 101.159 96.068C101.159 95.87 101.012 95.7487 100.751 95.7487Z"
        fill="white" />
    <path
        d="M101.771 97.0705L101.918 96.7512C102.106 96.8801 102.329 96.947 102.557 96.9428C102.812 96.9428 102.914 96.8598 102.914 96.7448C102.914 96.3936 101.835 96.6363 101.835 95.9467C101.835 95.6274 102.091 95.3656 102.621 95.3656C102.845 95.3612 103.066 95.4187 103.259 95.5316L103.132 95.8573C102.974 95.7655 102.796 95.7149 102.614 95.7104C102.359 95.7104 102.263 95.8062 102.263 95.9275C102.263 96.2659 103.342 96.0297 103.342 96.7129C103.342 97.0194 103.087 97.2876 102.557 97.2876C102.279 97.2984 102.004 97.2226 101.771 97.0705Z"
        fill="white" />
    <path
        d="M106.062 95.3975V97.2557H105.634V96.4958H104.791V97.2557H104.363V95.3975H104.791V96.1318H105.634V95.3975H106.062Z"
        fill="white" />
    <path
        d="M106.396 96.3298C106.385 96.1269 106.434 95.9253 106.539 95.751C106.643 95.5766 106.797 95.4376 106.981 95.3519C107.166 95.2661 107.371 95.2376 107.572 95.2701C107.772 95.3025 107.959 95.3944 108.107 95.5338C108.254 95.6733 108.357 95.8538 108.401 96.0522C108.445 96.2505 108.429 96.4575 108.354 96.6464C108.279 96.8353 108.149 96.9974 107.981 97.1117C107.813 97.226 107.615 97.2873 107.411 97.2876C107.281 97.2954 107.15 97.2765 107.027 97.2319C106.904 97.1873 106.792 97.118 106.697 97.0282C106.602 96.9385 106.526 96.8302 106.474 96.7101C106.422 96.59 106.396 96.4606 106.396 96.3298ZM107.986 96.3298C107.984 96.2152 107.947 96.1039 107.882 96.0099C107.816 95.9159 107.724 95.8434 107.617 95.8016C107.51 95.7598 107.394 95.7504 107.282 95.7748C107.17 95.7992 107.067 95.8561 106.988 95.9385C106.908 96.0209 106.854 96.125 106.834 96.2378C106.813 96.3506 106.826 96.4669 106.871 96.5722C106.917 96.6775 106.992 96.7671 107.088 96.8296C107.184 96.8922 107.297 96.9249 107.411 96.9236C107.489 96.9255 107.566 96.9113 107.638 96.8819C107.71 96.8525 107.775 96.8085 107.829 96.7527C107.883 96.6969 107.925 96.6305 107.952 96.5577C107.979 96.4849 107.991 96.4073 107.986 96.3298Z"
        fill="white" />
    <path d="M108.752 95.3975H109.18V96.9364H110.112V97.2876H108.752V95.3975Z" fill="white" />
    <path
        d="M110.354 95.3975H111.196C111.325 95.3868 111.454 95.403 111.576 95.4448C111.698 95.4867 111.81 95.5534 111.905 95.6407C112 95.728 112.075 95.834 112.127 95.9521C112.179 96.0701 112.206 96.1977 112.206 96.3266C112.206 96.4555 112.179 96.583 112.127 96.7011C112.075 96.8192 112 96.9252 111.905 97.0125C111.81 97.0998 111.698 97.1665 111.576 97.2084C111.454 97.2502 111.325 97.2663 111.196 97.2557H110.354V95.3975ZM111.171 96.9045C111.323 96.9045 111.469 96.8439 111.577 96.7361C111.685 96.6284 111.746 96.4822 111.746 96.3298C111.746 96.1774 111.685 96.0312 111.577 95.9234C111.469 95.8156 111.323 95.7551 111.171 95.7551H110.781V96.9364L111.171 96.9045Z"
        fill="white" />
    <path
        d="M113.98 96.9364V97.2812H112.543V95.4231H113.948V95.7679H112.971V96.1702H113.82V96.5086H112.958V96.9364H113.98Z"
        fill="white" />
    <path
        d="M115.506 97.2557L115.148 96.7385H114.752V97.2557H114.324V95.3975H115.129C115.62 95.3975 115.933 95.6593 115.933 96.0744C115.934 96.199 115.898 96.321 115.83 96.4254C115.762 96.5298 115.664 96.612 115.55 96.6618L115.965 97.2557H115.506ZM115.103 95.7487H114.752V96.3873H115.097C115.359 96.3873 115.493 96.2659 115.493 96.068C115.493 95.87 115.365 95.7487 115.097 95.7487H115.103Z"
        fill="white" />
    <path
        d="M95.7246 103.577L96.1844 103.028C96.2517 103.139 96.3449 103.233 96.456 103.301C96.5672 103.369 96.693 103.409 96.8229 103.418C97.1549 103.418 97.3273 103.22 97.3273 102.83V101.125H96.0503V100.487H98.1255V102.805C98.1523 102.98 98.1381 103.16 98.0841 103.329C98.03 103.499 97.9377 103.654 97.8141 103.782C97.6905 103.909 97.5391 104.007 97.3716 104.067C97.2041 104.127 97.0251 104.147 96.8484 104.126C96.6318 104.125 96.4182 104.076 96.2236 103.981C96.029 103.885 95.8584 103.748 95.7246 103.577Z"
        fill="white" />
    <path
        d="M98.7055 103.577C98.7037 103.512 98.7152 103.447 98.7393 103.387C98.7634 103.327 98.7995 103.272 98.8456 103.226C98.8916 103.18 98.9465 103.143 99.0069 103.119C99.0674 103.095 99.1321 103.084 99.1971 103.086C99.2627 103.083 99.3281 103.094 99.3893 103.117C99.4505 103.141 99.5062 103.177 99.5529 103.223C99.5996 103.269 99.6364 103.325 99.6608 103.385C99.6853 103.446 99.697 103.512 99.6952 103.577C99.697 103.643 99.6853 103.709 99.6609 103.77C99.6365 103.831 99.5998 103.887 99.5532 103.933C99.5066 103.98 99.451 104.017 99.3898 104.041C99.3286 104.065 99.263 104.077 99.1971 104.075C99.1315 104.077 99.0663 104.065 99.0054 104.041C98.9445 104.016 98.8893 103.98 98.8432 103.933C98.7971 103.886 98.761 103.831 98.7374 103.769C98.7137 103.708 98.7028 103.643 98.7055 103.577Z"
        fill="white" />
    <path
        d="M105.52 100.461L104.351 104.037H103.457L102.672 101.617L101.861 104.037H100.98L99.8047 100.461H100.66L101.471 102.977L102.314 100.461H103.074L103.891 103.015L104.728 100.461H105.52Z"
        fill="white" />
    <path
        d="M105.852 100.461C105.865 100.34 105.923 100.227 106.015 100.146C106.106 100.064 106.224 100.019 106.346 100.019C106.469 100.019 106.587 100.064 106.678 100.146C106.769 100.227 106.827 100.34 106.841 100.461C106.827 100.583 106.769 100.695 106.678 100.776C106.587 100.858 106.469 100.903 106.346 100.903C106.224 100.903 106.106 100.858 106.015 100.776C105.923 100.695 105.865 100.583 105.852 100.461ZM105.947 101.291H106.746V104.037H105.947V101.291Z"
        fill="white" />
    <path d="M107.488 100.25H108.28V104.037H107.488V100.25Z" fill="white" />
    <path d="M109.02 100.25H109.818V104.037H109.02V100.25Z" fill="white" />
    <path
        d="M110.457 100.461C110.458 100.399 110.473 100.337 110.499 100.281C110.525 100.224 110.563 100.173 110.61 100.132C110.657 100.091 110.711 100.059 110.771 100.04C110.83 100.021 110.893 100.014 110.955 100.021C111.016 100.014 111.077 100.021 111.135 100.039C111.194 100.058 111.247 100.088 111.294 100.128C111.34 100.168 111.377 100.217 111.403 100.272C111.43 100.327 111.444 100.387 111.447 100.448C111.433 100.57 111.375 100.682 111.284 100.764C111.192 100.845 111.074 100.89 110.952 100.89C110.83 100.89 110.711 100.845 110.62 100.764C110.529 100.682 110.471 100.57 110.457 100.448V100.461ZM110.553 101.291H111.351V104.037H110.553V101.291Z"
        fill="white" />
    <path
        d="M114.517 102.473V104.037H113.777V103.692C113.685 103.826 113.559 103.932 113.411 104C113.264 104.067 113.101 104.093 112.94 104.075C112.302 104.075 111.912 103.718 111.912 103.245C111.912 102.773 112.251 102.421 113.087 102.421H113.726C113.726 102.083 113.521 101.885 113.087 101.885C112.804 101.881 112.528 101.971 112.302 102.14L112.014 101.579C112.367 101.355 112.778 101.239 113.196 101.247C114.032 101.247 114.517 101.636 114.517 102.473ZM113.726 103.169V102.888H113.183C112.812 102.888 112.691 103.028 112.691 103.213C112.691 103.398 112.864 103.545 113.144 103.545C113.268 103.55 113.391 103.517 113.495 103.449C113.599 103.382 113.679 103.284 113.726 103.169Z"
        fill="white" />
    <path
        d="M119.874 102.466V104.037H119.082V102.587C119.082 102.14 118.878 101.949 118.559 101.949C118.239 101.949 117.952 102.179 117.952 102.67V104.05H117.154V102.6C117.154 102.153 116.969 101.962 116.637 101.962C116.305 101.962 116.03 102.192 116.03 102.683V104.062H115.238V101.317H115.998V101.63C116.108 101.512 116.242 101.419 116.391 101.358C116.539 101.296 116.699 101.267 116.86 101.272C117.037 101.263 117.212 101.301 117.37 101.38C117.528 101.459 117.662 101.578 117.761 101.725C117.883 101.581 118.035 101.465 118.208 101.387C118.38 101.308 118.567 101.269 118.757 101.272C118.912 101.263 119.068 101.289 119.213 101.347C119.357 101.405 119.488 101.494 119.594 101.608C119.701 101.722 119.781 101.858 119.829 102.006C119.878 102.154 119.893 102.311 119.874 102.466Z"
        fill="white" />
    <path
        d="M120.32 103.782L120.589 103.213C120.877 103.382 121.205 103.472 121.54 103.475C121.91 103.475 122.044 103.379 122.044 103.226C122.044 102.779 120.384 103.226 120.384 102.141C120.384 101.617 120.857 101.247 121.661 101.247C122.027 101.241 122.389 101.324 122.715 101.489L122.447 102.058C122.208 101.921 121.937 101.85 121.661 101.853C121.304 101.853 121.15 101.962 121.15 102.109C121.15 102.575 122.804 102.109 122.804 103.207C122.804 103.718 122.332 104.075 121.527 104.075C121.106 104.086 120.69 103.984 120.32 103.782Z"
        fill="white" />
    <path
        d="M152.363 102.358C152.363 101.176 153.002 100.512 153.896 100.512C154.79 100.512 155.428 101.151 155.428 102.358C155.428 103.564 154.79 104.209 153.896 104.209C153.002 104.209 152.363 103.539 152.363 102.358ZM154.592 102.358C154.592 101.547 154.311 101.208 153.896 101.208C153.481 101.208 153.2 101.547 153.2 102.358C153.2 103.169 153.487 103.507 153.896 103.507C154.304 103.507 154.592 103.169 154.592 102.358Z"
        fill="white" />
    <path
        d="M158.773 103.015C158.77 103.184 158.731 103.351 158.66 103.504C158.589 103.658 158.487 103.795 158.361 103.907C158.234 104.019 158.086 104.104 157.925 104.156C157.764 104.208 157.594 104.226 157.426 104.209C156.436 104.209 155.823 103.571 155.823 102.434C155.798 102.184 155.827 101.931 155.909 101.694C155.99 101.456 156.122 101.239 156.296 101.057C156.469 100.875 156.68 100.732 156.914 100.639C157.147 100.547 157.398 100.505 157.649 100.519C157.997 100.507 158.342 100.591 158.646 100.761L158.339 101.4C158.139 101.274 157.905 101.212 157.669 101.221C157.531 101.212 157.393 101.233 157.265 101.283C157.136 101.332 157.02 101.409 156.924 101.508C156.828 101.607 156.754 101.726 156.709 101.856C156.663 101.986 156.646 102.125 156.66 102.262C156.779 102.152 156.919 102.067 157.071 102.012C157.224 101.957 157.385 101.933 157.547 101.943C157.699 101.929 157.851 101.947 157.996 101.994C158.141 102.042 158.274 102.118 158.389 102.218C158.503 102.318 158.596 102.44 158.662 102.577C158.728 102.714 158.766 102.863 158.773 103.015ZM157.975 103.06C157.975 102.984 157.958 102.908 157.927 102.838C157.895 102.769 157.849 102.707 157.792 102.656C157.735 102.605 157.667 102.567 157.594 102.545C157.521 102.522 157.444 102.515 157.369 102.524C157.291 102.513 157.211 102.519 157.136 102.54C157.06 102.562 156.99 102.599 156.93 102.65C156.87 102.7 156.821 102.763 156.787 102.834C156.752 102.904 156.733 102.981 156.73 103.06C156.73 103.366 156.96 103.59 157.369 103.59C157.444 103.6 157.521 103.594 157.594 103.572C157.667 103.55 157.734 103.512 157.792 103.462C157.849 103.412 157.895 103.35 157.927 103.281C157.958 103.211 157.975 103.136 157.975 103.06Z"
        fill="white" />
    <path d="M160.433 99.8481H161.148L159.463 104.656H158.754L160.433 99.8481Z" fill="white" />
    <path
        d="M163.792 103.469V104.146H161.072V103.609L162.451 102.332C162.77 102.032 162.828 101.847 162.828 101.694C162.828 101.413 162.63 101.247 162.253 101.247C162.11 101.241 161.967 101.271 161.838 101.334C161.709 101.396 161.597 101.489 161.512 101.604L160.912 101.221C161.077 101.006 161.293 100.835 161.54 100.723C161.788 100.612 162.059 100.563 162.33 100.582C163.128 100.582 163.658 100.991 163.658 101.636C163.654 101.858 163.598 102.075 163.495 102.271C163.392 102.468 163.244 102.637 163.064 102.766L162.24 103.539L163.792 103.469Z"
        fill="white" />
    <path
        d="M167.356 103.392H166.775V104.145H165.97V103.392H164.055V102.836L165.74 100.57H166.609L165.044 102.722H166.009V102.045H166.788V102.715H167.369L167.356 103.392Z"
        fill="white" />
    <g opacity="0.2">
        <path
            d="M152.383 72.4677C152.033 71.2087 151.253 70.1119 150.179 69.3677C149.105 68.6236 147.804 68.279 146.502 68.3939C145.681 68.4404 144.875 68.6306 144.12 68.9558C142.262 69.7859 140.966 71.9888 141.566 73.93C142.071 75.5136 143.61 76.5225 145.136 77.1865C146.662 77.8506 148.603 78.3423 150.18 77.6016C150.925 77.207 151.54 76.6063 151.952 75.8714C152.364 75.1365 152.556 74.2985 152.504 73.4575C152.496 73.1244 152.455 72.793 152.383 72.4677Z"
            fill="white" />
    </g>
    <g opacity="0.2">
        <path
            d="M174.48 56.549H90.1934C89.8005 56.5489 89.4113 56.6265 89.0484 56.777C88.6854 56.9276 88.3557 57.1483 88.0781 57.4265C87.8005 57.7046 87.5805 58.0348 87.4307 58.3981C87.2809 58.7614 87.2042 59.1507 87.2051 59.5437V74.6515C92.5241 78.3677 99.8353 79.019 106.323 77.6653C113.985 76.0626 120.888 72.1548 128.033 68.9493C135.178 65.7439 142.981 63.2025 150.676 64.4796C157.942 65.7247 164.136 70.2264 170.7 73.5979C172.858 74.7133 175.115 75.624 177.443 76.318V59.5437C177.443 58.7549 177.132 57.998 176.577 57.4373C176.022 56.8766 175.269 56.5574 174.48 56.549Z"
            fill="white" />
    </g>
</svg>
    