<svg width="268" height="250" viewBox="0 0 268 250" fill="none" xmlns="http://www.w3.org/2000/svg">
    <path
        d="M253.823 46.6998C243.05 29.1682 225.086 17.1001 204.694 14.3375C196.754 13.2494 188.687 13.5268 180.841 15.1577C157.476 20.0909 137.145 37.5485 128.715 59.8962C123.782 73.0372 122.376 88.17 112.966 98.6039C100.725 112.17 79.9435 112.608 61.672 112.047C43.4004 111.486 22.6005 111.961 10.4215 125.614C2.80574 134.13 0.339106 146.272 0.955765 157.704C2.58374 187.97 23.9448 215.054 51.1086 228.485C78.2724 241.915 110.252 243.142 139.981 237.229C181.637 228.935 221.257 206.174 245.06 171.006C267.741 137.509 274.283 92.4373 258.374 55.4378C257.072 52.4181 255.551 49.4976 253.823 46.6998Z"
        fill="#DCEEEC" />
    <path
        d="M174.435 250L91.8834 249.617C81.9552 249.574 73.9448 241.268 74.0003 231.062L74.8944 18.4013C74.9376 8.19561 83.022 -0.0491124 92.9564 0.000220238L175.508 0.38255C185.437 0.425716 193.447 8.73211 193.392 18.9378L192.491 231.599C192.454 241.804 184.37 250.049 174.435 250Z"
        fill="#2B2A29" />
    <path
        d="M186.849 194.266C186.849 194.626 186.742 194.978 186.542 195.277C186.342 195.577 186.058 195.81 185.725 195.947C185.392 196.085 185.026 196.121 184.673 196.05C184.32 195.979 183.996 195.805 183.742 195.55C183.487 195.295 183.315 194.971 183.245 194.617C183.176 194.264 183.213 193.898 183.351 193.566C183.49 193.233 183.724 192.95 184.024 192.751C184.324 192.551 184.676 192.446 185.036 192.447C185.518 192.449 185.979 192.641 186.319 192.982C186.658 193.323 186.849 193.785 186.849 194.266Z"
        fill="#E0E0E0" />
    <path
        d="M185.035 198.256C184.822 196.935 184.822 195.587 185.035 194.266C185.249 195.587 185.249 196.935 185.035 198.256Z"
        fill="#E0E0E0" />
    <path
        d="M177.155 7.4001L160.647 7.33843C160.108 7.34806 159.577 7.4637 159.083 7.67873C158.589 7.89376 158.143 8.20398 157.769 8.59166C157.395 8.97934 157.101 9.43689 156.904 9.93818C156.707 10.4395 156.61 10.9747 156.62 11.5132V14.504C156.637 15.5895 156.222 16.6373 155.467 17.4176C154.712 18.1979 153.679 18.647 152.593 18.6665L120.41 18.5185C119.323 18.4878 118.292 18.0271 117.544 17.2376C116.796 16.448 116.392 15.3939 116.42 14.3067V11.3159C116.435 10.7773 116.344 10.2411 116.151 9.73791C115.958 9.23471 115.669 8.77439 115.298 8.38325C114.928 7.99211 114.484 7.67782 113.992 7.45834C113.5 7.23886 112.969 7.11848 112.43 7.1041H106.622L92.1609 7.01161C90.4534 7.00349 88.761 7.33219 87.1807 7.97889C85.6003 8.62559 84.163 9.5776 82.9511 10.7804C81.7391 11.9833 80.7762 13.4133 80.1175 14.9887C79.4588 16.5641 79.1173 18.2539 79.1124 19.9614L78.2306 228.324C78.2225 230.032 78.5512 231.724 79.1979 233.304C79.8446 234.885 80.7966 236.322 81.9994 237.534C83.2023 238.746 84.6323 239.709 86.2077 240.368C87.7831 241.026 89.4729 241.368 91.1804 241.373L176.162 241.767C177.869 241.775 179.561 241.445 181.141 240.798C182.721 240.151 184.158 239.199 185.37 237.997C186.582 236.794 187.545 235.364 188.204 233.789C188.863 232.214 189.205 230.525 189.211 228.818L190.086 20.4486C190.099 17.0042 188.745 13.6954 186.32 11.2488C183.896 8.8023 180.599 7.41805 177.155 7.4001Z"
        fill="#FAFAFA" />
    <path
        d="M83.8857 171.826C84.6133 171.283 120.151 155.626 120.151 155.626L78.6379 134.919L78.4961 168.286L83.8857 171.826Z"
        fill="#EBEBEB" />
    <path
        d="M86.0542 134.278L116.338 118.886L83.7972 100.842L78.7776 102.1L78.6543 131.293L86.0542 134.278Z"
        fill="#2CA89A" />
    <path opacity="0.7"
        d="M86.0542 134.278L116.338 118.886L83.7972 100.842L78.7776 102.1L78.6543 131.293L86.0542 134.278Z"
        fill="white" />
    <path d="M79.8691 98.7457L173.213 55.148L80.7325 24.9255L79.8691 98.7457Z" fill="#EBEBEB" />
    <path
        d="M78.7852 212.285L121.439 190.394L184.937 227.751L169.81 241.015H115.624L78.7852 218.501V212.285Z"
        fill="#EBEBEB" />
    <path
        d="M129.838 188.026L182.587 219.302L188.47 218.636V188.562L159.561 173.263L129.838 188.026Z"
        fill="#EBEBEB" />
    <path d="M138.508 158.161L188.241 186.139V149.565L170.247 141.856L138.508 158.161Z"
        fill="#EBEBEB" />
    <path d="M85.3906 173.577L114.565 189.586L149.973 171.246L121.841 156.94L85.3906 173.577Z"
        fill="#EBEBEB" />
    <path
        d="M129.186 118.682L170.514 139.162L189.68 129.375L189.803 115.648L161.887 102.1L129.186 118.682Z"
        fill="#EBEBEB" />
    <path
        d="M86.9199 136.547L128.248 157.026L147.414 147.24L147.537 133.513L119.615 119.965L86.9199 136.547Z"
        fill="#EBEBEB" />
    <path d="M92.6426 99.7386L126.324 116.604L157.737 99.7386L125.19 84.8895L92.6426 99.7386Z"
        fill="#EBEBEB" />
    <path
        d="M157.735 207.518C157.521 207.433 157.315 207.33 157.118 207.21L155.379 206.229L148.689 202.363L123.924 187.841L123.412 187.538L123.942 187.267L156.434 170.753V171.505L132.174 158.555L131.41 158.148L132.181 157.741L165.875 140.056V140.913L161.854 138.878L86.3752 100.583L85.666 100.226L86.3875 99.8804L126.47 80.764L137.57 75.5286L140.493 74.1842L141.252 73.8512C141.337 73.8112 141.425 73.7802 141.517 73.7588C141.444 73.8192 141.363 73.869 141.276 73.9067L140.549 74.2891L137.656 75.7876L126.631 81.2203L86.7267 100.627V99.8989L162.286 138.027L166.306 140.062L167.139 140.487L166.313 140.919L132.594 158.568V157.754L156.822 170.753L157.538 171.135L156.816 171.499L124.226 187.853V187.279L148.843 202.079L155.441 206.094L157.137 207.154C157.348 207.255 157.548 207.377 157.735 207.518Z"
        fill="#2CA89A" />
    <path
        d="M150.49 53.9825C150.49 47.8159 144.027 43.931 137.435 47.0143C135.946 47.7112 134.728 48.8794 133.97 50.3381C132.311 53.5508 133.045 57.22 134.543 60.2663L139.674 73.2654C139.834 73.6814 140.117 74.039 140.485 74.2912C140.852 74.5434 141.288 74.6784 141.733 74.6784C142.179 74.6784 142.615 74.5434 142.982 74.2912C143.35 74.039 143.633 73.6814 143.793 73.2654L148.819 60.1984C150.564 56.2025 150.49 53.9825 150.49 53.9825ZM144.323 59.3351C139.89 61.9127 135.4 57.1521 137.83 52.4532C138.149 51.8332 138.636 51.3159 139.236 50.9609C143.67 48.3833 148.159 53.1438 145.729 57.8428C145.404 58.4661 144.908 58.9837 144.299 59.3351H144.323Z"
        fill="#2CA89A" />
    <path d="M140.65 121.285L140.502 114.02L159.44 123.19V130.738L140.65 121.285Z" fill="#F5F5F5" />
    <path d="M159.438 123.19L182.957 111.504V119.638L159.438 130.738V123.19Z" fill="#E0E0E0" />
    <path d="M140.502 114.02L163.583 102.477L182.959 111.504L159.44 123.19L140.502 114.02Z"
        fill="#F5F5F5" />
    <path d="M142.973 117.159V120.68L144.823 121.513V118.146L142.973 117.159Z" fill="#FAFAFA" />
    <path d="M145.934 118.46V121.988L147.79 122.82V119.453L145.934 118.46Z" fill="#FAFAFA" />
    <path d="M81.0664 75.4484V65.995L103.482 76.8544V85.7836L81.0664 75.4484Z" fill="#E0E0E0" />
    <path d="M103.482 76.8544L131.331 63.0165V72.6487L103.482 85.7836V76.8544Z" fill="#F5F5F5" />
    <path d="M81.0664 65.995L108.384 52.336L131.33 63.0165L103.482 76.8544L81.0664 65.995Z"
        fill="#FAFAFA" />
    <path d="M83.9961 69.7073V73.8821L86.1852 74.8687V70.879L83.9961 69.7073Z" fill="#FAFAFA" />
    <path d="M87.5 71.2551V75.4237L89.6953 76.4165V72.4268L87.5 71.2551Z" fill="#FAFAFA" />
    <path d="M148.641 154.467V161.916L156.657 165.857V158.161L148.641 154.467Z" fill="#E0E0E0" />
    <path d="M166.833 153.283L156.627 158.161V165.857L166.833 160.159V153.283Z" fill="#E0E0E0" />
    <path d="M148.641 154.467L158.754 149.565L166.832 153.283L156.626 158.161L148.641 154.467Z"
        fill="#F5F5F5" />
    <path d="M151.477 159.813V163.335L153.327 164.173V160.806L151.477 159.813Z" fill="#FAFAFA" />
    <path d="M84.1074 150.613V158.062L92.0931 162.003V154.307L84.1074 150.613Z" fill="#E0E0E0" />
    <path d="M102.306 149.429L92.0938 154.307V162.003L102.306 156.305V149.429Z" fill="#E0E0E0" />
    <path d="M84.1074 150.613L94.2268 145.71L102.305 149.429L92.0931 154.307L84.1074 150.613Z"
        fill="#F5F5F5" />
    <path d="M86.9434 155.959V159.48L88.7933 160.319V156.952L86.9434 155.959Z" fill="#FAFAFA" />
    <path d="M117.229 101.441V108.896L125.214 112.836V105.141L117.229 101.441Z" fill="#F5F5F5" />
    <path d="M135.425 100.263L125.213 105.141V112.836L135.425 107.138V100.263Z" fill="#E0E0E0" />
    <path d="M117.229 101.441L127.348 96.5443L135.426 100.263L125.214 105.141L117.229 101.441Z"
        fill="#F5F5F5" />
    <path d="M120.066 106.793V110.314L121.916 111.153V107.78L120.066 106.793Z" fill="#E0E0E0" />
    <path d="M108.348 165.283V172.739L116.333 176.673V168.983L108.348 165.283Z" fill="#E0E0E0" />
    <path d="M126.546 164.099L116.34 168.983V176.673L126.546 170.981V164.099Z" fill="#EBEBEB" />
    <path d="M108.348 165.283L118.467 160.387L126.545 164.099L116.34 168.983L108.348 165.283Z"
        fill="#F5F5F5" />
    <path d="M111.184 170.63V174.157L113.034 174.989V171.622L111.184 170.63Z" fill="#FAFAFA" />
    <path d="M141.326 183.283V192.626L158.142 202.536V192.891L141.326 183.283Z" fill="#F5F5F5" />
    <path d="M170.964 185.997L158.162 192.891V202.536L170.964 195.395V185.997Z" fill="#E0E0E0" />
    <path d="M141.326 183.277L154.017 177.135L170.963 185.997L158.161 192.891L141.326 183.277Z"
        fill="#FAFAFA" />
    <path d="M147.686 191.923V196.338L150.01 197.732V193.366L147.686 191.923Z" fill="#FAFAFA" />
    <path d="M100.832 202.511V211.853L117.667 221.769V212.118L100.832 202.511Z" fill="#E0E0E0" />
    <path d="M137.757 201.234L117.666 212.118V221.769L137.812 210.601L137.757 201.234Z"
        fill="#FAFAFA" />
    <path d="M100.832 202.511L122.082 192.219L137.813 201.271L117.667 212.118L100.832 202.511Z"
        fill="#F5F5F5" />
    <path d="M107.189 211.15V215.572L109.508 216.965V212.593L107.189 211.15Z" fill="#FAFAFA" />
    <path d="M164.557 167.577V204.891L175.065 210.324V172.541L164.557 167.577Z" fill="#F5F5F5" />
    <path d="M172.32 164.001L164.557 167.577L175.065 172.541L182.131 168.558L172.32 164.001Z"
        fill="#FAFAFA" />
    <path d="M175.064 172.541V210.324L181.459 206.883L182.131 168.558L175.064 172.541Z"
        fill="#E0E0E0" />
    <path d="M120.15 137.355V174.669L130.658 180.101V142.319L120.15 137.355Z" fill="#F5F5F5" />
    <path d="M127.908 133.772L120.15 137.355L130.658 142.319L137.725 138.335L127.908 133.772Z"
        fill="#FAFAFA" />
    <path d="M130.66 142.319V180.102L137.049 176.95L137.727 138.335L130.66 142.319Z" fill="#E0E0E0" />
    <path d="M124.918 208.314V217.656L141.759 227.572V217.927L124.918 208.314Z" fill="#E0E0E0" />
    <path d="M154.553 211.033L141.758 217.927V227.572L154.553 220.431V211.033Z" fill="#FAFAFA" />
    <path d="M124.918 208.314L137.757 201.234L154.555 211.033L141.759 217.927L124.918 208.314Z"
        fill="#F5F5F5" />
    <path d="M131.275 216.953V221.374L133.6 222.768V218.396L131.275 216.953Z" fill="#FAFAFA" />
    <path d="M162.359 96.9266L131.699 83.1073L174.397 61.3763L188.407 82.2687L162.359 96.9266Z"
        fill="#EBEBEB" />
    <path d="M189.654 109.617L189.864 85.6911L166.092 99.2206L189.654 109.617Z" fill="#2CA89A" />
    <path
        d="M171.593 133.581C171.587 133.939 171.475 134.288 171.272 134.583C171.068 134.878 170.782 135.106 170.449 135.239C170.116 135.372 169.751 135.404 169.401 135.33C169.05 135.257 168.728 135.081 168.477 134.825C168.226 134.57 168.056 134.246 167.988 133.894C167.92 133.542 167.958 133.178 168.096 132.847C168.235 132.516 168.468 132.234 168.767 132.035C169.065 131.837 169.415 131.731 169.774 131.731C170.259 131.739 170.722 131.937 171.062 132.283C171.402 132.63 171.593 133.095 171.593 133.581Z"
        fill="#E0E0E0" />
    <path
        d="M169.774 137.571C169.56 136.249 169.56 134.902 169.774 133.581C169.987 134.902 169.987 136.249 169.774 137.571Z"
        fill="#E0E0E0" />
    <path
        d="M121.971 129.122C121.971 129.488 121.863 129.846 121.66 130.15C121.456 130.454 121.167 130.692 120.829 130.832C120.491 130.972 120.119 131.008 119.761 130.937C119.402 130.865 119.072 130.689 118.813 130.431C118.555 130.172 118.378 129.842 118.307 129.483C118.236 129.124 118.272 128.752 118.412 128.414C118.552 128.076 118.789 127.787 119.094 127.584C119.398 127.381 119.756 127.272 120.121 127.272C120.366 127.268 120.608 127.313 120.834 127.405C121.061 127.496 121.266 127.632 121.439 127.805C121.612 127.978 121.748 128.183 121.839 128.41C121.931 128.636 121.976 128.878 121.971 129.122Z"
        fill="#E0E0E0" />
    <path
        d="M120.151 133.137C119.937 131.815 119.937 130.468 120.151 129.147C120.364 130.468 120.364 131.815 120.151 133.137Z"
        fill="#E0E0E0" />
    <path
        d="M97.6617 154.516C97.6617 154.876 97.555 155.228 97.3551 155.527C97.1553 155.826 96.8711 156.059 96.5387 156.197C96.2063 156.335 95.8406 156.371 95.4877 156.301C95.1348 156.23 94.8107 156.057 94.5562 155.803C94.3018 155.548 94.1286 155.224 94.0584 154.871C93.9882 154.518 94.0242 154.153 94.1619 153.82C94.2996 153.488 94.5328 153.204 94.8319 153.004C95.1311 152.804 95.4828 152.697 95.8426 152.697C96.325 152.697 96.7878 152.889 97.1289 153.23C97.4701 153.571 97.6617 154.034 97.6617 154.516Z"
        fill="#E0E0E0" />
    <path
        d="M95.8615 158.506C95.6477 157.185 95.6477 155.838 95.8615 154.516C96.0752 155.838 96.0752 157.185 95.8615 158.506Z"
        fill="#E0E0E0" />
    <path
        d="M99.4801 134.919C99.48 135.277 99.3741 135.628 99.1755 135.926C98.977 136.225 98.6946 136.458 98.364 136.596C98.0334 136.735 97.6692 136.773 97.3172 136.705C96.9652 136.637 96.6411 136.467 96.3855 136.216C96.1299 135.964 95.9542 135.643 95.8806 135.292C95.807 134.942 95.8386 134.577 95.9716 134.244C96.1046 133.911 96.3329 133.625 96.628 133.421C96.9231 133.218 97.2717 133.106 97.6301 133.1C97.8716 133.096 98.1115 133.14 98.3357 133.229C98.56 133.319 98.7642 133.452 98.9364 133.622C99.1086 133.791 99.2454 133.993 99.3387 134.216C99.4321 134.438 99.4801 134.677 99.4801 134.919Z"
        fill="#E0E0E0" />
    <path
        d="M97.6603 138.909C97.4466 137.587 97.4466 136.24 97.6603 134.919C97.874 136.24 97.874 137.587 97.6603 138.909Z"
        fill="#E0E0E0" />
    <path
        d="M144.373 133.137C144.381 133.506 144.278 133.868 144.078 134.178C143.877 134.487 143.589 134.73 143.25 134.875C142.911 135.02 142.536 135.06 142.174 134.99C141.812 134.921 141.479 134.744 141.218 134.484C140.957 134.224 140.779 133.891 140.708 133.529C140.637 133.167 140.676 132.793 140.82 132.453C140.964 132.113 141.205 131.824 141.514 131.623C141.823 131.422 142.186 131.318 142.554 131.324C143.036 131.324 143.497 131.515 143.838 131.854C144.179 132.194 144.372 132.655 144.373 133.137Z"
        fill="#E0E0E0" />
    <path
        d="M142.553 137.108C142.339 135.787 142.339 134.44 142.553 133.118C142.767 134.44 142.767 135.787 142.553 137.108Z"
        fill="#E0E0E0" />
    <path
        d="M173.103 146.746C173.103 147.106 172.996 147.458 172.797 147.757C172.597 148.056 172.313 148.289 171.98 148.427C171.648 148.565 171.282 148.601 170.929 148.531C170.576 148.46 170.252 148.287 169.998 148.033C169.743 147.778 169.57 147.454 169.5 147.101C169.43 146.748 169.466 146.383 169.603 146.05C169.741 145.718 169.974 145.434 170.273 145.234C170.572 145.034 170.924 144.927 171.284 144.927C171.766 144.927 172.229 145.119 172.57 145.46C172.911 145.801 173.103 146.264 173.103 146.746Z"
        fill="#E0E0E0" />
    <path
        d="M171.285 150.736C171.072 149.415 171.072 148.068 171.285 146.746C171.499 148.068 171.499 149.415 171.285 150.736Z"
        fill="#E0E0E0" />
    <path
        d="M174.263 157.446C174.263 157.805 174.157 158.157 173.957 158.456C173.757 158.755 173.473 158.988 173.14 159.126C172.808 159.264 172.442 159.3 172.089 159.23C171.736 159.16 171.412 158.986 171.158 158.732C170.903 158.477 170.73 158.153 170.66 157.8C170.59 157.448 170.626 157.082 170.763 156.749C170.901 156.417 171.134 156.133 171.433 155.933C171.733 155.733 172.084 155.626 172.444 155.626C172.927 155.626 173.389 155.818 173.73 156.159C174.072 156.5 174.263 156.963 174.263 157.446Z"
        fill="#E0E0E0" />
    <path
        d="M172.445 161.435C172.232 160.114 172.232 158.767 172.445 157.445C172.659 158.767 172.659 160.114 172.445 161.435Z"
        fill="#E0E0E0" />
    <path
        d="M123.259 179.645C123.259 180.004 123.153 180.354 122.955 180.653C122.756 180.951 122.474 181.184 122.143 181.323C121.813 181.461 121.449 181.499 121.097 181.431C120.745 181.364 120.42 181.193 120.165 180.942C119.909 180.691 119.734 180.369 119.66 180.019C119.586 179.668 119.618 179.303 119.751 178.97C119.884 178.637 120.112 178.351 120.407 178.147C120.702 177.944 121.051 177.832 121.409 177.826C121.651 177.822 121.891 177.866 122.115 177.956C122.339 178.045 122.544 178.178 122.716 178.348C122.888 178.517 123.025 178.719 123.118 178.942C123.211 179.165 123.259 179.404 123.259 179.645Z"
        fill="#E0E0E0" />
    <path
        d="M121.44 183.635C121.226 182.314 121.226 180.967 121.44 179.645C121.653 180.967 121.653 182.314 121.44 183.635Z"
        fill="#E0E0E0" />
    <path
        d="M181.2 213.179C182.205 213.179 183.019 212.365 183.019 211.36C183.019 210.355 182.205 209.541 181.2 209.541C180.195 209.541 179.381 210.355 179.381 211.36C179.381 212.365 180.195 213.179 181.2 213.179Z"
        fill="#E0E0E0" />
    <path
        d="M181.199 215.35C180.986 214.028 180.986 212.681 181.199 211.36C181.413 212.681 181.413 214.028 181.199 215.35Z"
        fill="#E0E0E0" />
    <path
        d="M148.276 231.253C148.282 231.622 148.178 231.984 147.977 232.293C147.776 232.601 147.487 232.843 147.148 232.987C146.809 233.131 146.434 233.17 146.073 233.1C145.711 233.029 145.379 232.853 145.118 232.592C144.857 232.331 144.681 231.999 144.61 231.637C144.54 231.276 144.579 230.901 144.723 230.562C144.867 230.223 145.109 229.934 145.418 229.733C145.726 229.532 146.088 229.428 146.457 229.434C146.939 229.434 147.402 229.626 147.743 229.967C148.084 230.308 148.276 230.771 148.276 231.253Z"
        fill="#E0E0E0" />
    <path
        d="M146.428 235.243C146.214 233.922 146.214 232.575 146.428 231.253C146.642 232.575 146.642 233.922 146.428 235.243Z"
        fill="#E0E0E0" />
    <path
        d="M134.254 225.759C134.254 226.119 134.147 226.47 133.947 226.77C133.747 227.069 133.463 227.302 133.131 227.44C132.798 227.577 132.432 227.613 132.079 227.543C131.727 227.473 131.402 227.3 131.148 227.045C130.894 226.791 130.72 226.467 130.65 226.114C130.58 225.761 130.616 225.395 130.754 225.063C130.891 224.73 131.125 224.446 131.424 224.246C131.723 224.046 132.075 223.94 132.434 223.94C132.917 223.94 133.38 224.131 133.721 224.473C134.062 224.814 134.254 225.276 134.254 225.759Z"
        fill="#E0E0E0" />
    <path
        d="M132.436 229.749C132.222 228.427 132.222 227.08 132.436 225.759C132.658 227.08 132.658 228.428 132.436 229.749Z"
        fill="#E0E0E0" />
    <path
        d="M166.376 221.769C166.376 222.135 166.267 222.493 166.064 222.797C165.861 223.101 165.572 223.338 165.234 223.478C164.896 223.618 164.524 223.655 164.165 223.584C163.806 223.512 163.476 223.336 163.218 223.077C162.959 222.819 162.783 222.489 162.711 222.13C162.64 221.771 162.677 221.399 162.817 221.061C162.957 220.723 163.194 220.434 163.498 220.231C163.802 220.028 164.16 219.919 164.526 219.919C164.77 219.915 165.012 219.96 165.239 220.051C165.465 220.143 165.671 220.279 165.843 220.452C166.016 220.624 166.152 220.83 166.243 221.056C166.335 221.283 166.38 221.525 166.376 221.769Z"
        fill="#E0E0E0" />
    <path
        d="M164.557 225.759C164.343 224.438 164.343 223.09 164.557 221.769C164.771 223.09 164.771 224.438 164.557 225.759Z"
        fill="#E0E0E0" />
    <path
        d="M137.171 188.556C138.175 188.556 138.99 187.741 138.99 186.737C138.99 185.732 138.175 184.918 137.171 184.918C136.166 184.918 135.352 185.732 135.352 186.737C135.352 187.741 136.166 188.556 137.171 188.556Z"
        fill="#E0E0E0" />
    <path
        d="M137.178 190.727C136.964 189.405 136.964 188.058 137.178 186.737C137.392 188.058 137.392 189.405 137.178 190.727Z"
        fill="#E0E0E0" />
    <path
        d="M143.578 168.983C143.578 169.343 143.471 169.695 143.271 169.994C143.071 170.293 142.787 170.526 142.455 170.664C142.122 170.801 141.757 170.838 141.404 170.767C141.051 170.697 140.727 170.524 140.472 170.269C140.218 170.015 140.045 169.691 139.974 169.338C139.904 168.985 139.94 168.619 140.078 168.287C140.216 167.955 140.449 167.67 140.748 167.471C141.047 167.271 141.399 167.164 141.759 167.164C142.241 167.164 142.704 167.356 143.045 167.697C143.386 168.038 143.578 168.501 143.578 168.983Z"
        fill="#E0E0E0" />
    <path
        d="M141.758 172.973C141.544 171.652 141.544 170.304 141.758 168.983C141.972 170.304 141.972 171.652 141.758 172.973Z"
        fill="#E0E0E0" />
    <path
        d="M99.4801 170.981C99.48 171.34 99.3741 171.69 99.1755 171.988C98.977 172.287 98.6946 172.52 98.364 172.659C98.0334 172.797 97.6692 172.835 97.3172 172.767C96.9652 172.699 96.6411 172.529 96.3855 172.278C96.1299 172.027 95.9542 171.705 95.8806 171.355C95.807 171.004 95.8386 170.639 95.9716 170.306C96.1046 169.973 96.3329 169.687 96.628 169.483C96.9231 169.28 97.2717 169.168 97.6301 169.162C97.8716 169.158 98.1115 169.202 98.3357 169.291C98.56 169.381 98.7642 169.514 98.9364 169.684C99.1086 169.853 99.2454 170.055 99.3387 170.278C99.4321 170.5 99.4801 170.74 99.4801 170.981Z"
        fill="#E0E0E0" />
    <path
        d="M97.6603 174.971C97.4466 173.65 97.4466 172.302 97.6603 170.981C97.874 172.302 97.874 173.65 97.6603 174.971Z"
        fill="#E0E0E0" />
    <path
        d="M183.482 154.516C183.482 154.876 183.375 155.228 183.175 155.527C182.976 155.826 182.691 156.059 182.359 156.197C182.027 156.335 181.661 156.371 181.308 156.301C180.955 156.23 180.631 156.057 180.377 155.803C180.122 155.548 179.949 155.224 179.879 154.871C179.809 154.518 179.845 154.153 179.982 153.82C180.12 153.488 180.353 153.204 180.652 153.004C180.951 152.804 181.303 152.697 181.663 152.697C182.145 152.697 182.608 152.889 182.949 153.23C183.29 153.571 183.482 154.034 183.482 154.516Z"
        fill="#E0E0E0" />
    <path
        d="M181.662 158.506C181.449 157.185 181.449 155.838 181.662 154.516C181.876 155.838 181.876 157.185 181.662 158.506Z"
        fill="#E0E0E0" />
    <path
        d="M178.603 127.303C178.603 127.663 178.496 128.015 178.297 128.314C178.097 128.613 177.813 128.846 177.48 128.984C177.148 129.122 176.782 129.158 176.429 129.087C176.076 129.017 175.752 128.844 175.498 128.59C175.243 128.335 175.07 128.011 175 127.658C174.93 127.305 174.966 126.939 175.103 126.607C175.241 126.275 175.474 125.991 175.773 125.791C176.072 125.591 176.424 125.484 176.784 125.484C177.266 125.484 177.729 125.676 178.07 126.017C178.411 126.358 178.603 126.821 178.603 127.303Z"
        fill="#E0E0E0" />
    <path
        d="M176.785 131.287C176.572 129.966 176.572 128.618 176.785 127.297C176.999 128.618 176.999 129.966 176.785 131.287Z"
        fill="#E0E0E0" />
    <path
        d="M139.95 105.073C140.955 105.073 141.769 104.258 141.769 103.254C141.769 102.249 140.955 101.434 139.95 101.434C138.945 101.434 138.131 102.249 138.131 103.254C138.131 104.258 138.945 105.073 139.95 105.073Z"
        fill="#E0E0E0" />
    <path
        d="M139.952 107.237C139.73 105.916 139.73 104.568 139.952 103.247C140.165 104.569 140.165 105.916 139.952 107.237Z"
        fill="#E0E0E0" />
    <path
        d="M106.99 137.571C106.99 137.929 106.884 138.28 106.685 138.578C106.487 138.876 106.204 139.11 105.874 139.248C105.543 139.387 105.179 139.424 104.827 139.357C104.475 139.289 104.151 139.119 103.895 138.867C103.64 138.616 103.464 138.295 103.39 137.944C103.317 137.593 103.348 137.228 103.481 136.896C103.614 136.563 103.843 136.276 104.138 136.073C104.433 135.869 104.781 135.758 105.14 135.751C105.381 135.747 105.621 135.791 105.846 135.881C106.07 135.971 106.274 136.104 106.446 136.273C106.618 136.443 106.755 136.645 106.848 136.867C106.942 137.09 106.99 137.329 106.99 137.571Z"
        fill="#E0E0E0" />
    <path
        d="M105.172 141.56C104.958 140.239 104.958 138.892 105.172 137.571C105.394 138.891 105.394 140.24 105.172 141.56Z"
        fill="#E0E0E0" />
    <path
        d="M128.366 90.2728C128.366 90.6387 128.257 90.9964 128.054 91.3006C127.851 91.6049 127.562 91.842 127.224 91.982C126.886 92.122 126.514 92.1587 126.155 92.0873C125.796 92.0159 125.467 91.8397 125.208 91.581C124.949 91.3222 124.773 90.9926 124.702 90.6338C124.63 90.2749 124.667 89.9029 124.807 89.5649C124.947 89.2269 125.184 88.9379 125.488 88.7346C125.792 88.5314 126.15 88.4229 126.516 88.4229C126.76 88.4187 127.003 88.4637 127.229 88.5552C127.455 88.6467 127.661 88.7828 127.833 88.9554C128.006 89.128 128.142 89.3336 128.234 89.56C128.325 89.7863 128.37 90.0288 128.366 90.2728Z"
        fill="#E0E0E0" />
    <path
        d="M126.547 94.2873C126.333 92.966 126.333 91.6189 126.547 90.2975C126.761 91.6189 126.761 92.966 126.547 94.2873Z"
        fill="#E0E0E0" />
    <path
        d="M165.456 86.2708C165.45 86.6292 165.338 86.9778 165.135 87.2729C164.931 87.568 164.645 87.7963 164.312 87.9293C163.979 88.0623 163.615 88.0939 163.264 88.0203C162.913 87.9467 162.592 87.771 162.34 87.5154C162.089 87.2598 161.919 86.9357 161.851 86.5836C161.783 86.2316 161.821 85.8675 161.96 85.5368C162.098 85.2062 162.331 84.9239 162.63 84.7254C162.928 84.5268 163.279 84.4208 163.637 84.4208C163.879 84.4208 164.118 84.4688 164.341 84.5622C164.563 84.6555 164.765 84.7923 164.935 84.9645C165.104 85.1367 165.237 85.3409 165.327 85.5651C165.416 85.7894 165.46 86.0293 165.456 86.2708Z"
        fill="#E0E0E0" />
    <path
        d="M163.637 90.2729C163.423 88.9515 163.423 87.6044 163.637 86.2831C163.851 87.6044 163.851 88.9515 163.637 90.2729Z"
        fill="#E0E0E0" />
    <path
        d="M175.712 84.6057C175.712 84.9729 175.602 85.3318 175.398 85.6367C175.193 85.9415 174.902 86.1786 174.562 86.3176C174.222 86.4567 173.849 86.4915 173.489 86.4176C173.13 86.3437 172.8 86.1644 172.543 85.9026C172.285 85.6408 172.111 85.3083 172.044 84.9474C171.976 84.5865 172.017 84.2136 172.162 83.8762C172.306 83.5387 172.548 83.252 172.856 83.0524C173.165 82.8529 173.525 82.7497 173.893 82.7558C174.134 82.7557 174.373 82.8038 174.596 82.8971C174.819 82.9905 175.021 83.1272 175.19 83.2994C175.359 83.4716 175.493 83.6758 175.582 83.9001C175.672 84.1244 175.716 84.3643 175.712 84.6057Z"
        fill="#E0E0E0" />
    <path
        d="M173.893 88.5955C173.679 87.2742 173.679 85.9271 173.893 84.6058C174.106 85.9271 174.106 87.2742 173.893 88.5955Z"
        fill="#E0E0E0" />
    <path
        d="M171.593 71.1873C171.593 71.5471 171.487 71.8988 171.287 72.198C171.087 72.4971 170.803 72.7303 170.47 72.868C170.138 73.0057 169.772 73.0417 169.419 72.9715C169.066 72.9013 168.742 72.7281 168.488 72.4736C168.233 72.2192 168.06 71.8951 167.99 71.5422C167.92 71.1893 167.956 70.8236 168.094 70.4912C168.231 70.1588 168.464 69.8746 168.764 69.6748C169.063 69.4749 169.414 69.3682 169.774 69.3682C170.254 69.3761 170.712 69.5703 171.052 69.9098C171.391 70.2492 171.585 70.7073 171.593 71.1873Z"
        fill="#E0E0E0" />
    <path
        d="M169.774 75.1709C169.56 73.8496 169.56 72.5025 169.774 71.1811C169.987 72.5025 169.987 73.8496 169.774 75.1709Z"
        fill="#E0E0E0" />
    <path
        d="M114.47 102.1C114.47 102.459 114.364 102.809 114.166 103.108C113.967 103.406 113.685 103.639 113.354 103.778C113.024 103.916 112.659 103.954 112.307 103.887C111.955 103.819 111.631 103.649 111.376 103.397C111.12 103.146 110.944 102.825 110.871 102.474C110.797 102.123 110.829 101.758 110.962 101.425C111.095 101.092 111.323 100.806 111.618 100.603C111.913 100.399 112.262 100.287 112.62 100.281C112.862 100.277 113.102 100.321 113.326 100.411C113.55 100.5 113.754 100.634 113.927 100.803C114.099 100.972 114.236 101.174 114.329 101.397C114.422 101.62 114.47 101.859 114.47 102.1Z"
        fill="#E0E0E0" />
    <path
        d="M112.652 106.09C112.439 104.769 112.439 103.422 112.652 102.1C112.866 103.422 112.866 104.769 112.652 106.09Z"
        fill="#E0E0E0" />
    <path
        d="M156.75 84.8894C156.757 85.2579 156.652 85.6198 156.452 85.9287C156.251 86.2376 155.962 86.4794 155.623 86.6233C155.284 86.7671 154.909 86.8063 154.547 86.7359C154.186 86.6655 153.853 86.4887 153.593 86.2281C153.332 85.9676 153.155 85.6351 153.085 85.2734C153.014 84.9117 153.054 84.5372 153.198 84.198C153.341 83.8587 153.583 83.5701 153.892 83.3692C154.201 83.1683 154.563 83.0642 154.931 83.0703C155.414 83.0703 155.877 83.262 156.218 83.6031C156.559 83.9443 156.75 84.407 156.75 84.8894Z"
        fill="#E0E0E0" />
    <path
        d="M154.93 88.8792C154.716 87.5579 154.716 86.2108 154.93 84.8895C155.144 86.2108 155.144 87.5579 154.93 88.8792Z"
        fill="#E0E0E0" />
    <path
        d="M105.67 43.9186C105.676 44.2871 105.572 44.649 105.371 44.9579C105.171 45.2668 104.882 45.5086 104.543 45.6525C104.203 45.7963 103.829 45.8355 103.467 45.7651C103.106 45.6947 102.773 45.5179 102.513 45.2574C102.252 44.9968 102.075 44.6643 102.005 44.3026C101.934 43.9409 101.974 43.5664 102.117 43.2272C102.261 42.8879 102.503 42.5993 102.812 42.3984C103.121 42.1975 103.483 42.0934 103.851 42.0995C104.334 42.0995 104.796 42.2912 105.138 42.6323C105.479 42.9735 105.67 43.4362 105.67 43.9186Z"
        fill="#E0E0E0" />
    <path
        d="M103.876 47.9022C103.719 47.2508 103.665 46.5787 103.716 45.9104C103.665 45.2422 103.719 44.57 103.876 43.9186C104.038 44.5694 104.092 45.2422 104.037 45.9104C104.092 46.5787 104.038 47.2514 103.876 47.9022Z"
        fill="#E0E0E0" />
    <path
        d="M126.546 53.8777C126.546 54.2375 126.44 54.5892 126.24 54.8883C126.04 55.1875 125.756 55.4207 125.424 55.5583C125.091 55.696 124.725 55.732 124.372 55.6619C124.02 55.5917 123.695 55.4184 123.441 55.164C123.187 54.9096 123.013 54.5854 122.943 54.2326C122.873 53.8797 122.909 53.5139 123.047 53.1815C123.184 52.8491 123.418 52.565 123.717 52.3651C124.016 52.1652 124.368 52.0585 124.727 52.0585C125.21 52.0585 125.673 52.2502 126.014 52.5913C126.355 52.9325 126.546 53.3952 126.546 53.8777Z"
        fill="#E0E0E0" />
    <path
        d="M124.728 57.8675C124.571 57.216 124.517 56.5439 124.567 55.8756C124.516 55.2054 124.57 54.5312 124.728 53.8777C124.885 54.5312 124.939 55.2054 124.888 55.8756C124.939 56.5439 124.885 57.216 124.728 57.8675Z"
        fill="#E0E0E0" />
    <path
        d="M93.3953 85.3396C93.3953 85.7055 93.2868 86.0632 93.0835 86.3674C92.8802 86.6716 92.5913 86.9087 92.2532 87.0488C91.9152 87.1888 91.5432 87.2254 91.1844 87.154C90.8255 87.0827 90.4959 86.9065 90.2372 86.6477C89.9784 86.389 89.8022 86.0594 89.7309 85.7005C89.6595 85.3417 89.6961 84.9697 89.8361 84.6316C89.9762 84.2936 90.2133 84.0047 90.5175 83.8014C90.8217 83.5981 91.1794 83.4896 91.5453 83.4896C91.7894 83.4855 92.0318 83.5305 92.2581 83.6219C92.4845 83.7134 92.6901 83.8496 92.8627 84.0222C93.0353 84.1948 93.1715 84.4004 93.2629 84.6267C93.3544 84.8531 93.3994 85.0955 93.3953 85.3396Z"
        fill="#E0E0E0" />
    <path
        d="M91.5451 89.354C91.3313 88.0327 91.3313 86.6856 91.5451 85.3642C91.7588 86.6856 91.7588 88.0327 91.5451 89.354Z"
        fill="#E0E0E0" />
    <path
        d="M95.188 55.6968C95.1941 56.0653 95.09 56.4272 94.8891 56.7361C94.6882 57.045 94.3996 57.2868 94.0603 57.4307C93.721 57.5745 93.3466 57.6137 92.9848 57.5433C92.6231 57.4729 92.2907 57.2961 92.0301 57.0355C91.7696 56.775 91.5927 56.4425 91.5224 56.0808C91.452 55.7191 91.4912 55.3446 91.635 55.0054C91.7788 54.6661 92.0207 54.3775 92.3296 54.1766C92.6385 53.9757 93.0004 53.8716 93.3688 53.8777C93.8513 53.8777 94.314 54.0693 94.6552 54.4105C94.9963 54.7517 95.188 55.2144 95.188 55.6968Z"
        fill="#E0E0E0" />
    <path
        d="M93.3939 59.6866C93.2332 59.0357 93.179 58.363 93.2336 57.6948C93.1788 57.0245 93.233 56.3498 93.3939 55.6968C93.5512 56.3504 93.6053 57.0245 93.5542 57.6948C93.6051 58.363 93.551 59.0351 93.3939 59.6866Z"
        fill="#E0E0E0" />
    <path d="M173.475 140.518L188.472 132.569L188.41 146.907L173.475 140.518Z" fill="#EBEBEB" />
    <path d="M111.186 191.356L78.3301 208.314V176.673L81.9684 175.051L111.186 191.356Z"
        fill="#EBEBEB" />
    <path
        d="M160.258 208.314C160.258 208.728 160.135 209.134 159.904 209.478C159.674 209.823 159.347 210.092 158.963 210.251C158.58 210.409 158.159 210.451 157.752 210.37C157.345 210.289 156.972 210.089 156.679 209.796C156.385 209.503 156.186 209.129 156.105 208.723C156.024 208.316 156.065 207.894 156.224 207.511C156.383 207.128 156.651 206.801 156.996 206.57C157.341 206.34 157.746 206.217 158.161 206.217C158.717 206.217 159.25 206.438 159.644 206.831C160.037 207.224 160.258 207.758 160.258 208.314Z"
        fill="#2CA89A" />
    <path d="M179.443 58.6568L189.908 61.8388V78.3282L179.443 58.6568Z" fill="#EBEBEB" />
    <path
        d="M190.013 36.6297L189.951 18.6356C189.529 15.5357 188.002 12.6923 185.651 10.628C183.301 8.56382 180.284 7.41761 177.155 7.40012L160.647 7.33846C160.109 7.34809 159.577 7.46372 159.083 7.67876C158.59 7.89379 158.143 8.204 157.769 8.59168C157.395 8.97936 157.101 9.43692 156.904 9.9382C156.707 10.4395 156.611 10.9747 156.62 11.5132V14.504C156.637 15.5896 156.222 16.6373 155.467 17.4176C154.713 18.1979 153.679 18.647 152.594 18.6665L120.41 18.5185C119.323 18.4878 118.292 18.0272 117.545 17.2376C116.797 16.448 116.392 15.394 116.421 14.3067V11.3159C116.435 10.7773 116.344 10.2411 116.151 9.73793C115.959 9.23474 115.669 8.77442 115.298 8.38328C114.928 7.99214 114.484 7.67785 113.992 7.45836C113.5 7.23888 112.969 7.11851 112.431 7.10413H106.622L92.1612 7.01163C88.9076 7.00411 85.7705 8.22153 83.3738 10.4218C81.9246 13.2152 80.3398 17.205 81.0675 20.2205L189.932 55.6598L190.013 36.6297Z"
        fill="#2CA89A" />
    <path opacity="0.7"
        d="M190.013 36.6297L189.951 18.6356C189.529 15.5357 188.002 12.6923 185.651 10.628C183.301 8.56382 180.284 7.41761 177.155 7.40012L160.647 7.33846C160.109 7.34809 159.577 7.46372 159.083 7.67876C158.59 7.89379 158.143 8.204 157.769 8.59168C157.395 8.97936 157.101 9.43692 156.904 9.9382C156.707 10.4395 156.611 10.9747 156.62 11.5132V14.504C156.637 15.5896 156.222 16.6373 155.467 17.4176C154.713 18.1979 153.679 18.647 152.594 18.6665L120.41 18.5185C119.323 18.4878 118.292 18.0272 117.545 17.2376C116.797 16.448 116.392 15.394 116.421 14.3067V11.3159C116.435 10.7773 116.344 10.2411 116.151 9.73793C115.959 9.23474 115.669 8.77442 115.298 8.38328C114.928 7.99214 114.484 7.67785 113.992 7.45836C113.5 7.23888 112.969 7.11851 112.431 7.10413H106.622L92.1612 7.01163C88.9076 7.00411 85.7705 8.22153 83.3738 10.4218C81.9246 13.2152 80.3398 17.205 81.0675 20.2205L189.932 55.6598L190.013 36.6297Z"
        fill="white" />
    <path
        d="M177.156 7.40012H177.6C178.039 7.40818 178.478 7.44526 178.913 7.51112C180.638 7.72463 182.297 8.30497 183.779 9.2131C184.882 9.87145 185.878 10.695 186.732 11.6551C187.779 12.7955 188.614 14.113 189.199 15.5462C189.865 17.2224 190.188 19.0153 190.149 20.8186C190.149 22.7344 190.149 24.7755 190.149 26.942C190.087 44.2516 190.001 69.2941 189.89 100.238C189.779 131.182 189.624 168.027 189.464 208.943C189.464 214.053 189.444 219.228 189.402 224.47C189.402 225.777 189.402 227.091 189.402 228.411C189.421 229.746 189.247 231.078 188.884 232.363C188.521 233.66 187.957 234.891 187.213 236.014C186.459 237.136 185.545 238.141 184.5 238.999C182.363 240.719 179.741 241.726 177.001 241.878C176.317 241.922 175.639 241.909 174.96 241.909H172.925H168.837L152.292 241.835L118.296 241.669L100.93 241.589L92.1616 241.521C89.1665 241.674 86.2035 240.842 83.7257 239.153C81.2554 237.431 79.4456 234.919 78.5951 232.03C78.1909 230.603 78.014 229.122 78.071 227.64V223.261C78.0956 217.436 78.1203 211.646 78.145 205.89C78.1943 194.379 78.2416 183.059 78.2868 171.931C78.3855 149.663 78.478 128.185 78.5705 107.724C78.663 87.2636 78.7493 67.8265 78.8294 49.6289C78.8706 40.5311 78.9117 31.7561 78.9528 23.3037C78.9528 22.2431 78.9528 21.1948 78.9528 20.1526C78.9528 19.6285 79.0021 19.0981 79.0329 18.574C79.0638 18.0498 79.1686 17.538 79.3043 17.0323C79.7795 15.0131 80.7215 13.1334 82.0546 11.5441C83.3514 10.0141 84.9804 8.80053 86.8175 7.99582C88.6545 7.1911 90.6511 6.81652 92.6549 6.90063L103.977 6.95613H109.422H112.092C112.997 6.91127 113.892 7.16474 114.639 7.67762C115.393 8.19618 115.963 8.94123 116.267 9.80509C116.506 10.6377 116.592 11.507 116.52 12.3704C116.52 12.7897 116.52 13.2152 116.52 13.6037C116.492 14.0143 116.492 14.4264 116.52 14.837C116.62 15.6443 116.957 16.4039 117.488 17.02C118.003 17.6299 118.698 18.0615 119.473 18.2533C119.857 18.347 120.251 18.3885 120.645 18.3766H121.841H126.534L143.659 18.4691L151.213 18.5123C151.829 18.5123 152.415 18.5123 152.983 18.5123C153.55 18.4494 154.096 18.2598 154.58 17.9573C155.047 17.6668 155.451 17.2859 155.769 16.8369C156.087 16.3878 156.311 15.8798 156.43 15.3427C156.52 14.8216 156.555 14.2925 156.535 13.764C156.535 13.2399 156.535 12.7219 156.535 12.2101C156.513 11.7052 156.538 11.1995 156.609 10.6992C156.691 10.2115 156.858 9.74186 157.102 9.31176C157.555 8.46979 158.291 7.81472 159.18 7.46179C160.013 7.20195 160.889 7.11178 161.758 7.19662L170.181 7.25212L175.361 7.28912H177.131C177.131 7.28912 176.514 7.28912 175.361 7.28912H170.181H161.758C160.902 7.2021 160.037 7.29236 159.217 7.55428C158.357 7.89367 157.642 8.52152 157.194 9.33026C156.961 9.75248 156.8 10.2112 156.72 10.6869C156.653 11.1814 156.63 11.6808 156.652 12.1792C156.652 12.6911 156.652 13.209 156.652 13.7332C156.676 14.2701 156.639 14.808 156.541 15.3365C156.423 15.8902 156.196 16.4146 155.871 16.8786C155.547 17.3425 155.133 17.7367 154.654 18.0375C154.155 18.3517 153.593 18.5498 153.007 18.6171C152.391 18.6665 151.823 18.6171 151.219 18.6171H143.665L126.54 18.5493H121.848H120.651C120.236 18.5641 119.822 18.5226 119.418 18.426C118.626 18.2346 117.911 17.8091 117.364 17.205C116.809 16.5589 116.457 15.7629 116.353 14.9172C116.313 14.4971 116.301 14.0748 116.316 13.653V12.4197C116.388 11.5897 116.307 10.7536 116.076 9.95309C115.792 9.15118 115.266 8.45727 114.571 7.96745C113.858 7.4791 113.004 7.24057 112.141 7.28912H109.471H104.026L92.6981 7.24596C90.7402 7.15236 88.7866 7.50445 86.9845 8.27569C85.1825 9.04692 83.5791 10.2172 82.2951 11.6982C80.9898 13.2607 80.067 15.1061 79.6003 17.0878C79.4708 17.5812 79.4276 18.0991 79.3351 18.6048C79.2426 19.1105 79.2673 19.6285 79.2611 20.1526C79.2611 21.1948 79.2611 22.2493 79.2611 23.3037C79.2241 31.7437 79.1892 40.5188 79.1563 49.6289C79.0884 67.8265 79.0083 87.2451 78.9281 107.724C78.8479 128.204 78.7554 149.657 78.6629 171.931C78.6177 183.068 78.5622 194.392 78.4964 205.902C78.4964 211.658 78.4738 217.448 78.4286 223.274V227.658C78.3706 229.115 78.5434 230.572 78.9404 231.975C79.7677 234.786 81.5243 237.234 83.923 238.918C86.3467 240.558 89.24 241.359 92.1616 241.2L100.93 241.237L118.302 241.317L152.249 241.478L168.794 241.558H172.882H174.917C175.596 241.558 176.274 241.558 176.94 241.527C179.616 241.379 182.178 240.395 184.266 238.715C185.287 237.877 186.18 236.894 186.917 235.798C187.642 234.703 188.193 233.503 188.551 232.24C188.905 230.98 189.073 229.676 189.051 228.367C189.051 227.048 189.051 225.734 189.051 224.427C189.076 219.185 189.098 214.007 189.119 208.893C189.31 167.984 189.476 131.139 189.612 100.195C189.748 69.251 189.89 44.2085 189.976 26.8989C189.976 24.7364 189.986 22.6953 190.007 20.7754C190.054 18.9858 189.74 17.205 189.082 15.54C188.511 14.1135 187.688 12.8016 186.652 11.6674C185.805 10.7212 184.819 9.90833 183.729 9.25626C182.257 8.3468 180.61 7.75842 178.895 7.52962C178.46 7.45815 178.021 7.41694 177.581 7.40629C177.304 7.41862 177.156 7.40012 177.156 7.40012Z"
        fill="#2B2A29" />
</svg>
    