<svg width="24" height="25" viewBox="0 0 24 25" fill="none" xmlns="http://www.w3.org/2000/svg">
    <path
        d="M13.4002 7.8872C13.5974 7.6617 14.062 7.37825 14.7225 7.07445C15.3637 6.77955 16.1311 6.4908 16.8743 6.2358C17.6162 5.9813 18.3273 5.76275 18.8534 5.6077C18.9612 5.57595 19.0611 5.5469 19.1519 5.52075C19.134 5.62435 19.1139 5.7396 19.0917 5.8646C18.9921 6.4259 18.8509 7.18315 18.6844 7.96865C18.5177 8.7555 18.3269 9.56445 18.1286 10.2314C18.0293 10.5652 17.93 10.8572 17.833 11.0904C17.7325 11.3322 17.6472 11.4792 17.5866 11.5485C17.4829 11.667 17.2566 11.7637 16.8664 11.7898C16.4921 11.8148 16.046 11.7697 15.6049 11.6921C15.1672 11.6151 14.7517 11.5095 14.4442 11.4224C14.291 11.3791 14.1656 11.3406 14.079 11.3132L14.0769 11.3125C14.0339 11.2372 13.9734 11.1284 13.9038 10.9943C13.7623 10.7216 13.5857 10.3493 13.4406 9.9451C13.2944 9.53775 13.1871 9.11635 13.171 8.74095C13.1549 8.364 13.2319 8.0796 13.4002 7.8872Z"
        stroke="#2B2A29" stroke-width="0.75" />
    <path d="M17.1625 7.59692C17.1625 7.59692 13.7487 10.5392 12.6361 13.8273" stroke="#2B2A29"
        stroke-linecap="round" stroke-linejoin="round" />
    <path
        d="M10.887 9.46898C10.7556 9.31718 10.4289 9.11198 9.93807 8.88388C9.46652 8.66473 8.90052 8.44938 8.35037 8.25868C7.80152 8.06838 7.27522 7.90493 6.88567 7.78893C6.86082 7.78153 6.83657 7.77433 6.81287 7.76733C6.81897 7.80253 6.82532 7.83903 6.83197 7.87673C6.90577 8.29708 7.01037 8.86398 7.13367 9.45178C7.25722 10.041 7.39822 10.645 7.54442 11.1418C7.61762 11.3905 7.69032 11.6062 7.76057 11.7769C7.83442 11.9564 7.89312 12.0549 7.92762 12.0947C7.97852 12.1535 8.11262 12.2232 8.39447 12.2422C8.66067 12.2602 8.98272 12.2278 9.30662 12.1703C9.62707 12.1134 9.93202 12.035 10.1582 11.9703C10.2518 11.9435 10.3313 11.9193 10.3918 11.9002C10.4213 11.8474 10.4586 11.7786 10.5005 11.697C10.6043 11.4948 10.7335 11.2195 10.8394 10.9214C10.9464 10.6201 11.0229 10.3137 11.0343 10.0448C11.0458 9.77413 10.99 9.58803 10.887 9.46898Z"
        stroke="#2B2A29" stroke-width="0.75" />
    <path d="M8.45117 9.5144C8.45117 9.5144 10.6954 11.4013 11.3333 13.6198" stroke="#2B2A29"
        stroke-linecap="round" stroke-linejoin="round" />
    <path
        d="M6.44445 15.2207H5.94445V15.9263L6.61015 15.6924L6.44445 15.2207ZM9.57085 14.5799L9.67835 14.0916L9.66965 14.0897L9.66085 14.088L9.57085 14.5799ZM12.4293 15.2092L12.5793 14.7322L12.5583 14.7255L12.5368 14.7208L12.4293 15.2092ZM12.8611 16.9445L12.8871 16.4451L12.8771 16.4446L12.867 16.4445L12.8611 16.9445ZM10.5534 16.917L10.5594 16.4171L10.4654 17.4093L10.5534 16.917ZM6.44445 19.0468L6.42725 18.5471L5.94445 18.5637V19.0468H6.44445ZM6.44445 20V20.5H6.94445V20H6.44445ZM4 20H3.5V20.5H4V20ZM4 14.5V14H3.5V14.5H4ZM6.44445 14.5H6.94445V14H6.44445V14.5ZM7.98215 14.1235C7.7514 14.2267 6.89975 14.5308 6.27875 14.7489L6.61015 15.6924C7.2056 15.4833 8.11115 15.1613 8.39045 15.0364L7.98215 14.1235ZM9.57085 14.5799C9.66085 14.088 9.6609 14.088 9.66085 14.088C9.6608 14.088 9.66095 14.0881 9.66085 14.088C9.66075 14.088 9.66035 14.0879 9.6602 14.0879C9.6599 14.0879 9.65955 14.0879 9.65915 14.0878C9.65835 14.0876 9.65735 14.0875 9.65605 14.0872C9.6535 14.0868 9.65005 14.0862 9.6457 14.0854C9.63695 14.0839 9.6247 14.0817 9.6093 14.0792C9.5785 14.0741 9.53495 14.0673 9.4817 14.0597C9.3758 14.0445 9.22905 14.0262 9.0672 14.0139C8.90685 14.0017 8.7225 13.9948 8.5439 14.0049C8.3753 14.0144 8.1661 14.0412 7.98215 14.1235L8.39045 15.0364C8.4075 15.0287 8.47185 15.0106 8.60055 15.0033C8.7192 14.9966 8.8559 15.0008 8.99145 15.0111C9.1255 15.0213 9.2495 15.0366 9.3404 15.0496C9.3856 15.056 9.4219 15.0618 9.44645 15.0659C9.45865 15.0679 9.4679 15.0695 9.4738 15.0705C9.47675 15.071 9.4788 15.0713 9.48 15.0716C9.4806 15.0717 9.481 15.0718 9.48115 15.0718C9.4811 15.0718 9.4812 15.0719 9.48115 15.0718C9.4811 15.0718 9.4809 15.0717 9.57085 14.5799ZM12.5368 14.7208L9.67835 14.0916L9.4634 15.0682L12.3218 15.6974L12.5368 14.7208ZM13.8138 14.9339C13.5286 14.9339 13.2209 14.8852 12.975 14.8326C12.8542 14.8067 12.753 14.7809 12.6826 14.7618C12.6476 14.7522 12.6205 14.7444 12.6027 14.7392C12.5938 14.7365 12.5873 14.7346 12.5833 14.7334C12.5813 14.7328 12.5799 14.7324 12.5793 14.7322C12.5792 14.7322 12.5793 14.7322 12.5793 14.7322C12.5793 14.7322 12.5793 14.7322 12.4293 15.2092C12.2793 15.6861 12.2794 15.6861 12.2794 15.6861C12.2794 15.6861 12.2795 15.6861 12.2794 15.6861C12.2795 15.6862 12.2798 15.6863 12.2799 15.6863C12.2802 15.6864 12.2805 15.6865 12.2808 15.6866C12.2815 15.6868 12.2824 15.687 12.2834 15.6874C12.2855 15.688 12.2882 15.6889 12.2916 15.6899C12.2985 15.692 12.308 15.6948 12.3199 15.6984C12.3439 15.7054 12.3778 15.7152 12.4202 15.7267C12.5048 15.7497 12.6241 15.7801 12.7657 15.8104C13.0445 15.8701 13.4292 15.9339 13.8138 15.9339V14.9339ZM13.9222 17.0569C14.2428 16.8322 14.5232 16.4302 14.626 16.055C14.6763 15.8717 14.7116 15.5933 14.5685 15.3362C14.4018 15.0368 14.0948 14.9339 13.8138 14.9339V15.9339C13.844 15.9339 13.8323 15.9392 13.7998 15.9235C13.7614 15.905 13.7212 15.8701 13.6947 15.8224C13.6509 15.7438 13.6837 15.7098 13.6616 15.7907C13.6438 15.8557 13.6018 15.9458 13.537 16.0382C13.4721 16.1307 13.4022 16.2001 13.3482 16.238L13.9222 17.0569ZM12.8611 16.9445C12.8351 17.4438 12.8353 17.4438 12.8356 17.4438C12.8354 17.4438 12.8357 17.4438 12.8356 17.4438C12.8359 17.4438 12.8368 17.4438 12.8371 17.4438C12.8379 17.4439 12.8386 17.444 12.8393 17.444C12.8409 17.4441 12.8425 17.4441 12.8441 17.4442C12.8475 17.4443 12.8512 17.4444 12.8553 17.4445C12.8634 17.4446 12.8728 17.4446 12.8836 17.4445C12.905 17.4442 12.9317 17.443 12.963 17.4403C13.0257 17.4348 13.1071 17.4228 13.2035 17.3983C13.3974 17.3489 13.6467 17.2499 13.9222 17.0569L13.3482 16.238C13.1756 16.359 13.0378 16.4085 12.9567 16.4291C12.9156 16.4396 12.8875 16.443 12.8751 16.4441C12.8688 16.4447 12.8665 16.4446 12.8684 16.4446C12.8693 16.4446 12.8713 16.4446 12.8744 16.4446C12.876 16.4447 12.8778 16.4448 12.8799 16.4448C12.881 16.4449 12.8821 16.4449 12.8833 16.4449C12.8839 16.4449 12.8845 16.445 12.8852 16.445C12.8855 16.445 12.8858 16.4451 12.8861 16.4451C12.8863 16.4451 12.887 16.4451 12.8871 16.4451C12.8874 16.4451 12.8871 16.4451 12.8611 16.9445ZM10.5475 17.417L12.8553 17.4445L12.867 16.4445L10.5594 16.4171L10.5475 17.417ZM13.3521 16.8225C13.0018 16.8017 12.3348 16.705 11.7322 16.6087C11.4359 16.5613 11.163 16.5153 10.964 16.4811C10.8646 16.464 10.7837 16.45 10.7278 16.4402C10.6999 16.4353 10.6782 16.4314 10.6635 16.4288C10.6562 16.4275 10.6506 16.4265 10.6469 16.4258C10.6451 16.4255 10.6437 16.4253 10.6428 16.4251C10.6423 16.425 10.642 16.4249 10.6418 16.4249C10.6417 16.4249 10.6418 16.4249 10.6418 16.4249C10.6418 16.4249 10.6415 16.4248 10.5534 16.917C10.4654 17.4092 10.4653 17.4093 10.4654 17.4093C10.4652 17.4093 10.4654 17.4093 10.4654 17.4093C10.4657 17.4093 10.4665 17.4094 10.467 17.4095C10.468 17.4097 10.4695 17.41 10.4715 17.4104C10.4755 17.4111 10.4813 17.4121 10.4888 17.4134C10.504 17.4161 10.5262 17.4201 10.5547 17.4251C10.6118 17.4351 10.6938 17.4494 10.7947 17.4667C10.9963 17.5013 11.2733 17.5481 11.5743 17.5962C12.1665 17.6909 12.884 17.7965 13.293 17.8207L13.3521 16.8225ZM14.9175 16.3181C14.5444 16.4683 14.2113 16.6022 13.9245 16.6968C13.6224 16.7964 13.441 16.8277 13.3521 16.8225L13.293 17.8207C13.5887 17.8382 13.9295 17.7481 14.2377 17.6464C14.5613 17.5397 14.9267 17.3924 15.291 17.2458L14.9175 16.3181ZM17.2175 15.5695C16.468 15.6912 15.6201 16.0352 14.9175 16.3181L15.291 17.2458C16.0248 16.9503 16.7608 16.6567 17.3777 16.5566L17.2175 15.5695ZM18.8135 17.8538C19.2099 17.4548 19.2686 16.7968 19.0081 16.298C18.7133 15.7334 18.0714 15.4309 17.2175 15.5695L17.3777 16.5566C17.9083 16.4705 18.0704 16.6625 18.1217 16.7608C18.2074 16.9249 18.1544 17.0984 18.1042 17.1489L18.8135 17.8538ZM13.983 20.354C14.3278 20.23 15.4036 19.7332 16.4261 19.2243C16.9432 18.9669 17.4588 18.7005 17.8757 18.4685C18.0838 18.3526 18.2719 18.2428 18.4251 18.1453C18.567 18.055 18.7145 17.9534 18.8135 17.8538L18.1042 17.1489C18.1048 17.1482 18.1007 17.1523 18.0896 17.1616C18.0788 17.1705 18.064 17.182 18.0445 17.1963C18.0052 17.2251 17.9532 17.2603 17.8882 17.3017C17.7581 17.3845 17.5889 17.4836 17.3894 17.5947C16.9913 17.8163 16.4907 18.0751 15.9805 18.329C14.9485 18.8426 13.9252 19.3121 13.6447 19.4129L13.983 20.354ZM12.0144 20.4327C12.6469 20.495 13.3652 20.576 13.983 20.354L13.6447 19.4129C13.2831 19.5429 12.8167 19.5069 12.1126 19.4375L12.0144 20.4327ZM11.4543 20.382C11.6435 20.3961 11.8285 20.4143 12.0144 20.4327L12.1126 19.4375C11.9283 19.4193 11.7315 19.3999 11.5284 19.3848L11.4543 20.382ZM9.3751 19.9325C9.96575 20.1168 10.6109 20.3193 11.4543 20.382L11.5284 19.3848C10.8108 19.3314 10.2631 19.162 9.67285 18.9779L9.3751 19.9325ZM7.4073 19.5291C8.17305 19.5594 8.74305 19.7354 9.3751 19.9325L9.67285 18.9779C9.03925 18.7802 8.3574 18.5658 7.4468 18.5298L7.4073 19.5291ZM6.46165 19.5465C6.86455 19.5326 7.2548 19.5231 7.4073 19.5291L7.4468 18.5298C7.24875 18.522 6.8154 18.5337 6.42725 18.5471L6.46165 19.5465ZM5.94445 19.0468V20H6.94445V19.0468H5.94445ZM6.44445 19.5H4V20.5H6.44445V19.5ZM4.5 20V14.5H3.5V20H4.5ZM4 15H6.44445V14H4V15ZM5.94445 14.5V15.2207H6.94445V14.5H5.94445Z"
        fill="#2B2A29" />
</svg>
    