<svg width="268" height="250" viewBox="0 0 268 250" fill="none" xmlns="http://www.w3.org/2000/svg">
    <path
        d="M249.295 27.4369C241.116 14.2361 232.28 7.76391 214.389 4.69352C200.006 2.19218 187.943 10.0026 180.089 14.4175C169.771 20.2081 165.907 33.3276 166.025 45.1589C166.144 56.9903 169.271 68.6965 168.752 80.5216C167.57 107.63 144.752 132.162 117.793 135.295C96.4131 137.796 75.0892 128.253 53.6465 130.104C38.7896 131.446 24.9254 138.137 14.6318 148.933C6.60879 157.413 1.0183 168.6 0.930752 180.263C0.824445 194.358 8.69116 207.565 19.0967 217.076C29.5023 226.587 42.3092 233.01 54.9284 239.263L94.6309 247.592C145.283 258.386 214.601 231.871 242.773 188.392C270.944 144.912 276.56 71.4793 249.295 27.4369Z"
        fill="#DCEEEC" />
    <path
        d="M99.9901 13.2796C90.0535 1.63584 72.3065 -2.52264 57.1109 1.48576C49.8007 2.11109 43.7537 6.26957 38.2695 11.1784C29.0146 19.4704 24.7623 32.8025 26.9697 45.0278C29.1772 57.2531 37.5691 68.0902 48.6126 73.7932C65.1026 82.3103 87.2458 78.4395 99.396 64.4132C111.546 50.3869 112.022 27.4121 99.9901 13.2796Z"
        fill="#DCEEEC" />
    <path
        d="M177.811 247.468H94.8478C84.8424 247.424 76.6693 238.901 76.7131 228.908L77.5948 20.6154C77.6038 18.2381 78.0813 15.8858 79 13.6931C79.9186 11.5005 81.2605 9.51037 82.9487 7.83661C84.637 6.16285 86.6386 4.83826 88.8392 3.93856C91.0397 3.03886 93.396 2.58171 95.7733 2.59323L178.862 2.98093C181.237 2.99159 183.588 3.47008 185.778 4.38909C187.969 5.3081 189.958 6.64963 191.63 8.33708C193.302 10.0245 194.626 12.0249 195.525 14.2239C196.425 16.4228 196.882 18.7774 196.871 21.1532L195.989 229.446C195.98 231.823 195.503 234.176 194.584 236.368C193.666 238.561 192.324 240.551 190.635 242.225C188.947 243.898 186.946 245.223 184.745 246.123C182.545 247.022 180.188 247.48 177.811 247.468Z"
        fill="#2B2A29" />
    <path
        d="M178.743 10.1598L162.634 10.0847C161.573 10.1045 160.563 10.5441 159.826 11.3072C159.089 12.0703 158.684 13.0947 158.701 14.1557V17.076C158.711 17.6016 158.617 18.124 158.425 18.6134C158.233 19.1027 157.947 19.5495 157.582 19.9281C157.217 20.3067 156.781 20.6098 156.3 20.82C155.818 21.0302 155.299 21.1434 154.774 21.1532L123.351 21.0093C122.29 20.9815 121.284 20.5338 120.554 19.7646C119.823 18.9954 119.428 17.9676 119.455 16.9071V13.9806C119.482 12.9195 119.087 11.8911 118.356 11.1209C117.626 10.3507 116.62 9.90159 115.559 9.87213H109.893L95.8359 9.78458C94.1711 9.77635 92.521 10.0963 90.9799 10.7262C89.4388 11.3561 88.037 12.2835 86.8546 13.4555C85.6722 14.6275 84.7323 16.021 84.0888 17.5564C83.4452 19.0918 83.1106 20.739 83.1041 22.4038L82.2286 225.713C82.2153 229.074 83.537 232.303 85.9032 234.69C88.2694 237.078 91.4866 238.428 94.8479 238.445L177.761 238.826C181.123 238.841 184.354 237.52 186.743 235.154C189.131 232.787 190.483 229.569 190.499 226.207L191.356 22.8979C191.365 21.233 191.046 19.5828 190.417 18.0414C189.787 16.5 188.861 15.0977 187.689 13.9147C186.518 12.7317 185.125 11.7912 183.59 11.1469C182.055 10.5026 180.408 10.1671 178.743 10.1598Z"
        fill="white" />
    <path
        d="M106.673 30.9396C104.612 31.1008 102.543 31.1551 100.476 31.1022C98.4093 31.1549 96.3408 31.1006 94.2793 30.9396C96.3406 30.7749 98.4093 30.7206 100.476 30.7771C102.543 30.7204 104.612 30.7747 106.673 30.9396Z"
        fill="#2B2A29" />
    <path
        d="M106.673 28.5947C104.612 28.7597 102.543 28.814 100.476 28.7573C98.4093 28.8138 96.3406 28.7595 94.2793 28.5947C96.3408 28.4338 98.4093 28.3795 100.476 28.4322C102.543 28.3793 104.612 28.4336 106.673 28.5947Z"
        fill="#2B2A29" />
    <path
        d="M106.673 26.2561C104.612 26.4173 102.543 26.4716 100.476 26.4187C98.4093 26.4714 96.3408 26.4171 94.2793 26.2561C96.3408 26.0951 98.4093 26.0409 100.476 26.0935C102.543 26.0407 104.612 26.095 106.673 26.2561Z"
        fill="#2B2A29" />
    <path
        d="M177.893 205.702H95.6991C94.5871 205.702 93.6855 206.603 93.6855 207.715V223.411C93.6855 224.523 94.5871 225.425 95.6991 225.425H177.893C179.005 225.425 179.907 224.523 179.907 223.411V207.715C179.907 206.603 179.005 205.702 177.893 205.702Z"
        fill="#2CA89A" />
    <path
        d="M127.459 217.429C127.525 217.523 127.558 217.624 127.558 217.733C127.558 217.856 127.516 217.959 127.431 218.044C127.346 218.129 127.235 218.172 127.098 218.172C127.018 218.172 126.94 218.15 126.865 218.108C126.794 218.065 126.73 218.004 126.674 217.924L125.301 216.013H124.445V217.747C124.445 217.87 124.4 217.971 124.31 218.051C124.221 218.131 124.112 218.172 123.985 218.172C123.857 218.172 123.749 218.131 123.659 218.051C123.57 217.971 123.525 217.87 123.525 217.747V213.501C123.525 213.379 123.57 213.277 123.659 213.197C123.749 213.117 123.857 213.077 123.985 213.077C124.112 213.077 124.221 213.117 124.31 213.197C124.4 213.277 124.445 213.379 124.445 213.501V215.164H125.294L126.568 213.324C126.681 213.159 126.822 213.077 126.992 213.077C127.129 213.077 127.24 213.119 127.325 213.204C127.41 213.289 127.452 213.393 127.452 213.515C127.452 213.629 127.414 213.737 127.339 213.841L126.108 215.553L127.459 217.429ZM130.746 214.563C130.883 214.563 130.987 214.6 131.058 214.676C131.128 214.747 131.164 214.839 131.164 214.952C131.164 215.027 131.145 215.11 131.107 215.2L129.296 219.339C129.248 219.443 129.194 219.521 129.133 219.573C129.072 219.629 128.984 219.658 128.871 219.658C128.744 219.658 128.642 219.622 128.567 219.551C128.491 219.481 128.454 219.386 128.454 219.268C128.454 219.202 128.472 219.12 128.51 219.021L129.083 217.747L127.732 215.214C127.689 215.134 127.668 215.053 127.668 214.973C127.668 214.86 127.706 214.763 127.781 214.683C127.857 214.603 127.961 214.563 128.093 214.563C128.192 214.563 128.27 214.584 128.326 214.626C128.388 214.664 128.449 214.742 128.51 214.86L129.473 216.686H129.543L130.322 214.881C130.374 214.768 130.43 214.688 130.492 214.641C130.558 214.589 130.642 214.563 130.746 214.563ZM132.164 218.136C132.042 218.136 131.94 218.098 131.86 218.023C131.78 217.948 131.74 217.856 131.74 217.747V214.987C131.74 214.879 131.78 214.787 131.86 214.711C131.94 214.636 132.042 214.598 132.164 214.598H134.429C134.551 214.598 134.653 214.636 134.733 214.711C134.813 214.787 134.853 214.879 134.853 214.987V217.747C134.853 217.856 134.813 217.948 134.733 218.023C134.653 218.098 134.551 218.136 134.429 218.136C134.306 218.136 134.205 218.098 134.124 218.023C134.044 217.948 134.004 217.856 134.004 217.747V215.306H132.589V217.747C132.589 217.856 132.549 217.948 132.469 218.023C132.388 218.098 132.287 218.136 132.164 218.136ZM136.2 218.136C136.077 218.136 135.976 218.098 135.896 218.023C135.815 217.948 135.775 217.856 135.775 217.747V214.952C135.775 214.843 135.815 214.751 135.896 214.676C135.976 214.6 136.077 214.563 136.2 214.563C136.323 214.563 136.424 214.6 136.504 214.676C136.584 214.751 136.625 214.843 136.625 214.952V216.686H136.695L137.934 214.917C138.023 214.784 138.108 214.692 138.188 214.641C138.269 214.589 138.361 214.563 138.464 214.563C138.587 214.563 138.688 214.6 138.769 214.676C138.849 214.751 138.889 214.843 138.889 214.952V217.747C138.889 217.856 138.849 217.948 138.769 218.023C138.688 218.098 138.587 218.136 138.464 218.136C138.342 218.136 138.24 218.098 138.16 218.023C138.08 217.948 138.04 217.856 138.04 217.747V216.013H137.969L136.731 217.782C136.641 217.914 136.556 218.006 136.476 218.058C136.396 218.11 136.304 218.136 136.2 218.136ZM142.217 214.598C142.326 214.598 142.418 214.631 142.493 214.697C142.568 214.763 142.606 214.848 142.606 214.952C142.606 215.056 142.568 215.141 142.493 215.207C142.418 215.273 142.326 215.306 142.217 215.306H141.403V217.747C141.403 217.856 141.363 217.948 141.283 218.023C141.203 218.098 141.101 218.136 140.979 218.136C140.856 218.136 140.755 218.098 140.674 218.023C140.594 217.948 140.554 217.856 140.554 217.747V215.306H139.74C139.632 215.306 139.54 215.273 139.464 215.207C139.389 215.141 139.351 215.056 139.351 214.952C139.351 214.848 139.389 214.763 139.464 214.697C139.54 214.631 139.632 214.598 139.74 214.598H142.217ZM144.481 215.695C144.802 215.695 145.076 215.749 145.302 215.858C145.533 215.961 145.708 216.105 145.826 216.289C145.944 216.469 146.003 216.671 146.003 216.898C146.003 217.124 145.944 217.33 145.826 217.513C145.708 217.693 145.533 217.837 145.302 217.945C145.076 218.049 144.802 218.101 144.481 218.101H143.49C143.368 218.101 143.266 218.063 143.186 217.988C143.106 217.912 143.066 217.82 143.066 217.712V214.952C143.066 214.843 143.106 214.751 143.186 214.676C143.266 214.6 143.368 214.563 143.49 214.563C143.613 214.563 143.715 214.6 143.795 214.676C143.875 214.751 143.915 214.843 143.915 214.952V215.695H144.481ZM144.481 217.393C144.703 217.393 144.87 217.348 144.984 217.259C145.097 217.164 145.153 217.044 145.153 216.898C145.153 216.747 145.097 216.627 144.984 216.537C144.87 216.447 144.703 216.403 144.481 216.403H143.915V217.393H144.481Z"
        fill="white" />
    <g opacity="0.3">
        <path
            d="M113.312 209.71H105.008C103.93 209.71 103.057 210.584 103.057 211.662V219.966C103.057 221.043 103.93 221.917 105.008 221.917H113.312C114.39 221.917 115.263 221.043 115.263 219.966V211.662C115.263 210.584 114.39 209.71 113.312 209.71Z"
            fill="#2B2A29" />
    </g>
    <path
        d="M109.162 219.353C109.079 219.353 109 219.32 108.941 219.262C108.883 219.203 108.85 219.123 108.85 219.04V212.587C108.85 212.504 108.883 212.425 108.941 212.366C109 212.307 109.079 212.274 109.162 212.274C109.245 212.274 109.325 212.307 109.383 212.366C109.442 212.425 109.475 212.504 109.475 212.587V219.022C109.478 219.064 109.471 219.107 109.457 219.147C109.442 219.187 109.42 219.224 109.39 219.255C109.361 219.286 109.326 219.311 109.286 219.328C109.247 219.345 109.205 219.353 109.162 219.353Z"
        fill="white" />
    <path
        d="M112.331 216.126H105.99C105.907 216.126 105.828 216.093 105.769 216.035C105.711 215.976 105.678 215.897 105.678 215.814C105.678 215.731 105.711 215.651 105.769 215.593C105.828 215.534 105.907 215.501 105.99 215.501H112.331C112.414 215.501 112.494 215.534 112.552 215.593C112.611 215.651 112.644 215.731 112.644 215.814C112.644 215.897 112.611 215.976 112.552 216.035C112.494 216.093 112.414 216.126 112.331 216.126Z"
        fill="white" />
    <path
        d="M100.564 168.195L101.621 170.346L103.997 170.69L102.278 172.366L102.684 174.729L100.564 173.61L98.4382 174.729L98.8447 172.366L97.125 170.69L99.5013 170.346L100.564 168.195Z"
        fill="#2CA89A" />
    <path
        d="M109.33 168.195L110.393 170.346L112.763 170.69L111.05 172.366L111.45 174.729L109.33 173.61L107.204 174.729L107.61 172.366L105.891 170.69L108.267 170.346L109.33 168.195Z"
        fill="#2CA89A" />
    <path
        d="M118.098 168.195L119.161 170.346L121.537 170.69L119.817 172.366L120.224 174.729L118.098 173.61L115.971 174.729L116.378 172.366L114.658 170.69L117.034 170.346L118.098 168.195Z"
        fill="#2CA89A" />
    <path
        d="M126.867 168.195L127.93 170.346L130.306 170.69L128.586 172.366L128.993 174.729L126.867 173.61L124.741 174.729L125.147 172.366L123.434 170.69L125.804 170.346L126.867 168.195Z"
        fill="#2CA89A" />
    <path
        d="M135.632 168.195L136.695 170.346L139.072 170.69L137.352 172.366L137.758 174.729L135.632 173.61L133.512 174.729L133.919 172.366L132.199 170.69L134.575 170.346L135.632 168.195Z"
        fill="#E6E6E6" />
    <path
        d="M100.42 182.721C100.611 182.721 100.774 182.785 100.908 182.913C101.043 183.033 101.11 183.181 101.11 183.358V189.727C101.11 189.904 101.043 190.056 100.908 190.183C100.774 190.304 100.611 190.364 100.42 190.364C100.229 190.364 100.066 190.304 99.9317 190.183C99.7973 190.056 99.73 189.904 99.73 189.727V185.004H99.6239L98.934 185.693C98.7995 185.828 98.6792 185.923 98.5731 185.98C98.4669 186.037 98.3396 186.065 98.191 186.065C97.9857 186.065 97.8159 186.001 97.6815 185.874C97.5541 185.747 97.4904 185.594 97.4904 185.418C97.4904 185.198 97.5824 185.007 97.7664 184.844L99.73 183.061C99.8574 182.941 99.9742 182.856 100.08 182.806C100.194 182.75 100.307 182.721 100.42 182.721ZM105.512 190.47C104.938 190.47 104.429 190.353 103.983 190.12C103.544 189.879 103.201 189.55 102.954 189.133C102.713 188.715 102.593 188.241 102.593 187.71V185.375C102.593 184.844 102.713 184.37 102.954 183.953C103.201 183.535 103.544 183.21 103.983 182.976C104.429 182.736 104.938 182.615 105.512 182.615C106.085 182.615 106.591 182.736 107.029 182.976C107.475 183.21 107.818 183.535 108.059 183.953C108.307 184.37 108.431 184.844 108.431 185.375V187.71C108.431 188.241 108.307 188.715 108.059 189.133C107.818 189.55 107.475 189.879 107.029 190.12C106.591 190.353 106.085 190.47 105.512 190.47ZM105.512 189.196C105.986 189.196 106.361 189.062 106.637 188.793C106.913 188.524 107.051 188.163 107.051 187.71V185.375C107.051 184.922 106.913 184.561 106.637 184.292C106.361 184.023 105.986 183.889 105.512 183.889C105.037 183.889 104.662 184.023 104.386 184.292C104.11 184.561 103.972 184.922 103.972 185.375V187.71C103.972 188.163 104.11 188.524 104.386 188.793C104.662 189.062 105.037 189.196 105.512 189.196ZM112.726 190.47C112.153 190.47 111.643 190.353 111.198 190.12C110.759 189.879 110.416 189.55 110.168 189.133C109.927 188.715 109.807 188.241 109.807 187.71V185.375C109.807 184.844 109.927 184.37 110.168 183.953C110.416 183.535 110.759 183.21 111.198 182.976C111.643 182.736 112.153 182.615 112.726 182.615C113.299 182.615 113.805 182.736 114.244 182.976C114.69 183.21 115.033 183.535 115.274 183.953C115.521 184.37 115.645 184.844 115.645 185.375V187.71C115.645 188.241 115.521 188.715 115.274 189.133C115.033 189.55 114.69 189.879 114.244 190.12C113.805 190.353 113.299 190.47 112.726 190.47ZM112.726 189.196C113.2 189.196 113.575 189.062 113.851 188.793C114.127 188.524 114.265 188.163 114.265 187.71V185.375C114.265 184.922 114.127 184.561 113.851 184.292C113.575 184.023 113.2 183.889 112.726 183.889C112.252 183.889 111.877 184.023 111.601 184.292C111.325 184.561 111.187 184.922 111.187 185.375V187.71C111.187 188.163 111.325 188.524 111.601 188.793C111.877 189.062 112.252 189.196 112.726 189.196ZM119.941 190.47C119.367 190.47 118.858 190.353 118.412 190.12C117.973 189.879 117.63 189.55 117.382 189.133C117.142 188.715 117.022 188.241 117.022 187.71V185.375C117.022 184.844 117.142 184.37 117.382 183.953C117.63 183.535 117.973 183.21 118.412 182.976C118.858 182.736 119.367 182.615 119.941 182.615C120.514 182.615 121.02 182.736 121.458 182.976C121.904 183.21 122.247 183.535 122.488 183.953C122.736 184.37 122.86 184.844 122.86 185.375V187.71C122.86 188.241 122.736 188.715 122.488 189.133C122.247 189.55 121.904 189.879 121.458 190.12C121.02 190.353 120.514 190.47 119.941 190.47ZM119.941 189.196C120.415 189.196 120.79 189.062 121.066 188.793C121.342 188.524 121.48 188.163 121.48 187.71V185.375C121.48 184.922 121.342 184.561 121.066 184.292C120.79 184.023 120.415 183.889 119.941 183.889C119.466 183.889 119.091 184.023 118.815 184.292C118.539 184.561 118.401 184.922 118.401 185.375V187.71C118.401 188.163 118.539 188.524 118.815 188.793C119.091 189.062 119.466 189.196 119.941 189.196ZM129.224 190.417C128.757 190.417 128.336 190.318 127.961 190.12C127.593 189.922 127.302 189.656 127.09 189.324C126.885 188.991 126.782 188.63 126.782 188.241V187.02C126.782 186.631 126.885 186.27 127.09 185.938C127.302 185.605 127.593 185.34 127.961 185.142C128.336 184.943 128.757 184.844 129.224 184.844C129.563 184.844 129.889 184.908 130.2 185.035C130.519 185.163 130.78 185.333 130.986 185.545C131.226 185.8 131.347 186.061 131.347 186.33C131.347 186.472 131.297 186.589 131.198 186.681C131.099 186.766 130.971 186.808 130.816 186.808C130.695 186.808 130.586 186.78 130.487 186.723C130.395 186.666 130.285 186.56 130.158 186.405C130.009 186.221 129.864 186.093 129.723 186.023C129.581 185.945 129.415 185.906 129.224 185.906C128.884 185.906 128.604 186.012 128.385 186.224C128.166 186.436 128.056 186.702 128.056 187.02V188.241C128.056 188.559 128.166 188.825 128.385 189.037C128.604 189.249 128.884 189.355 129.224 189.355C129.443 189.355 129.634 189.313 129.797 189.228C129.96 189.136 130.129 188.98 130.306 188.761C130.434 188.605 130.54 188.499 130.625 188.443C130.717 188.379 130.816 188.347 130.922 188.347C131.078 188.347 131.205 188.393 131.304 188.485C131.403 188.57 131.453 188.683 131.453 188.825C131.453 189.136 131.269 189.458 130.901 189.791C130.688 189.982 130.427 190.134 130.115 190.247C129.811 190.36 129.514 190.417 129.224 190.417Z"
        fill="#2B2A29" />
    <path
        d="M166.783 75.6661L106.894 75.7602C104.549 75.7639 102.651 77.6679 102.655 80.0129L102.744 136.374C102.747 138.719 104.651 140.617 106.996 140.614L166.885 140.519C169.23 140.516 171.128 138.612 171.124 136.267L171.035 79.9055C171.032 77.5604 169.128 75.6624 166.783 75.6661Z"
        fill="#2CA89A" />
    <path
        d="M165.451 79.3052H107.957C106.98 79.3052 106.188 80.0972 106.188 81.0742V135.031C106.188 136.008 106.98 136.8 107.957 136.8H165.451C166.428 136.8 167.22 136.008 167.22 135.031V81.0742C167.22 80.0972 166.428 79.3052 165.451 79.3052Z"
        fill="white" />
    <path
        d="M113.967 131.875C112.609 131.875 111.757 130.408 112.43 129.229L126.456 104.66C127.092 103.546 128.665 103.458 129.421 104.494L140.281 119.372C140.959 120.301 142.329 120.346 143.067 119.465L148.422 113.064C149.202 112.132 150.668 112.246 151.295 113.287L160.876 129.193C161.586 130.372 160.737 131.875 159.36 131.875H113.967Z"
        fill="#2CA89A" />
    <path
        d="M147.497 96.5361C147.497 97.3822 147.239 98.2093 146.756 98.9129C146.273 99.6164 145.587 100.165 144.784 100.488C143.981 100.812 143.098 100.897 142.246 100.732C141.393 100.567 140.61 100.159 139.996 99.5611C139.381 98.9628 138.963 98.2006 138.793 97.3707C138.624 96.5408 138.711 95.6807 139.043 94.8989C139.376 94.1172 139.939 93.4491 140.662 92.979C141.384 92.5089 142.234 92.2581 143.103 92.2581C144.268 92.2581 145.386 92.7088 146.21 93.5111C147.034 94.3133 147.497 95.4015 147.497 96.5361Z"
        fill="#2CA89A" />
    <path
        d="M162.617 131.848C162.55 131.979 162.479 131.953 162.488 131.806C162.488 131.627 162.488 131.408 162.488 131.129C162.488 130.522 162.488 129.657 162.488 128.542C162.488 126.264 162.488 122.971 162.416 118.783C162.416 110.42 162.345 98.5257 162.294 84.2385C162.294 84.1739 162.373 84.1407 162.418 84.1868C162.463 84.2324 162.431 84.3096 162.367 84.3096H111.257C111.077 84.3096 111.04 84.242 111.169 84.1163C111.314 83.9752 111.264 84.1443 111.264 84.3464V96.9646C111.264 101.183 111.264 105.322 111.264 109.351C111.264 117.336 111.264 124.891 111.264 131.849C111.264 131.912 111.189 131.944 111.143 131.901C111.095 131.856 111.127 131.776 111.192 131.776L148.295 131.895L158.82 131.965H161.609H162.58H162.355H161.66H158.922L148.458 132.035L111.009 132.154C110.873 132.154 110.764 132.044 110.764 131.909V131.905C110.764 124.941 110.764 117.29 110.764 109.242C110.764 105.212 110.764 101.073 110.764 96.8552V84.1323C110.764 83.9975 110.818 83.8685 110.915 83.7746C111.008 83.6838 111.133 83.6331 111.263 83.6331H162.621H162.637C162.769 83.6331 162.876 83.74 162.876 83.8718C162.876 98.2978 162.774 110.306 162.743 118.743C162.743 122.911 162.743 126.185 162.682 128.453C162.682 129.547 162.682 130.393 162.682 131C162.682 131.268 162.682 131.477 162.682 131.637C162.682 131.7 162.653 131.778 162.617 131.848Z"
        fill="#DCEEEC" />
    <path
        d="M171.382 189.575H171.313H171.263C171.223 189.56 171.186 189.537 171.156 189.506L168.924 187.223C168.572 186.876 168.322 186.439 168.2 185.96C168.078 185.48 168.088 184.977 168.23 184.503C168.324 184.214 168.489 183.952 168.709 183.743C168.93 183.533 169.199 183.382 169.493 183.303C169.787 183.224 170.096 183.22 170.392 183.291C170.688 183.362 170.961 183.506 171.188 183.709C171.259 183.784 171.324 183.866 171.382 183.953C171.441 183.86 171.51 183.774 171.588 183.697C171.755 183.541 171.952 183.42 172.167 183.342C172.382 183.264 172.61 183.229 172.839 183.24C173.219 183.227 173.593 183.344 173.898 183.571C174.204 183.799 174.423 184.123 174.521 184.491C174.664 184.964 174.675 185.468 174.553 185.948C174.43 186.427 174.179 186.864 173.827 187.211L171.594 189.493C171.536 189.546 171.46 189.575 171.382 189.575ZM169.95 183.84C169.698 183.824 169.45 183.899 169.249 184.05C169.048 184.202 168.909 184.42 168.855 184.666C168.745 185.032 168.737 185.422 168.833 185.793C168.929 186.163 169.125 186.5 169.399 186.767L171.407 188.818L173.414 186.767C173.688 186.5 173.884 186.163 173.981 185.793C174.078 185.423 174.072 185.033 173.964 184.666C173.91 184.421 173.77 184.203 173.569 184.052C173.368 183.9 173.121 183.826 172.87 183.84C172.721 183.828 172.572 183.847 172.431 183.895C172.29 183.943 172.16 184.021 172.051 184.122C171.837 184.38 171.72 184.705 171.719 185.041C171.725 185.093 171.714 185.146 171.688 185.191C171.657 185.254 171.606 185.306 171.543 185.336C171.48 185.367 171.408 185.375 171.339 185.36C171.27 185.345 171.209 185.307 171.164 185.253C171.12 185.198 171.095 185.13 171.094 185.06V185.022C171.094 184.694 170.976 184.377 170.762 184.128C170.655 184.026 170.527 183.947 170.387 183.898C170.247 183.848 170.098 183.829 169.95 183.84Z"
        fill="#2CA89A" />
    <path
        d="M160.391 58.2668C160.391 58.3544 149.823 58.4294 136.797 58.4294C123.771 58.4294 113.203 58.3544 113.203 58.2668C113.203 58.1793 123.765 58.1042 136.797 58.1042C149.829 58.1042 160.391 58.173 160.391 58.2668Z"
        fill="#2B2A29" />
    <path d="M153.967 51.7258H118.811V53.7269H153.967V51.7258Z" fill="#2CA89A" />
    <path
        d="M168.704 158.045C168.704 158.133 154.415 158.208 136.812 158.208C119.209 158.208 104.92 158.133 104.92 158.045C104.92 157.958 119.209 157.883 136.812 157.883C154.415 157.883 168.704 157.951 168.704 158.045Z"
        fill="#2B2A29" />
    <path
        d="M159.726 152.536C159.726 152.63 149.458 152.699 136.795 152.699C124.132 152.699 113.857 152.63 113.857 152.536C113.857 152.442 124.125 152.374 136.795 152.374C149.464 152.374 159.726 152.449 159.726 152.536Z"
        fill="#2B2A29" />
    <path
        d="M180.149 31.1521C179.37 31.2552 178.584 31.297 177.798 31.2772C176.334 31.2772 174.296 31.3335 172.001 31.3335H171.845V31.1709C171.801 30.8645 171.757 30.5455 171.713 30.2141C171.319 27.3939 170.994 24.88 170.807 23.2479L170.919 23.3479C170.219 23.3643 169.518 23.3245 168.824 23.2291C169.519 23.1383 170.219 23.1007 170.919 23.1166H171.019V23.2229C171.288 24.8425 171.644 27.3501 172.057 30.1703C172.101 30.4955 172.145 30.7957 172.189 31.1271L172.007 30.9708C174.302 30.9708 176.341 30.9708 177.804 31.027C178.588 31.0155 179.371 31.0573 180.149 31.1521Z"
        fill="#2B2A29" />
    <path
        d="M171.772 29.464C171.978 29.4217 172.188 29.4028 172.398 29.4077L174.142 29.3515C175.631 29.3515 177.725 29.3014 180.152 29.2889L179.983 29.4328C180.158 28.4197 180.346 27.3254 180.546 26.1935C180.652 25.612 180.752 25.0366 180.846 24.4926L181.027 24.7052C178.207 24.7052 175.724 24.7052 173.942 24.6427L171.841 24.5927C171.585 24.5985 171.329 24.5755 171.078 24.5239C171.329 24.4729 171.585 24.4519 171.841 24.4613L173.942 24.4051C175.724 24.4051 178.207 24.3488 181.027 24.3425H181.246L181.209 24.5551C181.108 25.1054 181.008 25.6745 180.908 26.2561C180.708 27.3879 180.508 28.4822 180.327 29.4953V29.6454H180.177C177.75 29.6454 175.656 29.6141 174.167 29.5828L172.423 29.5328C172.204 29.5427 171.984 29.5195 171.772 29.464Z"
        fill="#2B2A29" />
    <path
        d="M174.042 33.3658C173.986 33.3658 173.979 33.0469 173.642 32.8218C173.55 32.7629 173.445 32.7266 173.336 32.7157C173.228 32.7048 173.118 32.7198 173.016 32.7593C172.881 32.7931 172.761 32.8712 172.675 32.9811C172.59 33.091 172.543 33.2264 172.543 33.3658C172.543 33.5052 172.59 33.6406 172.675 33.7505C172.761 33.8604 172.881 33.9385 173.016 33.9724C173.118 34.0119 173.228 34.0268 173.336 34.016C173.445 34.0051 173.55 33.9687 173.642 33.9099C173.979 33.6847 173.986 33.3533 174.042 33.3658C174.098 33.3783 174.098 33.4409 174.086 33.5847C174.062 33.7925 173.959 33.983 173.798 34.1162C173.675 34.2217 173.527 34.2933 173.368 34.324C173.209 34.3547 173.045 34.3434 172.891 34.2913C172.687 34.2331 172.508 34.11 172.38 33.9408C172.253 33.7715 172.184 33.5653 172.184 33.3533C172.184 33.1413 172.253 32.9351 172.38 32.7658C172.508 32.5966 172.687 32.4735 172.891 32.4153C173.045 32.3632 173.209 32.3519 173.368 32.3826C173.527 32.4133 173.675 32.4849 173.798 32.5904C173.959 32.7236 174.062 32.9142 174.086 33.1219C174.098 33.297 174.067 33.3658 174.042 33.3658Z"
        fill="#2B2A29" />
    <path
        d="M179.286 33.3658C179.223 33.3658 179.223 33.0469 178.886 32.8218C178.794 32.7634 178.689 32.7273 178.58 32.7164C178.472 32.7056 178.362 32.7202 178.26 32.7593C178.125 32.7931 178.005 32.8712 177.919 32.9811C177.834 33.091 177.787 33.2264 177.787 33.3658C177.787 33.5052 177.834 33.6406 177.919 33.7505C178.005 33.8604 178.125 33.9385 178.26 33.9724C178.362 34.0114 178.472 34.0261 178.58 34.0152C178.689 34.0044 178.794 33.9683 178.886 33.9099C179.223 33.6847 179.223 33.3533 179.286 33.3658C179.348 33.3783 179.342 33.4409 179.33 33.5847C179.306 33.7925 179.203 33.983 179.042 34.1162C178.919 34.2217 178.771 34.2933 178.612 34.324C178.453 34.3547 178.289 34.3434 178.135 34.2913C177.931 34.2331 177.752 34.11 177.624 33.9408C177.497 33.7715 177.428 33.5653 177.428 33.3533C177.428 33.1413 177.497 32.9351 177.624 32.7658C177.752 32.5966 177.931 32.4735 178.135 32.4153C178.289 32.3632 178.453 32.3519 178.612 32.3826C178.771 32.4133 178.919 32.4849 179.042 32.5904C179.203 32.7236 179.306 32.9142 179.33 33.1219C179.342 33.297 179.305 33.3658 179.286 33.3658Z"
        fill="#2B2A29" />
    <path
        d="M184.707 24.0233C184.707 24.71 184.503 25.3813 184.122 25.9522C183.74 26.523 183.197 26.9679 182.563 27.2304C181.928 27.4929 181.23 27.5612 180.557 27.4268C179.883 27.2924 179.265 26.9612 178.78 26.4752C178.295 25.9892 177.965 25.3702 177.832 24.6966C177.698 24.0229 177.768 23.3249 178.032 22.6909C178.295 22.0568 178.741 21.5152 179.313 21.1346C179.884 20.754 180.556 20.5515 181.242 20.5527C181.698 20.5527 182.149 20.6426 182.57 20.817C182.99 20.9915 183.373 21.2473 183.694 21.5696C184.016 21.892 184.271 22.2746 184.445 22.6957C184.619 23.1167 184.708 23.5679 184.707 24.0233Z"
        fill="#2CA89A" />
    <path d="M181.562 22.6228V25.4243H181.168V22.973H180.543V22.6228H181.562Z" fill="white" />
</svg>
    