<svg width="36" height="36" viewBox="0 0 36 36" fill="none" xmlns="http://www.w3.org/2000/svg">
<rect width="36" height="36" rx="8" fill="#F6F6F6"/>
<path d="M17.9999 18.0001C18.4583 18.0001 18.8508 17.837 19.1774 17.5109C19.5041 17.1848 19.6671 16.7923 19.6666 16.3334C19.6666 15.8751 19.5035 15.4829 19.1774 15.1567C18.8513 14.8306 18.4588 14.6673 17.9999 14.6667C17.5416 14.6667 17.1494 14.8301 16.8233 15.1567C16.4971 15.4834 16.3338 15.8756 16.3333 16.3334C16.3333 16.7917 16.4966 17.1842 16.8233 17.5109C17.1499 17.8376 17.5421 18.0006 17.9999 18.0001ZM17.9999 24.1251C19.6944 22.5695 20.9513 21.1565 21.7708 19.8859C22.5902 18.6154 22.9999 17.4867 22.9999 16.5001C22.9999 14.9862 22.5174 13.7467 21.5524 12.7817C20.5874 11.8167 19.4033 11.334 17.9999 11.3334C16.5971 11.3334 15.4133 11.8162 14.4483 12.7817C13.4833 13.7473 13.0005 14.9867 12.9999 16.5001C12.9999 17.4862 13.4096 18.6148 14.2291 19.8859C15.0485 21.157 16.3055 22.5701 17.9999 24.1251ZM17.9999 26.3334C15.7638 24.4306 14.0938 22.6634 12.9899 21.0317C11.886 19.4001 11.3338 17.8895 11.3333 16.5001C11.3333 14.4167 12.0035 12.757 13.3441 11.5209C14.6846 10.2848 16.2366 9.66675 17.9999 9.66675C19.7638 9.66675 21.316 10.2848 22.6566 11.5209C23.9971 12.757 24.6671 14.4167 24.6666 16.5001C24.6666 17.889 24.1146 19.3995 23.0108 21.0317C21.9069 22.664 20.2366 24.4312 17.9999 26.3334Z" fill="#2B2A29"/>
</svg>
