<svg width="36" height="36" viewBox="0 0 36 36" fill="none" xmlns="http://www.w3.org/2000/svg">
<rect width="36" height="36" rx="8" fill="#F6F6F6"/>
<path d="M10.5 13.8334C10.5 13.3914 10.6756 12.9675 10.9882 12.6549C11.3007 12.3423 11.7246 12.1667 12.1667 12.1667H23.8333C24.2754 12.1667 24.6993 12.3423 25.0118 12.6549C25.3244 12.9675 25.5 13.3914 25.5 13.8334V22.1667C25.5 22.6088 25.3244 23.0327 25.0118 23.3453C24.6993 23.6578 24.2754 23.8334 23.8333 23.8334H12.1667C11.7246 23.8334 11.3007 23.6578 10.9882 23.3453C10.6756 23.0327 10.5 22.6088 10.5 22.1667V13.8334Z" stroke="#2B2A29" stroke-width="1.5" stroke-linecap="round" stroke-linejoin="round"/>
<path d="M10.5 13.8335L18 18.8335L25.5 13.8335" stroke="#2B2A29" stroke-width="1.5" stroke-linecap="round" stroke-linejoin="round"/>
</svg>
