<svg width="36" height="36" viewBox="0 0 36 36" fill="none" xmlns="http://www.w3.org/2000/svg">
<rect width="36" height="36" rx="8" fill="#F6F6F6"/>
<path d="M24.2549 14.6333C23.6606 16.9521 22.454 19.0686 20.7613 20.7613C19.0686 22.454 16.9521 23.6606 14.6333 24.2549C12.8491 24.7091 11.3333 23.1749 11.3333 21.3333V20.4999C11.3333 20.0399 11.7074 19.6708 12.1658 19.6249C12.9245 19.5501 13.6693 19.3709 14.3791 19.0924L15.6449 20.3591C17.7074 19.3705 19.3705 17.7074 20.3591 15.6449L19.0924 14.3783C19.3712 13.6685 19.5507 12.9237 19.6258 12.1649C19.6708 11.7066 20.0399 11.3333 20.4999 11.3333H21.3333C23.1733 11.3333 24.7083 12.8491 24.2541 14.6333" stroke="#2B2A29" stroke-width="2" stroke-linecap="round" stroke-linejoin="round"/>
</svg>
