<svg width="32" height="32" viewBox="0 0 32 32" fill="none" xmlns="http://www.w3.org/2000/svg">
    <g clip-path="url(#clip0_226_6013)">
        <rect width="32" height="32" fill="#111111" />
        <path
            d="M23.9746 12.2209C23.4227 12.2209 22.8761 12.1122 22.3662 11.901C21.8563 11.6898 21.393 11.3802 21.0027 10.9899C20.6124 10.5997 20.3029 10.1363 20.0916 9.62643C19.8804 9.11651 19.7717 8.56999 19.7717 8.01807H16.7691V19.776C16.7685 20.3121 16.5992 20.8343 16.2852 21.2688C15.9712 21.7033 15.5285 22.028 15.0197 22.1968C14.5109 22.3656 13.9618 22.3699 13.4504 22.2093C12.939 22.0486 12.4911 21.731 12.1702 21.3016C11.8494 20.8722 11.6718 20.3526 11.6627 19.8166C11.6536 19.2807 11.8134 18.7554 12.1195 18.3153C12.4256 17.8752 12.8624 17.5426 13.3681 17.3647C13.8738 17.1867 14.4226 17.1724 14.9368 17.3238V14.405C13.844 14.2577 12.7322 14.4472 11.7499 14.9484C10.7676 15.4495 9.96155 16.2384 9.43941 17.2097C8.91728 18.1811 8.70389 19.2885 8.82775 20.3843C8.95161 21.4801 9.40682 22.512 10.1326 23.3423C10.8584 24.1725 11.8201 24.7616 12.8895 25.0308C13.9589 25.3001 15.085 25.2367 16.1174 24.8491C17.1498 24.4615 18.0393 23.7682 18.6673 22.8617C19.2953 21.9552 19.6318 20.8787 19.6319 19.776L19.719 13.8327C20.9527 14.7384 22.4438 15.2257 23.9742 15.2234L23.9746 12.2209Z"
            fill="url(#paint0_linear_226_6013)" />
        <path
            d="M23.181 11.4028C22.0663 11.4028 20.9973 10.96 20.2092 10.1718C19.421 9.38359 18.9783 8.31459 18.9783 7.19995H15.9756V18.9579C15.975 19.4939 15.8058 20.0162 15.4918 20.4507C15.1778 20.8852 14.735 21.2099 14.2262 21.3787C13.7174 21.5475 13.1684 21.5519 12.657 21.3912C12.1456 21.2305 11.6977 20.913 11.3768 20.4836C11.0559 20.0541 10.8783 19.5346 10.8692 18.9986C10.8601 18.4626 11.0199 17.9373 11.326 17.4973C11.6321 17.0572 12.069 16.7246 12.5746 16.5466C13.0803 16.3687 13.6292 16.3544 14.1434 16.5058V13.5869C13.0505 13.4396 11.9387 13.6291 10.9564 14.1303C9.97412 14.6314 9.16809 15.4203 8.64596 16.3916C8.12382 17.3629 7.91044 18.4704 8.0343 19.5662C8.15815 20.662 8.61336 21.6939 9.33913 22.5241C10.0649 23.3544 11.0267 23.9435 12.0961 24.2127C13.1654 24.482 14.2915 24.4186 15.3239 24.031C16.3563 23.6434 17.2459 22.9501 17.8739 22.0436C18.5019 21.1371 18.8384 20.0606 18.8384 18.9579L18.926 13.0146C20.1597 13.9203 21.6508 14.4076 23.1813 14.4053L23.181 11.4028Z"
            fill="url(#paint1_linear_226_6013)" />
        <path
            d="M23.181 12.1457C22.1421 11.9458 21.2168 11.3615 20.5898 10.5093C19.7973 9.88911 19.2538 9.00511 19.058 8.01807H16.7694V19.776C16.7693 20.334 16.5867 20.8767 16.2493 21.3212C15.912 21.7657 15.4384 22.0876 14.901 22.2378C14.3635 22.388 13.7917 22.3581 13.2728 22.1529C12.7539 21.9476 12.3164 21.5782 12.0271 21.101C11.5126 20.7662 11.1358 20.2574 10.9655 19.6676C10.7953 19.0779 10.8429 18.4465 11.0996 17.889C11.3564 17.3314 11.8053 16.8849 12.3641 16.631C12.923 16.377 13.5545 16.3326 14.1434 16.5059V14.358C13.1333 14.371 12.147 14.6661 11.2958 15.2099C10.4445 15.7538 9.76224 16.5248 9.32594 17.4358C8.88964 18.3469 8.71669 19.3618 8.82662 20.366C8.93654 21.3701 9.32496 22.3235 9.94804 23.1186C10.7391 23.7787 11.7018 24.1995 12.7235 24.3319C13.7452 24.4643 14.7834 24.3026 15.7165 23.8659C16.6496 23.4293 17.4389 22.7356 17.9918 21.8664C18.5448 20.9971 18.8384 19.9882 18.8384 18.958L18.926 13.0148C20.1597 13.9204 21.6508 14.4077 23.1813 14.4054L23.181 12.1457Z"
            fill="url(#paint2_linear_226_6013)" />
    </g>
    <defs>
        <linearGradient id="paint0_linear_226_6013" x1="9.99685" y1="23.2231" x2="22.4868"
            y2="10.7331" gradientUnits="userSpaceOnUse">
            <stop stop-color="#B5053C" />
            <stop offset="0.233" stop-color="#C90441" />
            <stop offset="0.737" stop-color="#F0014B" />
            <stop offset="1" stop-color="#FF004F" />
        </linearGradient>
        <linearGradient id="paint1_linear_226_6013" x1="9.01731" y1="22.5909" x2="22.1739"
            y2="9.43435" gradientUnits="userSpaceOnUse">
            <stop stop-color="#00B2C9" />
            <stop offset="0.283" stop-color="#00C8D4" />
            <stop offset="0.741" stop-color="#00E6E4" />
            <stop offset="1" stop-color="#00F1EA" />
        </linearGradient>
        <linearGradient id="paint2_linear_226_6013" x1="1.64639" y1="30.7678" x2="30.7685"
            y2="1.64574" gradientUnits="userSpaceOnUse">
            <stop stop-color="#DDE3E4" />
            <stop offset="1" stop-color="#FCF7F7" />
        </linearGradient>
        <clipPath id="clip0_226_6013">
            <rect width="32" height="32" rx="8" fill="white" />
        </clipPath>
    </defs>
</svg>