<svg width="692" height="181" viewBox="0 0 692 181" fill="none" xmlns="http://www.w3.org/2000/svg">
    <path
        d="M588.32 162.31H591.99L597.47 154.38C598 153.66 598.61 153.31 599.3 153.31C599.85 153.31 600.31 153.48 600.7 153.84C601.09 154.19 601.28 154.62 601.28 155.15C601.28 155.37 601.25 155.58 601.18 155.79C601.12 156 601.05 156.16 600.99 156.27C600.92 156.38 600.84 156.52 600.72 156.69C600.61 156.85 600.54 156.95 600.52 156.98L595.49 164L600.99 171.63C601.01 171.66 601.08 171.76 601.19 171.92C601.31 172.08 601.39 172.22 601.46 172.34C601.53 172.45 601.59 172.62 601.65 172.82C601.72 173.03 601.75 173.24 601.75 173.46C601.75 173.99 601.56 174.42 601.17 174.77C600.78 175.11 600.32 175.28 599.77 175.28C599.08 175.28 598.47 174.92 597.94 174.22L592 165.98H588.33V173.46C588.33 173.99 588.14 174.42 587.75 174.77C587.36 175.11 586.9 175.28 586.35 175.28C585.8 175.28 585.34 175.11 584.95 174.77C584.56 174.42 584.37 173.99 584.37 173.46V155.16C584.37 154.63 584.56 154.19 584.95 153.85C585.34 153.5 585.8 153.32 586.35 153.32C586.9 153.32 587.36 153.49 587.75 153.85C588.14 154.2 588.33 154.63 588.33 155.16V162.31H588.32ZM576.12 161.54C576.12 160.07 575.66 158.89 574.74 158C573.82 157.11 572.6 156.66 571.08 156.66C569.56 156.66 568.34 157.11 567.42 158C566.5 158.9 566.04 160.08 566.04 161.54V167.04C566.04 168.51 566.5 169.69 567.41 170.58C568.32 171.47 569.54 171.91 571.07 171.91C572.6 171.91 573.82 171.47 574.74 170.58C575.66 169.69 576.11 168.51 576.11 167.04V161.54H576.12ZM580.09 167.04C580.09 168.25 579.87 169.39 579.42 170.45C578.98 171.51 578.37 172.41 577.59 173.16C576.81 173.91 575.86 174.5 574.74 174.93C573.62 175.36 572.4 175.58 571.09 175.58C569.78 175.58 568.56 175.37 567.44 174.93C566.32 174.5 565.37 173.9 564.59 173.16C563.81 172.41 563.2 171.51 562.76 170.45C562.32 169.39 562.1 168.26 562.1 167.04V161.54C562.1 159.93 562.47 158.48 563.22 157.18C563.97 155.89 565.03 154.86 566.41 154.11C567.78 153.36 569.34 152.99 571.09 152.99C572.84 152.99 574.4 153.36 575.78 154.11C577.15 154.86 578.21 155.88 578.97 157.18C579.72 158.48 580.09 159.93 580.09 161.54V167.04ZM550.52 153.61C553.02 153.61 554.88 154.11 556.12 155.1C557.36 156.1 557.98 157.43 557.98 159.1C557.98 160.61 557.48 161.83 556.46 162.77C556 163.18 555.48 163.48 554.93 163.67V163.99C555.67 164.21 556.3 164.52 556.82 164.93C558.1 165.93 558.74 167.23 558.74 168.86C558.74 170.7 558.05 172.17 556.69 173.29C555.32 174.41 553.31 174.97 550.66 174.97H543.64C543.09 174.97 542.63 174.8 542.24 174.45C541.85 174.1 541.66 173.67 541.66 173.14V155.44C541.66 154.92 541.85 154.48 542.24 154.13C542.63 153.78 543.09 153.61 543.64 153.61H550.52ZM545.63 171.3H550.96C552.2 171.3 553.15 171.05 553.8 170.54C554.45 170.03 554.78 169.37 554.78 168.56C554.78 167.75 554.46 167.09 553.8 166.58C553.15 166.07 552.2 165.82 550.96 165.82H545.63V171.3ZM545.63 162.15H550.52C551.68 162.15 552.56 161.93 553.14 161.47C553.72 161.02 554.02 160.43 554.02 159.71C554.02 158.98 553.72 158.4 553.14 157.95C552.55 157.5 551.68 157.27 550.52 157.27H545.63V162.15ZM524.73 169.93L523.36 173.59C522.9 174.7 522.24 175.26 521.38 175.26C520.84 175.26 520.37 175.09 519.98 174.75C519.59 174.4 519.4 173.97 519.4 173.44C519.4 173.1 519.47 172.74 519.61 172.37L519.85 171.76L525.81 156.2C526.25 155.04 526.72 154.21 527.23 153.72C527.74 153.24 528.38 152.99 529.16 152.99C529.93 152.99 530.58 153.23 531.09 153.72C531.6 154.21 532.08 155.03 532.51 156.2L538.47 171.76C538.54 172.01 538.61 172.21 538.68 172.37C538.84 172.83 538.92 173.18 538.92 173.44C538.92 173.97 538.73 174.4 538.33 174.75C537.94 175.09 537.48 175.26 536.93 175.26C536.07 175.26 535.4 174.7 534.95 173.59L533.58 169.93H524.73ZM532.36 166.27L529.3 158.03H529L525.95 166.27H532.36ZM509.95 162.15C512.48 162.15 514.4 162.73 515.73 163.88C517.06 165.03 517.73 166.6 517.73 168.56C517.73 170.53 517.06 172.09 515.73 173.24C514.4 174.39 512.48 174.97 509.95 174.97H503.08C502.53 174.97 502.07 174.8 501.68 174.45C501.29 174.1 501.1 173.67 501.1 173.14V155.44C501.1 154.92 501.29 154.48 501.68 154.13C502.07 153.78 502.53 153.61 503.08 153.61H514.21C514.8 153.61 515.27 153.79 515.64 154.15C516.01 154.51 516.19 154.94 516.19 155.44C516.19 155.94 516.01 156.36 515.64 156.73C515.27 157.09 514.8 157.27 514.21 157.27H505.06V162.15H509.95ZM505.07 165.82V171.3H509.96C511.21 171.3 512.15 171.05 512.8 170.54C513.45 170.03 513.77 169.37 513.77 168.56C513.77 167.75 513.44 167.09 512.8 166.58C512.15 166.07 511.2 165.82 509.96 165.82H505.07ZM492.87 161.54C492.87 160.07 492.41 158.89 491.49 158C490.57 157.11 489.36 156.66 487.84 156.66C486.32 156.66 485.1 157.11 484.18 158C483.26 158.9 482.8 160.08 482.8 161.54V167.04C482.8 168.51 483.26 169.69 484.17 170.58C485.08 171.47 486.3 171.91 487.83 171.91C489.36 171.91 490.58 171.47 491.5 170.58C492.42 169.69 492.87 168.51 492.87 167.04V161.54ZM496.84 167.04C496.84 168.25 496.62 169.39 496.17 170.45C495.73 171.51 495.12 172.41 494.34 173.16C493.56 173.91 492.61 174.5 491.49 174.93C490.37 175.36 489.15 175.58 487.84 175.58C486.53 175.58 485.31 175.37 484.19 174.93C483.07 174.5 482.12 173.9 481.34 173.16C480.56 172.41 479.95 171.51 479.51 170.45C479.07 169.39 478.85 168.26 478.85 167.04V161.54C478.85 159.93 479.22 158.48 479.97 157.18C480.72 155.89 481.78 154.86 483.16 154.11C484.53 153.36 486.09 152.99 487.84 152.99C489.59 152.99 491.15 153.36 492.53 154.11C493.9 154.86 494.97 155.88 495.72 157.18C496.47 158.48 496.84 159.93 496.84 161.54V167.04ZM469.69 157.27H462.67V165.21C462.67 166.85 462.31 168.31 461.6 169.6C461.22 170.21 460.87 170.67 460.54 171V171.3H469.69V157.27ZM456.27 171.3C456.7 170.9 457.1 170.39 457.5 169.75C458.31 168.32 458.72 166.8 458.72 165.2V155.43C458.72 154.91 458.91 154.47 459.3 154.12C459.69 153.77 460.15 153.6 460.7 153.6H471.68C472.22 153.6 472.69 153.77 473.08 154.12C473.47 154.47 473.66 154.91 473.66 155.43V171.29H474.59C475.13 171.29 475.6 171.46 475.99 171.81C476.38 172.16 476.57 172.59 476.57 173.12V178.3C476.57 178.83 476.37 179.27 475.99 179.61C475.6 179.96 475.14 180.13 474.59 180.13C474.05 180.13 473.58 179.95 473.19 179.61C472.8 179.26 472.6 178.83 472.6 178.3V174.95H457.96V178.3C457.96 178.83 457.77 179.27 457.37 179.61C456.98 179.96 456.51 180.13 455.96 180.13C455.41 180.13 454.95 179.95 454.56 179.61C454.17 179.26 453.98 178.83 453.98 178.3V173.12C453.98 172.59 454.17 172.15 454.56 171.81C454.95 171.46 455.41 171.29 455.96 171.29L456.27 171.3ZM436.91 167.34L431.88 174.21C431.36 174.91 430.75 175.27 430.05 175.27C429.5 175.27 429.04 175.1 428.65 174.76C428.26 174.41 428.07 173.98 428.07 173.45C428.07 173.23 428.1 173.02 428.17 172.81C428.24 172.6 428.3 172.44 428.36 172.33C428.43 172.22 428.52 172.08 428.63 171.91C428.74 171.75 428.81 171.65 428.83 171.62L434.62 163.99L429.44 156.97C429.42 156.94 429.35 156.84 429.24 156.68C429.13 156.52 429.04 156.38 428.97 156.26C428.91 156.14 428.84 155.98 428.78 155.78C428.72 155.57 428.68 155.36 428.68 155.14C428.68 154.61 428.87 154.17 429.26 153.83C429.65 153.48 430.11 153.3 430.66 153.3C431.36 153.3 431.97 153.66 432.49 154.37L436.91 160.61H437.21L441.63 154.37C442.16 153.65 442.77 153.3 443.46 153.3C444.01 153.3 444.48 153.47 444.86 153.83C445.25 154.18 445.44 154.61 445.44 155.14C445.44 155.36 445.41 155.57 445.34 155.78C445.27 155.99 445.21 156.15 445.15 156.26C445.08 156.37 445 156.51 444.88 156.68C444.77 156.84 444.7 156.94 444.68 156.97L439.49 163.99L445.29 171.62C445.31 171.65 445.38 171.75 445.49 171.91C445.61 172.07 445.69 172.21 445.76 172.33C445.83 172.44 445.89 172.61 445.95 172.81C446.02 173.02 446.05 173.23 446.05 173.45C446.05 173.98 445.86 174.41 445.47 174.76C445.08 175.1 444.62 175.27 444.07 175.27C443.37 175.27 442.76 174.91 442.23 174.21L437.2 167.34H436.91ZM425.18 173.45C425.18 173.98 424.99 174.41 424.59 174.76C424.2 175.1 423.73 175.27 423.19 175.27C422.64 175.27 422.17 175.1 421.79 174.76C421.4 174.41 421.21 173.98 421.21 173.45V155.15C421.21 154.62 421.4 154.18 421.79 153.84C422.18 153.49 422.64 153.31 423.19 153.31C423.73 153.31 424.2 153.48 424.59 153.84C424.99 154.19 425.18 154.62 425.18 155.15V173.45ZM410.07 160.93C412.83 160.93 414.92 161.55 416.33 162.79C417.75 164.03 418.46 165.75 418.46 167.94C418.46 170.14 417.75 171.86 416.33 173.1C414.92 174.34 412.83 174.96 410.07 174.96H404.28C403.73 174.96 403.27 174.79 402.88 174.44C402.49 174.09 402.3 173.66 402.3 173.13V155.14C402.3 154.61 402.49 154.17 402.88 153.83C403.27 153.48 403.73 153.3 404.28 153.3C404.82 153.3 405.29 153.47 405.68 153.83C406.07 154.18 406.26 154.61 406.26 155.14V160.93H410.07ZM406.26 164.6V171.3H410.07C411.55 171.3 412.66 171 413.4 170.4C414.13 169.8 414.5 168.98 414.5 167.95C414.5 166.92 414.13 166.1 413.4 165.5C412.66 164.9 411.55 164.6 410.07 164.6H406.26ZM397.71 173.45C397.71 173.98 397.52 174.41 397.13 174.76C396.74 175.1 396.28 175.27 395.73 175.27C395.18 175.27 394.72 175.1 394.33 174.76C393.94 174.41 393.75 173.98 393.75 173.45V166.12H384.6V173.45C384.6 173.98 384.41 174.41 384.02 174.76C383.63 175.1 383.17 175.27 382.62 175.27C382.07 175.27 381.61 175.1 381.22 174.76C380.83 174.41 380.64 173.98 380.64 173.45V155.15C380.64 154.62 380.83 154.18 381.22 153.84C381.61 153.49 382.08 153.31 382.62 153.31C383.17 153.31 383.63 153.48 384.02 153.84C384.41 154.19 384.6 154.62 384.6 155.15V162.46H393.75V155.15C393.75 154.62 393.94 154.18 394.33 153.84C394.72 153.49 395.18 153.31 395.73 153.31C396.27 153.31 396.74 153.48 397.13 153.84C397.52 154.19 397.71 154.62 397.71 155.15V173.45ZM376.05 173.45C376.05 173.98 375.86 174.41 375.47 174.76C375.08 175.1 374.62 175.27 374.07 175.27C373.52 175.27 373.06 175.1 372.67 174.76C372.28 174.41 372.09 173.98 372.09 173.45V166.12H362.94V173.45C362.94 173.98 362.75 174.41 362.36 174.76C361.97 175.1 361.51 175.27 360.96 175.27C360.41 175.27 359.95 175.1 359.56 174.76C359.17 174.41 358.98 173.98 358.98 173.45V155.15C358.98 154.62 359.17 154.18 359.56 153.84C359.95 153.49 360.42 153.31 360.96 153.31C361.5 153.31 361.97 153.48 362.36 153.84C362.75 154.19 362.94 154.62 362.94 155.15V162.46H372.09V155.15C372.09 154.62 372.28 154.18 372.67 153.84C373.06 153.49 373.52 153.31 374.07 153.31C374.61 153.31 375.08 153.48 375.47 153.84C375.86 154.19 376.05 154.62 376.05 155.15V173.45ZM350.13 160.47L341.89 173.44C341.1 174.65 340.23 175.26 339.3 175.26C338.67 175.26 338.14 175.06 337.69 174.64C337.24 174.23 337.02 173.73 337.02 173.13V155.14C337.02 154.61 337.21 154.17 337.6 153.83C337.99 153.48 338.45 153.3 339 153.3C339.54 153.3 340.01 153.47 340.4 153.83C340.79 154.18 340.98 154.61 340.98 155.14V168.09H341.28L349.52 155.14C350.31 153.91 351.18 153.3 352.11 153.3C352.74 153.3 353.27 153.5 353.73 153.91C354.18 154.32 354.41 154.82 354.41 155.43V173.44C354.41 173.97 354.22 174.4 353.83 174.75C353.44 175.09 352.98 175.26 352.43 175.26C351.89 175.26 351.42 175.09 351.03 174.75C350.64 174.4 350.45 173.97 350.45 173.44V160.47H350.13ZM327.42 155.14C328.09 153.91 329 153.3 330.16 153.3C330.79 153.3 331.33 153.5 331.78 153.91C332.23 154.32 332.46 154.82 332.46 155.43V173.44C332.46 173.97 332.27 174.4 331.87 174.75C331.48 175.09 331.01 175.26 330.47 175.26C329.92 175.26 329.45 175.09 329.07 174.75C328.68 174.4 328.49 173.97 328.49 173.44V161.23H328.19L323.46 170.85C322.8 172.07 322 172.67 321.03 172.67C320.06 172.67 319.24 172.06 318.59 170.85L313.85 161.23H313.55V173.44C313.55 173.97 313.36 174.4 312.97 174.75C312.58 175.09 312.12 175.26 311.57 175.26C311.02 175.26 310.56 175.09 310.17 174.75C309.78 174.4 309.59 173.97 309.59 173.44V155.43C309.59 154.82 309.81 154.32 310.26 153.91C310.71 153.5 311.24 153.3 311.87 153.3C313.04 153.3 313.96 153.91 314.63 155.14L320.87 167.64H321.18L327.42 155.14ZM292.63 169.93L291.26 173.59C290.8 174.7 290.14 175.26 289.28 175.26C288.73 175.26 288.27 175.09 287.88 174.75C287.49 174.4 287.3 173.97 287.3 173.44C287.3 173.1 287.37 172.74 287.51 172.37L287.75 171.76L293.71 156.2C294.15 155.04 294.62 154.21 295.13 153.72C295.64 153.24 296.28 152.99 297.06 152.99C297.83 152.99 298.48 153.23 298.99 153.72C299.5 154.21 299.98 155.03 300.41 156.2L306.37 171.76C306.44 172.01 306.51 172.21 306.58 172.37C306.74 172.83 306.82 173.18 306.82 173.44C306.82 173.97 306.63 174.4 306.24 174.75C305.85 175.09 305.39 175.26 304.84 175.26C303.98 175.26 303.31 174.7 302.86 173.59L301.49 169.93H292.63ZM300.26 166.27L297.2 158.03H296.9L293.85 166.27H300.26ZM272.67 157.27C272.09 157.27 271.61 157.08 271.23 156.72C270.86 156.35 270.68 155.93 270.68 155.44C270.68 154.95 270.86 154.52 271.23 154.16C271.61 153.79 272.08 153.61 272.67 153.61H286.39C286.98 153.61 287.45 153.79 287.82 154.15C288.19 154.51 288.37 154.94 288.37 155.44C288.37 155.94 288.19 156.36 287.82 156.73C287.45 157.09 286.98 157.27 286.39 157.27H281.52V173.44C281.52 173.97 281.33 174.4 280.93 174.75C280.54 175.09 280.07 175.26 279.52 175.26C278.97 175.26 278.51 175.09 278.12 174.75C277.73 174.4 277.54 173.97 277.54 173.44V157.27H272.67ZM263.83 160.47L255.59 173.44C254.8 174.65 253.93 175.26 253 175.26C252.37 175.26 251.84 175.06 251.39 174.64C250.94 174.23 250.72 173.73 250.72 173.13V155.14C250.72 154.61 250.91 154.17 251.3 153.83C251.69 153.48 252.15 153.3 252.7 153.3C253.24 153.3 253.71 153.47 254.1 153.83C254.49 154.18 254.68 154.61 254.68 155.14V168.09H254.98L263.22 155.14C264.01 153.91 264.88 153.3 265.81 153.3C266.43 153.3 266.97 153.5 267.43 153.91C267.88 154.32 268.11 154.82 268.11 155.43V173.44C268.11 173.97 267.92 174.4 267.53 174.75C267.14 175.09 266.68 175.26 266.13 175.26C265.59 175.26 265.12 175.09 264.73 174.75C264.34 174.4 264.15 173.97 264.15 173.44V160.47H263.83ZM238.83 153.61C241.33 153.61 243.19 154.11 244.43 155.1C245.67 156.1 246.29 157.43 246.29 159.1C246.29 160.61 245.79 161.83 244.77 162.77C244.31 163.18 243.79 163.48 243.24 163.67V163.99C243.98 164.21 244.61 164.52 245.13 164.93C246.41 165.93 247.05 167.23 247.05 168.86C247.05 170.7 246.37 172.17 245 173.29C243.63 174.41 241.62 174.97 238.97 174.97H231.95C231.4 174.97 230.94 174.8 230.55 174.45C230.16 174.1 229.97 173.67 229.97 173.14V155.44C229.97 154.92 230.16 154.48 230.55 154.13C230.94 153.78 231.4 153.61 231.95 153.61H238.83ZM233.95 171.3H239.28C240.52 171.3 241.47 171.05 242.12 170.54C242.77 170.03 243.1 169.37 243.1 168.56C243.1 167.75 242.77 167.09 242.12 166.58C241.47 166.07 240.52 165.82 239.28 165.82H233.95V171.3ZM233.95 162.15H238.84C240 162.15 240.88 161.93 241.46 161.47C242.05 161.02 242.34 160.43 242.34 159.71C242.34 158.98 242.05 158.4 241.46 157.95C240.87 157.5 240 157.27 238.84 157.27H233.95V162.15ZM217.62 173.45C217.62 173.98 217.43 174.41 217.04 174.76C216.65 175.1 216.19 175.27 215.64 175.27C215.09 175.27 214.63 175.1 214.24 174.76C213.85 174.41 213.66 173.98 213.66 173.45V166.12H204.51V173.45C204.51 173.98 204.32 174.41 203.93 174.76C203.54 175.1 203.08 175.27 202.53 175.27C201.98 175.27 201.52 175.1 201.13 174.76C200.74 174.41 200.55 173.98 200.55 173.45V155.15C200.55 154.62 200.74 154.18 201.13 153.84C201.52 153.49 201.98 153.31 202.53 153.31C203.07 153.31 203.54 153.48 203.93 153.84C204.32 154.19 204.51 154.62 204.51 155.15V162.46H213.66V155.15C213.66 154.62 213.85 154.18 214.24 153.84C214.63 153.49 215.09 153.31 215.64 153.31C216.18 153.31 216.65 153.48 217.04 153.84C217.43 154.19 217.62 154.62 217.62 155.15V173.45ZM191.7 160.47L183.46 173.44C182.67 174.65 181.8 175.26 180.87 175.26C180.24 175.26 179.71 175.06 179.26 174.64C178.81 174.23 178.59 173.73 178.59 173.13V155.14C178.59 154.61 178.78 154.17 179.17 153.83C179.56 153.48 180.02 153.3 180.57 153.3C181.12 153.3 181.58 153.47 181.97 153.83C182.36 154.18 182.55 154.61 182.55 155.14V168.09H182.85L191.09 155.14C191.88 153.91 192.75 153.3 193.68 153.3C194.31 153.3 194.84 153.5 195.3 153.91C195.75 154.32 195.98 154.82 195.98 155.43V173.44C195.98 173.97 195.79 174.4 195.4 174.75C195.01 175.09 194.55 175.26 194 175.26C193.46 175.26 192.99 175.09 192.6 174.75C192.21 174.4 192.02 173.97 192.02 173.44V160.47H191.7ZM166.71 162.15C167.89 162.15 168.79 161.9 169.42 161.39C170.04 160.88 170.36 160.23 170.36 159.41C170.36 158.6 170.04 157.94 169.41 157.42C168.78 156.91 167.88 156.65 166.71 156.65C166.18 156.65 165.68 156.71 165.24 156.83C164.79 156.95 164.42 157.1 164.13 157.29C163.83 157.48 163.57 157.69 163.33 157.91C163.09 158.13 162.87 158.36 162.67 158.59C162.48 158.82 162.29 159.03 162.11 159.22C161.93 159.41 161.73 159.56 161.5 159.68C161.27 159.8 161.02 159.86 160.75 159.86C160.22 159.86 159.77 159.69 159.43 159.35C159.09 159.01 158.92 158.57 158.92 158.03C158.92 157.52 159.11 156.98 159.48 156.41C159.86 155.83 160.37 155.29 161.02 154.78C161.67 154.27 162.5 153.84 163.51 153.5C164.52 153.16 165.58 153 166.7 153C168.98 153 170.83 153.6 172.23 154.82C173.63 156.03 174.33 157.51 174.33 159.25C174.33 160.67 173.74 161.85 172.56 162.79C172.1 163.15 171.51 163.44 170.82 163.67V163.99C171.59 164.21 172.27 164.52 172.86 164.93C174.25 165.88 174.94 167.19 174.94 168.86C174.94 169.78 174.75 170.65 174.37 171.46C173.99 172.27 173.44 172.98 172.74 173.59C172.03 174.2 171.13 174.68 170.04 175.04C168.95 175.39 167.73 175.57 166.4 175.57C165.24 175.57 164.13 175.39 163.08 175.04C162.03 174.69 161.17 174.25 160.49 173.71C159.82 173.18 159.28 172.62 158.89 172.03C158.5 171.44 158.3 170.89 158.3 170.39C158.3 169.85 158.47 169.41 158.81 169.07C159.15 168.73 159.59 168.56 160.13 168.56C160.43 168.56 160.71 168.64 160.98 168.81C161.25 168.97 161.48 169.18 161.68 169.43C161.88 169.68 162.12 169.95 162.42 170.24C162.71 170.53 163.02 170.8 163.35 171.05C163.68 171.3 164.12 171.51 164.68 171.67C165.23 171.83 165.85 171.91 166.54 171.91C168 171.91 169.1 171.63 169.84 171.06C170.59 170.49 170.96 169.76 170.96 168.86C170.96 167.96 170.59 167.22 169.84 166.66C169.1 166.1 167.99 165.82 166.54 165.82H165.17C164.59 165.82 164.11 165.64 163.74 165.28C163.37 164.92 163.19 164.49 163.19 163.99C163.19 163.49 163.37 163.07 163.74 162.7C164.11 162.34 164.58 162.16 165.17 162.16L166.71 162.15ZM142.76 169.93L141.39 173.59C140.93 174.7 140.27 175.26 139.41 175.26C138.86 175.26 138.4 175.09 138.01 174.75C137.62 174.4 137.43 173.97 137.43 173.44C137.43 173.1 137.5 172.74 137.64 172.37L137.88 171.76L143.84 156.2C144.28 155.04 144.75 154.21 145.26 153.72C145.77 153.24 146.41 152.99 147.19 152.99C147.96 152.99 148.61 153.23 149.12 153.72C149.63 154.21 150.11 155.03 150.54 156.2L156.5 171.76C156.57 172.01 156.64 172.21 156.71 172.37C156.87 172.83 156.95 173.18 156.95 173.44C156.95 173.97 156.76 174.4 156.36 174.75C155.97 175.09 155.51 175.26 154.96 175.26C154.1 175.26 153.43 174.7 152.98 173.59L151.61 169.93H142.76ZM150.38 166.27L147.32 158.03H147.02L143.97 166.27H150.38ZM128.89 157.27V173.44C128.89 173.97 128.7 174.4 128.31 174.75C127.92 175.09 127.46 175.26 126.91 175.26C126.36 175.26 125.9 175.09 125.51 174.75C125.12 174.4 124.93 173.97 124.93 173.44V155.43C124.93 154.91 125.12 154.47 125.51 154.12C125.9 153.77 126.36 153.6 126.91 153.6H137.13C137.71 153.6 138.19 153.78 138.56 154.14C138.93 154.5 139.11 154.93 139.11 155.43C139.11 155.93 138.93 156.35 138.56 156.72C138.19 157.08 137.72 157.26 137.13 157.26L128.89 157.27ZM107.99 169.93L106.62 173.59C106.16 174.7 105.5 175.26 104.64 175.26C104.1 175.26 103.63 175.09 103.24 174.75C102.85 174.4 102.66 173.97 102.66 173.44C102.66 173.1 102.73 172.74 102.87 172.37L103.11 171.76L109.07 156.2C109.51 155.04 109.98 154.21 110.49 153.72C111 153.24 111.65 152.99 112.42 152.99C113.19 152.99 113.84 153.23 114.35 153.72C114.86 154.21 115.34 155.03 115.77 156.2L121.73 171.76C121.8 172.01 121.87 172.21 121.94 172.37C122.1 172.83 122.18 173.18 122.18 173.44C122.18 173.97 121.98 174.4 121.59 174.75C121.2 175.09 120.74 175.26 120.19 175.26C119.33 175.26 118.66 174.7 118.21 173.59L116.84 169.93H107.99ZM115.62 166.27L112.56 158.03H112.26L109.21 166.27H115.62ZM94.88 155.14C95.55 153.91 96.46 153.3 97.62 153.3C98.25 153.3 98.79 153.5 99.24 153.91C99.69 154.32 99.92 154.82 99.92 155.43V173.44C99.92 173.97 99.73 174.4 99.33 174.75C98.94 175.09 98.47 175.26 97.93 175.26C97.38 175.26 96.91 175.09 96.53 174.75C96.14 174.4 95.95 173.97 95.95 173.44V161.23H95.65L90.92 170.85C90.26 172.07 89.46 172.67 88.49 172.67C87.52 172.67 86.7 172.06 86.05 170.85L81.31 161.23H81.01V173.44C81.01 173.97 80.82 174.4 80.43 174.75C80.04 175.09 79.58 175.26 79.03 175.26C78.48 175.26 78.02 175.09 77.63 174.75C77.24 174.4 77.05 173.97 77.05 173.44V155.43C77.05 154.82 77.27 154.32 77.72 153.91C78.17 153.5 78.7 153.3 79.33 153.3C80.5 153.3 81.42 153.91 82.09 155.14L88.33 167.64H88.64L94.88 155.14Z"
        fill="white" />
    <path
        d="M0.540009 61.08C0.540009 58.73 1.34001 56.68 2.93001 54.92C4.52001 53.16 6.38002 52.28 8.50002 52.28C10.78 52.28 12.68 52.93 14.19 54.24C15.7 55.55 16.45 56.93 16.45 58.37H17.06C17.47 57.83 18.04 57.15 18.77 56.34C19.5 55.53 21.36 54.42 24.34 53.02C27.32 51.62 30.6 50.92 34.19 50.92C41.86 50.92 48.36 53.92 53.7 59.92C59.04 65.92 61.71 73.3 61.71 82.06V92.89C61.71 101.65 59.04 109.02 53.7 115.03C48.36 121.03 41.85 124.03 34.19 124.03C30.6 124.03 27.38 123.42 24.53 122.2C21.68 120.98 19.72 119.74 18.66 118.48L17.07 116.58H16.44V142.98C16.44 145.33 15.65 147.38 14.05 149.14C12.46 150.9 10.6 151.78 8.48001 151.78C6.36001 151.78 4.50002 150.9 2.91002 149.14C1.32002 147.38 0.52002 145.33 0.52002 142.98V61.08H0.540009ZM36.79 103.66C39.4 100.91 40.7 97.32 40.7 92.9V82.07C40.7 77.65 39.4 74.06 36.79 71.31C34.18 68.56 30.59 67.18 26.02 67.18C21.45 67.18 17.86 68.56 15.25 71.31C12.64 74.06 11.34 77.65 11.34 82.07V92.9C11.34 97.32 12.64 100.91 15.25 103.66C17.86 106.41 21.45 107.79 26.02 107.79C30.59 107.79 34.18 106.41 36.79 103.66Z"
        fill="white" />
    <path
        d="M89.34 114.9C89.34 117.25 88.46 119.3 86.7 121.06C84.94 122.82 82.89 123.7 80.54 123.7C78.19 123.7 76.14 122.82 74.38 121.06C72.62 119.3 71.74 117.25 71.74 114.9V62.1C71.74 59.75 72.62 57.7 74.38 55.94C76.14 54.18 78.19 53.3 80.54 53.3C83.07 53.3 85.17 53.95 86.84 55.26C88.51 56.57 89.34 57.95 89.34 59.39H90.02C90.47 58.85 91.1 58.17 91.92 57.36C92.73 56.55 94.72 55.44 97.88 54.04C101.04 52.64 104.51 51.94 108.31 51.94C113.46 51.94 117.45 53 120.29 55.12C123.13 57.24 124.55 59.79 124.55 62.77C124.55 65.12 123.78 67.06 122.25 68.59C120.72 70.12 118.77 70.89 116.43 70.89C115.26 70.89 113.68 70.44 111.69 69.54C109.7 68.64 107.45 68.19 104.92 68.19C100.5 68.19 96.8 69.59 93.82 72.39C90.84 75.19 89.35 78.75 89.35 83.09V114.9H89.34Z"
        fill="white" />
    <path
        d="M132.65 115.17C127.23 109.26 124.51 101.83 124.51 92.9V82.07C124.51 73.13 127.22 65.71 132.65 59.8C138.07 53.89 145.12 50.93 153.78 50.93C162.44 50.93 169.48 53.89 174.91 59.8C180.33 65.71 183.05 73.14 183.05 82.07V92.9C183.05 101.84 180.34 109.26 174.91 115.17C169.49 121.08 162.44 124.04 153.78 124.04C145.12 124.03 138.07 121.08 132.65 115.17ZM143.48 71.3C140.98 74.05 139.73 77.64 139.73 82.06V92.89C139.73 97.31 140.98 100.9 143.48 103.65C145.98 106.4 149.41 107.78 153.78 107.78C158.15 107.78 161.58 106.4 164.08 103.65C166.58 100.9 167.83 97.31 167.83 92.89V82.06C167.83 77.64 166.58 74.05 164.08 71.3C161.58 68.55 158.15 67.17 153.78 67.17C149.41 67.17 145.98 68.54 143.48 71.3Z"
        fill="white" />
    <path
        d="M212.57 121.24C210.4 119.3 208.28 115.76 206.21 110.61L188.61 66.61C187.71 64.35 187.26 62.55 187.26 61.19C187.26 58.84 188.14 56.79 189.9 55.03C191.66 53.27 193.71 52.39 196.06 52.39C200.57 52.39 203.73 54.87 205.54 59.84L221.38 103.17H222.19L238.03 59.84C239.84 54.88 243 52.39 247.51 52.39C249.86 52.39 251.91 53.27 253.67 55.03C255.43 56.79 256.31 58.84 256.31 61.19C256.31 61.82 256.2 62.59 255.97 63.49C255.74 64.39 255.5 65.16 255.23 65.79L254.96 66.6L237.36 110.6C235.28 115.75 233.16 119.29 231 121.23C228.83 123.17 225.77 124.14 221.79 124.14C217.81 124.14 214.73 123.19 212.57 121.24Z"
        fill="white" />
    <path
        d="M276.6 53.3C274.25 53.3 272.2 54.18 270.44 55.94C268.68 57.7 267.8 59.75 267.8 62.1V114.9C267.8 117.25 268.68 119.3 270.44 121.06C272.2 122.82 274.25 123.7 276.6 123.7C278.95 123.7 281 122.82 282.76 121.06C284.52 119.3 285.4 117.25 285.4 114.9V62.1C285.4 59.75 284.52 57.7 282.76 55.94C281 54.17 278.95 53.3 276.6 53.3Z"
        fill="white" />
    <path
        d="M300.56 55.42C302.1 53.89 304.04 53.12 306.38 53.12H309.09V43.64C309.09 41.29 309.97 39.24 311.73 37.48C313.49 35.72 315.54 34.84 317.89 34.84C320.24 34.84 322.29 35.72 324.05 37.48C325.81 39.24 326.69 41.29 326.69 43.64V53.12H341.58C344.02 53.12 345.98 53.82 347.47 55.22C348.96 56.62 349.7 58.63 349.7 61.24C349.7 63.59 348.93 65.53 347.4 67.06C345.86 68.59 343.92 69.36 341.58 69.36H326.69V97.79C326.69 100.95 327.73 103.32 329.8 104.9C331.88 106.48 334.45 107.27 337.52 107.27C338.33 107.27 339.12 107.16 339.89 106.93C340.66 106.7 341.22 106.5 341.58 106.32L342.26 105.91C343.61 105.01 345.19 104.56 347 104.56C349.35 104.56 351.29 105.33 352.82 106.86C354.36 108.4 355.12 110.34 355.12 112.68C355.12 115.75 353.5 118.32 350.25 120.4C347 122.48 342.08 123.51 335.49 123.51C327.82 123.51 321.5 121.07 316.54 116.2C311.57 111.33 309.09 105.19 309.09 97.79V69.37H306.38C304.03 69.37 302.09 68.6 300.56 67.07C299.03 65.53 298.26 63.59 298.26 61.25C298.26 58.9 299.03 56.96 300.56 55.42Z"
        fill="white" />
    <path
        d="M368.95 117.13C364.36 112.53 362.07 106.93 362.07 100.34C362.07 93.48 364.28 88.04 368.71 84.03C373.14 80.01 379.98 78.01 389.23 78.01H404.32C404.32 70.79 399.89 67.18 391.04 67.18C388.87 67.18 386.88 67.47 385.06 68.06C383.24 68.65 381.98 69.21 381.26 69.75L380.17 70.56C377.76 72.82 375.54 73.95 373.53 73.95C371.44 73.95 369.71 73.18 368.34 71.65C366.97 70.11 366.29 68.17 366.29 65.83C366.29 62.22 368.42 58.83 372.69 55.68C376.96 52.52 383.07 50.94 391.04 50.94C399.97 50.94 407.03 53.47 412.22 58.52C417.41 63.58 420.01 70.12 420.01 78.15V113.89C420.01 116.24 419.23 118.29 417.66 120.05C416.09 121.81 414.26 122.69 412.17 122.69C409.92 122.69 408.05 122.04 406.56 120.73C405.07 119.42 404.33 118.04 404.33 116.6H403.73C403.33 117.14 402.76 117.82 402.04 118.63C401.32 119.44 399.49 120.55 396.55 121.95C393.61 123.35 390.37 124.05 386.83 124.05C379.49 124.03 373.53 121.73 368.95 117.13ZM400.27 104.33C402.97 102.03 404.31 99.12 404.31 95.6V92.89H389.22C385.52 92.89 382.78 93.59 381.01 94.99C379.24 96.39 378.35 98.17 378.35 100.34C378.35 102.51 379.24 104.29 381.01 105.69C382.78 107.09 385.52 107.79 389.22 107.79C393.89 107.79 397.57 106.63 400.27 104.33Z"
        fill="white" />
    <path
        d="M441.44 55.5C442.83 56.63 443.52 58.09 443.52 59.9H444.15C444.49 59.36 445.03 58.68 445.79 57.87C446.55 57.06 448.18 55.95 450.7 54.55C453.22 53.15 455.86 52.45 458.63 52.45C461.06 52.45 463.39 52.79 465.62 53.47C467.84 54.15 469.65 55 471.03 56.04C472.42 57.08 473.63 58.09 474.68 59.09C475.73 60.08 476.46 60.9 476.88 61.53L477.63 62.61H478.76C478.93 62.34 479.14 61.98 479.39 61.53C479.64 61.08 480.33 60.27 481.47 59.09C482.6 57.92 483.86 56.88 485.25 55.98C486.64 55.08 488.55 54.26 490.98 53.54C493.41 52.82 496.06 52.46 498.91 52.46C506.05 52.46 512.03 55.33 516.85 61.06C521.67 66.79 524.09 74.31 524.09 83.6V115.42C524.09 117.86 523.34 119.93 521.82 121.65C520.31 123.37 518.34 124.22 515.9 124.22C513.46 124.22 511.49 123.36 509.98 121.65C508.47 119.94 507.71 117.86 507.71 115.42V83.6C507.71 73.67 503.72 68.71 495.75 68.71C492.14 68.71 489.24 69.97 487.06 72.5C484.88 75.03 483.79 78.73 483.79 83.6V115.42C483.79 117.86 483.04 119.93 481.52 121.65C480.01 123.37 478.04 124.22 475.6 124.22C473.16 124.22 471.19 123.36 469.68 121.65C468.17 119.94 467.41 117.86 467.41 115.42V83.6C467.41 78.64 466.36 74.91 464.26 72.43C462.16 69.95 459.22 68.71 455.44 68.71C451.83 68.71 448.93 69.97 446.75 72.5C444.57 75.03 443.48 78.73 443.48 83.6V115.42C443.48 117.77 442.66 119.82 441.02 121.58C439.38 123.34 437.47 124.22 435.29 124.22C433.11 124.22 431.2 123.34 429.56 121.58C427.92 119.82 427.1 117.77 427.1 115.42V62.62C427.1 60.27 427.92 58.22 429.56 56.46C431.2 54.7 433.11 53.82 435.29 53.82C438.02 53.8 440.05 54.37 441.44 55.5Z"
        fill="white" />
    <path
        d="M541.64 53.3C539.29 53.3 537.24 54.18 535.48 55.94C533.72 57.7 532.84 59.75 532.84 62.1V114.9C532.84 117.25 533.72 119.3 535.48 121.06C537.24 122.82 539.29 123.7 541.64 123.7C543.99 123.7 546.04 122.82 547.8 121.06C549.56 119.3 550.44 117.25 550.44 114.9V62.1C550.44 59.75 549.56 57.7 547.8 55.94C546.04 54.17 543.99 53.3 541.64 53.3Z"
        fill="white" />
    <path
        d="M577.02 59.9C577.42 59.36 577.99 58.68 578.71 57.87C579.43 57.06 581.2 55.95 584.02 54.55C586.84 53.15 589.93 52.45 593.31 52.45C600.63 52.45 606.88 55.45 612.07 61.45C617.26 67.45 619.85 74.83 619.85 83.59V115.41C619.85 117.85 619.13 119.92 617.68 121.64C616.23 123.36 614.34 124.21 612.01 124.21C609.68 124.21 607.79 123.35 606.34 121.64C604.89 119.93 604.17 117.85 604.17 115.41V83.59C604.17 79.17 602.9 75.58 600.37 72.83C597.84 70.08 594.48 68.7 590.29 68.7C586.35 68.7 583.05 70.1 580.4 72.9C577.75 75.7 576.42 79.26 576.42 83.6V115.42C576.42 117.77 575.64 119.82 574.07 121.58C572.5 123.34 570.67 124.22 568.58 124.22C566.49 124.22 564.66 123.34 563.09 121.58C561.52 119.82 560.74 117.77 560.74 115.42V62.62C560.74 60.27 561.52 58.22 563.09 56.46C564.66 54.7 566.49 53.82 568.58 53.82C570.83 53.82 572.7 54.47 574.19 55.78C575.68 57.09 576.42 58.47 576.42 59.91H577.02V59.9Z"
        fill="white" />
    <path
        d="M659.28 52.49C663.1 52.49 666.71 52.83 670.13 53.53C673.54 54.23 676.53 55.18 679.11 56.4C681.69 57.62 683.7 59.04 685.16 60.69C686.62 62.34 687.34 64.1 687.34 65.98C687.34 68.01 686.48 69.75 684.76 71.22C683.04 72.69 680.92 73.41 678.45 73.41C676.67 73.41 675.01 72.96 673.4 72.05C673.23 71.98 672.74 71.69 671.94 71.17C671.14 70.65 670.13 70 668.87 69.23C665.34 66.99 661.87 65.89 658.51 65.89C655.75 65.89 653.4 66.52 651.48 67.77C649.53 69.04 648.55 70.53 648.55 72.27C648.55 74.01 649.32 75.36 650.87 76.36C652.42 77.33 655.23 78.21 659.31 78.98C663.21 79.75 666.57 80.49 669.41 81.24C672.25 81.96 674.78 82.75 676.99 83.59C681.7 85.33 685.25 87.75 687.69 90.82C690.13 93.89 691.34 97.44 691.34 101.48C691.34 104.89 690.56 108.01 689.02 110.79C687.47 113.59 685.26 115.99 682.36 118.02C679.49 120.05 676.08 121.61 672.11 122.72C668.18 123.83 663.79 124.39 659.02 124.39C654.69 124.39 650.53 123.94 646.59 123.03C642.66 122.13 639.19 120.88 636.23 119.33C633.28 117.77 630.89 115.94 629.11 113.88C627.33 111.83 626.44 109.68 626.44 107.44C626.44 106.4 626.7 105.41 627.16 104.5C627.65 103.6 628.31 102.78 629.14 102.08C629.97 101.38 630.95 100.81 632.07 100.41C633.19 99.98 634.36 99.78 635.6 99.78C637.47 99.78 639.19 100.07 640.8 100.66C642.41 101.25 644.3 102.31 646.51 103.84C649.09 105.72 651.47 107.09 653.68 107.93C655.89 108.77 658.16 109.2 660.45 109.2C663.46 109.2 665.96 108.48 667.97 107.05C669.95 105.63 670.95 103.82 670.95 101.65C670.95 99.84 670.12 98.33 668.48 97.11C666.84 95.89 664.2 94.85 660.56 94.02L651.78 92.03C645.04 90.49 639.99 88.78 636.63 86.9C633.96 85.5 631.92 83.6 630.52 81.21C629.11 78.79 628.4 76.06 628.4 72.99C628.4 69.92 629.15 67.23 630.67 64.72C632.16 62.21 634.29 60.04 636.98 58.24C639.68 56.43 642.95 55.01 646.74 53.99C650.56 52.97 654.72 52.48 659.22 52.48"
        fill="white" />
    <path
        d="M553.07 10.53C552.63 8.21 551.4 6.48001 548.76 5.10001C544.52 2.84001 539.14 3.96999 536.75 7.61999C532.44 14.21 535.84 24.88 539.23 35.54C551.24 33.02 563.24 30.53 567.55 23.94C569.94 20.32 568.4 15.54 564.16 13.28C561.3 11.78 558.94 11.72 556.24 12.71L555.71 12.94H555.62V13C553.48 13.96 550.94 16.28 545.81 24C548.36 17.55 550.93 13 553.1 10.59"
        fill="white" />
    <path fill-rule="evenodd" clip-rule="evenodd"
        d="M562.39 0.999993C560.19 2.38999 557.52 6.11999 554.34 11.81C560.85 5.44999 563.49 4.05999 564.96 2.92999C566.12 2.01999 564.33 2.11 563.92 1.71C563.39 1.2 563.7 0.149994 562.41 0.969994"
        fill="white" />
</svg>
    