<svg width="692" height="180" viewBox="0 0 692 180" fill="none" xmlns="http://www.w3.org/2000/svg">
    <path
        d="M588.13 161.84H591.8L597.28 153.91C597.81 153.19 598.42 152.84 599.11 152.84C599.66 152.84 600.12 153.01 600.51 153.37C600.9 153.72 601.09 154.15 601.09 154.68C601.09 154.9 601.06 155.11 600.99 155.32C600.93 155.53 600.86 155.69 600.8 155.8C600.73 155.91 600.65 156.05 600.53 156.22C600.42 156.38 600.35 156.48 600.33 156.51L595.3 163.53L600.8 171.16C600.82 171.19 600.89 171.29 601 171.45C601.12 171.61 601.2 171.75 601.27 171.87C601.34 171.98 601.4 172.15 601.46 172.35C601.53 172.56 601.56 172.77 601.56 172.99C601.56 173.52 601.37 173.95 600.98 174.3C600.59 174.64 600.13 174.81 599.58 174.81C598.89 174.81 598.28 174.45 597.75 173.75L591.81 165.51H588.14V172.99C588.14 173.52 587.95 173.95 587.56 174.3C587.17 174.64 586.71 174.81 586.16 174.81C585.61 174.81 585.15 174.64 584.76 174.3C584.37 173.95 584.18 173.52 584.18 172.99V154.69C584.18 154.16 584.37 153.72 584.76 153.38C585.15 153.03 585.61 152.85 586.16 152.85C586.71 152.85 587.17 153.02 587.56 153.38C587.95 153.73 588.14 154.16 588.14 154.69V161.84H588.13ZM575.93 161.08C575.93 159.61 575.47 158.43 574.55 157.54C573.63 156.65 572.41 156.2 570.89 156.2C569.37 156.2 568.15 156.65 567.24 157.54C566.32 158.44 565.86 159.62 565.86 161.08V166.58C565.86 168.05 566.32 169.23 567.23 170.12C568.14 171.01 569.36 171.45 570.89 171.45C572.42 171.45 573.64 171.01 574.56 170.12C575.48 169.23 575.93 168.05 575.93 166.58V161.08ZM579.9 166.57C579.9 167.78 579.68 168.92 579.23 169.98C578.79 171.04 578.18 171.94 577.4 172.69C576.62 173.44 575.67 174.03 574.55 174.46C573.43 174.89 572.21 175.11 570.9 175.11C569.59 175.11 568.37 174.9 567.25 174.46C566.13 174.03 565.18 173.43 564.4 172.69C563.62 171.94 563.01 171.04 562.57 169.98C562.13 168.92 561.91 167.79 561.91 166.57V161.07C561.91 159.46 562.28 158.01 563.03 156.71C563.78 155.42 564.84 154.39 566.22 153.64C567.59 152.89 569.15 152.52 570.9 152.52C572.65 152.52 574.21 152.89 575.59 153.64C576.96 154.39 578.02 155.41 578.78 156.71C579.53 158.01 579.9 159.46 579.9 161.07V166.57ZM550.33 153.14C552.83 153.14 554.69 153.64 555.93 154.63C557.17 155.63 557.79 156.96 557.79 158.63C557.79 160.14 557.29 161.36 556.27 162.3C555.81 162.71 555.29 163.01 554.74 163.2V163.52C555.48 163.74 556.11 164.05 556.63 164.46C557.91 165.46 558.55 166.76 558.55 168.39C558.55 170.23 557.86 171.7 556.5 172.82C555.13 173.94 553.12 174.5 550.47 174.5H543.45C542.9 174.5 542.44 174.33 542.05 173.98C541.66 173.63 541.47 173.2 541.47 172.67V154.97C541.47 154.45 541.66 154.01 542.05 153.66C542.44 153.31 542.9 153.14 543.45 153.14H550.33ZM545.44 170.83H550.77C552.01 170.83 552.96 170.58 553.61 170.07C554.26 169.56 554.59 168.9 554.59 168.09C554.59 167.28 554.27 166.62 553.61 166.11C552.96 165.6 552.01 165.35 550.77 165.35H545.44V170.83ZM545.44 161.69H550.33C551.49 161.69 552.37 161.47 552.95 161.01C553.53 160.56 553.83 159.97 553.83 159.25C553.83 158.52 553.53 157.94 552.95 157.49C552.36 157.04 551.49 156.81 550.33 156.81H545.44V161.69ZM524.54 169.46L523.17 173.12C522.71 174.23 522.05 174.79 521.19 174.79C520.65 174.79 520.18 174.62 519.79 174.28C519.4 173.93 519.21 173.5 519.21 172.97C519.21 172.63 519.28 172.27 519.42 171.9L519.66 171.29L525.62 155.73C526.06 154.57 526.53 153.74 527.04 153.25C527.55 152.77 528.19 152.52 528.97 152.52C529.74 152.52 530.39 152.76 530.9 153.25C531.41 153.74 531.89 154.56 532.32 155.73L538.28 171.29C538.35 171.54 538.42 171.74 538.49 171.9C538.65 172.36 538.73 172.71 538.73 172.97C538.73 173.5 538.54 173.93 538.14 174.28C537.75 174.62 537.29 174.79 536.74 174.79C535.88 174.79 535.21 174.23 534.76 173.12L533.39 169.46H524.54ZM532.17 165.8L529.11 157.56H528.81L525.76 165.8H532.17ZM509.76 161.69C512.29 161.69 514.21 162.27 515.54 163.42C516.87 164.57 517.54 166.14 517.54 168.1C517.54 170.07 516.87 171.63 515.54 172.78C514.21 173.93 512.29 174.51 509.76 174.51H502.89C502.34 174.51 501.88 174.34 501.49 173.99C501.1 173.64 500.91 173.21 500.91 172.68V154.98C500.91 154.46 501.1 154.02 501.49 153.67C501.88 153.32 502.35 153.15 502.89 153.15H514.02C514.61 153.15 515.08 153.33 515.45 153.69C515.82 154.05 516 154.48 516 154.98C516 155.48 515.82 155.9 515.45 156.27C515.08 156.63 514.61 156.81 514.02 156.81H504.87V161.69H509.76ZM504.87 165.35V170.83H509.76C511.01 170.83 511.95 170.58 512.6 170.07C513.25 169.56 513.57 168.9 513.57 168.09C513.57 167.28 513.24 166.62 512.6 166.11C511.95 165.6 511 165.35 509.76 165.35H504.87ZM492.68 161.08C492.68 159.61 492.22 158.43 491.3 157.54C490.38 156.65 489.17 156.2 487.65 156.2C486.13 156.2 484.91 156.65 483.99 157.54C483.07 158.44 482.61 159.62 482.61 161.08V166.58C482.61 168.05 483.07 169.23 483.98 170.12C484.89 171.01 486.11 171.45 487.64 171.45C489.17 171.45 490.39 171.01 491.31 170.12C492.23 169.23 492.68 168.05 492.68 166.58V161.08ZM496.64 166.57C496.64 167.78 496.42 168.92 495.97 169.98C495.53 171.04 494.92 171.94 494.14 172.69C493.36 173.44 492.41 174.03 491.29 174.46C490.17 174.89 488.95 175.11 487.64 175.11C486.33 175.11 485.11 174.9 483.99 174.46C482.87 174.03 481.92 173.43 481.14 172.69C480.36 171.94 479.75 171.04 479.31 169.98C478.87 168.92 478.65 167.79 478.65 166.57V161.07C478.65 159.46 479.02 158.01 479.77 156.71C480.52 155.42 481.58 154.39 482.96 153.64C484.33 152.89 485.89 152.52 487.64 152.52C489.39 152.52 490.95 152.89 492.33 153.64C493.7 154.39 494.77 155.41 495.52 156.71C496.27 158.01 496.64 159.46 496.64 161.07V166.57ZM469.5 156.8H462.48V164.74C462.48 166.38 462.12 167.84 461.41 169.13C461.03 169.74 460.68 170.2 460.35 170.53V170.83H469.5V156.8ZM456.08 170.83C456.51 170.43 456.91 169.92 457.31 169.28C458.12 167.85 458.53 166.33 458.53 164.73V154.96C458.53 154.44 458.72 154 459.11 153.65C459.5 153.3 459.96 153.13 460.51 153.13H471.49C472.03 153.13 472.5 153.3 472.89 153.65C473.28 154 473.47 154.44 473.47 154.96V170.82H474.4C474.94 170.82 475.41 170.99 475.8 171.34C476.19 171.69 476.38 172.12 476.38 172.65V177.83C476.38 178.36 476.18 178.8 475.8 179.14C475.41 179.49 474.95 179.66 474.4 179.66C473.86 179.66 473.39 179.48 473 179.14C472.61 178.79 472.41 178.36 472.41 177.83V174.48H457.77V177.83C457.77 178.36 457.58 178.8 457.18 179.14C456.79 179.49 456.32 179.66 455.77 179.66C455.22 179.66 454.76 179.48 454.37 179.14C453.98 178.79 453.79 178.36 453.79 177.83V172.65C453.79 172.12 453.98 171.68 454.37 171.34C454.76 170.99 455.22 170.82 455.77 170.82L456.08 170.83ZM436.72 166.87L431.69 173.74C431.17 174.44 430.56 174.8 429.86 174.8C429.31 174.8 428.85 174.63 428.46 174.29C428.07 173.94 427.88 173.51 427.88 172.98C427.88 172.76 427.91 172.55 427.98 172.34C428.05 172.13 428.11 171.97 428.17 171.86C428.24 171.75 428.33 171.61 428.44 171.44C428.55 171.28 428.62 171.18 428.64 171.15L434.43 163.52L429.25 156.5C429.23 156.47 429.16 156.37 429.05 156.21C428.94 156.05 428.85 155.91 428.78 155.79C428.72 155.67 428.65 155.51 428.59 155.31C428.53 155.1 428.49 154.89 428.49 154.67C428.49 154.14 428.68 153.7 429.08 153.36C429.47 153.01 429.93 152.83 430.48 152.83C431.18 152.83 431.79 153.19 432.31 153.9L436.73 160.14H437.03L441.45 153.9C441.98 153.18 442.59 152.83 443.28 152.83C443.83 152.83 444.3 153 444.68 153.36C445.07 153.71 445.26 154.14 445.26 154.67C445.26 154.89 445.23 155.1 445.16 155.31C445.09 155.52 445.03 155.68 444.97 155.79C444.9 155.9 444.82 156.04 444.7 156.21C444.59 156.37 444.52 156.47 444.5 156.5L439.31 163.52L445.11 171.15C445.13 171.18 445.2 171.28 445.31 171.44C445.43 171.6 445.51 171.74 445.58 171.86C445.65 171.97 445.71 172.14 445.77 172.34C445.84 172.55 445.87 172.76 445.87 172.98C445.87 173.51 445.68 173.94 445.29 174.29C444.9 174.63 444.44 174.8 443.89 174.8C443.19 174.8 442.58 174.44 442.05 173.74L437.02 166.87H436.72ZM424.98 172.98C424.98 173.51 424.79 173.94 424.39 174.29C424 174.63 423.53 174.8 422.99 174.8C422.44 174.8 421.97 174.63 421.59 174.29C421.2 173.94 421.01 173.51 421.01 172.98V154.68C421.01 154.15 421.2 153.71 421.59 153.37C421.98 153.02 422.44 152.84 422.99 152.84C423.53 152.84 424 153.01 424.39 153.37C424.79 153.72 424.98 154.15 424.98 154.68V172.98ZM409.88 160.47C412.64 160.47 414.73 161.09 416.14 162.33C417.56 163.57 418.27 165.29 418.27 167.48C418.27 169.68 417.56 171.4 416.14 172.64C414.73 173.88 412.64 174.5 409.88 174.5H404.09C403.54 174.5 403.08 174.33 402.69 173.98C402.3 173.63 402.11 173.2 402.11 172.67V154.67C402.11 154.14 402.3 153.7 402.69 153.36C403.08 153.01 403.54 152.83 404.09 152.83C404.63 152.83 405.1 153 405.49 153.36C405.88 153.71 406.07 154.14 406.07 154.67V160.46H409.88V160.47ZM406.06 164.13V170.83H409.87C411.35 170.83 412.46 170.53 413.2 169.93C413.93 169.33 414.3 168.51 414.3 167.48C414.3 166.45 413.93 165.63 413.2 165.03C412.46 164.43 411.35 164.13 409.87 164.13H406.06ZM397.52 172.98C397.52 173.51 397.33 173.94 396.94 174.29C396.55 174.63 396.09 174.8 395.54 174.8C395 174.8 394.53 174.63 394.14 174.29C393.75 173.94 393.56 173.51 393.56 172.98V165.65H384.41V172.98C384.41 173.51 384.22 173.94 383.83 174.29C383.44 174.63 382.98 174.8 382.43 174.8C381.88 174.8 381.42 174.63 381.03 174.29C380.64 173.94 380.45 173.51 380.45 172.98V154.68C380.45 154.15 380.64 153.71 381.03 153.37C381.42 153.02 381.89 152.84 382.43 152.84C382.98 152.84 383.44 153.01 383.83 153.37C384.22 153.72 384.41 154.15 384.41 154.68V161.99H393.56V154.68C393.56 154.15 393.75 153.71 394.14 153.37C394.53 153.02 394.99 152.84 395.54 152.84C396.08 152.84 396.55 153.01 396.94 153.37C397.33 153.72 397.52 154.15 397.52 154.68V172.98ZM375.86 172.98C375.86 173.51 375.67 173.94 375.28 174.29C374.89 174.63 374.43 174.8 373.88 174.8C373.33 174.8 372.87 174.63 372.48 174.29C372.09 173.94 371.9 173.51 371.9 172.98V165.65H362.75V172.98C362.75 173.51 362.56 173.94 362.17 174.29C361.78 174.63 361.32 174.8 360.77 174.8C360.22 174.8 359.76 174.63 359.37 174.29C358.98 173.94 358.79 173.51 358.79 172.98V154.68C358.79 154.15 358.98 153.71 359.37 153.37C359.76 153.02 360.23 152.84 360.77 152.84C361.31 152.84 361.78 153.01 362.17 153.37C362.56 153.72 362.75 154.15 362.75 154.68V161.99H371.9V154.68C371.9 154.15 372.09 153.71 372.48 153.37C372.87 153.02 373.33 152.84 373.88 152.84C374.42 152.84 374.89 153.01 375.28 153.37C375.67 153.72 375.86 154.15 375.86 154.68V172.98ZM349.94 160L341.7 172.97C340.91 174.18 340.04 174.79 339.11 174.79C338.48 174.79 337.95 174.59 337.5 174.17C337.05 173.76 336.83 173.26 336.83 172.66V154.67C336.83 154.14 337.02 153.7 337.41 153.36C337.8 153.01 338.26 152.83 338.81 152.83C339.35 152.83 339.82 153 340.21 153.36C340.6 153.71 340.79 154.14 340.79 154.67V167.62H341.09L349.33 154.67C350.12 153.44 350.99 152.83 351.92 152.83C352.55 152.83 353.08 153.03 353.54 153.44C353.99 153.85 354.22 154.35 354.22 154.96V172.97C354.22 173.5 354.03 173.93 353.64 174.28C353.25 174.62 352.79 174.79 352.24 174.79C351.7 174.79 351.23 174.62 350.84 174.28C350.45 173.93 350.26 173.5 350.26 172.97V160H349.94ZM327.22 154.67C327.89 153.44 328.8 152.83 329.96 152.83C330.59 152.83 331.13 153.03 331.58 153.44C332.03 153.85 332.26 154.35 332.26 154.96V172.97C332.26 173.5 332.07 173.93 331.67 174.28C331.28 174.62 330.81 174.79 330.27 174.79C329.72 174.79 329.25 174.62 328.87 174.28C328.48 173.93 328.29 173.5 328.29 172.97V160.77H327.99L323.26 170.39C322.6 171.61 321.8 172.21 320.83 172.21C319.86 172.21 319.04 171.6 318.39 170.39L313.65 160.77H313.35V172.98C313.35 173.51 313.16 173.94 312.77 174.29C312.38 174.63 311.92 174.8 311.37 174.8C310.82 174.8 310.36 174.63 309.97 174.29C309.58 173.94 309.39 173.51 309.39 172.98V154.97C309.39 154.36 309.61 153.86 310.06 153.45C310.51 153.04 311.04 152.84 311.67 152.84C312.84 152.84 313.76 153.45 314.43 154.68L320.67 167.18H320.98L327.22 154.67ZM292.44 169.46L291.07 173.12C290.61 174.23 289.95 174.79 289.09 174.79C288.54 174.79 288.08 174.62 287.69 174.28C287.3 173.93 287.11 173.5 287.11 172.97C287.11 172.63 287.18 172.27 287.32 171.9L287.56 171.29L293.52 155.73C293.96 154.57 294.43 153.74 294.94 153.25C295.45 152.77 296.09 152.52 296.87 152.52C297.64 152.52 298.29 152.76 298.8 153.25C299.31 153.74 299.79 154.56 300.22 155.73L306.18 171.29C306.25 171.54 306.32 171.74 306.39 171.9C306.55 172.36 306.63 172.71 306.63 172.97C306.63 173.5 306.44 173.93 306.05 174.28C305.66 174.62 305.2 174.79 304.65 174.79C303.79 174.79 303.12 174.23 302.67 173.12L301.3 169.46H292.44ZM300.07 165.8L297.01 157.56H296.71L293.66 165.8H300.07ZM272.48 156.8C271.9 156.8 271.42 156.61 271.04 156.25C270.67 155.88 270.49 155.46 270.49 154.97C270.49 154.48 270.67 154.05 271.04 153.69C271.42 153.32 271.89 153.14 272.48 153.14H286.2C286.79 153.14 287.26 153.32 287.63 153.68C288 154.04 288.18 154.47 288.18 154.97C288.18 155.47 288 155.89 287.63 156.26C287.26 156.62 286.79 156.8 286.2 156.8H281.33V172.97C281.33 173.5 281.14 173.93 280.74 174.28C280.35 174.62 279.88 174.79 279.33 174.79C278.78 174.79 278.32 174.62 277.93 174.28C277.54 173.93 277.35 173.5 277.35 172.97V156.8H272.48ZM263.63 160L255.39 172.97C254.6 174.18 253.73 174.79 252.8 174.79C252.17 174.79 251.64 174.59 251.19 174.17C250.74 173.76 250.52 173.26 250.52 172.66V154.67C250.52 154.14 250.71 153.7 251.1 153.36C251.49 153.01 251.95 152.83 252.5 152.83C253.04 152.83 253.51 153 253.9 153.36C254.29 153.71 254.48 154.14 254.48 154.67V167.62H254.78L263.02 154.67C263.81 153.44 264.68 152.83 265.61 152.83C266.23 152.83 266.77 153.03 267.23 153.44C267.68 153.85 267.91 154.35 267.91 154.96V172.97C267.91 173.5 267.72 173.93 267.33 174.28C266.94 174.62 266.48 174.79 265.93 174.79C265.39 174.79 264.92 174.62 264.53 174.28C264.14 173.93 263.95 173.5 263.95 172.97V160H263.63ZM238.64 153.14C241.14 153.14 243 153.64 244.24 154.63C245.48 155.63 246.1 156.96 246.1 158.63C246.1 160.14 245.6 161.36 244.58 162.3C244.12 162.71 243.6 163.01 243.05 163.2V163.52C243.79 163.74 244.42 164.05 244.94 164.46C246.22 165.46 246.86 166.76 246.86 168.39C246.86 170.23 246.18 171.7 244.81 172.82C243.44 173.94 241.43 174.5 238.78 174.5H231.76C231.21 174.5 230.75 174.33 230.36 173.98C229.97 173.63 229.78 173.2 229.78 172.67V154.97C229.78 154.45 229.97 154.01 230.36 153.66C230.75 153.31 231.21 153.14 231.76 153.14H238.64ZM233.75 170.83H239.08C240.32 170.83 241.27 170.58 241.92 170.07C242.57 169.56 242.9 168.9 242.9 168.09C242.9 167.28 242.57 166.62 241.92 166.11C241.27 165.6 240.32 165.35 239.08 165.35H233.75V170.83ZM233.75 161.69H238.64C239.8 161.69 240.68 161.47 241.26 161.01C241.85 160.56 242.14 159.97 242.14 159.25C242.14 158.52 241.85 157.94 241.26 157.49C240.67 157.04 239.8 156.81 238.64 156.81H233.75V161.69ZM217.43 172.98C217.43 173.51 217.24 173.94 216.85 174.29C216.46 174.63 216 174.8 215.45 174.8C214.9 174.8 214.44 174.63 214.05 174.29C213.66 173.94 213.47 173.51 213.47 172.98V165.65H204.32V172.98C204.32 173.51 204.13 173.94 203.74 174.29C203.35 174.63 202.89 174.8 202.34 174.8C201.79 174.8 201.33 174.63 200.94 174.29C200.55 173.94 200.36 173.51 200.36 172.98V154.68C200.36 154.15 200.55 153.71 200.94 153.37C201.33 153.02 201.79 152.84 202.34 152.84C202.88 152.84 203.35 153.01 203.74 153.37C204.13 153.72 204.32 154.15 204.32 154.68V161.99H213.47V154.68C213.47 154.15 213.66 153.71 214.05 153.37C214.44 153.02 214.9 152.84 215.45 152.84C215.99 152.84 216.46 153.01 216.85 153.37C217.24 153.72 217.43 154.15 217.43 154.68V172.98ZM191.51 160L183.27 172.97C182.48 174.18 181.61 174.79 180.68 174.79C180.05 174.79 179.52 174.59 179.07 174.17C178.62 173.76 178.4 173.26 178.4 172.66V154.67C178.4 154.14 178.59 153.7 178.98 153.36C179.37 153.01 179.83 152.83 180.38 152.83C180.92 152.83 181.39 153 181.78 153.36C182.17 153.71 182.36 154.14 182.36 154.67V167.62H182.66L190.9 154.67C191.69 153.44 192.56 152.83 193.49 152.83C194.12 152.83 194.65 153.03 195.11 153.44C195.56 153.85 195.79 154.35 195.79 154.96V172.97C195.79 173.5 195.6 173.93 195.21 174.28C194.82 174.62 194.36 174.79 193.81 174.79C193.27 174.79 192.8 174.62 192.41 174.28C192.02 173.93 191.83 173.5 191.83 172.97V160H191.51ZM166.52 161.69C167.7 161.69 168.6 161.44 169.23 160.93C169.85 160.42 170.17 159.77 170.17 158.95C170.17 158.14 169.85 157.48 169.22 156.96C168.59 156.45 167.69 156.19 166.52 156.19C165.99 156.19 165.49 156.25 165.05 156.37C164.6 156.49 164.23 156.64 163.94 156.83C163.64 157.02 163.38 157.23 163.14 157.45C162.9 157.67 162.68 157.9 162.48 158.13C162.29 158.36 162.1 158.57 161.92 158.76C161.74 158.95 161.54 159.1 161.31 159.22C161.08 159.34 160.83 159.4 160.56 159.4C160.03 159.4 159.58 159.23 159.24 158.89C158.9 158.55 158.73 158.11 158.73 157.57C158.73 157.06 158.92 156.52 159.29 155.95C159.67 155.37 160.18 154.83 160.83 154.32C161.48 153.81 162.31 153.38 163.32 153.04C164.33 152.7 165.39 152.54 166.51 152.54C168.79 152.54 170.64 153.14 172.04 154.36C173.44 155.57 174.14 157.05 174.14 158.79C174.14 160.21 173.55 161.39 172.37 162.33C171.91 162.69 171.32 162.98 170.63 163.21V163.53C171.4 163.75 172.08 164.06 172.67 164.47C174.06 165.42 174.75 166.73 174.75 168.4C174.75 169.32 174.56 170.19 174.18 171C173.8 171.81 173.25 172.52 172.55 173.13C171.84 173.74 170.94 174.22 169.85 174.58C168.76 174.93 167.54 175.11 166.21 175.11C165.05 175.11 163.94 174.93 162.89 174.58C161.84 174.23 160.98 173.79 160.3 173.25C159.63 172.72 159.09 172.16 158.7 171.57C158.31 170.98 158.11 170.43 158.11 169.93C158.11 169.39 158.28 168.95 158.62 168.61C158.96 168.27 159.4 168.1 159.94 168.1C160.24 168.1 160.52 168.18 160.79 168.35C161.06 168.51 161.29 168.72 161.49 168.97C161.69 169.22 161.93 169.49 162.23 169.78C162.52 170.07 162.83 170.34 163.16 170.59C163.49 170.84 163.93 171.05 164.49 171.21C165.04 171.37 165.66 171.45 166.35 171.45C167.81 171.45 168.91 171.17 169.65 170.6C170.4 170.03 170.77 169.3 170.77 168.4C170.77 167.5 170.4 166.76 169.65 166.2C168.91 165.64 167.8 165.36 166.35 165.36H164.98C164.4 165.36 163.92 165.18 163.55 164.82C163.18 164.46 163 164.03 163 163.53C163 163.03 163.18 162.61 163.55 162.24C163.92 161.88 164.39 161.7 164.98 161.7L166.52 161.69ZM142.56 169.46L141.19 173.12C140.73 174.23 140.07 174.79 139.21 174.79C138.66 174.79 138.2 174.62 137.81 174.28C137.42 173.93 137.23 173.5 137.23 172.97C137.23 172.63 137.3 172.27 137.44 171.9L137.68 171.29L143.64 155.73C144.08 154.57 144.55 153.74 145.06 153.25C145.57 152.77 146.21 152.52 146.99 152.52C147.76 152.52 148.41 152.76 148.92 153.25C149.43 153.74 149.91 154.56 150.34 155.73L156.3 171.29C156.37 171.54 156.44 171.74 156.51 171.9C156.67 172.36 156.75 172.71 156.75 172.97C156.75 173.5 156.56 173.93 156.16 174.28C155.77 174.62 155.31 174.79 154.76 174.79C153.9 174.79 153.23 174.23 152.78 173.12L151.41 169.46H142.56ZM150.19 165.8L147.13 157.56H146.83L143.78 165.8H150.19ZM128.69 156.8V172.97C128.69 173.5 128.5 173.93 128.11 174.28C127.72 174.62 127.26 174.79 126.71 174.79C126.16 174.79 125.7 174.62 125.31 174.28C124.92 173.93 124.73 173.5 124.73 172.97V154.97C124.73 154.45 124.92 154.01 125.31 153.66C125.7 153.31 126.16 153.14 126.71 153.14H136.93C137.52 153.14 137.99 153.32 138.36 153.68C138.73 154.04 138.91 154.47 138.91 154.97C138.91 155.47 138.73 155.89 138.36 156.26C137.99 156.62 137.52 156.8 136.93 156.8H128.69ZM107.8 169.46L106.43 173.12C105.97 174.23 105.31 174.79 104.45 174.79C103.91 174.79 103.44 174.62 103.05 174.28C102.66 173.93 102.47 173.5 102.47 172.97C102.47 172.63 102.54 172.27 102.68 171.9L102.92 171.29L108.88 155.73C109.32 154.57 109.79 153.74 110.3 153.25C110.81 152.77 111.46 152.52 112.23 152.52C113 152.52 113.65 152.76 114.16 153.25C114.67 153.74 115.15 154.56 115.58 155.73L121.54 171.29C121.61 171.54 121.68 171.74 121.75 171.9C121.91 172.36 121.99 172.71 121.99 172.97C121.99 173.5 121.79 173.93 121.4 174.28C121.01 174.62 120.55 174.79 120 174.79C119.14 174.79 118.47 174.23 118.02 173.12L116.65 169.46H107.8ZM115.42 165.8L112.36 157.56H112.06L109.01 165.8H115.42ZM94.69 154.67C95.36 153.44 96.27 152.83 97.43 152.83C98.06 152.83 98.6 153.03 99.05 153.44C99.5 153.85 99.73 154.35 99.73 154.96V172.97C99.73 173.5 99.54 173.93 99.14 174.28C98.75 174.62 98.28 174.79 97.74 174.79C97.19 174.79 96.72 174.62 96.34 174.28C95.95 173.93 95.76 173.5 95.76 172.97V160.77H95.46L90.73 170.39C90.07 171.61 89.27 172.21 88.3 172.21C87.33 172.21 86.51 171.6 85.86 170.39L81.12 160.77H80.82V172.98C80.82 173.51 80.63 173.94 80.24 174.29C79.85 174.63 79.39 174.8 78.84 174.8C78.29 174.8 77.83 174.63 77.44 174.29C77.05 173.94 76.86 173.51 76.86 172.98V154.97C76.86 154.36 77.08 153.86 77.53 153.45C77.98 153.04 78.51 152.84 79.14 152.84C80.31 152.84 81.23 153.45 81.9 154.68L88.14 167.18H88.45L94.69 154.67Z"
        fill="#2CA89A" />
    <path
        d="M0.339996 60.61C0.339996 58.26 1.14 56.21 2.73 54.45C4.32 52.69 6.18 51.81 8.3 51.81C10.58 51.81 12.48 52.46 13.99 53.77C15.5 55.08 16.25 56.46 16.25 57.9H16.86C17.27 57.36 17.84 56.68 18.57 55.87C19.3 55.06 21.16 53.95 24.14 52.55C27.12 51.15 30.4 50.45 33.99 50.45C41.66 50.45 48.16 53.45 53.5 59.45C58.84 65.45 61.51 72.83 61.51 81.59V92.42C61.51 101.18 58.84 108.55 53.5 114.56C48.16 120.56 41.65 123.56 33.99 123.56C30.4 123.56 27.18 122.95 24.33 121.73C21.48 120.51 19.52 119.27 18.46 118.01L16.87 116.11H16.26V142.51C16.26 144.86 15.47 146.91 13.87 148.67C12.28 150.43 10.42 151.31 8.3 151.31C6.18 151.31 4.32 150.43 2.73 148.67C1.14 146.91 0.339996 144.86 0.339996 142.51V60.61ZM36.59 103.19C39.2 100.44 40.5 96.85 40.5 92.43V81.6C40.5 77.18 39.2 73.59 36.59 70.84C33.98 68.09 30.39 66.71 25.82 66.71C21.25 66.71 17.66 68.09 15.05 70.84C12.44 73.59 11.14 77.18 11.14 81.6V92.43C11.14 96.85 12.44 100.44 15.05 103.19C17.66 105.94 21.25 107.32 25.82 107.32C30.4 107.32 33.98 105.94 36.59 103.19Z"
        fill="#2CA89A" />
    <path
        d="M89.14 114.43C89.14 116.78 88.26 118.83 86.5 120.59C84.74 122.35 82.69 123.23 80.34 123.23C77.99 123.23 75.94 122.35 74.18 120.59C72.42 118.83 71.54 116.78 71.54 114.43V61.63C71.54 59.28 72.42 57.23 74.18 55.47C75.94 53.71 77.99 52.83 80.34 52.83C82.87 52.83 84.97 53.48 86.64 54.79C88.31 56.1 89.14 57.48 89.14 58.92H89.82C90.27 58.38 90.9 57.7 91.71 56.89C92.52 56.08 94.51 54.97 97.67 53.57C100.83 52.17 104.3 51.47 108.1 51.47C113.25 51.47 117.24 52.53 120.08 54.65C122.92 56.77 124.34 59.32 124.34 62.3C124.34 64.65 123.57 66.59 122.04 68.12C120.51 69.65 118.56 70.42 116.22 70.42C115.05 70.42 113.47 69.97 111.48 69.07C109.49 68.17 107.24 67.72 104.71 67.72C100.29 67.72 96.59 69.12 93.61 71.92C90.63 74.72 89.14 78.28 89.14 82.62V114.43Z"
        fill="#2CA89A" />
    <path
        d="M132.46 114.7C127.04 108.79 124.32 101.36 124.32 92.43V81.6C124.32 72.66 127.03 65.24 132.46 59.33C137.88 53.42 144.93 50.46 153.59 50.46C162.25 50.46 169.29 53.42 174.72 59.33C180.14 65.24 182.86 72.67 182.86 81.6V92.43C182.86 101.37 180.15 108.79 174.72 114.7C169.3 120.61 162.25 123.57 153.59 123.57C144.92 123.57 137.88 120.61 132.46 114.7ZM143.29 70.83C140.79 73.58 139.54 77.17 139.54 81.59V92.42C139.54 96.84 140.79 100.43 143.29 103.18C145.79 105.93 149.22 107.31 153.59 107.31C157.96 107.31 161.39 105.93 163.89 103.18C166.39 100.43 167.64 96.84 167.64 92.42V81.59C167.64 77.17 166.39 73.58 163.89 70.83C161.39 68.08 157.96 66.7 153.59 66.7C149.22 66.7 145.78 68.08 143.29 70.83Z"
        fill="#2CA89A" />
    <path
        d="M212.37 120.78C210.2 118.84 208.08 115.3 206.01 110.15L188.41 66.15C187.51 63.89 187.06 62.09 187.06 60.73C187.06 58.38 187.94 56.33 189.7 54.57C191.46 52.81 193.51 51.93 195.86 51.93C200.37 51.93 203.53 54.41 205.34 59.38L221.18 102.71H221.99L237.83 59.38C239.64 54.42 242.8 51.93 247.31 51.93C249.66 51.93 251.71 52.81 253.47 54.57C255.23 56.33 256.11 58.38 256.11 60.73C256.11 61.36 256 62.13 255.77 63.03C255.54 63.93 255.3 64.7 255.03 65.33L254.76 66.14L237.16 110.14C235.08 115.29 232.96 118.83 230.8 120.77C228.63 122.71 225.56 123.68 221.59 123.68C217.62 123.68 214.54 122.72 212.37 120.78Z"
        fill="#2CA89A" />
    <path
        d="M276.41 52.83C274.06 52.83 272.01 53.71 270.25 55.47C268.49 57.23 267.61 59.28 267.61 61.63V114.43C267.61 116.78 268.49 118.83 270.25 120.59C272.01 122.35 274.06 123.23 276.41 123.23C278.76 123.23 280.81 122.35 282.57 120.59C284.33 118.83 285.21 116.78 285.21 114.43V61.63C285.21 59.28 284.33 57.23 282.57 55.47C280.81 53.71 278.75 52.83 276.41 52.83Z"
        fill="#2CA89A" />
    <path
        d="M300.37 54.95C301.91 53.42 303.85 52.65 306.19 52.65H308.9V43.17C308.9 40.82 309.78 38.77 311.54 37.01C313.3 35.25 315.35 34.37 317.7 34.37C320.05 34.37 322.1 35.25 323.86 37.01C325.62 38.77 326.5 40.82 326.5 43.17V52.65H341.39C343.83 52.65 345.79 53.35 347.28 54.75C348.77 56.15 349.51 58.16 349.51 60.77C349.51 63.12 348.74 65.06 347.21 66.59C345.67 68.12 343.73 68.89 341.39 68.89H326.5V97.32C326.5 100.48 327.54 102.85 329.61 104.43C331.69 106.01 334.26 106.8 337.33 106.8C338.14 106.8 338.93 106.69 339.7 106.46C340.47 106.23 341.03 106.03 341.39 105.85L342.07 105.44C343.42 104.54 345 104.09 346.81 104.09C349.16 104.09 351.1 104.86 352.63 106.39C354.17 107.93 354.93 109.87 354.93 112.21C354.93 115.28 353.31 117.85 350.06 119.93C346.81 122.01 341.89 123.04 335.3 123.04C327.63 123.04 321.31 120.6 316.35 115.73C311.38 110.86 308.9 104.72 308.9 97.32V68.89H306.19C303.84 68.89 301.9 68.12 300.37 66.59C298.84 65.05 298.07 63.11 298.07 60.77C298.07 58.43 298.83 56.49 300.37 54.95Z"
        fill="#2CA89A" />
    <path
        d="M368.75 116.66C364.16 112.06 361.87 106.46 361.87 99.87C361.87 93.01 364.08 87.57 368.51 83.56C372.94 79.54 379.78 77.54 389.03 77.54H404.12C404.12 70.32 399.69 66.71 390.84 66.71C388.67 66.71 386.68 67 384.86 67.59C383.05 68.18 381.78 68.74 381.06 69.28L379.97 70.09C377.56 72.35 375.34 73.48 373.33 73.48C371.24 73.48 369.51 72.71 368.14 71.18C366.77 69.64 366.09 67.7 366.09 65.36C366.09 61.75 368.22 58.36 372.49 55.21C376.76 52.05 382.87 50.47 390.84 50.47C399.77 50.47 406.83 53 412.02 58.05C417.21 63.11 419.81 69.65 419.81 77.68V113.42C419.81 115.77 419.03 117.82 417.46 119.58C415.89 121.34 414.06 122.22 411.97 122.22C409.72 122.22 407.85 121.57 406.36 120.26C404.87 118.95 404.13 117.57 404.13 116.13H403.53C403.13 116.67 402.56 117.35 401.84 118.16C401.12 118.97 399.29 120.08 396.35 121.48C393.41 122.88 390.17 123.58 386.63 123.58C379.29 123.57 373.34 121.26 368.75 116.66ZM400.08 103.87C402.78 101.57 404.12 98.66 404.12 95.14V92.43H389.03C385.33 92.43 382.59 93.13 380.82 94.53C379.05 95.93 378.16 97.71 378.16 99.88C378.16 102.05 379.05 103.83 380.82 105.23C382.59 106.63 385.33 107.33 389.03 107.33C393.7 107.32 397.38 106.17 400.08 103.87Z"
        fill="#2CA89A" />
    <path
        d="M441.25 55.03C442.64 56.16 443.33 57.62 443.33 59.43H443.96C444.3 58.89 444.84 58.21 445.6 57.4C446.36 56.59 447.99 55.48 450.51 54.08C453.03 52.68 455.67 51.98 458.44 51.98C460.87 51.98 463.2 52.32 465.43 53C467.66 53.68 469.46 54.53 470.84 55.57C472.23 56.61 473.44 57.62 474.49 58.62C475.54 59.61 476.27 60.43 476.69 61.06L477.44 62.14H478.57C478.74 61.87 478.95 61.51 479.2 61.06C479.45 60.61 480.14 59.8 481.28 58.62C482.41 57.45 483.67 56.41 485.06 55.51C486.45 54.61 488.36 53.79 490.79 53.07C493.22 52.35 495.87 51.99 498.72 51.99C505.86 51.99 511.84 54.86 516.66 60.59C521.49 66.32 523.9 73.84 523.9 83.13V114.95C523.9 117.39 523.15 119.46 521.63 121.18C520.12 122.9 518.15 123.75 515.71 123.75C513.28 123.75 511.3 122.89 509.79 121.18C508.28 119.47 507.52 117.39 507.52 114.95V83.13C507.52 73.2 503.53 68.24 495.56 68.24C491.95 68.24 489.05 69.5 486.87 72.03C484.69 74.56 483.6 78.26 483.6 83.13V114.95C483.6 117.39 482.85 119.46 481.33 121.18C479.82 122.9 477.85 123.75 475.41 123.75C472.98 123.75 471 122.89 469.49 121.18C467.98 119.47 467.22 117.39 467.22 114.95V83.13C467.22 78.17 466.17 74.44 464.07 71.96C461.97 69.48 459.03 68.24 455.25 68.24C451.64 68.24 448.74 69.5 446.56 72.03C444.38 74.56 443.29 78.26 443.29 83.13V114.95C443.29 117.3 442.47 119.35 440.83 121.11C439.19 122.87 437.28 123.75 435.1 123.75C432.92 123.75 431.01 122.87 429.37 121.11C427.73 119.35 426.91 117.3 426.91 114.95V62.15C426.91 59.8 427.73 57.75 429.37 55.99C431.01 54.23 432.92 53.35 435.1 53.35C437.82 53.34 439.86 53.9 441.25 55.03Z"
        fill="#2CA89A" />
    <path
        d="M541.45 52.83C539.1 52.83 537.05 53.71 535.29 55.47C533.53 57.23 532.65 59.28 532.65 61.63V114.43C532.65 116.78 533.53 118.83 535.29 120.59C537.05 122.35 539.1 123.23 541.45 123.23C543.8 123.23 545.85 122.35 547.61 120.59C549.37 118.83 550.25 116.78 550.25 114.43V61.63C550.25 59.28 549.37 57.23 547.61 55.47C545.85 53.71 543.8 52.83 541.45 52.83Z"
        fill="#2CA89A" />
    <path
        d="M576.82 59.43C577.22 58.89 577.79 58.21 578.51 57.4C579.23 56.59 581 55.48 583.82 54.08C586.64 52.68 589.73 51.98 593.11 51.98C600.43 51.98 606.68 54.98 611.87 60.98C617.06 66.98 619.65 74.36 619.65 83.12V114.94C619.65 117.38 618.93 119.45 617.48 121.17C616.03 122.89 614.14 123.74 611.81 123.74C609.48 123.74 607.59 122.88 606.14 121.17C604.69 119.46 603.97 117.38 603.97 114.94V83.12C603.97 78.7 602.7 75.11 600.17 72.36C597.64 69.61 594.28 68.23 590.09 68.23C586.15 68.23 582.85 69.63 580.2 72.43C577.55 75.23 576.22 78.79 576.22 83.13V114.95C576.22 117.3 575.44 119.35 573.87 121.11C572.3 122.87 570.47 123.75 568.38 123.75C566.29 123.75 564.46 122.87 562.89 121.11C561.32 119.35 560.54 117.3 560.54 114.95V62.15C560.54 59.8 561.32 57.75 562.89 55.99C564.46 54.23 566.29 53.35 568.38 53.35C570.63 53.35 572.5 54 573.99 55.31C575.48 56.62 576.22 58 576.22 59.44L576.82 59.43Z"
        fill="#2CA89A" />
    <path
        d="M659.08 52.03C662.9 52.03 666.51 52.37 669.93 53.07C673.34 53.77 676.33 54.72 678.91 55.94C681.49 57.16 683.5 58.58 684.96 60.23C686.42 61.88 687.14 63.64 687.14 65.52C687.14 67.55 686.28 69.29 684.56 70.76C682.84 72.23 680.72 72.95 678.25 72.95C676.47 72.95 674.81 72.5 673.2 71.59C673.03 71.52 672.54 71.23 671.74 70.71C670.94 70.19 669.93 69.54 668.67 68.77C665.14 66.53 661.67 65.43 658.31 65.43C655.55 65.43 653.2 66.06 651.28 67.31C649.33 68.58 648.35 70.07 648.35 71.81C648.35 73.55 649.12 74.9 650.67 75.9C652.22 76.87 655.03 77.75 659.11 78.52C663.01 79.29 666.37 80.03 669.21 80.78C672.05 81.5 674.58 82.29 676.79 83.13C681.5 84.87 685.05 87.29 687.49 90.36C689.93 93.43 691.14 96.98 691.14 101.02C691.14 104.43 690.37 107.55 688.82 110.33C687.27 113.13 685.06 115.53 682.16 117.56C679.29 119.59 675.88 121.15 671.91 122.26C667.98 123.37 663.59 123.93 658.82 123.93C654.49 123.93 650.33 123.48 646.39 122.57C642.46 121.67 638.99 120.42 636.03 118.87C633.08 117.31 630.69 115.48 628.91 113.42C627.13 111.37 626.24 109.22 626.24 106.98C626.24 105.94 626.5 104.95 626.96 104.04C627.45 103.14 628.11 102.32 628.94 101.62C629.77 100.92 630.75 100.35 631.87 99.95C632.99 99.52 634.16 99.32 635.4 99.32C637.27 99.32 638.99 99.61 640.6 100.2C642.21 100.79 644.1 101.85 646.31 103.38C648.89 105.26 651.27 106.63 653.48 107.47C655.69 108.31 657.96 108.74 660.25 108.74C663.26 108.74 665.76 108.02 667.77 106.59C669.75 105.17 670.76 103.36 670.76 101.19C670.76 99.38 669.93 97.87 668.29 96.65C666.65 95.43 664.01 94.39 660.37 93.56L651.59 91.57C644.85 90.03 639.8 88.32 636.44 86.44C633.77 85.04 631.73 83.14 630.33 80.75C628.92 78.33 628.21 75.6 628.21 72.53C628.21 69.46 628.96 66.77 630.48 64.26C631.97 61.75 634.1 59.58 636.79 57.78C639.49 55.97 642.76 54.55 646.55 53.53C650.37 52.51 654.53 52.02 659.03 52.02"
        fill="#2CA89A" />
    <path
        d="M552.88 10.06C552.44 7.74 551.21 6.01 548.57 4.63C544.33 2.37 538.95 3.49999 536.56 7.14999C532.25 13.74 535.65 24.41 539.04 35.07C551.05 32.55 563.05 30.06 567.36 23.47C569.75 19.85 568.21 15.07 563.97 12.81C561.11 11.31 558.75 11.25 556.05 12.24L555.52 12.47H555.43V12.53C553.29 13.49 550.75 15.81 545.62 23.53C548.17 17.08 550.74 12.53 552.91 10.12"
        fill="#2CA89A" />
    <path fill-rule="evenodd" clip-rule="evenodd"
        d="M562.2 0.529991C560 1.91999 557.33 5.64999 554.15 11.34C560.66 4.97999 563.3 3.59 564.77 2.46C565.93 1.55 564.14 1.64 563.73 1.24C563.2 0.729998 563.51 -0.320007 562.22 0.499993"
        fill="#2CA89A" />
</svg>
    